%TF.GenerationSoftware,Altium Limited,Altium Designer,23.4.1 (23)*%
G04 Layer_Color=0*
%FSLAX26Y26*%
%MOIN*%
%TF.SameCoordinates,99C6BA0F-0D9B-4297-A223-D59900673BD4*%
%TF.FilePolarity,Positive*%
%TF.FileFunction,Plated,1,4,PTH,Drill*%
%TF.Part,Single*%
G01*
G75*
%TA.AperFunction,ComponentDrill*%
%ADD71C,0.050000*%
%ADD72C,0.050000*%
%ADD73C,0.059055*%
%TA.AperFunction,OtherDrill,Pad Free-3 (6100mil,3900mil)*%
%ADD74C,0.160000*%
%TA.AperFunction,OtherDrill,Pad Free-3 (5600mil,7900mil)*%
%ADD75C,0.160000*%
%TA.AperFunction,OtherDrill,Pad Free-3 (4350mil,7900mil)*%
%ADD76C,0.160000*%
%TA.AperFunction,ComponentDrill*%
%ADD77C,0.040000*%
%ADD78C,0.259842*%
%ADD79C,0.033465*%
%ADD80O,0.023622X0.055118*%
%ADD81C,0.033465*%
%ADD82C,0.035433*%
%ADD83C,0.043307*%
%ADD84C,0.039370*%
%TA.AperFunction,ViaDrill,NotFilled*%
%ADD85C,0.028000*%
D71*
X4770000Y5965000D02*
D03*
X3935000Y5305000D02*
D03*
X4175000Y5445000D02*
D03*
X5455000Y3690000D02*
D03*
X4895000Y5905000D02*
D03*
X5805000Y4035000D02*
D03*
X4735000Y6375000D02*
D03*
X5755000Y3810000D02*
D03*
X5450000Y7710000D02*
D03*
X5790000Y6555000D02*
D03*
X5560000Y5845000D02*
D03*
X4995000Y6765000D02*
D03*
X5005000Y7530000D02*
D03*
X4985000Y7025000D02*
D03*
X4840000Y6665000D02*
D03*
D72*
X4915000Y6050000D02*
D03*
X4335000Y6375000D02*
D03*
X4605000Y5955000D02*
D03*
X4405000Y7540000D02*
D03*
X5610000Y5680000D02*
D03*
X3930000Y4895000D02*
D03*
X4515000Y7500000D02*
D03*
X4875000Y6865000D02*
D03*
X4720000Y7415000D02*
D03*
X5315000Y6490000D02*
D03*
X4270000Y7260000D02*
D03*
X5585000Y7160000D02*
D03*
X5637695Y6020000D02*
D03*
X4355000Y5525000D02*
D03*
D73*
X3880000Y6770000D02*
D03*
Y6170000D02*
D03*
Y6570000D02*
D03*
Y6370000D02*
D03*
X6000000D02*
D03*
Y6570000D02*
D03*
Y6770000D02*
D03*
Y6170000D02*
D03*
D74*
X6100000Y3900000D02*
D03*
D75*
X5600000Y7900000D02*
D03*
D76*
X4350000D02*
D03*
D77*
X4736221Y4755000D02*
D03*
X4836221D02*
D03*
X5236221D02*
D03*
X5536221D02*
D03*
X5636221D02*
D03*
X5736221D02*
D03*
X5836221D02*
D03*
X6036221Y5355000D02*
D03*
X5936221D02*
D03*
X5836221D02*
D03*
X5436221D02*
D03*
X5336221D02*
D03*
X5236221D02*
D03*
X5036221D02*
D03*
X4636221D02*
D03*
X4736221D02*
D03*
X5636221D02*
D03*
X5536221D02*
D03*
X4636221Y4755000D02*
D03*
X4836221Y5355000D02*
D03*
X4936221D02*
D03*
X5136221D02*
D03*
X4936221Y4755000D02*
D03*
X5036221D02*
D03*
X5336221D02*
D03*
X5436221D02*
D03*
X5136221D02*
D03*
X6036221D02*
D03*
X5936221D02*
D03*
X5736221Y5355000D02*
D03*
D78*
X3970000Y5745000D02*
D03*
Y7190000D02*
D03*
X5970000Y7740000D02*
D03*
X3970000Y7745000D02*
D03*
X5915000Y7190000D02*
D03*
X5920000Y5750000D02*
D03*
D79*
X4550000Y6585000D02*
D03*
X4650000Y6285000D02*
D03*
X4750000D02*
D03*
Y6585000D02*
D03*
X4550000Y6285000D02*
D03*
X4650000Y6585000D02*
D03*
X4220748Y4923425D02*
D03*
Y5123425D02*
D03*
X4905000Y7440000D02*
D03*
X4220748Y5223425D02*
D03*
Y5023425D02*
D03*
X4805000Y7140000D02*
D03*
X5005000Y7440000D02*
D03*
Y7140000D02*
D03*
X4805000Y7440000D02*
D03*
X4905000Y7140000D02*
D03*
D80*
X5776969Y4325000D02*
D03*
X5273031D02*
D03*
D81*
X5295000Y3801850D02*
D03*
X5495000D02*
D03*
X5395000D02*
D03*
X5595000D02*
D03*
D82*
X4640000Y5470000D02*
D03*
X5630000Y4635000D02*
D03*
X5530000D02*
D03*
X4540000Y5470000D02*
D03*
X5430000Y4635000D02*
D03*
X5330000D02*
D03*
X4840000Y5470000D02*
D03*
X4940000D02*
D03*
X4740000D02*
D03*
X5040000D02*
D03*
X5130000Y4635000D02*
D03*
X5230000D02*
D03*
D83*
X4623150Y3752598D02*
D03*
X4820000Y4540000D02*
D03*
X4032598D02*
D03*
X4229449Y3752598D02*
D03*
D84*
X5150000Y6870000D02*
D03*
X5160000Y6030000D02*
D03*
X5150000Y6770000D02*
D03*
X5160000Y5930000D02*
D03*
X5150000Y6970000D02*
D03*
X5160000Y6130000D02*
D03*
D85*
X4225000Y6240000D02*
D03*
X5325355Y5519645D02*
D03*
X5740000Y5460000D02*
D03*
X4340000Y6270000D02*
D03*
X5510000Y4390000D02*
D03*
X5155000Y7350000D02*
D03*
X3980000Y6055000D02*
D03*
X4455000Y5620000D02*
D03*
X4470000Y5820000D02*
D03*
X5350000Y6320000D02*
D03*
X4468849Y6457288D02*
D03*
X4280000Y5790000D02*
D03*
X5745000Y4575000D02*
D03*
X5405000Y4045000D02*
D03*
X5215000Y4280000D02*
D03*
X5245000Y7030000D02*
D03*
X5505000Y7065000D02*
D03*
X4976075Y6403925D02*
D03*
X5345000Y6235000D02*
D03*
X5520000Y6135000D02*
D03*
X5240000Y4110000D02*
D03*
X4330000Y7330000D02*
D03*
X4470000Y7255000D02*
D03*
X4480000Y7345000D02*
D03*
X4540000Y7395000D02*
D03*
X4110000Y6230000D02*
D03*
X4930000Y6325000D02*
D03*
X4260000Y5609261D02*
D03*
X5265000Y4560000D02*
D03*
X5494557Y4568065D02*
D03*
X5479227Y6903154D02*
D03*
X5345000Y7370000D02*
D03*
X5145000Y7165000D02*
D03*
X5360000Y6020000D02*
D03*
%TF.MD5,bf6803ad004a64ae5ca75e4e9fd65048*%
M02*
