%TF.GenerationSoftware,Altium Limited,Altium Designer,23.4.1 (23)*%
G04 Layer_Color=65535*
%FSLAX26Y26*%
%MOIN*%
%TF.SameCoordinates,99C6BA0F-0D9B-4297-A223-D59900673BD4*%
%TF.FilePolarity,Positive*%
%TF.FileFunction,Legend,Top*%
%TF.Part,Single*%
G01*
G75*
%TA.AperFunction,NonConductor*%
%ADD42C,0.007874*%
%ADD43C,0.005906*%
%ADD44C,0.009842*%
%ADD45C,0.005000*%
%ADD46C,0.010000*%
G36*
X4555671Y7829732D02*
Y7830453D01*
X4557114D01*
Y7831175D01*
X4557836D01*
Y7832618D01*
X4558557D01*
Y7833339D01*
X4559279D01*
Y7834782D01*
X4560000D01*
Y7836947D01*
X4560721D01*
Y7997836D01*
X4560000D01*
Y8000000D01*
X4559279D01*
Y8001443D01*
X4558557D01*
Y8002164D01*
X4557836D01*
Y8003607D01*
X4557114D01*
Y8004329D01*
X4555671D01*
Y8005050D01*
X4554950D01*
Y8005772D01*
X4553507D01*
Y8006493D01*
X4551342D01*
Y8007215D01*
X4509497D01*
Y8071426D01*
X4715117D01*
Y8007215D01*
X4673271D01*
Y8006493D01*
X4671107D01*
Y8005772D01*
X4670386D01*
Y8005050D01*
X4668943D01*
Y8004329D01*
X4668221D01*
Y8003607D01*
X4667500D01*
Y8002886D01*
X4666778D01*
Y8002164D01*
X4666057D01*
Y8000721D01*
X4665335D01*
Y7999279D01*
X4664614D01*
Y7997114D01*
X4663892D01*
Y7837668D01*
X4664614D01*
Y7835504D01*
X4665335D01*
Y7834061D01*
X4666057D01*
Y7832618D01*
X4666778D01*
Y7831896D01*
X4667500D01*
Y7831175D01*
X4668221D01*
Y7830453D01*
X4668943D01*
Y7829732D01*
X4670386D01*
Y7829010D01*
X4671829D01*
Y7828289D01*
X4673271D01*
Y7827568D01*
X4715117D01*
Y7763356D01*
X4509497D01*
Y7827568D01*
X4551342D01*
Y7828289D01*
X4553507D01*
Y7829010D01*
X4554950D01*
Y7829732D01*
X4555671D01*
D02*
G37*
D42*
X3979331Y6167480D02*
G03*
X3979331Y6167480I-3937J0D01*
G01*
X4640158Y4680984D02*
G03*
X4640158Y4680984I-3937J0D01*
G01*
X6099331Y6167480D02*
G03*
X6099331Y6167480I-3937J0D01*
G01*
X5283543Y5986177D02*
Y6047518D01*
X5476457D01*
Y5986177D02*
Y6047518D01*
X5283543Y5986177D02*
X5476457D01*
X4829567Y6253032D02*
Y6256969D01*
X4506299Y6523583D02*
X4793701D01*
X4506299Y6346417D02*
Y6523583D01*
Y6346417D02*
X4793701D01*
Y6409691D01*
X4774016D02*
X4793701D01*
X4774016D02*
Y6460309D01*
X4793701D01*
Y6523583D01*
X5332008Y3683032D02*
Y3686969D01*
X5330787Y3713032D02*
Y3716968D01*
X4761299Y7378583D02*
X5048701D01*
X4761299Y7201417D02*
Y7378583D01*
Y7201417D02*
X5048701D01*
Y7264691D01*
X5029016D02*
X5048701D01*
X5029016D02*
Y7315309D01*
X5048701D01*
Y7378583D01*
X4348032Y5178346D02*
X4351968D01*
X4309882Y5175787D02*
X4313819D01*
X4023898Y4838779D02*
X4279803D01*
Y5311221D01*
X4023898D02*
X4279803D01*
X4023898Y4838779D02*
Y5311221D01*
X5680000Y4585000D02*
Y4685000D01*
X5080000Y4585000D02*
Y4685000D01*
X5680000D01*
X5080000Y4585000D02*
X5680000D01*
X5328307Y4160394D02*
X5334803D01*
X5735197D02*
X5741693D01*
Y4459606D01*
X5328307D02*
X5334803D01*
X5735197D02*
X5741693D01*
X5328307Y4160394D02*
Y4459606D01*
X5298032Y4144213D02*
X5301968D01*
X5379213Y4558032D02*
Y4561968D01*
X5534567Y5458032D02*
Y5461969D01*
X5367008Y5523032D02*
Y5526969D01*
X5466654Y5438032D02*
Y5441969D01*
X5680433Y5458031D02*
Y5461968D01*
X4490000Y5420000D02*
Y5520000D01*
X5090000Y5420000D02*
Y5520000D01*
X4490000Y5420000D02*
X5090000D01*
X4490000Y5520000D02*
X5090000D01*
X5509567Y3678032D02*
Y3681969D01*
X5309213Y6358032D02*
Y6361968D01*
X5047795Y6240630D02*
X5232835D01*
X5047795Y5819370D02*
X5232835D01*
Y6240630D01*
X5047795Y5819370D02*
Y6240630D01*
X5067480Y5819370D02*
Y6240630D01*
X5505433Y6228031D02*
Y6231968D01*
X5495433Y6188031D02*
Y6191968D01*
X5321654Y6193032D02*
Y6196968D01*
X5374567Y6358032D02*
Y6361969D01*
X5135551Y6261378D02*
Y6383425D01*
X5096181Y6261378D02*
Y6383425D01*
Y6261378D02*
X5135551D01*
X5096181Y6383425D02*
X5135551D01*
X4993032Y6339213D02*
X4996968D01*
X5416654Y6193032D02*
Y6196968D01*
X5210354Y3742795D02*
Y3998701D01*
Y3742795D02*
X5682795D01*
Y3998701D01*
X5210354D02*
X5682795D01*
X5510787Y3709882D02*
Y3713819D01*
X5393346Y4558032D02*
Y4561968D01*
X5037795Y7080630D02*
X5222835D01*
X5037795Y6659370D02*
X5222835D01*
Y7080630D01*
X5037795Y6659370D02*
Y7080630D01*
X5057480Y6659370D02*
Y7080630D01*
X5191575Y7334449D02*
X5313622D01*
X5191575Y7373819D02*
X5313622D01*
X5191575Y7334449D02*
Y7373819D01*
X5313622Y7334449D02*
Y7373819D01*
X5341654Y7223032D02*
Y7226968D01*
X5340433Y7458031D02*
Y7461968D01*
X5090787Y7113032D02*
Y7116968D01*
X5193032Y7093346D02*
X5196968D01*
X5245787Y7058032D02*
Y7061968D01*
X5273543Y6842085D02*
X5466457D01*
Y6903427D01*
X5273543D02*
X5466457D01*
X5273543Y6842085D02*
Y6903427D01*
X5394213Y7058032D02*
Y7061968D01*
X5470433Y7083031D02*
Y7086968D01*
Y7043031D02*
Y7046968D01*
D43*
X4230000Y5745000D02*
G03*
X4230000Y5745000I-260000J0D01*
G01*
Y7190000D02*
G03*
X4230000Y7190000I-260000J0D01*
G01*
Y7745000D02*
G03*
X4230000Y7745000I-260000J0D01*
G01*
X6180000Y5750000D02*
G03*
X6180000Y5750000I-260000J0D01*
G01*
X6230000Y7745000D02*
G03*
X6230000Y7745000I-260000J0D01*
G01*
X6175000Y7185000D02*
G03*
X6175000Y7185000I-260000J0D01*
G01*
X3726457Y6030630D02*
X4065040D01*
X3726457Y6909371D02*
X4065040D01*
Y6030630D02*
Y6909371D01*
X3726457Y6030630D02*
Y6909371D01*
X5846457Y6030630D02*
Y6909371D01*
X6185040Y6030630D02*
Y6909371D01*
X5846457D02*
X6185040D01*
X5846457Y6030630D02*
X6185040D01*
D44*
X5309921Y5857399D02*
G03*
X5309921Y5857399I-4921J0D01*
G01*
X4754921Y6635197D02*
G03*
X4754921Y6635197I-4921J0D01*
G01*
X5009921Y7490197D02*
G03*
X5009921Y7490197I-4921J0D01*
G01*
X4225669Y4815158D02*
G03*
X4225669Y4815158I-4921J0D01*
G01*
X5354488Y4065905D02*
G03*
X5354488Y4065905I-4921J0D01*
G01*
X5212165Y5844961D02*
G03*
X5212165Y5844961I-4921J0D01*
G01*
X5066654Y6393268D02*
G03*
X5066654Y6393268I-4921J0D01*
G01*
X5191654Y3801850D02*
G03*
X5191654Y3801850I-4921J0D01*
G01*
X5202165Y6684961D02*
G03*
X5202165Y6684961I-4921J0D01*
G01*
X5328386Y7408268D02*
G03*
X5328386Y7408268I-4921J0D01*
G01*
X5299921Y6713307D02*
G03*
X5299921Y6713307I-4921J0D01*
G01*
D45*
X4486221Y4705197D02*
X6186221D01*
Y5404803D01*
X4486221D02*
X6186221D01*
X4486221Y5228228D02*
Y5404803D01*
Y4881772D02*
Y5228228D01*
Y4705197D02*
Y4881772D01*
X4407480Y5228228D02*
X4486221D01*
X4407480Y4881772D02*
Y5228228D01*
Y4881772D02*
X4486221D01*
X3802284Y3620709D02*
Y4671890D01*
Y3620709D02*
X5050315D01*
Y4671890D01*
X3802284D02*
X5050315D01*
D46*
X4740000Y7769993D02*
Y7829974D01*
X4769990D01*
X4779987Y7819977D01*
Y7799984D01*
X4769990Y7789987D01*
X4740000D01*
X4799981Y7829974D02*
Y7769993D01*
Y7799984D01*
X4809977Y7809981D01*
X4829971D01*
X4839968Y7799984D01*
Y7769993D01*
X4859961D02*
X4879955D01*
X4869958D01*
Y7809981D01*
X4859961D01*
X4909945Y7769993D02*
X4929939D01*
X4919942D01*
Y7829974D01*
X4909945D01*
X4959929Y7769993D02*
X4979922D01*
X4969926D01*
Y7809981D01*
X4959929D01*
X5009913Y7750000D02*
Y7809981D01*
X5039903D01*
X5049900Y7799984D01*
Y7779990D01*
X5039903Y7769993D01*
X5009913D01*
X5129874Y7829974D02*
Y7769993D01*
Y7789987D01*
X5169861Y7829974D01*
X5139871Y7799984D01*
X5169861Y7769993D01*
X5189854Y7809981D02*
Y7769993D01*
Y7789987D01*
X5199851Y7799984D01*
X5209848Y7809981D01*
X5219845D01*
X5249835Y7769993D02*
X5269828D01*
X5259832D01*
Y7809981D01*
X5249835D01*
X5329809Y7769993D02*
X5309816D01*
X5299819Y7779990D01*
Y7799984D01*
X5309816Y7809981D01*
X5329809D01*
X5339806Y7799984D01*
Y7789987D01*
X5299819D01*
X5359799Y7769993D02*
Y7809981D01*
X5389790D01*
X5399787Y7799984D01*
Y7769993D01*
X4425065Y6035000D02*
X4465052D01*
X4445058Y6054993D02*
Y6015007D01*
X4525032Y6064990D02*
X4485045D01*
Y6035000D01*
X4505039Y6044997D01*
X4515036D01*
X4525032Y6035000D01*
Y6015007D01*
X4515036Y6005010D01*
X4495042D01*
X4485045Y6015007D01*
X4545026Y6064990D02*
Y6025003D01*
X4565019Y6005010D01*
X4585013Y6025003D01*
Y6064990D01*
X4605007D02*
Y6005010D01*
X4644994D01*
X4664987Y6064990D02*
Y6005010D01*
X4694977D01*
X4704974Y6015007D01*
Y6054993D01*
X4694977Y6064990D01*
X4664987D01*
X4754958D02*
X4734965D01*
X4724968Y6054993D01*
Y6015007D01*
X4734965Y6005010D01*
X4754958D01*
X4764955Y6015007D01*
Y6054993D01*
X4754958Y6064990D01*
X4784948Y6054993D02*
X4794945Y6064990D01*
X4814939D01*
X4824935Y6054993D01*
Y6044997D01*
X4814939Y6035000D01*
X4804942D01*
X4814939D01*
X4824935Y6025003D01*
Y6015007D01*
X4814939Y6005010D01*
X4794945D01*
X4784948Y6015007D01*
X4135003Y6579990D02*
X4115010D01*
X4125007D01*
Y6530007D01*
X4115010Y6520010D01*
X4105013D01*
X4095016Y6530007D01*
X4154997Y6569993D02*
X4164994Y6579990D01*
X4184987D01*
X4194984Y6569993D01*
Y6559997D01*
X4184987Y6550000D01*
X4174990D01*
X4184987D01*
X4194984Y6540003D01*
Y6530007D01*
X4184987Y6520010D01*
X4164994D01*
X4154997Y6530007D01*
X4256674Y6006752D02*
X4296661D01*
X4276668D01*
Y6033410D01*
X4256674D01*
X4296661D01*
X4256674Y6066732D02*
Y6053403D01*
X4263338Y6046739D01*
X4289997D01*
X4296661Y6053403D01*
Y6066732D01*
X4289997Y6073397D01*
X4263338D01*
X4256674Y6066732D01*
Y6086726D02*
Y6113384D01*
Y6100055D01*
X4296661D01*
X4303326Y6126713D02*
Y6153371D01*
X4270003Y6173364D02*
Y6186694D01*
X4276668Y6193358D01*
X4296661D01*
Y6173364D01*
X4289997Y6166700D01*
X4283332Y6173364D01*
Y6193358D01*
X4296661Y6213352D02*
X4263338D01*
X4276668D01*
Y6206687D01*
Y6220016D01*
Y6213352D01*
X4263338D01*
X4256674Y6220016D01*
X4263338Y6246674D02*
X4270003D01*
Y6240010D01*
Y6253339D01*
Y6246674D01*
X4289997D01*
X4296661Y6253339D01*
Y6293326D02*
Y6279997D01*
X4289997Y6273332D01*
X4276668D01*
X4270003Y6279997D01*
Y6293326D01*
X4276668Y6299990D01*
X4283332D01*
Y6273332D01*
X4270003Y6313319D02*
X4296661D01*
X4283332D01*
X4276668Y6319984D01*
X4270003Y6326648D01*
Y6333313D01*
X4256674Y6353306D02*
Y6379965D01*
Y6366636D01*
X4296661D01*
Y6393294D02*
X4256674D01*
Y6413287D01*
X4263338Y6419952D01*
X4276668D01*
X4283332Y6413287D01*
Y6393294D01*
Y6406623D02*
X4296661Y6419952D01*
X4256674Y6433281D02*
Y6446610D01*
Y6439945D01*
X4296661D01*
Y6433281D01*
Y6446610D01*
Y6466603D02*
X4270003D01*
X4256674Y6479932D01*
X4270003Y6493261D01*
X4296661D01*
X4276668D01*
Y6466603D01*
X4263338Y6533248D02*
X4256674Y6526584D01*
Y6513255D01*
X4263338Y6506590D01*
X4289997D01*
X4296661Y6513255D01*
Y6526584D01*
X4289997Y6533248D01*
X4915000Y7965000D02*
Y8024981D01*
X4944990D01*
X4954987Y8014984D01*
Y7994990D01*
X4944990Y7984993D01*
X4915000D01*
X4934993D02*
X4954987Y7965000D01*
X5014968Y8024981D02*
X4974981D01*
Y7965000D01*
X5014968D01*
X4974981Y7994990D02*
X4994974D01*
X5034961Y8024981D02*
Y7984993D01*
X5054955Y7965000D01*
X5074948Y7984993D01*
Y8024981D01*
X5154922Y7965000D02*
X5174916D01*
X5164919D01*
Y8024981D01*
X5154922Y8014984D01*
X4745000Y7869993D02*
Y7929974D01*
X4774990D01*
X4784987Y7919977D01*
Y7899984D01*
X4774990Y7889987D01*
X4745000D01*
X4764993D02*
X4784987Y7869993D01*
X4814977Y7909981D02*
X4834971D01*
X4844968Y7899984D01*
Y7869993D01*
X4814977D01*
X4804981Y7879990D01*
X4814977Y7889987D01*
X4844968D01*
X4864961Y7909981D02*
Y7879990D01*
X4874958Y7869993D01*
X4904948D01*
Y7859997D01*
X4894952Y7850000D01*
X4884955D01*
X4904948Y7869993D02*
Y7909981D01*
X4934939D02*
X4954932D01*
X4964929Y7899984D01*
Y7869993D01*
X4934939D01*
X4924942Y7879990D01*
X4934939Y7889987D01*
X4964929D01*
X5044903Y7869993D02*
Y7929974D01*
X5064896Y7909981D01*
X5084890Y7929974D01*
Y7869993D01*
X5114880Y7909981D02*
X5134874D01*
X5144871Y7899984D01*
Y7869993D01*
X5114880D01*
X5104884Y7879990D01*
X5114880Y7889987D01*
X5144871D01*
X5164864Y7929974D02*
Y7869993D01*
Y7899984D01*
X5174861Y7909981D01*
X5194855D01*
X5204851Y7899984D01*
Y7869993D01*
X5234842D02*
X5254835D01*
X5264832Y7879990D01*
Y7899984D01*
X5254835Y7909981D01*
X5234842D01*
X5224845Y7899984D01*
Y7879990D01*
X5234842Y7869993D01*
X5284825D02*
Y7909981D01*
X5314816D01*
X5324812Y7899984D01*
Y7869993D01*
X5344806Y7909981D02*
Y7879990D01*
X5354803Y7869993D01*
X5384793D01*
Y7859997D01*
X5374796Y7850000D01*
X5364800D01*
X5384793Y7869993D02*
Y7909981D01*
X3775053Y5459989D02*
Y5400008D01*
Y5429998D01*
X3815041D01*
Y5459989D01*
Y5400008D01*
X3835034Y5390011D02*
X3875021D01*
X3935002Y5449992D02*
X3925005Y5459989D01*
X3905011D01*
X3895015Y5449992D01*
Y5410005D01*
X3905011Y5400008D01*
X3925005D01*
X3935002Y5410005D01*
Y5429998D01*
X3915008D01*
X3954995Y5439995D02*
Y5400008D01*
Y5420002D01*
X3964992Y5429998D01*
X3974989Y5439995D01*
X3984985D01*
X4014976Y5400008D02*
X4034969D01*
X4024973D01*
Y5439995D01*
X4014976D01*
X4104947Y5459989D02*
Y5400008D01*
X4074956D01*
X4064960Y5410005D01*
Y5429998D01*
X4074956Y5439995D01*
X4104947D01*
X4578374Y5895000D02*
X4605032D01*
X4591703Y5908329D02*
Y5881671D01*
X4645019Y5914994D02*
X4618361D01*
Y5895000D01*
X4631690Y5901664D01*
X4638355D01*
X4645019Y5895000D01*
Y5881671D01*
X4638355Y5875007D01*
X4625026D01*
X4618361Y5881671D01*
X4658348Y5914994D02*
Y5888336D01*
X4671677Y5875007D01*
X4685006Y5888336D01*
Y5914994D01*
X4698336D02*
Y5875007D01*
X4724993D01*
X4738323Y5914994D02*
Y5875007D01*
X4758316D01*
X4764981Y5881671D01*
Y5908329D01*
X4758316Y5914994D01*
X4738323D01*
X4798303D02*
X4784974D01*
X4778310Y5908329D01*
Y5881671D01*
X4784974Y5875007D01*
X4798303D01*
X4804968Y5881671D01*
Y5908329D01*
X4798303Y5914994D01*
X4818297Y5875007D02*
X4831626D01*
X4824961D01*
Y5914994D01*
X4818297Y5908329D01*
X3855023Y4700010D02*
Y4759990D01*
X3885013D01*
X3895010Y4749993D01*
Y4730000D01*
X3885013Y4720003D01*
X3855023D01*
X3954990Y4749993D02*
X3944994Y4759990D01*
X3925000D01*
X3915003Y4749993D01*
Y4739997D01*
X3925000Y4730000D01*
X3944994D01*
X3954990Y4720003D01*
Y4710007D01*
X3944994Y4700010D01*
X3925000D01*
X3915003Y4710007D01*
X3974984Y4700010D02*
X3994977D01*
X3984981D01*
Y4759990D01*
X3974984Y4749993D01*
X5770010Y6400003D02*
Y6380010D01*
Y6390007D01*
X5819993D01*
X5829990Y6380010D01*
Y6370013D01*
X5819993Y6360016D01*
X5829990Y6449987D02*
X5770010D01*
X5800000Y6419997D01*
Y6459984D01*
X4610032Y7519993D02*
X4600036Y7529990D01*
X4580042D01*
X4570045Y7519993D01*
Y7509997D01*
X4580042Y7500000D01*
X4600036D01*
X4610032Y7490003D01*
Y7480007D01*
X4600036Y7470010D01*
X4580042D01*
X4570045Y7480007D01*
X4670013Y7519993D02*
X4660016Y7529990D01*
X4640023D01*
X4630026Y7519993D01*
Y7480007D01*
X4640023Y7470010D01*
X4660016D01*
X4670013Y7480007D01*
Y7500000D01*
X4650019D01*
X4690007Y7470010D02*
Y7529990D01*
X4729994Y7470010D01*
Y7529990D01*
X4749987D02*
Y7470010D01*
X4779977D01*
X4789974Y7480007D01*
Y7519993D01*
X4779977Y7529990D01*
X4749987D01*
X4809968Y7519993D02*
X4819965Y7529990D01*
X4839958D01*
X4849955Y7519993D01*
Y7509997D01*
X4839958Y7500000D01*
X4829961D01*
X4839958D01*
X4849955Y7490003D01*
Y7480007D01*
X4839958Y7470010D01*
X4819965D01*
X4809968Y7480007D01*
X5330032Y5709993D02*
X5320036Y5719990D01*
X5300042D01*
X5290045Y5709993D01*
Y5699997D01*
X5300042Y5690000D01*
X5320036D01*
X5330032Y5680003D01*
Y5670007D01*
X5320036Y5660010D01*
X5300042D01*
X5290045Y5670007D01*
X5390013Y5709993D02*
X5380016Y5719990D01*
X5360023D01*
X5350026Y5709993D01*
Y5670007D01*
X5360023Y5660010D01*
X5380016D01*
X5390013Y5670007D01*
Y5690000D01*
X5370019D01*
X5410007Y5660010D02*
Y5719990D01*
X5449994Y5660010D01*
Y5719990D01*
X5469987D02*
Y5660010D01*
X5499977D01*
X5509974Y5670007D01*
Y5709993D01*
X5499977Y5719990D01*
X5469987D01*
X5569955Y5660010D02*
X5529968D01*
X5569955Y5699997D01*
Y5709993D01*
X5559958Y5719990D01*
X5539965D01*
X5529968Y5709993D01*
X3910006Y4995029D02*
X3900010Y4985032D01*
Y4965039D01*
X3910006Y4955042D01*
X3920003D01*
X3930000Y4965039D01*
Y4985032D01*
X3939997Y4995029D01*
X3949993D01*
X3959990Y4985032D01*
Y4965039D01*
X3949993Y4955042D01*
X3910006Y5055010D02*
X3900010Y5045013D01*
Y5025019D01*
X3910006Y5015023D01*
X3949993D01*
X3959990Y5025019D01*
Y5045013D01*
X3949993Y5055010D01*
X3930000D01*
Y5035016D01*
X3959990Y5075003D02*
X3900010D01*
X3959990Y5114990D01*
X3900010D01*
Y5134984D02*
X3959990D01*
Y5164974D01*
X3949993Y5174971D01*
X3910006D01*
X3900010Y5164974D01*
Y5134984D01*
X3959990Y5194964D02*
Y5214958D01*
Y5204961D01*
X3900010D01*
X3910006Y5194964D01*
X5908172Y4054994D02*
X5898176Y4064990D01*
X5878182D01*
X5868185Y4054994D01*
Y4044997D01*
X5878182Y4035000D01*
X5898176D01*
X5908172Y4025003D01*
Y4015006D01*
X5898176Y4005010D01*
X5878182D01*
X5868185Y4015006D01*
X5968153Y4054994D02*
X5958156Y4064990D01*
X5938163D01*
X5928166Y4054994D01*
Y4015006D01*
X5938163Y4005010D01*
X5958156D01*
X5968153Y4015006D01*
Y4035000D01*
X5948159D01*
X5988146Y4005010D02*
Y4064990D01*
X6028134Y4005010D01*
Y4064990D01*
X6048127D02*
Y4005010D01*
X6078117D01*
X6088114Y4015006D01*
Y4054994D01*
X6078117Y4064990D01*
X6048127D01*
X5345016Y7359990D02*
Y7310007D01*
X5355013Y7300010D01*
X5375007D01*
X5385003Y7310007D01*
Y7359990D01*
X5404997Y7349993D02*
X5414994Y7359990D01*
X5434987D01*
X5444984Y7349993D01*
Y7339997D01*
X5434987Y7330000D01*
X5424990D01*
X5434987D01*
X5444984Y7320003D01*
Y7310007D01*
X5434987Y7300010D01*
X5414994D01*
X5404997Y7310007D01*
X4179976Y4755010D02*
Y4804993D01*
X4169979Y4814990D01*
X4149985D01*
X4139989Y4804993D01*
Y4755010D01*
X4119995Y4814990D02*
X4100002D01*
X4109998D01*
Y4755010D01*
X4119995Y4765006D01*
X4070011D02*
X4060015Y4755010D01*
X4040021D01*
X4030024Y4765006D01*
Y4804993D01*
X4040021Y4814990D01*
X4060015D01*
X4070011Y4804993D01*
Y4765006D01*
X5834990Y4224984D02*
X5785007D01*
X5775010Y4214987D01*
Y4194993D01*
X5785007Y4184997D01*
X5834990D01*
X5785007Y4165003D02*
X5775010Y4155006D01*
Y4135013D01*
X5785007Y4125016D01*
X5824993D01*
X5834990Y4135013D01*
Y4155006D01*
X5824993Y4165003D01*
X5814997D01*
X5805000Y4155006D01*
Y4125016D01*
X5095010Y3855016D02*
X5144993D01*
X5154990Y3865013D01*
Y3885006D01*
X5144993Y3895003D01*
X5095010D01*
Y3914997D02*
Y3954984D01*
X5105007D01*
X5144993Y3914997D01*
X5154990D01*
X4410010Y4740016D02*
X4459993D01*
X4469990Y4750013D01*
Y4770007D01*
X4459993Y4780003D01*
X4410010D01*
Y4839984D02*
Y4799997D01*
X4440000D01*
X4430003Y4819990D01*
Y4829987D01*
X4440000Y4839984D01*
X4459993D01*
X4469990Y4829987D01*
Y4809994D01*
X4459993Y4799997D01*
X5579990Y6924984D02*
X5530007D01*
X5520010Y6914987D01*
Y6894993D01*
X5530007Y6884997D01*
X5579990D01*
X5520010Y6835013D02*
X5579990D01*
X5550000Y6865003D01*
Y6825016D01*
X5400016Y5849990D02*
Y5800007D01*
X5410013Y5790010D01*
X5430007D01*
X5440003Y5800007D01*
Y5849990D01*
X5499984Y5790010D02*
X5459997D01*
X5499984Y5829997D01*
Y5839993D01*
X5489987Y5849990D01*
X5469994D01*
X5459997Y5839993D01*
X5120013Y6469990D02*
Y6420007D01*
X5130010Y6410010D01*
X5150003D01*
X5160000Y6420007D01*
Y6469990D01*
X5179994Y6410010D02*
X5199987D01*
X5189990D01*
Y6469990D01*
X5179994Y6459993D01*
X4664590Y6309225D02*
Y6332551D01*
Y6320888D01*
X4699578D01*
Y6344214D02*
X4664590D01*
Y6361708D01*
X4670421Y6367540D01*
X4682084D01*
X4687916Y6361708D01*
Y6344214D01*
Y6355877D02*
X4699578Y6367540D01*
X4664590Y6379203D02*
Y6390865D01*
Y6385034D01*
X4699578D01*
Y6379203D01*
Y6390865D01*
Y6408360D02*
X4676253D01*
X4664590Y6420023D01*
X4676253Y6431686D01*
X4699578D01*
X4682084D01*
Y6408360D01*
X4670421Y6466674D02*
X4664590Y6460843D01*
Y6449180D01*
X4670421Y6443349D01*
X4693747D01*
X4699578Y6449180D01*
Y6460843D01*
X4693747Y6466674D01*
X4705410Y6478337D02*
Y6501663D01*
X4664590Y6536652D02*
X4699578D01*
Y6519157D01*
X4693747Y6513326D01*
X4682084D01*
X4676253Y6519157D01*
Y6536652D01*
Y6548315D02*
X4699578D01*
X4687916D01*
X4682084Y6554146D01*
X4676253Y6559977D01*
Y6565809D01*
X4699578Y6583303D02*
Y6594966D01*
Y6589135D01*
X4676253D01*
Y6583303D01*
Y6612461D02*
X4699578Y6624123D01*
X4676253Y6635786D01*
X4699578Y6664944D02*
Y6653281D01*
X4693747Y6647449D01*
X4682084D01*
X4676253Y6653281D01*
Y6664944D01*
X4682084Y6670775D01*
X4687916D01*
Y6647449D01*
X4565120Y7629989D02*
X4605107D01*
X4585113D01*
Y7570008D01*
X4625100D02*
Y7629989D01*
X4655091D01*
X4665087Y7619992D01*
Y7599998D01*
X4655091Y7590002D01*
X4625100D01*
X4645094D02*
X4665087Y7570008D01*
X4685081Y7629989D02*
X4705074D01*
X4695078D01*
Y7570008D01*
X4685081D01*
X4705074D01*
X4735065D02*
Y7609995D01*
X4755058Y7629989D01*
X4775052Y7609995D01*
Y7570008D01*
Y7599998D01*
X4735065D01*
X4835032Y7619992D02*
X4825036Y7629989D01*
X4805042D01*
X4795045Y7619992D01*
Y7580005D01*
X4805042Y7570008D01*
X4825036D01*
X4835032Y7580005D01*
X4855026Y7560011D02*
X4895013D01*
X4954994Y7629989D02*
Y7570008D01*
X4925003D01*
X4915007Y7580005D01*
Y7599998D01*
X4925003Y7609995D01*
X4954994D01*
X4974987D02*
Y7570008D01*
Y7590002D01*
X4984984Y7599998D01*
X4994981Y7609995D01*
X5004977D01*
X5034968Y7570008D02*
X5054961D01*
X5044965D01*
Y7609995D01*
X5034968D01*
X5084952D02*
X5104945Y7570008D01*
X5124939Y7609995D01*
X5174922Y7570008D02*
X5154929D01*
X5144932Y7580005D01*
Y7599998D01*
X5154929Y7609995D01*
X5174922D01*
X5184919Y7599998D01*
Y7590002D01*
X5144932D01*
X5204913Y7609995D02*
Y7570008D01*
Y7590002D01*
X5214909Y7599998D01*
X5224906Y7609995D01*
X5234903D01*
X5264893Y7570008D02*
Y7629989D01*
X5304880Y7570008D01*
Y7629989D01*
X4085948Y6694157D02*
X4119271D01*
X4102609D01*
Y6644173D01*
X4135932D02*
Y6694157D01*
X4160924D01*
X4169254Y6685827D01*
Y6669165D01*
X4160924Y6660835D01*
X4135932D01*
X4152593D02*
X4169254Y6644173D01*
X4185916Y6694157D02*
X4202577D01*
X4194246D01*
Y6644173D01*
X4185916D01*
X4202577D01*
X4227569D02*
Y6677496D01*
X4244230Y6694157D01*
X4260891Y6677496D01*
Y6644173D01*
Y6669165D01*
X4227569D01*
X4310875Y6685827D02*
X4302544Y6694157D01*
X4285883D01*
X4277553Y6685827D01*
Y6652504D01*
X4285883Y6644173D01*
X4302544D01*
X4310875Y6652504D01*
X4327536Y6635843D02*
X4360859D01*
X4410843Y6694157D02*
Y6644173D01*
X4385851D01*
X4377520Y6652504D01*
Y6669165D01*
X4385851Y6677496D01*
X4410843D01*
X4427504D02*
Y6644173D01*
Y6660835D01*
X4435835Y6669165D01*
X4444165Y6677496D01*
X4452496D01*
X4477488Y6644173D02*
X4494149D01*
X4485818D01*
Y6677496D01*
X4477488D01*
X4519141D02*
X4535802Y6644173D01*
X4552464Y6677496D01*
X4594117Y6644173D02*
X4577455D01*
X4569125Y6652504D01*
Y6669165D01*
X4577455Y6677496D01*
X4594117D01*
X4602447Y6669165D01*
Y6660835D01*
X4569125D01*
X4619109Y6677496D02*
Y6644173D01*
Y6660835D01*
X4627439Y6669165D01*
X4635770Y6677496D01*
X4644100D01*
X4669092Y6635843D02*
X4702415D01*
X4719076Y6694157D02*
X4735738D01*
X4727407D01*
Y6644173D01*
X4719076D01*
X4735738D01*
X4760729D02*
Y6694157D01*
X4794052Y6644173D01*
Y6694157D01*
X4260110Y7084989D02*
X4300097D01*
X4280104D01*
Y7025008D01*
X4320091D02*
Y7084989D01*
X4350081D01*
X4360078Y7074992D01*
Y7054998D01*
X4350081Y7045002D01*
X4320091D01*
X4340084D02*
X4360078Y7025008D01*
X4380071Y7084989D02*
X4400065D01*
X4390068D01*
Y7025008D01*
X4380071D01*
X4400065D01*
X4430055D02*
Y7064995D01*
X4450048Y7084989D01*
X4470042Y7064995D01*
Y7025008D01*
Y7054998D01*
X4430055D01*
X4530023Y7074992D02*
X4520026Y7084989D01*
X4500032D01*
X4490036Y7074992D01*
Y7035005D01*
X4500032Y7025008D01*
X4520026D01*
X4530023Y7035005D01*
X4550016Y7015011D02*
X4590003D01*
X4649984Y7084989D02*
Y7025008D01*
X4619994D01*
X4609997Y7035005D01*
Y7054998D01*
X4619994Y7064995D01*
X4649984D01*
X4669977D02*
Y7025008D01*
Y7045002D01*
X4679974Y7054998D01*
X4689971Y7064995D01*
X4699968D01*
X4729958Y7025008D02*
X4749952D01*
X4739955D01*
Y7064995D01*
X4729958D01*
X4779942D02*
X4799935Y7025008D01*
X4819929Y7064995D01*
X4869913Y7025008D02*
X4849919D01*
X4839922Y7035005D01*
Y7054998D01*
X4849919Y7064995D01*
X4869913D01*
X4879909Y7054998D01*
Y7045002D01*
X4839922D01*
X4899903Y7025008D02*
Y7084989D01*
X4939890Y7025008D01*
Y7084989D01*
X5304974Y4449990D02*
Y4390010D01*
X5274984D01*
X5264987Y4400006D01*
Y4420000D01*
X5274984Y4429997D01*
X5304974D01*
X5284981D02*
X5264987Y4449990D01*
X5244993Y4400006D02*
X5234997Y4390010D01*
X5215003D01*
X5205006Y4400006D01*
Y4410003D01*
X5215003Y4420000D01*
X5225000D01*
X5215003D01*
X5205006Y4429997D01*
Y4439993D01*
X5215003Y4449990D01*
X5234997D01*
X5244993Y4439993D01*
X5155023Y4449990D02*
Y4390010D01*
X5185013Y4420000D01*
X5145026D01*
X5304974Y4524990D02*
Y4465010D01*
X5274984D01*
X5264987Y4475006D01*
Y4495000D01*
X5274984Y4504997D01*
X5304974D01*
X5284981D02*
X5264987Y4524990D01*
X5244993Y4475006D02*
X5234997Y4465010D01*
X5215003D01*
X5205006Y4475006D01*
Y4485003D01*
X5215003Y4495000D01*
X5225000D01*
X5215003D01*
X5205006Y4504997D01*
Y4514993D01*
X5215003Y4524990D01*
X5234997D01*
X5244993Y4514993D01*
X5185013Y4475006D02*
X5175016Y4465010D01*
X5155023D01*
X5145026Y4475006D01*
Y4485003D01*
X5155023Y4495000D01*
X5165019D01*
X5155023D01*
X5145026Y4504997D01*
Y4514993D01*
X5155023Y4524990D01*
X5175016D01*
X5185013Y4514993D01*
X5290024Y5550010D02*
Y5609990D01*
X5320015D01*
X5330011Y5599993D01*
Y5580000D01*
X5320015Y5570003D01*
X5290024D01*
X5310018D02*
X5330011Y5550010D01*
X5350005D02*
X5369998D01*
X5360002D01*
Y5609990D01*
X5350005Y5599993D01*
X5439976Y5550010D02*
X5399989D01*
X5439976Y5589997D01*
Y5599993D01*
X5429979Y5609990D01*
X5409985D01*
X5399989Y5599993D01*
X5595021Y5495010D02*
Y5554990D01*
X5625011D01*
X5635008Y5544993D01*
Y5525000D01*
X5625011Y5515003D01*
X5595021D01*
X5615015D02*
X5635008Y5495010D01*
X5655002D02*
X5674995D01*
X5664998D01*
Y5554990D01*
X5655002Y5544993D01*
X5704985Y5495010D02*
X5724979D01*
X5714982D01*
Y5554990D01*
X5704985Y5544993D01*
X5425016Y7115007D02*
Y7154994D01*
X5445010D01*
X5451674Y7148329D01*
Y7135000D01*
X5445010Y7128336D01*
X5425016D01*
X5438345D02*
X5451674Y7115007D01*
X5465003D02*
X5478332D01*
X5471668D01*
Y7154994D01*
X5465003Y7148329D01*
X5498326D02*
X5504990Y7154994D01*
X5518319D01*
X5524984Y7148329D01*
Y7121671D01*
X5518319Y7115007D01*
X5504990D01*
X5498326Y7121671D01*
Y7148329D01*
X5366237Y7205010D02*
Y7264990D01*
X5396227D01*
X5406224Y7254994D01*
Y7235000D01*
X5396227Y7225003D01*
X5366237D01*
X5386230D02*
X5406224Y7205010D01*
X5426217Y7215007D02*
X5436214Y7205010D01*
X5456208D01*
X5466204Y7215007D01*
Y7254994D01*
X5456208Y7264990D01*
X5436214D01*
X5426217Y7254994D01*
Y7244997D01*
X5436214Y7235000D01*
X5466204D01*
X5160016Y7455010D02*
Y7514990D01*
X5190007D01*
X5200003Y7504993D01*
Y7485000D01*
X5190007Y7475003D01*
X5160016D01*
X5180010D02*
X5200003Y7455010D01*
X5219997Y7504993D02*
X5229994Y7514990D01*
X5249987D01*
X5259984Y7504993D01*
Y7494997D01*
X5249987Y7485000D01*
X5259984Y7475003D01*
Y7465007D01*
X5249987Y7455010D01*
X5229994D01*
X5219997Y7465007D01*
Y7475003D01*
X5229994Y7485000D01*
X5219997Y7494997D01*
Y7504993D01*
X5229994Y7485000D02*
X5249987D01*
X5229990Y7175016D02*
X5170010D01*
Y7205006D01*
X5180006Y7215003D01*
X5200000D01*
X5209997Y7205006D01*
Y7175016D01*
Y7195010D02*
X5229990Y7215003D01*
X5170010Y7234997D02*
Y7274984D01*
X5180006D01*
X5219993Y7234997D01*
X5229990D01*
X5480016Y6335010D02*
Y6394990D01*
X5510007D01*
X5520003Y6384993D01*
Y6365000D01*
X5510007Y6355003D01*
X5480016D01*
X5500010D02*
X5520003Y6335010D01*
X5579984Y6394990D02*
X5559990Y6384993D01*
X5539997Y6365000D01*
Y6345007D01*
X5549994Y6335010D01*
X5569987D01*
X5579984Y6345007D01*
Y6355003D01*
X5569987Y6365000D01*
X5539997D01*
X5228796Y6385010D02*
Y6444990D01*
X5258786D01*
X5268783Y6434994D01*
Y6415000D01*
X5258786Y6405003D01*
X5228796D01*
X5248789D02*
X5268783Y6385010D01*
X5328764Y6444990D02*
X5288776D01*
Y6415000D01*
X5308770Y6424997D01*
X5318767D01*
X5328764Y6415000D01*
Y6395007D01*
X5318767Y6385010D01*
X5298773D01*
X5288776Y6395007D01*
X4945010Y6252543D02*
X5004990D01*
Y6222553D01*
X4994993Y6212556D01*
X4975000D01*
X4965003Y6222553D01*
Y6252543D01*
Y6232549D02*
X4945010Y6212556D01*
Y6162572D02*
X5004990D01*
X4975000Y6192562D01*
Y6152575D01*
X5419990Y6385016D02*
X5360010D01*
Y6415007D01*
X5370007Y6425003D01*
X5390000D01*
X5399997Y6415007D01*
Y6385016D01*
Y6405010D02*
X5419990Y6425003D01*
X5370007Y6444997D02*
X5360010Y6454994D01*
Y6474987D01*
X5370007Y6484984D01*
X5380003D01*
X5390000Y6474987D01*
Y6464990D01*
Y6474987D01*
X5399997Y6484984D01*
X5409993D01*
X5419990Y6474987D01*
Y6454994D01*
X5409993Y6444997D01*
X5144990Y7200016D02*
X5085010D01*
Y7230007D01*
X5095007Y7240003D01*
X5115000D01*
X5124997Y7230007D01*
Y7200016D01*
Y7220010D02*
X5144990Y7240003D01*
Y7299984D02*
Y7259997D01*
X5105003Y7299984D01*
X5095007D01*
X5085010Y7289987D01*
Y7269994D01*
X5095007Y7259997D01*
X4904990Y6285013D02*
X4845010D01*
Y6315003D01*
X4855007Y6325000D01*
X4875000D01*
X4884997Y6315003D01*
Y6285013D01*
Y6305007D02*
X4904990Y6325000D01*
Y6344994D02*
Y6364987D01*
Y6354990D01*
X4845010D01*
X4855007Y6344994D01*
X5100007Y7409997D02*
X5139994D01*
X5149990Y7419993D01*
Y7439987D01*
X5139994Y7449984D01*
X5100007D01*
X5090010Y7439987D01*
Y7419993D01*
X5110003Y7429990D02*
X5090010Y7409997D01*
Y7419993D02*
X5100007Y7409997D01*
X5090010Y7360013D02*
X5149990D01*
X5120000Y7390003D01*
Y7350016D01*
X5290003Y6645007D02*
Y6684993D01*
X5280007Y6694990D01*
X5260013D01*
X5250016Y6684993D01*
Y6645007D01*
X5260013Y6635010D01*
X5280007D01*
X5270010Y6655003D02*
X5290003Y6635010D01*
X5280007D02*
X5290003Y6645007D01*
X5309997Y6684993D02*
X5319994Y6694990D01*
X5339987D01*
X5349984Y6684993D01*
Y6674997D01*
X5339987Y6665000D01*
X5329990D01*
X5339987D01*
X5349984Y6655003D01*
Y6645007D01*
X5339987Y6635010D01*
X5319994D01*
X5309997Y6645007D01*
X4845007Y6484997D02*
X4884993D01*
X4894990Y6494993D01*
Y6514987D01*
X4884993Y6524984D01*
X4845007D01*
X4835010Y6514987D01*
Y6494993D01*
X4855003Y6504990D02*
X4835010Y6484997D01*
Y6494993D02*
X4845007Y6484997D01*
X4835010Y6425016D02*
Y6465003D01*
X4874997Y6425016D01*
X4884993D01*
X4894990Y6435013D01*
Y6455006D01*
X4884993Y6465003D01*
X5285000Y5780007D02*
Y5819993D01*
X5275003Y5829990D01*
X5255010D01*
X5245013Y5819993D01*
Y5780007D01*
X5255010Y5770010D01*
X5275003D01*
X5265007Y5790003D02*
X5285000Y5770010D01*
X5275003D02*
X5285000Y5780007D01*
X5304994Y5770010D02*
X5324987D01*
X5314990D01*
Y5829990D01*
X5304994Y5819993D01*
X5120013Y5435010D02*
Y5494990D01*
X5150003D01*
X5160000Y5484993D01*
Y5465000D01*
X5150003Y5455003D01*
X5120013D01*
X5179994Y5435010D02*
X5199987D01*
X5189990D01*
Y5494990D01*
X5179994Y5484993D01*
X4145108Y6845008D02*
Y6904989D01*
X4185096Y6845008D01*
Y6904989D01*
X4235079Y6845008D02*
X4215086D01*
X4205089Y6855005D01*
Y6874998D01*
X4215086Y6884995D01*
X4235079D01*
X4245076Y6874998D01*
Y6865002D01*
X4205089D01*
X4265070Y6884995D02*
Y6855005D01*
X4275066Y6845008D01*
X4305057D01*
Y6884995D01*
X4335047Y6894992D02*
Y6884995D01*
X4325050D01*
X4345044D01*
X4335047D01*
Y6855005D01*
X4345044Y6845008D01*
X4375034Y6884995D02*
Y6845008D01*
Y6865002D01*
X4385031Y6874998D01*
X4395028Y6884995D01*
X4405024D01*
X4445011D02*
X4465005D01*
X4475002Y6874998D01*
Y6845008D01*
X4445011D01*
X4435015Y6855005D01*
X4445011Y6865002D01*
X4475002D01*
X4494995Y6845008D02*
X4514989D01*
X4504992D01*
Y6904989D01*
X4494995D01*
X4544979Y6835011D02*
X4584966D01*
X4644947Y6894992D02*
X4634950Y6904989D01*
X4614956D01*
X4604960Y6894992D01*
Y6855005D01*
X4614956Y6845008D01*
X4634950D01*
X4644947Y6855005D01*
Y6874998D01*
X4624953D01*
X4664940Y6884995D02*
Y6845008D01*
Y6865002D01*
X4674937Y6874998D01*
X4684934Y6884995D01*
X4694931D01*
X4724921Y6845008D02*
X4744914D01*
X4734918D01*
Y6884995D01*
X4724921D01*
X4814892Y6904989D02*
Y6845008D01*
X4784901D01*
X4774905Y6855005D01*
Y6874998D01*
X4784901Y6884995D01*
X4814892D01*
X5764992Y6605055D02*
X5705011D01*
X5764992Y6645042D01*
X5705011D01*
X5774989Y6665036D02*
Y6705023D01*
X5705011Y6725016D02*
X5764992D01*
Y6765003D01*
Y6794994D02*
Y6814987D01*
X5754995Y6824984D01*
X5735002D01*
X5725005Y6814987D01*
Y6794994D01*
X5735002Y6784997D01*
X5754995D01*
X5764992Y6794994D01*
X5725005Y6854974D02*
Y6874968D01*
X5735002Y6884965D01*
X5764992D01*
Y6854974D01*
X5754995Y6844977D01*
X5744998Y6854974D01*
Y6884965D01*
X5705011Y6944945D02*
X5764992D01*
Y6914955D01*
X5754995Y6904958D01*
X5735002D01*
X5725005Y6914955D01*
Y6944945D01*
X4270108Y6740008D02*
Y6799989D01*
X4310096Y6740008D01*
Y6799989D01*
X4330089Y6730011D02*
X4370076D01*
X4400066Y6779995D02*
X4420060D01*
X4430057Y6769998D01*
Y6740008D01*
X4400066D01*
X4390070Y6750005D01*
X4400066Y6760002D01*
X4430057D01*
X4460047Y6740008D02*
Y6789992D01*
Y6769998D01*
X4450050D01*
X4470044D01*
X4460047D01*
Y6789992D01*
X4470044Y6799989D01*
X4510031Y6789992D02*
Y6779995D01*
X4500034D01*
X4520028D01*
X4510031D01*
Y6750005D01*
X4520028Y6740008D01*
X4580008D02*
X4560015D01*
X4550018Y6750005D01*
Y6769998D01*
X4560015Y6779995D01*
X4580008D01*
X4590005Y6769998D01*
Y6760002D01*
X4550018D01*
X4609998Y6779995D02*
Y6740008D01*
Y6760002D01*
X4619995Y6769998D01*
X4629992Y6779995D01*
X4639989D01*
X4669979Y6799989D02*
X4709966D01*
X4689972D01*
Y6740008D01*
X4729960D02*
Y6799989D01*
X4759950D01*
X4769947Y6789992D01*
Y6769998D01*
X4759950Y6760002D01*
X4729960D01*
X4749953D02*
X4769947Y6740008D01*
X4789940Y6799989D02*
X4809934D01*
X4799937D01*
Y6740008D01*
X4789940D01*
X4809934D01*
X4839924D02*
Y6779995D01*
X4859917Y6799989D01*
X4879911Y6779995D01*
Y6740008D01*
Y6769998D01*
X4839924D01*
X4939892Y6789992D02*
X4929895Y6799989D01*
X4909901D01*
X4899905Y6789992D01*
Y6750005D01*
X4909901Y6740008D01*
X4929895D01*
X4939892Y6750005D01*
X5745003Y4674990D02*
X5725010D01*
X5735007D01*
Y4625007D01*
X5725010Y4615010D01*
X5715013D01*
X5705016Y4625007D01*
X5764997D02*
X5774994Y4615010D01*
X5794987D01*
X5804984Y4625007D01*
Y4664993D01*
X5794987Y4674990D01*
X5774994D01*
X5764997Y4664993D01*
Y4654997D01*
X5774994Y4645000D01*
X5804984D01*
X6145003Y7444990D02*
X6125010D01*
X6135007D01*
Y7395007D01*
X6125010Y7385010D01*
X6115013D01*
X6105016Y7395007D01*
X6164997Y7434993D02*
X6174994Y7444990D01*
X6194987D01*
X6204984Y7434993D01*
Y7424997D01*
X6194987Y7415000D01*
X6204984Y7405003D01*
Y7395007D01*
X6194987Y7385010D01*
X6174994D01*
X6164997Y7395007D01*
Y7405003D01*
X6174994Y7415000D01*
X6164997Y7424997D01*
Y7434993D01*
X6174994Y7415000D02*
X6194987D01*
X3695003Y7414990D02*
X3675010D01*
X3685006D01*
Y7365007D01*
X3675010Y7355010D01*
X3665013D01*
X3655016Y7365007D01*
X3714997Y7414990D02*
X3754984D01*
Y7404993D01*
X3714997Y7365007D01*
Y7355010D01*
X3710003Y8009990D02*
X3690010D01*
X3700006D01*
Y7960007D01*
X3690010Y7950010D01*
X3680013D01*
X3670016Y7960007D01*
X3769984Y8009990D02*
X3749990Y7999993D01*
X3729997Y7980000D01*
Y7960007D01*
X3739994Y7950010D01*
X3759987D01*
X3769984Y7960007D01*
Y7970003D01*
X3759987Y7980000D01*
X3729997D01*
X6170003Y8034990D02*
X6150010D01*
X6160007D01*
Y7985007D01*
X6150010Y7975010D01*
X6140013D01*
X6130016Y7985007D01*
X6229984Y8034990D02*
X6189997D01*
Y8005000D01*
X6209990Y8014997D01*
X6219987D01*
X6229984Y8005000D01*
Y7985007D01*
X6219987Y7975010D01*
X6199994D01*
X6189997Y7985007D01*
X6140003Y5524990D02*
X6120010D01*
X6130007D01*
Y5475007D01*
X6120010Y5465010D01*
X6110013D01*
X6100016Y5475007D01*
X6199984Y5465010D02*
X6159997D01*
X6199984Y5504997D01*
Y5514993D01*
X6189987Y5524990D01*
X6169994D01*
X6159997Y5514993D01*
X3685000Y5599990D02*
X3665006D01*
X3675003D01*
Y5550007D01*
X3665006Y5540010D01*
X3655010D01*
X3645013Y5550007D01*
X3704994Y5540010D02*
X3724987D01*
X3714990D01*
Y5599990D01*
X3704994Y5589993D01*
X5530011Y5895053D02*
X5589992D01*
X5560002D01*
Y5935041D01*
X5530011D01*
X5589992D01*
X5599989Y5955034D02*
Y5995021D01*
X5589992Y6015015D02*
Y6035008D01*
Y6025011D01*
X5530011D01*
Y6015015D01*
X5589992Y6074995D02*
Y6094989D01*
X5579995Y6104985D01*
X5560002D01*
X5550005Y6094989D01*
Y6074995D01*
X5560002Y6064998D01*
X5579995D01*
X5589992Y6074995D01*
X5550005Y6134976D02*
Y6154969D01*
X5560002Y6164966D01*
X5589992D01*
Y6134976D01*
X5579995Y6124979D01*
X5569998Y6134976D01*
Y6164966D01*
X5530011Y6224947D02*
X5589992D01*
Y6194956D01*
X5579995Y6184960D01*
X5560002D01*
X5550005Y6194956D01*
Y6224947D01*
X4981658Y5884965D02*
X4941671D01*
X4961664D01*
Y5858306D01*
X4981658D01*
X4941671D01*
X4935007Y5844977D02*
Y5818319D01*
X4928342Y5791661D02*
Y5784997D01*
X4935007Y5778332D01*
X4968329D01*
Y5798326D01*
X4961664Y5804990D01*
X4948336D01*
X4941671Y5798326D01*
Y5778332D01*
X4968329Y5765003D02*
X4941671D01*
X4955000D01*
X4961664Y5758339D01*
X4968329Y5751674D01*
Y5745010D01*
X4941671Y5725016D02*
Y5711687D01*
Y5718352D01*
X4968329D01*
Y5725016D01*
X4981658Y5665035D02*
X4941671D01*
Y5685029D01*
X4948336Y5691694D01*
X4961664D01*
X4968329Y5685029D01*
Y5665035D01*
X5381204Y5430010D02*
Y5489990D01*
X5351214D01*
X5341217Y5479994D01*
Y5440007D01*
X5351214Y5430010D01*
X5381204D01*
X5281237Y5489990D02*
X5321224D01*
X5281237Y5450003D01*
Y5440007D01*
X5291233Y5430010D01*
X5311227D01*
X5321224Y5440007D01*
X5485013Y5539990D02*
Y5480010D01*
X5515003D01*
X5525000Y5490007D01*
Y5529993D01*
X5515003Y5539990D01*
X5485013D01*
X5544994Y5480010D02*
X5564987D01*
X5554990D01*
Y5539990D01*
X5544994Y5529993D01*
X4795091Y7714992D02*
X4785094Y7724989D01*
X4765100D01*
X4755104Y7714992D01*
Y7675005D01*
X4765100Y7665008D01*
X4785094D01*
X4795091Y7675005D01*
X4815084Y7655011D02*
X4855071D01*
X4875065Y7665008D02*
X4905055D01*
X4915052Y7675005D01*
X4905055Y7685002D01*
X4885061D01*
X4875065Y7694998D01*
X4885061Y7704995D01*
X4915052D01*
X4965036Y7665008D02*
X4945042D01*
X4935045Y7675005D01*
Y7694998D01*
X4945042Y7704995D01*
X4965036D01*
X4975032Y7694998D01*
Y7685002D01*
X4935045D01*
X4995026Y7665008D02*
Y7704995D01*
X5025016D01*
X5035013Y7694998D01*
Y7665008D01*
X5055007D02*
X5084997D01*
X5094994Y7675005D01*
X5084997Y7685002D01*
X5065003D01*
X5055007Y7694998D01*
X5065003Y7704995D01*
X5094994D01*
X5144977Y7665008D02*
X5124984D01*
X5114987Y7675005D01*
Y7694998D01*
X5124984Y7704995D01*
X5144977D01*
X5154974Y7694998D01*
Y7685002D01*
X5114987D01*
X5174968Y7724989D02*
Y7685002D01*
X5194961Y7665008D01*
X5214955Y7685002D01*
Y7724989D01*
X5274935Y7704995D02*
X5244945D01*
X5234948Y7694998D01*
Y7675005D01*
X5244945Y7665008D01*
X5274935D01*
X5334916Y7704995D02*
X5304926D01*
X5294929Y7694998D01*
Y7675005D01*
X5304926Y7665008D01*
X5334916D01*
X5354909D02*
Y7724989D01*
X5394897Y7665008D01*
Y7724989D01*
X4965091Y6589992D02*
X4955094Y6599989D01*
X4935100D01*
X4925104Y6589992D01*
Y6550005D01*
X4935100Y6540008D01*
X4955094D01*
X4965091Y6550005D01*
X4985084Y6530011D02*
X5025071D01*
X5045065Y6540008D02*
X5075055D01*
X5085052Y6550005D01*
X5075055Y6560002D01*
X5055061D01*
X5045065Y6569998D01*
X5055061Y6579995D01*
X5085052D01*
X5135036Y6540008D02*
X5115042D01*
X5105045Y6550005D01*
Y6569998D01*
X5115042Y6579995D01*
X5135036D01*
X5145032Y6569998D01*
Y6560002D01*
X5105045D01*
X5165026Y6540008D02*
Y6579995D01*
X5195016D01*
X5205013Y6569998D01*
Y6540008D01*
X5225007D02*
X5254997D01*
X5264994Y6550005D01*
X5254997Y6560002D01*
X5235003D01*
X5225007Y6569998D01*
X5235003Y6579995D01*
X5264994D01*
X5314977Y6540008D02*
X5294984D01*
X5284987Y6550005D01*
Y6569998D01*
X5294984Y6579995D01*
X5314977D01*
X5324974Y6569998D01*
Y6560002D01*
X5284987D01*
X5344968Y6599989D02*
Y6560002D01*
X5364961Y6540008D01*
X5384955Y6560002D01*
Y6599989D01*
X5444935Y6579995D02*
X5414945D01*
X5404948Y6569998D01*
Y6550005D01*
X5414945Y6540008D01*
X5444935D01*
X5504916Y6579995D02*
X5474926D01*
X5464929Y6569998D01*
Y6550005D01*
X5474926Y6540008D01*
X5504916D01*
X5524909Y6599989D02*
Y6540008D01*
Y6569998D01*
X5564897D01*
Y6599989D01*
Y6540008D01*
X5570008Y7260061D02*
X5560011Y7250065D01*
Y7230071D01*
X5570008Y7220074D01*
X5609995D01*
X5619992Y7230071D01*
Y7250065D01*
X5609995Y7260061D01*
X5629989Y7280055D02*
Y7320042D01*
X5619992Y7340036D02*
Y7370026D01*
X5609995Y7380023D01*
X5599998Y7370026D01*
Y7350032D01*
X5590002Y7340036D01*
X5580005Y7350032D01*
Y7380023D01*
X5619992Y7430007D02*
Y7410013D01*
X5609995Y7400016D01*
X5590002D01*
X5580005Y7410013D01*
Y7430007D01*
X5590002Y7440003D01*
X5599998D01*
Y7400016D01*
X5619992Y7459997D02*
X5580005D01*
Y7489987D01*
X5590002Y7499984D01*
X5619992D01*
Y7519977D02*
Y7549968D01*
X5609995Y7559965D01*
X5599998Y7549968D01*
Y7529974D01*
X5590002Y7519977D01*
X5580005Y7529974D01*
Y7559965D01*
X5619992Y7609948D02*
Y7589955D01*
X5609995Y7579958D01*
X5590002D01*
X5580005Y7589955D01*
Y7609948D01*
X5590002Y7619945D01*
X5599998D01*
Y7579958D01*
X5619992Y7639939D02*
X5560011D01*
X5619992Y7679926D01*
X5560011D01*
X5617703Y6120061D02*
X5607707Y6110065D01*
Y6090071D01*
X5617703Y6080074D01*
X5657690D01*
X5667687Y6090071D01*
Y6110065D01*
X5657690Y6120061D01*
X5677684Y6140055D02*
Y6180042D01*
X5667687Y6200036D02*
Y6230026D01*
X5657690Y6240023D01*
X5647694Y6230026D01*
Y6210032D01*
X5637697Y6200036D01*
X5627700Y6210032D01*
Y6240023D01*
X5667687Y6290007D02*
Y6270013D01*
X5657690Y6260016D01*
X5637697D01*
X5627700Y6270013D01*
Y6290007D01*
X5637697Y6300003D01*
X5647694D01*
Y6260016D01*
X5667687Y6319997D02*
X5627700D01*
Y6349987D01*
X5637697Y6359984D01*
X5667687D01*
Y6379977D02*
Y6409968D01*
X5657690Y6419965D01*
X5647694Y6409968D01*
Y6389974D01*
X5637697Y6379977D01*
X5627700Y6389974D01*
Y6419965D01*
X5667687Y6469948D02*
Y6449955D01*
X5657690Y6439958D01*
X5637697D01*
X5627700Y6449955D01*
Y6469948D01*
X5637697Y6479945D01*
X5647694D01*
Y6439958D01*
X5607707Y6499939D02*
X5667687D01*
X5637697D01*
Y6539926D01*
X5607707D01*
X5667687D01*
X4354994Y5114989D02*
X4364990Y5124985D01*
Y5144979D01*
X4354994Y5154976D01*
X4315007D01*
X4305010Y5144979D01*
Y5124985D01*
X4315007Y5114989D01*
X4305010Y5094995D02*
Y5075002D01*
Y5084998D01*
X4364990D01*
X4354994Y5094995D01*
X4305010Y5015021D02*
X4364990D01*
X4335000Y5045011D01*
Y5005024D01*
X4320007Y5315011D02*
X4310010Y5305015D01*
Y5285021D01*
X4320007Y5275024D01*
X4359993D01*
X4369990Y5285021D01*
Y5305015D01*
X4359993Y5315011D01*
X4369990Y5335005D02*
Y5354998D01*
Y5345002D01*
X4310010D01*
X4320007Y5335005D01*
Y5384989D02*
X4310010Y5394985D01*
Y5414979D01*
X4320007Y5424976D01*
X4330003D01*
X4340000Y5414979D01*
Y5404982D01*
Y5414979D01*
X4349997Y5424976D01*
X4359993D01*
X4369990Y5414979D01*
Y5394985D01*
X4359993Y5384989D01*
X5234989Y3675006D02*
X5244985Y3665010D01*
X5264979D01*
X5274976Y3675006D01*
Y3714993D01*
X5264979Y3724990D01*
X5244985D01*
X5234989Y3714993D01*
X5214995Y3724990D02*
X5195002D01*
X5204998D01*
Y3665010D01*
X5214995Y3675006D01*
X5125024Y3724990D02*
X5165011D01*
X5125024Y3685003D01*
Y3675006D01*
X5135021Y3665010D01*
X5155015D01*
X5165011Y3675006D01*
X5325008Y3654994D02*
X5315011Y3664990D01*
X5295018D01*
X5285021Y3654994D01*
Y3615006D01*
X5295018Y3605010D01*
X5315011D01*
X5325008Y3615006D01*
X5345002Y3605010D02*
X5364995D01*
X5354998D01*
Y3664990D01*
X5345002Y3654994D01*
X5394985Y3605010D02*
X5414979D01*
X5404982D01*
Y3664990D01*
X5394985Y3654994D01*
X5155007Y4090011D02*
X5145010Y4080015D01*
Y4060021D01*
X5155007Y4050024D01*
X5194993D01*
X5204990Y4060021D01*
Y4080015D01*
X5194993Y4090011D01*
X5204990Y4110005D02*
Y4129998D01*
Y4120002D01*
X5145010D01*
X5155007Y4110005D01*
Y4159989D02*
X5145010Y4169985D01*
Y4189979D01*
X5155007Y4199976D01*
X5194993D01*
X5204990Y4189979D01*
Y4169985D01*
X5194993Y4159989D01*
X5155007D01*
X5760003Y3714994D02*
X5750007Y3724990D01*
X5730013D01*
X5720016Y3714994D01*
Y3675006D01*
X5730013Y3665010D01*
X5750007D01*
X5760003Y3675006D01*
X5779997D02*
X5789994Y3665010D01*
X5809987D01*
X5819984Y3675006D01*
Y3714994D01*
X5809987Y3724990D01*
X5789994D01*
X5779997Y3714994D01*
Y3704997D01*
X5789994Y3695000D01*
X5819984D01*
X5630003Y3714994D02*
X5620007Y3724990D01*
X5600013D01*
X5590016Y3714994D01*
Y3675006D01*
X5600013Y3665010D01*
X5620007D01*
X5630003Y3675006D01*
X5649997Y3714994D02*
X5659994Y3724990D01*
X5679987D01*
X5689984Y3714994D01*
Y3704997D01*
X5679987Y3695000D01*
X5689984Y3685003D01*
Y3675006D01*
X5679987Y3665010D01*
X5659994D01*
X5649997Y3675006D01*
Y3685003D01*
X5659994Y3695000D01*
X5649997Y3704997D01*
Y3714994D01*
X5659994Y3695000D02*
X5679987D01*
X5580003Y7059993D02*
X5570007Y7069990D01*
X5550013D01*
X5540016Y7059993D01*
Y7020007D01*
X5550013Y7010010D01*
X5570007D01*
X5580003Y7020007D01*
X5639984Y7069990D02*
X5619990Y7059993D01*
X5599997Y7040000D01*
Y7020007D01*
X5609994Y7010010D01*
X5629987D01*
X5639984Y7020007D01*
Y7030003D01*
X5629987Y7040000D01*
X5599997D01*
X5345007Y7125003D02*
X5335010Y7115007D01*
Y7095013D01*
X5345007Y7085016D01*
X5384993D01*
X5394990Y7095013D01*
Y7115007D01*
X5384993Y7125003D01*
X5335010Y7184984D02*
Y7144997D01*
X5365000D01*
X5355003Y7164990D01*
Y7174987D01*
X5365000Y7184984D01*
X5384993D01*
X5394990Y7174987D01*
Y7154994D01*
X5384993Y7144997D01*
X5260007Y7125003D02*
X5250010Y7115007D01*
Y7095013D01*
X5260007Y7085016D01*
X5299993D01*
X5309990Y7095013D01*
Y7115007D01*
X5299993Y7125003D01*
X5309990Y7174987D02*
X5250010D01*
X5280000Y7144997D01*
Y7184984D01*
X5515003Y6304993D02*
X5505007Y6314990D01*
X5485013D01*
X5475016Y6304993D01*
Y6265007D01*
X5485013Y6255010D01*
X5505007D01*
X5515003Y6265007D01*
X5534997Y6304993D02*
X5544994Y6314990D01*
X5564987D01*
X5574984Y6304993D01*
Y6294997D01*
X5564987Y6285000D01*
X5554990D01*
X5564987D01*
X5574984Y6275003D01*
Y6265007D01*
X5564987Y6255010D01*
X5544994D01*
X5534997Y6265007D01*
X5390006Y6260003D02*
X5380010Y6250006D01*
Y6230013D01*
X5390006Y6220016D01*
X5429993D01*
X5439990Y6230013D01*
Y6250006D01*
X5429993Y6260003D01*
X5439990Y6319984D02*
Y6279997D01*
X5400003Y6319984D01*
X5390006D01*
X5380010Y6309987D01*
Y6289993D01*
X5390006Y6279997D01*
X5260007Y6255000D02*
X5250010Y6245003D01*
Y6225010D01*
X5260007Y6215013D01*
X5299993D01*
X5309990Y6225010D01*
Y6245003D01*
X5299993Y6255000D01*
X5309990Y6274994D02*
Y6294987D01*
Y6284990D01*
X5250010D01*
X5260007Y6274994D01*
X5465034Y3620000D02*
X5505021D01*
X5485028Y3639994D02*
Y3600006D01*
X5525015Y3590010D02*
X5545008D01*
X5535011D01*
Y3649990D01*
X5525015Y3639994D01*
X5614985Y3590010D02*
X5574998D01*
X5614985Y3629997D01*
Y3639994D01*
X5604989Y3649990D01*
X5584995D01*
X5574998Y3639994D01*
X5634979Y3649990D02*
Y3610003D01*
X5654972Y3590010D01*
X5674966Y3610003D01*
Y3649990D01*
X3850000Y5200026D02*
Y5240013D01*
X3830006Y5220019D02*
X3869994D01*
X3820010Y5299994D02*
Y5260007D01*
X3850000D01*
X3840003Y5280000D01*
Y5289997D01*
X3850000Y5299994D01*
X3869994D01*
X3879990Y5289997D01*
Y5270003D01*
X3869994Y5260007D01*
X3820010Y5319987D02*
X3859997D01*
X3879990Y5339981D01*
X3859997Y5359974D01*
X3820010D01*
X5909998Y3949948D02*
Y3909961D01*
X5929992Y3929955D02*
X5890005D01*
X5939989Y3849981D02*
Y3889968D01*
X5909998D01*
X5919995Y3869974D01*
Y3859977D01*
X5909998Y3849981D01*
X5890005D01*
X5880008Y3859977D01*
Y3879971D01*
X5890005Y3889968D01*
X5939989Y3829987D02*
X5900002D01*
X5880008Y3809994D01*
X5900002Y3790000D01*
X5939989D01*
X5870011Y3770006D02*
Y3730019D01*
X5880008Y3710026D02*
X5939989D01*
X5880008Y3670039D01*
X5939989D01*
Y3650045D02*
Y3630052D01*
Y3640048D01*
X5880008D01*
Y3650045D01*
Y3630052D01*
%TF.MD5,88cb53308dcd1ee56b260c39fa32dcc6*%
M02*
