G04*
G04 #@! TF.GenerationSoftware,Altium Limited,Altium Designer,23.4.1 (23)*
G04*
G04 Layer_Physical_Order=4*
G04 Layer_Color=16711680*
%FSLAX44Y44*%
%MOMM*%
G71*
G04*
G04 #@! TF.SameCoordinates,4F8EF9B8-0785-460B-A287-326F995E0807*
G04*
G04*
G04 #@! TF.FilePolarity,Positive*
G04*
G01*
G75*
%ADD14C,0.2540*%
%ADD17R,0.5000X0.3000*%
%ADD18R,0.6000X0.9500*%
%ADD19R,0.9500X0.6000*%
%ADD20R,0.3000X0.5000*%
%ADD30C,9.9000*%
%ADD31C,1.3500*%
%ADD32R,1.3500X1.3500*%
%ADD34R,1.3500X1.3500*%
%ADD43C,1.5240*%
%ADD44C,2.0000*%
%ADD45C,1.6500*%
%ADD46R,1.5240X1.5240*%
%ADD47O,0.7620X1.5240*%
%ADD48C,1.5000*%
%ADD49C,1.6000*%
%ADD50R,1.6500X1.6500*%
%ADD51R,1.6000X1.6000*%
%ADD52R,1.5000X1.5000*%
%ADD53C,1.2700*%
%ADD54C,0.7620*%
%ADD56O,1.9500X0.6000*%
%ADD57C,6.0960*%
%ADD58R,0.4000X0.8000*%
%ADD59O,0.8000X2.0000*%
%ADD60C,0.6350*%
G36*
X1595120Y916305D02*
X923290D01*
Y2052955D01*
X1595120D01*
Y916305D01*
D02*
G37*
%LPC*%
G36*
X1424651Y2029460D02*
X1420148D01*
X1415732Y2028582D01*
X1411572Y2026858D01*
X1407828Y2024357D01*
X1404644Y2021172D01*
X1402142Y2017428D01*
X1400419Y2013268D01*
X1399540Y2008851D01*
Y2004348D01*
X1400419Y1999932D01*
X1402142Y1995772D01*
X1404644Y1992028D01*
X1407828Y1988844D01*
X1411572Y1986342D01*
X1415732Y1984619D01*
X1420148Y1983740D01*
X1424651D01*
X1429068Y1984619D01*
X1433228Y1986342D01*
X1436972Y1988844D01*
X1440157Y1992028D01*
X1442658Y1995772D01*
X1444382Y1999932D01*
X1445260Y2004348D01*
Y2008851D01*
X1444382Y2013268D01*
X1442658Y2017428D01*
X1440157Y2021172D01*
X1436972Y2024357D01*
X1433228Y2026858D01*
X1429068Y2028582D01*
X1424651Y2029460D01*
D02*
G37*
G36*
X1107151D02*
X1102648D01*
X1098232Y2028582D01*
X1094072Y2026858D01*
X1090328Y2024357D01*
X1087143Y2021172D01*
X1084642Y2017428D01*
X1082918Y2013268D01*
X1082040Y2008851D01*
Y2004348D01*
X1082918Y1999932D01*
X1084642Y1995772D01*
X1087143Y1992028D01*
X1090328Y1988844D01*
X1094072Y1986342D01*
X1098232Y1984619D01*
X1102648Y1983740D01*
X1107151D01*
X1111568Y1984619D01*
X1115728Y1986342D01*
X1119472Y1988844D01*
X1122656Y1992028D01*
X1125158Y1995772D01*
X1126881Y1999932D01*
X1127760Y2004348D01*
Y2008851D01*
X1126881Y2013268D01*
X1125158Y2017428D01*
X1122656Y2021172D01*
X1119472Y2024357D01*
X1115728Y2026858D01*
X1111568Y2028582D01*
X1107151Y2029460D01*
D02*
G37*
G36*
X1385638Y1968500D02*
X1382962D01*
X1380378Y1967808D01*
X1378062Y1966470D01*
X1376170Y1964578D01*
X1374832Y1962262D01*
X1374140Y1959678D01*
Y1957002D01*
X1374832Y1954418D01*
X1376170Y1952102D01*
X1378062Y1950210D01*
X1380378Y1948872D01*
X1382962Y1948180D01*
X1385638D01*
X1388222Y1948872D01*
X1390538Y1950210D01*
X1392430Y1952102D01*
X1393768Y1954418D01*
X1394460Y1957002D01*
Y1959678D01*
X1393768Y1962262D01*
X1392430Y1964578D01*
X1390538Y1966470D01*
X1388222Y1967808D01*
X1385638Y1968500D01*
D02*
G37*
G36*
X1011791Y2019270D02*
X1004969D01*
X998206Y2018380D01*
X991616Y2016614D01*
X985314Y2014003D01*
X979406Y2010592D01*
X973994Y2006440D01*
X969170Y2001616D01*
X965017Y1996204D01*
X961607Y1990296D01*
X958996Y1983994D01*
X957230Y1977404D01*
X956340Y1970641D01*
Y1963819D01*
X957230Y1957056D01*
X958996Y1950466D01*
X961607Y1944164D01*
X965017Y1938256D01*
X969170Y1932844D01*
X973994Y1928020D01*
X979406Y1923867D01*
X985314Y1920457D01*
X991616Y1917846D01*
X998206Y1916080D01*
X1004969Y1915190D01*
X1011791D01*
X1018554Y1916080D01*
X1025144Y1917846D01*
X1031446Y1920457D01*
X1037354Y1923867D01*
X1042766Y1928020D01*
X1047590Y1932844D01*
X1051742Y1938256D01*
X1055153Y1944164D01*
X1057764Y1950466D01*
X1059530Y1957056D01*
X1060420Y1963819D01*
Y1970641D01*
X1059530Y1977404D01*
X1057764Y1983994D01*
X1055153Y1990296D01*
X1051742Y1996204D01*
X1047590Y2001616D01*
X1042766Y2006440D01*
X1037354Y2010592D01*
X1031446Y2014003D01*
X1025144Y2016614D01*
X1018554Y2018380D01*
X1011791Y2019270D01*
D02*
G37*
G36*
X1519791Y2018000D02*
X1512969D01*
X1506206Y2017110D01*
X1499616Y2015344D01*
X1493314Y2012733D01*
X1487406Y2009323D01*
X1481994Y2005170D01*
X1477170Y2000346D01*
X1473017Y1994934D01*
X1469607Y1989026D01*
X1466996Y1982724D01*
X1465230Y1976134D01*
X1464340Y1969371D01*
Y1962549D01*
X1465230Y1955786D01*
X1466996Y1949196D01*
X1469607Y1942894D01*
X1473017Y1936986D01*
X1477170Y1931574D01*
X1481994Y1926750D01*
X1487406Y1922598D01*
X1493314Y1919187D01*
X1499616Y1916576D01*
X1506206Y1914810D01*
X1512969Y1913920D01*
X1519791D01*
X1526554Y1914810D01*
X1533144Y1916576D01*
X1539446Y1919187D01*
X1545354Y1922598D01*
X1550766Y1926750D01*
X1555590Y1931574D01*
X1559742Y1936986D01*
X1563153Y1942894D01*
X1565764Y1949196D01*
X1567530Y1955786D01*
X1568420Y1962549D01*
Y1969371D01*
X1567530Y1976134D01*
X1565764Y1982724D01*
X1563153Y1989026D01*
X1559742Y1994934D01*
X1555590Y2000346D01*
X1550766Y2005170D01*
X1545354Y2009323D01*
X1539446Y2012733D01*
X1533144Y2015344D01*
X1526554Y2017110D01*
X1519791Y2018000D01*
D02*
G37*
G36*
X1156308Y1901190D02*
X1150620D01*
Y1895502D01*
X1150732Y1895532D01*
X1153048Y1896870D01*
X1154940Y1898762D01*
X1156278Y1901078D01*
X1156308Y1901190D01*
D02*
G37*
G36*
X1249680Y1898288D02*
Y1893570D01*
X1254398D01*
X1253304Y1895464D01*
X1251574Y1897194D01*
X1249680Y1898288D01*
D02*
G37*
G36*
X1242060D02*
X1240166Y1897194D01*
X1238436Y1895464D01*
X1237343Y1893570D01*
X1242060D01*
Y1898288D01*
D02*
G37*
G36*
X1221693Y1899050D02*
X1219247D01*
X1216884Y1898417D01*
X1214766Y1897194D01*
X1213036Y1895464D01*
X1211813Y1893346D01*
X1211180Y1890983D01*
Y1888537D01*
X1211813Y1886174D01*
X1213036Y1884056D01*
X1214766Y1882326D01*
X1216884Y1881103D01*
X1219247Y1880470D01*
X1221693D01*
X1224056Y1881103D01*
X1226174Y1882326D01*
X1227904Y1884056D01*
X1229127Y1886174D01*
X1229760Y1888537D01*
Y1890983D01*
X1229127Y1893346D01*
X1227904Y1895464D01*
X1226174Y1897194D01*
X1224056Y1898417D01*
X1221693Y1899050D01*
D02*
G37*
G36*
X1419928Y1828800D02*
X1417252D01*
X1414668Y1828108D01*
X1412352Y1826770D01*
X1410460Y1824878D01*
X1409122Y1822562D01*
X1408430Y1819978D01*
Y1817302D01*
X1409122Y1814718D01*
X1410460Y1812402D01*
X1412352Y1810510D01*
X1414668Y1809172D01*
X1417252Y1808480D01*
X1419928D01*
X1422512Y1809172D01*
X1424828Y1810510D01*
X1426720Y1812402D01*
X1428058Y1814718D01*
X1428750Y1817302D01*
Y1819978D01*
X1428058Y1822562D01*
X1426720Y1824878D01*
X1424828Y1826770D01*
X1422512Y1828108D01*
X1419928Y1828800D01*
D02*
G37*
G36*
X1221693Y1822850D02*
X1219247D01*
X1216884Y1822217D01*
X1214766Y1820994D01*
X1213036Y1819264D01*
X1211813Y1817146D01*
X1211180Y1814783D01*
Y1812337D01*
X1211813Y1809974D01*
X1213036Y1807856D01*
X1214766Y1806126D01*
X1216884Y1804903D01*
X1219247Y1804270D01*
X1221693D01*
X1224056Y1804903D01*
X1226174Y1806126D01*
X1227904Y1807856D01*
X1229127Y1809974D01*
X1229760Y1812337D01*
Y1814783D01*
X1229127Y1817146D01*
X1227904Y1819264D01*
X1226174Y1820994D01*
X1224056Y1822217D01*
X1221693Y1822850D01*
D02*
G37*
G36*
X1402080Y1802576D02*
Y1798320D01*
X1406336D01*
X1405384Y1799969D01*
X1403729Y1801624D01*
X1402080Y1802576D01*
D02*
G37*
G36*
X1406336Y1790700D02*
X1402080D01*
Y1786444D01*
X1403729Y1787396D01*
X1405384Y1789051D01*
X1406336Y1790700D01*
D02*
G37*
G36*
X1093668Y1945715D02*
X1076394D01*
X1074908Y1945419D01*
X1073647Y1944577D01*
X1072159Y1943089D01*
X1071317Y1941829D01*
X1071070Y1940586D01*
X1069354D01*
Y1932506D01*
X1072465D01*
Y1927310D01*
X1070810D01*
Y1912730D01*
X1077510D01*
Y1899810D01*
X1070810D01*
Y1885230D01*
X1073080D01*
Y1879830D01*
X1072540D01*
Y1871750D01*
X1075925D01*
Y1865860D01*
X1074770D01*
Y1857780D01*
X1075925D01*
Y1856510D01*
X1076221Y1855023D01*
X1077063Y1853763D01*
X1078265Y1852561D01*
Y1852094D01*
X1076450Y1850278D01*
X1075112Y1847962D01*
X1074420Y1845378D01*
Y1842702D01*
X1075112Y1840118D01*
X1076450Y1837802D01*
X1078342Y1835910D01*
X1080658Y1834572D01*
X1083242Y1833880D01*
X1085918D01*
X1087427Y1834284D01*
X1092690Y1829021D01*
X1092518Y1828607D01*
X1092294Y1826900D01*
Y1814900D01*
X1092518Y1813193D01*
X1093177Y1811602D01*
X1094226Y1810236D01*
X1095592Y1809187D01*
X1097183Y1808528D01*
X1098890Y1808304D01*
X1100597Y1808528D01*
X1102188Y1809187D01*
X1103555Y1810236D01*
X1104538Y1811517D01*
X1105220Y1811607D01*
X1105261D01*
X1105942Y1811517D01*
X1106926Y1810236D01*
X1108292Y1809187D01*
X1109883Y1808528D01*
X1111590Y1808304D01*
X1113297Y1808528D01*
X1114888Y1809187D01*
X1116255Y1810236D01*
X1117238Y1811517D01*
X1117920Y1811607D01*
X1117961D01*
X1118642Y1811517D01*
X1119626Y1810236D01*
X1120992Y1809187D01*
X1122583Y1808528D01*
X1124290Y1808304D01*
X1125997Y1808528D01*
X1127588Y1809187D01*
X1128954Y1810236D01*
X1129938Y1811517D01*
X1130620Y1811607D01*
X1130661D01*
X1131342Y1811517D01*
X1132326Y1810236D01*
X1133692Y1809187D01*
X1135283Y1808528D01*
X1136990Y1808304D01*
X1138697Y1808528D01*
X1140288Y1809187D01*
X1141655Y1810236D01*
X1142703Y1811602D01*
X1143362Y1813193D01*
X1143587Y1814900D01*
Y1826900D01*
X1143362Y1828607D01*
X1142703Y1830198D01*
X1141655Y1831564D01*
X1140288Y1832613D01*
X1140070Y1832703D01*
Y1835212D01*
X1140839Y1835656D01*
X1142494Y1837311D01*
X1143664Y1839339D01*
X1144270Y1841600D01*
Y1843940D01*
X1143664Y1846201D01*
X1142494Y1848229D01*
X1140839Y1849884D01*
X1138811Y1851054D01*
X1136550Y1851660D01*
X1134210D01*
X1131949Y1851054D01*
X1129921Y1849884D01*
X1129290Y1849252D01*
X1128020Y1849778D01*
Y1856510D01*
X1129020D01*
Y1856665D01*
X1130290D01*
X1131777Y1856961D01*
X1133037Y1857803D01*
X1133278Y1858045D01*
X1134489Y1857346D01*
X1136750Y1856740D01*
X1139090D01*
X1141351Y1857346D01*
X1143379Y1858516D01*
X1145034Y1860171D01*
X1146204Y1862199D01*
X1146810Y1864460D01*
Y1866800D01*
X1146204Y1869061D01*
X1145034Y1871089D01*
X1143379Y1872744D01*
X1141351Y1873914D01*
X1139090Y1874520D01*
X1136750D01*
X1134489Y1873914D01*
X1132897Y1872995D01*
X1132847Y1873029D01*
X1131361Y1873325D01*
X1129124D01*
X1128981Y1873502D01*
X1128549Y1874545D01*
X1138609Y1884605D01*
X1145183D01*
X1145785Y1883335D01*
X1144876Y1881761D01*
X1144270Y1879500D01*
Y1877160D01*
X1144876Y1874899D01*
X1146046Y1872871D01*
X1147701Y1871216D01*
X1149729Y1870046D01*
X1151990Y1869440D01*
X1154330D01*
X1156591Y1870046D01*
X1158619Y1871216D01*
X1159550Y1872148D01*
X1160820Y1871622D01*
Y1867940D01*
X1160820D01*
X1161440Y1867130D01*
Y1859050D01*
X1169285D01*
Y1856970D01*
X1160820D01*
Y1848890D01*
X1162595D01*
Y1846810D01*
X1161440D01*
Y1838730D01*
X1170555D01*
Y1836650D01*
X1162400D01*
Y1828570D01*
X1163555D01*
Y1826490D01*
X1162400D01*
Y1818410D01*
X1170555D01*
Y1816330D01*
X1162400D01*
Y1808250D01*
X1163556D01*
Y1806170D01*
X1162710D01*
Y1798090D01*
X1170865D01*
Y1796010D01*
X1162400D01*
Y1787930D01*
X1163555D01*
Y1785850D01*
X1162400D01*
Y1777770D01*
X1163557D01*
X1164043Y1776597D01*
X1041193Y1653747D01*
X1040351Y1652487D01*
X1040055Y1651000D01*
Y1590443D01*
X1038481Y1589534D01*
X1036826Y1587879D01*
X1035656Y1585851D01*
X1035050Y1583590D01*
Y1581250D01*
X1035656Y1578989D01*
X1036826Y1576961D01*
X1037793Y1575995D01*
X1037840Y1575937D01*
X1038252Y1574896D01*
X1037904Y1574270D01*
X1037841Y1574094D01*
X1037737Y1573938D01*
X1037674Y1573622D01*
X1037567Y1573317D01*
X1037577Y1573131D01*
X1037540Y1572947D01*
Y1566970D01*
X1028200D01*
Y1555815D01*
X1024880D01*
X1023393Y1555519D01*
X1022133Y1554677D01*
X1014730Y1547274D01*
Y1537970D01*
Y1529904D01*
X1016379Y1530856D01*
X1017220Y1531698D01*
X1018490Y1531172D01*
Y1526540D01*
X1018687Y1525549D01*
X1019249Y1524709D01*
X1020089Y1524147D01*
X1021080Y1523950D01*
X1037540D01*
Y1503951D01*
X1036270Y1503218D01*
X1031446Y1506003D01*
X1025144Y1508614D01*
X1018554Y1510380D01*
X1011791Y1511270D01*
X1004969D01*
X998206Y1510380D01*
X991616Y1508614D01*
X985314Y1506003D01*
X979406Y1502592D01*
X973994Y1498440D01*
X969170Y1493616D01*
X965017Y1488204D01*
X961607Y1482296D01*
X958996Y1475994D01*
X957230Y1469404D01*
X956340Y1462641D01*
Y1455819D01*
X957230Y1449056D01*
X958996Y1442466D01*
X961607Y1436164D01*
X965017Y1430256D01*
X969170Y1424844D01*
X973994Y1420020D01*
X979406Y1415867D01*
X985314Y1412457D01*
X991616Y1409846D01*
X998206Y1408080D01*
X1004969Y1407190D01*
X1011791D01*
X1018554Y1408080D01*
X1025144Y1409846D01*
X1031446Y1412457D01*
X1036270Y1415242D01*
X1037540Y1414509D01*
Y1200058D01*
X1022350D01*
X1021359Y1199860D01*
X1020519Y1199299D01*
X1019957Y1198459D01*
X1019760Y1197468D01*
Y1164341D01*
X1019794Y1164173D01*
X1019782Y1164003D01*
X1019891Y1163682D01*
X1019957Y1163350D01*
X1018964Y1162550D01*
X1017655Y1161794D01*
X1015646Y1159785D01*
X1014225Y1157325D01*
X1013490Y1154581D01*
Y1151740D01*
X1014225Y1148995D01*
X1015646Y1146535D01*
X1017655Y1144526D01*
X1018964Y1143770D01*
X1019957Y1142970D01*
X1019891Y1142638D01*
X1019782Y1142317D01*
X1019794Y1142147D01*
X1019760Y1141979D01*
Y1019952D01*
X1019957Y1018961D01*
X1020519Y1018121D01*
X1021359Y1017560D01*
X1022350Y1017363D01*
X1365979D01*
X1366970Y1017560D01*
X1367811Y1018121D01*
X1368372Y1018961D01*
X1369245Y1019258D01*
X1369439Y1019146D01*
X1371700Y1018540D01*
X1374040D01*
X1376301Y1019146D01*
X1376495Y1019258D01*
X1377368Y1018961D01*
X1377929Y1018121D01*
X1378770Y1017560D01*
X1379761Y1017363D01*
X1400810D01*
X1401801Y1017560D01*
X1402641Y1018121D01*
X1403203Y1018961D01*
X1403400Y1019952D01*
Y1065530D01*
X1405949D01*
X1411082Y1066343D01*
X1416025Y1067949D01*
X1420656Y1070309D01*
X1424861Y1073364D01*
X1428536Y1077039D01*
X1431591Y1081244D01*
X1433951Y1085875D01*
X1435557Y1090818D01*
X1436178Y1094740D01*
X1403350D01*
Y1102360D01*
X1436178D01*
X1435557Y1106282D01*
X1433951Y1111225D01*
X1431591Y1115856D01*
X1428536Y1120061D01*
X1424861Y1123736D01*
X1420656Y1126791D01*
X1416025Y1129151D01*
X1411082Y1130757D01*
X1405949Y1131570D01*
X1403400D01*
Y1151751D01*
X1403334Y1152083D01*
X1403311Y1152421D01*
X1403236Y1152575D01*
X1403203Y1152742D01*
X1403014Y1153024D01*
X1402865Y1153328D01*
X1402682Y1154145D01*
X1402731Y1154830D01*
X1403902Y1156857D01*
X1404507Y1159118D01*
Y1161459D01*
X1403902Y1163720D01*
X1402731Y1165747D01*
X1402267Y1166212D01*
X1402924Y1167350D01*
X1403298Y1167250D01*
X1405942D01*
X1408495Y1167934D01*
X1410785Y1169256D01*
X1412654Y1171125D01*
X1413976Y1173415D01*
X1414660Y1175968D01*
Y1178612D01*
X1413976Y1181165D01*
X1412654Y1183455D01*
X1410785Y1185324D01*
X1408495Y1186646D01*
X1405942Y1187330D01*
X1403400D01*
Y1196687D01*
X1404579Y1197686D01*
X1404862Y1197610D01*
X1407538D01*
X1410122Y1198302D01*
X1412438Y1199640D01*
X1414330Y1201532D01*
X1415668Y1203848D01*
X1416360Y1206432D01*
Y1209108D01*
X1415668Y1211692D01*
X1414330Y1214008D01*
X1412438Y1215900D01*
X1410122Y1217238D01*
X1407538Y1217930D01*
X1404862D01*
X1402278Y1217238D01*
X1399962Y1215900D01*
X1398070Y1214008D01*
X1396732Y1211692D01*
X1396040Y1209108D01*
Y1206432D01*
X1396732Y1203848D01*
X1398070Y1201532D01*
X1398371Y1201231D01*
X1397885Y1200058D01*
X1389115D01*
X1388629Y1201231D01*
X1388930Y1201532D01*
X1390268Y1203848D01*
X1390960Y1206432D01*
Y1209108D01*
X1390268Y1211692D01*
X1388930Y1214008D01*
X1387038Y1215900D01*
X1384722Y1217238D01*
X1382138Y1217930D01*
X1379462D01*
X1376878Y1217238D01*
X1374562Y1215900D01*
X1372670Y1214008D01*
X1371332Y1211692D01*
X1370640Y1209108D01*
Y1206432D01*
X1371332Y1203848D01*
X1372670Y1201532D01*
X1372971Y1201231D01*
X1372485Y1200058D01*
X1363715D01*
X1363229Y1201231D01*
X1363530Y1201532D01*
X1364868Y1203848D01*
X1365560Y1206432D01*
Y1209108D01*
X1364868Y1211692D01*
X1363530Y1214008D01*
X1361638Y1215900D01*
X1359322Y1217238D01*
X1356738Y1217930D01*
X1354062D01*
X1351478Y1217238D01*
X1349162Y1215900D01*
X1347270Y1214008D01*
X1345932Y1211692D01*
X1345240Y1209108D01*
Y1206432D01*
X1345932Y1203848D01*
X1347270Y1201532D01*
X1347571Y1201231D01*
X1347085Y1200058D01*
X1338315D01*
X1337829Y1201231D01*
X1338130Y1201532D01*
X1339468Y1203848D01*
X1340160Y1206432D01*
Y1209108D01*
X1339468Y1211692D01*
X1338130Y1214008D01*
X1336238Y1215900D01*
X1333922Y1217238D01*
X1331338Y1217930D01*
X1328662D01*
X1326078Y1217238D01*
X1323762Y1215900D01*
X1321870Y1214008D01*
X1320532Y1211692D01*
X1319840Y1209108D01*
Y1206432D01*
X1320532Y1203848D01*
X1321870Y1201532D01*
X1322171Y1201231D01*
X1321685Y1200058D01*
X1312915D01*
X1312429Y1201231D01*
X1312730Y1201532D01*
X1314068Y1203848D01*
X1314760Y1206432D01*
Y1209108D01*
X1314068Y1211692D01*
X1312730Y1214008D01*
X1310838Y1215900D01*
X1308522Y1217238D01*
X1305938Y1217930D01*
X1303262D01*
X1300678Y1217238D01*
X1298362Y1215900D01*
X1296470Y1214008D01*
X1295132Y1211692D01*
X1294440Y1209108D01*
Y1206432D01*
X1295132Y1203848D01*
X1296470Y1201532D01*
X1296771Y1201231D01*
X1296285Y1200058D01*
X1287515D01*
X1287029Y1201231D01*
X1287330Y1201532D01*
X1288668Y1203848D01*
X1289360Y1206432D01*
Y1209108D01*
X1288668Y1211692D01*
X1287330Y1214008D01*
X1285438Y1215900D01*
X1283122Y1217238D01*
X1283085Y1217248D01*
Y1287751D01*
X1345372Y1350038D01*
X1346214Y1351299D01*
X1346510Y1352785D01*
Y1352896D01*
X1347780Y1353422D01*
X1349162Y1352040D01*
X1351478Y1350702D01*
X1354062Y1350010D01*
X1356738D01*
X1359322Y1350702D01*
X1361638Y1352040D01*
X1363530Y1353932D01*
X1364868Y1356248D01*
X1365560Y1358832D01*
Y1361508D01*
X1364868Y1364092D01*
X1363530Y1366408D01*
X1361638Y1368300D01*
X1359322Y1369638D01*
X1356738Y1370330D01*
X1354062D01*
X1351478Y1369638D01*
X1349162Y1368300D01*
X1347780Y1366918D01*
X1346510Y1367444D01*
Y1375997D01*
X1388317Y1417804D01*
X1389159Y1419064D01*
X1389455Y1420551D01*
Y1554539D01*
X1392002Y1557087D01*
X1393326Y1556614D01*
X1393796Y1554859D01*
X1394966Y1552831D01*
X1396621Y1551176D01*
X1398270Y1550224D01*
Y1558290D01*
X1402080D01*
Y1562100D01*
X1410146D01*
X1409194Y1563749D01*
X1407539Y1565404D01*
X1405511Y1566574D01*
X1403250Y1567180D01*
X1400910D01*
X1400622Y1567103D01*
X1399615Y1567876D01*
Y1746833D01*
X1399319Y1748320D01*
X1399178Y1748532D01*
X1400008Y1749970D01*
X1400614Y1752231D01*
Y1754572D01*
X1400008Y1756833D01*
X1398837Y1758860D01*
X1397182Y1760515D01*
X1395155Y1761685D01*
X1392894Y1762291D01*
X1391695D01*
X1391501Y1787045D01*
X1392672Y1787536D01*
X1392811Y1787396D01*
X1394460Y1786444D01*
Y1794510D01*
Y1802576D01*
X1392811Y1801624D01*
X1392560Y1801372D01*
X1391384Y1801853D01*
X1390784Y1878350D01*
X1390684Y1878836D01*
X1390587Y1879321D01*
X1390582Y1879330D01*
X1390579Y1879340D01*
X1390301Y1879749D01*
X1390026Y1880161D01*
X1390017Y1880167D01*
X1390011Y1880175D01*
X1389598Y1880447D01*
X1389186Y1880723D01*
X1389176Y1880725D01*
X1389167Y1880730D01*
X1388681Y1880823D01*
X1388195Y1880920D01*
X1376755D01*
Y1888490D01*
X1376459Y1889977D01*
X1375617Y1891237D01*
X1351487Y1915367D01*
X1350227Y1916209D01*
X1348740Y1916505D01*
X1280748D01*
X1280738Y1916542D01*
X1279400Y1918858D01*
X1277508Y1920750D01*
X1275192Y1922088D01*
X1272608Y1922780D01*
X1269932D01*
X1267348Y1922088D01*
X1265032Y1920750D01*
X1263140Y1918858D01*
X1261802Y1916542D01*
X1261110Y1913958D01*
Y1911282D01*
X1261802Y1908698D01*
X1263140Y1906382D01*
X1265032Y1904490D01*
X1267348Y1903152D01*
X1269932Y1902460D01*
X1272608D01*
X1275192Y1903152D01*
X1277508Y1904490D01*
X1279400Y1906382D01*
X1280738Y1908698D01*
X1280748Y1908735D01*
X1347131D01*
X1368985Y1886881D01*
Y1880920D01*
X1365509D01*
X1365032Y1880825D01*
X1364552Y1880736D01*
X1364537Y1880726D01*
X1364518Y1880723D01*
X1364114Y1880452D01*
X1363704Y1880187D01*
X1363694Y1880172D01*
X1363678Y1880161D01*
X1363408Y1879756D01*
X1363131Y1879355D01*
X1362817Y1879250D01*
X1361061Y1880264D01*
X1358800Y1880870D01*
X1356460D01*
X1354199Y1880264D01*
X1352443Y1879250D01*
X1352129Y1879355D01*
X1351853Y1879756D01*
X1351582Y1880161D01*
X1351566Y1880172D01*
X1351556Y1880187D01*
X1351147Y1880452D01*
X1350741Y1880723D01*
X1350723Y1880726D01*
X1350708Y1880736D01*
X1350229Y1880825D01*
X1349751Y1880920D01*
X1280560D01*
Y1899050D01*
X1261980D01*
Y1880920D01*
X1251678D01*
X1251338Y1882190D01*
X1251574Y1882326D01*
X1253304Y1884056D01*
X1254398Y1885950D01*
X1245870D01*
X1237343D01*
X1238436Y1884056D01*
X1240166Y1882326D01*
X1240402Y1882190D01*
X1240062Y1880920D01*
X1236980D01*
X1235989Y1880723D01*
X1235149Y1880161D01*
X1234587Y1879321D01*
X1234390Y1878330D01*
Y1819282D01*
X1234424Y1819115D01*
X1234412Y1818944D01*
X1234521Y1818623D01*
X1234587Y1818291D01*
X1234682Y1818149D01*
X1234737Y1817987D01*
X1234961Y1817733D01*
X1235149Y1817451D01*
X1235291Y1817356D01*
X1235403Y1817227D01*
X1235707Y1817078D01*
X1235989Y1816889D01*
X1236852Y1815798D01*
X1236580Y1814783D01*
Y1812337D01*
X1236852Y1811322D01*
X1235989Y1810231D01*
X1235707Y1810042D01*
X1235403Y1809892D01*
X1235291Y1809764D01*
X1235149Y1809669D01*
X1234961Y1809388D01*
X1234737Y1809133D01*
X1234682Y1808971D01*
X1234587Y1808829D01*
X1234521Y1808497D01*
X1234412Y1808176D01*
X1234424Y1808006D01*
X1234390Y1807838D01*
Y1753870D01*
X1234518Y1753228D01*
X1234328Y1753178D01*
X1232012Y1751840D01*
X1230120Y1749948D01*
X1228782Y1747632D01*
X1228090Y1745048D01*
Y1742372D01*
X1228782Y1739788D01*
X1230120Y1737472D01*
X1232012Y1735580D01*
X1234328Y1734242D01*
X1234518Y1734192D01*
X1234390Y1733550D01*
Y1703008D01*
X1234014Y1702790D01*
X1233120Y1702421D01*
X1230698Y1703070D01*
X1228022D01*
X1225438Y1702378D01*
X1223122Y1701040D01*
X1221230Y1699148D01*
X1219892Y1696832D01*
X1219200Y1694248D01*
Y1691572D01*
X1219892Y1688988D01*
X1221230Y1686672D01*
X1223122Y1684780D01*
X1225438Y1683442D01*
X1228022Y1682750D01*
X1230698D01*
X1233120Y1683399D01*
X1234014Y1683030D01*
X1234390Y1682812D01*
Y1597710D01*
X1215777D01*
X1215765Y1597707D01*
X1215157Y1599976D01*
X1213934Y1602094D01*
X1212204Y1603824D01*
X1210086Y1605047D01*
X1207723Y1605680D01*
X1205277D01*
X1202914Y1605047D01*
X1200796Y1603824D01*
X1199066Y1602094D01*
X1197843Y1599976D01*
X1197235Y1597707D01*
X1197223Y1597710D01*
X1190377D01*
X1190365Y1597707D01*
X1189757Y1599976D01*
X1188534Y1602094D01*
X1186804Y1603824D01*
X1184686Y1605047D01*
X1182323Y1605680D01*
X1179877D01*
X1177514Y1605047D01*
X1175396Y1603824D01*
X1173666Y1602094D01*
X1173530Y1601858D01*
X1173003Y1601534D01*
X1172111Y1601323D01*
X1171779Y1601389D01*
X1171458Y1601498D01*
X1171287Y1601486D01*
X1171120Y1601520D01*
X1165680D01*
X1165513Y1601486D01*
X1165342Y1601498D01*
X1165021Y1601389D01*
X1164689Y1601323D01*
X1163797Y1601534D01*
X1163270Y1601858D01*
X1163134Y1602094D01*
X1161404Y1603824D01*
X1159286Y1605047D01*
X1156923Y1605680D01*
X1154477D01*
X1152114Y1605047D01*
X1149996Y1603824D01*
X1148266Y1602094D01*
X1148130Y1601858D01*
X1147603Y1601534D01*
X1146711Y1601323D01*
X1146379Y1601389D01*
X1146058Y1601498D01*
X1145887Y1601486D01*
X1145720Y1601520D01*
X1130525D01*
Y1624462D01*
X1130229Y1625949D01*
X1129387Y1627209D01*
X1127899Y1628697D01*
X1126720Y1629485D01*
Y1634324D01*
X1127915Y1634675D01*
X1127990Y1634676D01*
X1129629Y1633037D01*
X1131278Y1632086D01*
Y1640151D01*
X1135088D01*
Y1643961D01*
X1143153D01*
X1142202Y1645610D01*
X1141384Y1646427D01*
X1141494Y1648113D01*
X1141655Y1648236D01*
X1142703Y1649602D01*
X1143362Y1651193D01*
X1143587Y1652900D01*
Y1655090D01*
X1136990D01*
Y1658900D01*
X1133180D01*
Y1670220D01*
X1132326Y1669564D01*
X1131342Y1668283D01*
X1130661Y1668193D01*
X1130620D01*
X1129938Y1668283D01*
X1128954Y1669564D01*
X1127588Y1670613D01*
X1125997Y1671272D01*
X1124290Y1671496D01*
X1122583Y1671272D01*
X1120992Y1670613D01*
X1119626Y1669564D01*
X1118642Y1668283D01*
X1117961Y1668193D01*
X1117920D01*
X1117238Y1668283D01*
X1116255Y1669564D01*
X1114888Y1670613D01*
X1113297Y1671272D01*
X1111590Y1671496D01*
X1109883Y1671272D01*
X1108292Y1670613D01*
X1106926Y1669564D01*
X1105942Y1668283D01*
X1105261Y1668193D01*
X1105220D01*
X1104538Y1668283D01*
X1103555Y1669564D01*
X1102188Y1670613D01*
X1100597Y1671272D01*
X1098890Y1671496D01*
X1097183Y1671272D01*
X1095592Y1670613D01*
X1094226Y1669564D01*
X1093177Y1668198D01*
X1092518Y1666607D01*
X1092294Y1664900D01*
Y1652900D01*
X1092422Y1651926D01*
X1086913Y1646417D01*
X1086071Y1645157D01*
X1085775Y1643670D01*
Y1601520D01*
X1047825D01*
Y1649391D01*
X1175957Y1777523D01*
X1176122Y1777770D01*
X1179480D01*
Y1785850D01*
X1171325D01*
Y1787930D01*
X1179480D01*
Y1796010D01*
X1178635D01*
Y1798090D01*
X1179790D01*
Y1806170D01*
X1171325D01*
Y1808250D01*
X1179480D01*
Y1816330D01*
X1178325D01*
Y1818410D01*
X1179480D01*
Y1826490D01*
X1171325D01*
Y1828570D01*
X1179480D01*
Y1836650D01*
X1178325D01*
Y1838730D01*
X1178520D01*
Y1846810D01*
X1170365D01*
Y1848890D01*
X1177900D01*
Y1856970D01*
X1177055D01*
Y1859050D01*
X1178520D01*
Y1867130D01*
X1178520D01*
X1177900Y1867940D01*
Y1876020D01*
X1176900D01*
Y1878100D01*
X1178210D01*
Y1878485D01*
X1189992D01*
X1190750Y1877172D01*
X1192642Y1875280D01*
X1194958Y1873942D01*
X1197542Y1873250D01*
X1200218D01*
X1202802Y1873942D01*
X1205118Y1875280D01*
X1207010Y1877172D01*
X1208348Y1879488D01*
X1209040Y1882072D01*
Y1884748D01*
X1208348Y1887332D01*
X1207010Y1889648D01*
X1205118Y1891540D01*
X1202802Y1892878D01*
X1200218Y1893570D01*
X1197542D01*
X1194958Y1892878D01*
X1192642Y1891540D01*
X1190750Y1889648D01*
X1189412Y1887332D01*
X1189124Y1886255D01*
X1177055D01*
Y1887002D01*
X1176759Y1888489D01*
X1175917Y1889749D01*
X1174429Y1891237D01*
X1173169Y1892079D01*
X1171682Y1892375D01*
X1137000D01*
X1135513Y1892079D01*
X1134253Y1891237D01*
X1116496Y1873480D01*
X1111910D01*
Y1865848D01*
X1111910Y1865400D01*
X1111910D01*
X1111940Y1864590D01*
X1111940D01*
Y1862004D01*
X1109819Y1859883D01*
X1108681Y1860540D01*
X1108710Y1860650D01*
Y1862990D01*
X1108104Y1865251D01*
X1106934Y1867279D01*
X1105279Y1868934D01*
X1104932Y1869134D01*
X1105139Y1870387D01*
X1105240Y1870407D01*
X1107130Y1871670D01*
X1107211Y1871750D01*
X1108050D01*
Y1872589D01*
X1108130Y1872670D01*
X1109393Y1874560D01*
X1109837Y1876790D01*
Y1878837D01*
X1135477Y1904476D01*
X1136650Y1903990D01*
Y1903662D01*
X1137342Y1901078D01*
X1138680Y1898762D01*
X1140572Y1896870D01*
X1142888Y1895532D01*
X1143000Y1895502D01*
Y1905000D01*
X1146810D01*
Y1908810D01*
X1156308D01*
X1156278Y1908922D01*
X1154940Y1911238D01*
X1153048Y1913130D01*
X1150732Y1914468D01*
X1148148Y1915160D01*
X1147820D01*
X1147334Y1916333D01*
X1163194Y1932193D01*
X1437857D01*
X1438163Y1931887D01*
Y1538509D01*
X1437063Y1537874D01*
X1435896Y1538548D01*
X1433312Y1539240D01*
X1430637D01*
X1428053Y1538548D01*
X1425736Y1537210D01*
X1423844Y1535318D01*
X1422507Y1533002D01*
X1421815Y1530418D01*
Y1527742D01*
X1422507Y1525158D01*
X1423844Y1522842D01*
X1425736Y1520950D01*
X1428053Y1519612D01*
X1430637Y1518920D01*
X1433312D01*
X1435896Y1519612D01*
X1437063Y1520286D01*
X1438163Y1519651D01*
Y1369579D01*
X1436893Y1368846D01*
X1435522Y1369638D01*
X1432938Y1370330D01*
X1430262D01*
X1427678Y1369638D01*
X1425362Y1368300D01*
X1423470Y1366408D01*
X1422132Y1364092D01*
X1421440Y1361508D01*
Y1358832D01*
X1422132Y1356248D01*
X1423470Y1353932D01*
X1425362Y1352040D01*
X1427678Y1350702D01*
X1430262Y1350010D01*
X1432938D01*
X1435522Y1350702D01*
X1436893Y1351494D01*
X1438163Y1350761D01*
Y1217179D01*
X1436893Y1216446D01*
X1435522Y1217238D01*
X1432938Y1217930D01*
X1430262D01*
X1427678Y1217238D01*
X1425362Y1215900D01*
X1423470Y1214008D01*
X1422132Y1211692D01*
X1421440Y1209108D01*
Y1206432D01*
X1422132Y1203848D01*
X1423470Y1201532D01*
X1425362Y1199640D01*
X1427678Y1198302D01*
X1430262Y1197610D01*
X1432938D01*
X1435522Y1198302D01*
X1436893Y1199094D01*
X1438163Y1198361D01*
Y1185142D01*
X1436893Y1184616D01*
X1436185Y1185324D01*
X1433895Y1186646D01*
X1433830Y1186663D01*
Y1177290D01*
Y1167917D01*
X1433895Y1167934D01*
X1436185Y1169256D01*
X1436893Y1169964D01*
X1438163Y1169438D01*
Y990944D01*
X1422179Y974960D01*
X1419907D01*
X1417544Y974327D01*
X1415426Y973104D01*
X1413696Y971374D01*
X1412473Y969256D01*
X1411840Y966893D01*
Y964447D01*
X1412473Y962084D01*
X1413696Y959966D01*
X1415426Y958236D01*
X1417544Y957013D01*
X1419907Y956380D01*
X1422353D01*
X1424716Y957013D01*
X1426834Y958236D01*
X1428564Y959966D01*
X1429787Y962084D01*
X1430420Y964447D01*
Y966719D01*
X1448110Y984410D01*
X1449373Y986300D01*
X1449817Y988530D01*
Y1158162D01*
X1449971Y1158225D01*
X1451087Y1158374D01*
X1452116Y1156591D01*
X1453771Y1154936D01*
X1455420Y1153984D01*
Y1162050D01*
Y1170116D01*
X1453771Y1169164D01*
X1452116Y1167509D01*
X1451087Y1165726D01*
X1449971Y1165875D01*
X1449817Y1165938D01*
Y1198944D01*
X1451087Y1199452D01*
X1453078Y1198302D01*
X1455662Y1197610D01*
X1458338D01*
X1460922Y1198302D01*
X1463238Y1199640D01*
X1465130Y1201532D01*
X1466468Y1203848D01*
X1467160Y1206432D01*
Y1209108D01*
X1466468Y1211692D01*
X1465130Y1214008D01*
X1463238Y1215900D01*
X1460922Y1217238D01*
X1458338Y1217930D01*
X1455662D01*
X1453078Y1217238D01*
X1451087Y1216088D01*
X1449817Y1216596D01*
Y1351344D01*
X1451087Y1351852D01*
X1453078Y1350702D01*
X1453190Y1350672D01*
Y1360170D01*
Y1369668D01*
X1453078Y1369638D01*
X1451087Y1368488D01*
X1449817Y1368996D01*
Y1380800D01*
X1451087Y1381141D01*
X1452501Y1379726D01*
X1454150Y1378774D01*
Y1386840D01*
Y1394906D01*
X1452501Y1393954D01*
X1451087Y1392539D01*
X1449817Y1392880D01*
Y1817320D01*
X1451087Y1817403D01*
X1451260Y1816086D01*
X1453026Y1809496D01*
X1455637Y1803194D01*
X1459048Y1797286D01*
X1463200Y1791874D01*
X1468024Y1787050D01*
X1473436Y1782897D01*
X1479344Y1779487D01*
X1485646Y1776876D01*
X1492236Y1775110D01*
X1498999Y1774220D01*
X1505821D01*
X1512584Y1775110D01*
X1519174Y1776876D01*
X1525476Y1779487D01*
X1531384Y1782897D01*
X1536796Y1787050D01*
X1541620Y1791874D01*
X1545773Y1797286D01*
X1549183Y1803194D01*
X1551794Y1809496D01*
X1553560Y1816086D01*
X1554450Y1822849D01*
Y1829671D01*
X1553560Y1836434D01*
X1551794Y1843024D01*
X1549183Y1849326D01*
X1545773Y1855234D01*
X1541620Y1860646D01*
X1536796Y1865470D01*
X1531384Y1869622D01*
X1525476Y1873033D01*
X1519174Y1875644D01*
X1512584Y1877410D01*
X1505821Y1878300D01*
X1498999D01*
X1492236Y1877410D01*
X1485646Y1875644D01*
X1479344Y1873033D01*
X1473436Y1869622D01*
X1468024Y1865470D01*
X1463200Y1860646D01*
X1459048Y1855234D01*
X1455637Y1849326D01*
X1453026Y1843024D01*
X1451260Y1836434D01*
X1451087Y1835117D01*
X1449817Y1835200D01*
Y1934300D01*
X1449373Y1936530D01*
X1448110Y1938421D01*
X1444391Y1942140D01*
X1442500Y1943403D01*
X1440270Y1943847D01*
X1160780D01*
X1158550Y1943403D01*
X1156660Y1942140D01*
X1130203Y1915684D01*
X1129030Y1916170D01*
Y1916498D01*
X1128338Y1919082D01*
X1127000Y1921398D01*
X1125108Y1923290D01*
X1122792Y1924628D01*
X1120208Y1925320D01*
X1117532D01*
X1114948Y1924628D01*
X1112632Y1923290D01*
X1110740Y1921398D01*
X1109402Y1919082D01*
X1108710Y1916498D01*
Y1913965D01*
X1100890D01*
Y1927310D01*
X1099041D01*
Y1940342D01*
X1098745Y1941829D01*
X1097903Y1943089D01*
X1096415Y1944577D01*
X1095155Y1945419D01*
X1093668Y1945715D01*
D02*
G37*
G36*
X1011791Y1878300D02*
X1004969D01*
X998206Y1877410D01*
X991616Y1875644D01*
X985314Y1873033D01*
X979406Y1869622D01*
X973994Y1865470D01*
X969170Y1860646D01*
X965017Y1855234D01*
X961607Y1849326D01*
X958996Y1843024D01*
X957230Y1836434D01*
X956340Y1829671D01*
Y1822849D01*
X957230Y1816086D01*
X958996Y1809496D01*
X961607Y1803194D01*
X965017Y1797286D01*
X969170Y1791874D01*
X973994Y1787050D01*
X979406Y1782897D01*
X985314Y1779487D01*
X991616Y1776876D01*
X998206Y1775110D01*
X1004969Y1774220D01*
X1011791D01*
X1018554Y1775110D01*
X1025144Y1776876D01*
X1031446Y1779487D01*
X1037354Y1782897D01*
X1042766Y1787050D01*
X1047590Y1791874D01*
X1051742Y1797286D01*
X1055153Y1803194D01*
X1057764Y1809496D01*
X1059530Y1816086D01*
X1060420Y1822849D01*
Y1829671D01*
X1059530Y1836434D01*
X1057764Y1843024D01*
X1055153Y1849326D01*
X1051742Y1855234D01*
X1047590Y1860646D01*
X1042766Y1865470D01*
X1037354Y1869622D01*
X1031446Y1873033D01*
X1025144Y1875644D01*
X1018554Y1877410D01*
X1011791Y1878300D01*
D02*
G37*
G36*
X1525651Y1732120D02*
X1522349D01*
X1519160Y1731265D01*
X1516300Y1729615D01*
X1513965Y1727280D01*
X1512315Y1724420D01*
X1511460Y1721231D01*
Y1717929D01*
X1512315Y1714740D01*
X1513965Y1711880D01*
X1516300Y1709545D01*
X1519160Y1707895D01*
X1522349Y1707040D01*
X1525651D01*
X1528840Y1707895D01*
X1531700Y1709545D01*
X1534034Y1711880D01*
X1535685Y1714740D01*
X1536540Y1717929D01*
Y1721231D01*
X1535685Y1724420D01*
X1534034Y1727280D01*
X1531700Y1729615D01*
X1528840Y1731265D01*
X1525651Y1732120D01*
D02*
G37*
G36*
X987171D02*
X983869D01*
X980680Y1731265D01*
X977820Y1729615D01*
X975486Y1727280D01*
X973835Y1724420D01*
X972980Y1721231D01*
Y1717929D01*
X973835Y1714740D01*
X975486Y1711880D01*
X977820Y1709545D01*
X980680Y1707895D01*
X983869Y1707040D01*
X987171D01*
X990360Y1707895D01*
X993220Y1709545D01*
X995555Y1711880D01*
X997205Y1714740D01*
X998060Y1717929D01*
Y1721231D01*
X997205Y1724420D01*
X995555Y1727280D01*
X993220Y1729615D01*
X990360Y1731265D01*
X987171Y1732120D01*
D02*
G37*
G36*
X1184910Y1681118D02*
Y1676400D01*
X1189628D01*
X1188534Y1678294D01*
X1186804Y1680024D01*
X1184910Y1681118D01*
D02*
G37*
G36*
X1177290D02*
X1175396Y1680024D01*
X1173666Y1678294D01*
X1172572Y1676400D01*
X1177290D01*
Y1681118D01*
D02*
G37*
G36*
X1189628Y1668780D02*
X1184910D01*
Y1664062D01*
X1186804Y1665156D01*
X1188534Y1666886D01*
X1189628Y1668780D01*
D02*
G37*
G36*
X1177290D02*
X1172572D01*
X1173666Y1666886D01*
X1175396Y1665156D01*
X1177290Y1664062D01*
Y1668780D01*
D02*
G37*
G36*
X1215790Y1681880D02*
X1197210D01*
Y1663300D01*
X1215790D01*
Y1681880D01*
D02*
G37*
G36*
X1156923D02*
X1154477D01*
X1152114Y1681247D01*
X1149996Y1680024D01*
X1148266Y1678294D01*
X1147043Y1676176D01*
X1146410Y1673813D01*
Y1671367D01*
X1147043Y1669004D01*
X1148266Y1666886D01*
X1149996Y1665156D01*
X1152114Y1663933D01*
X1154477Y1663300D01*
X1156923D01*
X1159286Y1663933D01*
X1161404Y1665156D01*
X1163134Y1666886D01*
X1164357Y1669004D01*
X1164990Y1671367D01*
Y1673813D01*
X1164357Y1676176D01*
X1163134Y1678294D01*
X1161404Y1680024D01*
X1159286Y1681247D01*
X1156923Y1681880D01*
D02*
G37*
G36*
X1140800Y1670220D02*
Y1662710D01*
X1143587D01*
Y1664900D01*
X1143362Y1666607D01*
X1142703Y1668198D01*
X1141655Y1669564D01*
X1140800Y1670220D01*
D02*
G37*
G36*
X1525651Y1681320D02*
X1522349D01*
X1519160Y1680465D01*
X1516300Y1678815D01*
X1513965Y1676480D01*
X1512315Y1673620D01*
X1511460Y1670431D01*
Y1667129D01*
X1512315Y1663940D01*
X1513965Y1661080D01*
X1516300Y1658746D01*
X1519160Y1657095D01*
X1522349Y1656240D01*
X1525651D01*
X1528840Y1657095D01*
X1531700Y1658746D01*
X1534034Y1661080D01*
X1535685Y1663940D01*
X1536540Y1667129D01*
Y1670431D01*
X1535685Y1673620D01*
X1534034Y1676480D01*
X1531700Y1678815D01*
X1528840Y1680465D01*
X1525651Y1681320D01*
D02*
G37*
G36*
X987171D02*
X983869D01*
X980680Y1680465D01*
X977820Y1678815D01*
X975486Y1676480D01*
X973835Y1673620D01*
X972980Y1670431D01*
Y1667129D01*
X973835Y1663940D01*
X975486Y1661080D01*
X977820Y1658746D01*
X980680Y1657095D01*
X983869Y1656240D01*
X987171D01*
X990360Y1657095D01*
X993220Y1658746D01*
X995555Y1661080D01*
X997205Y1663940D01*
X998060Y1667129D01*
Y1670431D01*
X997205Y1673620D01*
X995555Y1676480D01*
X993220Y1678815D01*
X990360Y1680465D01*
X987171Y1681320D01*
D02*
G37*
G36*
X1471998Y1675130D02*
X1469322D01*
X1466738Y1674438D01*
X1464422Y1673100D01*
X1462530Y1671208D01*
X1461192Y1668892D01*
X1460500Y1666308D01*
Y1663632D01*
X1461192Y1661048D01*
X1462530Y1658732D01*
X1464422Y1656840D01*
X1466738Y1655502D01*
X1469322Y1654810D01*
X1471998D01*
X1474582Y1655502D01*
X1476898Y1656840D01*
X1478790Y1658732D01*
X1480128Y1661048D01*
X1480820Y1663632D01*
Y1666308D01*
X1480128Y1668892D01*
X1478790Y1671208D01*
X1476898Y1673100D01*
X1474582Y1674438D01*
X1471998Y1675130D01*
D02*
G37*
G36*
X1143153Y1636341D02*
X1138898D01*
Y1632086D01*
X1140546Y1633037D01*
X1142202Y1634693D01*
X1143153Y1636341D01*
D02*
G37*
G36*
X1204028Y1629410D02*
X1201352D01*
X1198768Y1628718D01*
X1196452Y1627380D01*
X1194560Y1625488D01*
X1193222Y1623172D01*
X1192530Y1620588D01*
Y1617912D01*
X1193222Y1615328D01*
X1194560Y1613012D01*
X1196452Y1611120D01*
X1198768Y1609782D01*
X1201352Y1609090D01*
X1204028D01*
X1206612Y1609782D01*
X1208928Y1611120D01*
X1210820Y1613012D01*
X1212158Y1615328D01*
X1212850Y1617912D01*
Y1620588D01*
X1212158Y1623172D01*
X1210820Y1625488D01*
X1208928Y1627380D01*
X1206612Y1628718D01*
X1204028Y1629410D01*
D02*
G37*
G36*
X1525651Y1630520D02*
X1522349D01*
X1519160Y1629665D01*
X1516300Y1628015D01*
X1513965Y1625680D01*
X1512315Y1622820D01*
X1511460Y1619631D01*
Y1616329D01*
X1512315Y1613140D01*
X1513965Y1610280D01*
X1516300Y1607946D01*
X1519160Y1606295D01*
X1522349Y1605440D01*
X1525651D01*
X1528840Y1606295D01*
X1531700Y1607946D01*
X1534034Y1610280D01*
X1535685Y1613140D01*
X1536540Y1616329D01*
Y1619631D01*
X1535685Y1622820D01*
X1534034Y1625680D01*
X1531700Y1628015D01*
X1528840Y1629665D01*
X1525651Y1630520D01*
D02*
G37*
G36*
X987171D02*
X983869D01*
X980680Y1629665D01*
X977820Y1628015D01*
X975486Y1625680D01*
X973835Y1622820D01*
X972980Y1619631D01*
Y1616329D01*
X973835Y1613140D01*
X975486Y1610280D01*
X977820Y1607946D01*
X980680Y1606295D01*
X983869Y1605440D01*
X987171D01*
X990360Y1606295D01*
X993220Y1607946D01*
X995555Y1610280D01*
X997205Y1613140D01*
X998060Y1616329D01*
Y1619631D01*
X997205Y1622820D01*
X995555Y1625680D01*
X993220Y1628015D01*
X990360Y1629665D01*
X987171Y1630520D01*
D02*
G37*
G36*
X1525651Y1579720D02*
X1522349D01*
X1519160Y1578865D01*
X1516300Y1577215D01*
X1513965Y1574880D01*
X1512315Y1572020D01*
X1511460Y1568831D01*
Y1565529D01*
X1512315Y1562340D01*
X1513965Y1559480D01*
X1516300Y1557146D01*
X1519160Y1555495D01*
X1522349Y1554640D01*
X1525651D01*
X1528840Y1555495D01*
X1531700Y1557146D01*
X1534034Y1559480D01*
X1535685Y1562340D01*
X1536540Y1565529D01*
Y1568831D01*
X1535685Y1572020D01*
X1534034Y1574880D01*
X1531700Y1577215D01*
X1528840Y1578865D01*
X1525651Y1579720D01*
D02*
G37*
G36*
X987171D02*
X983869D01*
X980680Y1578865D01*
X977820Y1577215D01*
X975486Y1574880D01*
X973835Y1572020D01*
X972980Y1568831D01*
Y1565529D01*
X973835Y1562340D01*
X975486Y1559480D01*
X977820Y1557146D01*
X980680Y1555495D01*
X983869Y1554640D01*
X987171D01*
X990360Y1555495D01*
X993220Y1557146D01*
X995555Y1559480D01*
X997205Y1562340D01*
X998060Y1565529D01*
Y1568831D01*
X997205Y1572020D01*
X995555Y1574880D01*
X993220Y1577215D01*
X990360Y1578865D01*
X987171Y1579720D01*
D02*
G37*
G36*
X1410146Y1554480D02*
X1405890D01*
Y1550224D01*
X1407539Y1551176D01*
X1409194Y1552831D01*
X1410146Y1554480D01*
D02*
G37*
G36*
X1007110Y1546036D02*
X1005461Y1545084D01*
X1003806Y1543429D01*
X1002854Y1541780D01*
X1007110D01*
Y1546036D01*
D02*
G37*
G36*
Y1534160D02*
X1002854D01*
X1003806Y1532511D01*
X1005461Y1530856D01*
X1007110Y1529904D01*
Y1534160D01*
D02*
G37*
G36*
X1413578Y1494790D02*
X1410902D01*
X1408318Y1494098D01*
X1406002Y1492760D01*
X1404110Y1490868D01*
X1402772Y1488552D01*
X1402080Y1485968D01*
Y1483292D01*
X1402772Y1480708D01*
X1404110Y1478392D01*
X1406002Y1476500D01*
X1408318Y1475162D01*
X1410902Y1474470D01*
X1413578D01*
X1416162Y1475162D01*
X1418478Y1476500D01*
X1420370Y1478392D01*
X1421708Y1480708D01*
X1422400Y1483292D01*
Y1485968D01*
X1421708Y1488552D01*
X1420370Y1490868D01*
X1418478Y1492760D01*
X1416162Y1494098D01*
X1413578Y1494790D01*
D02*
G37*
G36*
X1428750Y1452218D02*
Y1446530D01*
X1434438D01*
X1434408Y1446642D01*
X1433070Y1448958D01*
X1431178Y1450850D01*
X1428862Y1452188D01*
X1428750Y1452218D01*
D02*
G37*
G36*
X1421130D02*
X1421018Y1452188D01*
X1418702Y1450850D01*
X1416810Y1448958D01*
X1415472Y1446642D01*
X1415443Y1446530D01*
X1421130D01*
Y1452218D01*
D02*
G37*
G36*
X1434438Y1438910D02*
X1428750D01*
Y1433223D01*
X1428862Y1433252D01*
X1431178Y1434590D01*
X1433070Y1436482D01*
X1434408Y1438798D01*
X1434438Y1438910D01*
D02*
G37*
G36*
X1421130D02*
X1415443D01*
X1415472Y1438798D01*
X1416810Y1436482D01*
X1418702Y1434590D01*
X1421018Y1433252D01*
X1421130Y1433223D01*
Y1438910D01*
D02*
G37*
G36*
X1507091Y1512540D02*
X1500269D01*
X1493506Y1511650D01*
X1486916Y1509884D01*
X1480614Y1507273D01*
X1474706Y1503862D01*
X1469294Y1499710D01*
X1464470Y1494886D01*
X1460318Y1489474D01*
X1456907Y1483566D01*
X1454296Y1477264D01*
X1452530Y1470674D01*
X1451640Y1463911D01*
Y1457089D01*
X1452530Y1450326D01*
X1454296Y1443736D01*
X1456907Y1437434D01*
X1460318Y1431526D01*
X1464470Y1426114D01*
X1469294Y1421290D01*
X1474706Y1417137D01*
X1480614Y1413727D01*
X1486916Y1411116D01*
X1493506Y1409350D01*
X1500269Y1408460D01*
X1507091D01*
X1513854Y1409350D01*
X1520444Y1411116D01*
X1526746Y1413727D01*
X1532654Y1417137D01*
X1538066Y1421290D01*
X1542890Y1426114D01*
X1547043Y1431526D01*
X1550453Y1437434D01*
X1553064Y1443736D01*
X1554830Y1450326D01*
X1555720Y1457089D01*
Y1463911D01*
X1554830Y1470674D01*
X1553064Y1477264D01*
X1550453Y1483566D01*
X1547043Y1489474D01*
X1542890Y1494886D01*
X1538066Y1499710D01*
X1532654Y1503862D01*
X1526746Y1507273D01*
X1520444Y1509884D01*
X1513854Y1511650D01*
X1507091Y1512540D01*
D02*
G37*
G36*
X1461770Y1394906D02*
Y1390650D01*
X1466026D01*
X1465074Y1392299D01*
X1463419Y1393954D01*
X1461770Y1394906D01*
D02*
G37*
G36*
X1466026Y1383030D02*
X1461770D01*
Y1378774D01*
X1463419Y1379726D01*
X1465074Y1381381D01*
X1466026Y1383030D01*
D02*
G37*
G36*
X1460810Y1369668D02*
Y1363980D01*
X1466497D01*
X1466468Y1364092D01*
X1465130Y1366408D01*
X1463238Y1368300D01*
X1460922Y1369638D01*
X1460810Y1369668D01*
D02*
G37*
G36*
X1466497Y1356360D02*
X1460810D01*
Y1350672D01*
X1460922Y1350702D01*
X1463238Y1352040D01*
X1465130Y1353932D01*
X1466468Y1356248D01*
X1466497Y1356360D01*
D02*
G37*
G36*
X1534538Y1370330D02*
X1531862D01*
X1529278Y1369638D01*
X1526962Y1368300D01*
X1525070Y1366408D01*
X1523732Y1364092D01*
X1523040Y1361508D01*
Y1358832D01*
X1523732Y1356248D01*
X1525070Y1353932D01*
X1526962Y1352040D01*
X1529278Y1350702D01*
X1531862Y1350010D01*
X1534538D01*
X1537122Y1350702D01*
X1539438Y1352040D01*
X1541330Y1353932D01*
X1542668Y1356248D01*
X1543360Y1358832D01*
Y1361508D01*
X1542668Y1364092D01*
X1541330Y1366408D01*
X1539438Y1368300D01*
X1537122Y1369638D01*
X1534538Y1370330D01*
D02*
G37*
G36*
X1509138D02*
X1506462D01*
X1503878Y1369638D01*
X1501562Y1368300D01*
X1499670Y1366408D01*
X1498332Y1364092D01*
X1497640Y1361508D01*
Y1358832D01*
X1498332Y1356248D01*
X1499670Y1353932D01*
X1501562Y1352040D01*
X1503878Y1350702D01*
X1506462Y1350010D01*
X1509138D01*
X1511722Y1350702D01*
X1514038Y1352040D01*
X1515930Y1353932D01*
X1517268Y1356248D01*
X1517960Y1358832D01*
Y1361508D01*
X1517268Y1364092D01*
X1515930Y1366408D01*
X1514038Y1368300D01*
X1511722Y1369638D01*
X1509138Y1370330D01*
D02*
G37*
G36*
X1483738D02*
X1481062D01*
X1478478Y1369638D01*
X1476162Y1368300D01*
X1474270Y1366408D01*
X1472932Y1364092D01*
X1472240Y1361508D01*
Y1358832D01*
X1472932Y1356248D01*
X1474270Y1353932D01*
X1476162Y1352040D01*
X1478478Y1350702D01*
X1481062Y1350010D01*
X1483738D01*
X1486322Y1350702D01*
X1488638Y1352040D01*
X1490530Y1353932D01*
X1491868Y1356248D01*
X1492560Y1358832D01*
Y1361508D01*
X1491868Y1364092D01*
X1490530Y1366408D01*
X1488638Y1368300D01*
X1486322Y1369638D01*
X1483738Y1370330D01*
D02*
G37*
G36*
X1407538D02*
X1404862D01*
X1402278Y1369638D01*
X1399962Y1368300D01*
X1398070Y1366408D01*
X1396732Y1364092D01*
X1396040Y1361508D01*
Y1358832D01*
X1396732Y1356248D01*
X1398070Y1353932D01*
X1399962Y1352040D01*
X1402278Y1350702D01*
X1404862Y1350010D01*
X1407538D01*
X1410122Y1350702D01*
X1412438Y1352040D01*
X1414330Y1353932D01*
X1415668Y1356248D01*
X1416360Y1358832D01*
Y1361508D01*
X1415668Y1364092D01*
X1414330Y1366408D01*
X1412438Y1368300D01*
X1410122Y1369638D01*
X1407538Y1370330D01*
D02*
G37*
G36*
X1382138D02*
X1379462D01*
X1376878Y1369638D01*
X1374562Y1368300D01*
X1372670Y1366408D01*
X1371332Y1364092D01*
X1370640Y1361508D01*
Y1358832D01*
X1371332Y1356248D01*
X1372670Y1353932D01*
X1374562Y1352040D01*
X1376878Y1350702D01*
X1379462Y1350010D01*
X1382138D01*
X1384722Y1350702D01*
X1387038Y1352040D01*
X1388930Y1353932D01*
X1390268Y1356248D01*
X1390960Y1358832D01*
Y1361508D01*
X1390268Y1364092D01*
X1388930Y1366408D01*
X1387038Y1368300D01*
X1384722Y1369638D01*
X1382138Y1370330D01*
D02*
G37*
G36*
X1560020Y1370960D02*
X1557180D01*
X1554435Y1370225D01*
X1551975Y1368804D01*
X1549966Y1366795D01*
X1548545Y1364335D01*
X1547810Y1361591D01*
Y1358750D01*
X1548545Y1356005D01*
X1549966Y1353545D01*
X1551975Y1351536D01*
X1554435Y1350115D01*
X1557180Y1349380D01*
X1560020D01*
X1562765Y1350115D01*
X1565225Y1351536D01*
X1567234Y1353545D01*
X1568655Y1356005D01*
X1569390Y1358750D01*
Y1361591D01*
X1568655Y1364335D01*
X1567234Y1366795D01*
X1565225Y1368804D01*
X1562765Y1370225D01*
X1560020Y1370960D01*
D02*
G37*
G36*
X1000828Y1357630D02*
X998152D01*
X995568Y1356938D01*
X993252Y1355600D01*
X991360Y1353708D01*
X990022Y1351392D01*
X989330Y1348808D01*
Y1346132D01*
X990022Y1343548D01*
X991360Y1341232D01*
X993252Y1339340D01*
X995568Y1338002D01*
X998152Y1337310D01*
X1000828D01*
X1003412Y1338002D01*
X1005728Y1339340D01*
X1007620Y1341232D01*
X1008958Y1343548D01*
X1009650Y1346132D01*
Y1348808D01*
X1008958Y1351392D01*
X1007620Y1353708D01*
X1005728Y1355600D01*
X1003412Y1356938D01*
X1000828Y1357630D01*
D02*
G37*
G36*
X1002030Y1252828D02*
Y1247140D01*
X1007718D01*
X1007688Y1247252D01*
X1006350Y1249568D01*
X1004458Y1251460D01*
X1002142Y1252798D01*
X1002030Y1252828D01*
D02*
G37*
G36*
X994410D02*
X994298Y1252798D01*
X991982Y1251460D01*
X990090Y1249568D01*
X988752Y1247252D01*
X988723Y1247140D01*
X994410D01*
Y1252828D01*
D02*
G37*
G36*
X1007718Y1239520D02*
X1002030D01*
Y1233832D01*
X1002142Y1233862D01*
X1004458Y1235200D01*
X1006350Y1237092D01*
X1007688Y1239408D01*
X1007718Y1239520D01*
D02*
G37*
G36*
X994410D02*
X988723D01*
X988752Y1239408D01*
X990090Y1237092D01*
X991982Y1235200D01*
X994298Y1233862D01*
X994410Y1233832D01*
Y1239520D01*
D02*
G37*
G36*
X1511610Y1217268D02*
Y1211580D01*
X1517298D01*
X1517268Y1211692D01*
X1515930Y1214008D01*
X1514038Y1215900D01*
X1511722Y1217238D01*
X1511610Y1217268D01*
D02*
G37*
G36*
X1503990D02*
X1503878Y1217238D01*
X1501562Y1215900D01*
X1499670Y1214008D01*
X1498332Y1211692D01*
X1498302Y1211580D01*
X1503990D01*
Y1217268D01*
D02*
G37*
G36*
X1517298Y1203960D02*
X1511610D01*
Y1198272D01*
X1511722Y1198302D01*
X1514038Y1199640D01*
X1515930Y1201532D01*
X1517268Y1203848D01*
X1517298Y1203960D01*
D02*
G37*
G36*
X1503990D02*
X1498302D01*
X1498332Y1203848D01*
X1499670Y1201532D01*
X1501562Y1199640D01*
X1503878Y1198302D01*
X1503990Y1198272D01*
Y1203960D01*
D02*
G37*
G36*
X1534538Y1217930D02*
X1531862D01*
X1529278Y1217238D01*
X1526962Y1215900D01*
X1525070Y1214008D01*
X1523732Y1211692D01*
X1523040Y1209108D01*
Y1206432D01*
X1523732Y1203848D01*
X1525070Y1201532D01*
X1526962Y1199640D01*
X1529278Y1198302D01*
X1531862Y1197610D01*
X1534538D01*
X1537122Y1198302D01*
X1539438Y1199640D01*
X1541330Y1201532D01*
X1542668Y1203848D01*
X1543360Y1206432D01*
Y1209108D01*
X1542668Y1211692D01*
X1541330Y1214008D01*
X1539438Y1215900D01*
X1537122Y1217238D01*
X1534538Y1217930D01*
D02*
G37*
G36*
X1483738D02*
X1481062D01*
X1478478Y1217238D01*
X1476162Y1215900D01*
X1474270Y1214008D01*
X1472932Y1211692D01*
X1472240Y1209108D01*
Y1206432D01*
X1472932Y1203848D01*
X1474270Y1201532D01*
X1476162Y1199640D01*
X1478478Y1198302D01*
X1481062Y1197610D01*
X1483738D01*
X1486322Y1198302D01*
X1488638Y1199640D01*
X1490530Y1201532D01*
X1491868Y1203848D01*
X1492560Y1206432D01*
Y1209108D01*
X1491868Y1211692D01*
X1490530Y1214008D01*
X1488638Y1215900D01*
X1486322Y1217238D01*
X1483738Y1217930D01*
D02*
G37*
G36*
X1560020Y1218560D02*
X1557180D01*
X1554435Y1217825D01*
X1551975Y1216404D01*
X1549966Y1214395D01*
X1548545Y1211935D01*
X1547810Y1209191D01*
Y1206349D01*
X1548545Y1203605D01*
X1549966Y1201145D01*
X1551975Y1199136D01*
X1554435Y1197715D01*
X1557180Y1196980D01*
X1560020D01*
X1562765Y1197715D01*
X1565225Y1199136D01*
X1567234Y1201145D01*
X1568655Y1203605D01*
X1569390Y1206349D01*
Y1209191D01*
X1568655Y1211935D01*
X1567234Y1214395D01*
X1565225Y1216404D01*
X1562765Y1217825D01*
X1560020Y1218560D01*
D02*
G37*
G36*
X1426210Y1186663D02*
X1426145Y1186646D01*
X1423855Y1185324D01*
X1421986Y1183455D01*
X1420664Y1181165D01*
X1420647Y1181100D01*
X1426210D01*
Y1186663D01*
D02*
G37*
G36*
Y1173480D02*
X1420647D01*
X1420664Y1173415D01*
X1421986Y1171125D01*
X1423855Y1169256D01*
X1426145Y1167934D01*
X1426210Y1167917D01*
Y1173480D01*
D02*
G37*
G36*
X1463040Y1170116D02*
Y1165860D01*
X1467296D01*
X1466344Y1167509D01*
X1464689Y1169164D01*
X1463040Y1170116D01*
D02*
G37*
G36*
X1467296Y1158240D02*
X1463040D01*
Y1153984D01*
X1464689Y1154936D01*
X1466344Y1156591D01*
X1467296Y1158240D01*
D02*
G37*
G36*
X1467350Y1108834D02*
X1464872Y1108342D01*
X1462772Y1106938D01*
X1461369Y1104838D01*
X1460876Y1102360D01*
Y1094740D01*
X1461369Y1092262D01*
X1462772Y1090162D01*
X1464872Y1088758D01*
X1467350Y1088266D01*
X1469828Y1088758D01*
X1471928Y1090162D01*
X1473332Y1092262D01*
X1473824Y1094740D01*
Y1102360D01*
X1473332Y1104838D01*
X1471928Y1106938D01*
X1469828Y1108342D01*
X1467350Y1108834D01*
D02*
G37*
G36*
X1478280Y1034388D02*
Y1028700D01*
X1483967D01*
X1483938Y1028812D01*
X1482600Y1031128D01*
X1480708Y1033020D01*
X1478392Y1034358D01*
X1478280Y1034388D01*
D02*
G37*
G36*
X1470660D02*
X1470548Y1034358D01*
X1468232Y1033020D01*
X1466340Y1031128D01*
X1465002Y1028812D01*
X1464973Y1028700D01*
X1470660D01*
Y1034388D01*
D02*
G37*
G36*
X1483967Y1021080D02*
X1478280D01*
Y1015393D01*
X1478392Y1015422D01*
X1480708Y1016760D01*
X1482600Y1018652D01*
X1483938Y1020968D01*
X1483967Y1021080D01*
D02*
G37*
G36*
X1470660D02*
X1464973D01*
X1465002Y1020968D01*
X1466340Y1018652D01*
X1468232Y1016760D01*
X1470548Y1015422D01*
X1470660Y1015393D01*
Y1021080D01*
D02*
G37*
G36*
X1354220Y974960D02*
X1348740D01*
Y969480D01*
X1354220D01*
Y974960D01*
D02*
G37*
G36*
X1341120D02*
X1335640D01*
Y969480D01*
X1341120D01*
Y974960D01*
D02*
G37*
G36*
X1551651Y1013460D02*
X1547148D01*
X1542732Y1012581D01*
X1538572Y1010858D01*
X1534828Y1008356D01*
X1531644Y1005172D01*
X1529142Y1001428D01*
X1527419Y997268D01*
X1526540Y992851D01*
Y988348D01*
X1527419Y983932D01*
X1529142Y979772D01*
X1531644Y976028D01*
X1534828Y972843D01*
X1538572Y970342D01*
X1542732Y968618D01*
X1547148Y967740D01*
X1551651D01*
X1556068Y968618D01*
X1560228Y970342D01*
X1563972Y972843D01*
X1567157Y976028D01*
X1569658Y979772D01*
X1571382Y983932D01*
X1572260Y988348D01*
Y992851D01*
X1571382Y997268D01*
X1569658Y1001428D01*
X1567157Y1005172D01*
X1563972Y1008356D01*
X1560228Y1010858D01*
X1556068Y1012581D01*
X1551651Y1013460D01*
D02*
G37*
G36*
X1463108Y977900D02*
X1460432D01*
X1457848Y977208D01*
X1455532Y975870D01*
X1453640Y973978D01*
X1452302Y971662D01*
X1451610Y969078D01*
Y966402D01*
X1452302Y963818D01*
X1453640Y961502D01*
X1455532Y959610D01*
X1457848Y958272D01*
X1460432Y957580D01*
X1463108D01*
X1465692Y958272D01*
X1468008Y959610D01*
X1469900Y961502D01*
X1471238Y963818D01*
X1471930Y966402D01*
Y969078D01*
X1471238Y971662D01*
X1469900Y973978D01*
X1468008Y975870D01*
X1465692Y977208D01*
X1463108Y977900D01*
D02*
G37*
G36*
X1178090Y963310D02*
Y956970D01*
X1184430D01*
X1184335Y957325D01*
X1182914Y959785D01*
X1180905Y961794D01*
X1178445Y963215D01*
X1178090Y963310D01*
D02*
G37*
G36*
X1170470D02*
X1170115Y963215D01*
X1167655Y961794D01*
X1165646Y959785D01*
X1164225Y957325D01*
X1164130Y956970D01*
X1170470D01*
Y963310D01*
D02*
G37*
G36*
X1396953Y974960D02*
X1394507D01*
X1392144Y974327D01*
X1390026Y973104D01*
X1388296Y971374D01*
X1387073Y969256D01*
X1386440Y966893D01*
Y964447D01*
X1387073Y962084D01*
X1388296Y959966D01*
X1390026Y958236D01*
X1392144Y957013D01*
X1394507Y956380D01*
X1396953D01*
X1399316Y957013D01*
X1401434Y958236D01*
X1403164Y959966D01*
X1404387Y962084D01*
X1405020Y964447D01*
Y966893D01*
X1404387Y969256D01*
X1403164Y971374D01*
X1401434Y973104D01*
X1399316Y974327D01*
X1396953Y974960D01*
D02*
G37*
G36*
X1371553D02*
X1369107D01*
X1366744Y974327D01*
X1364626Y973104D01*
X1362896Y971374D01*
X1361673Y969256D01*
X1361040Y966893D01*
Y964447D01*
X1361673Y962084D01*
X1362896Y959966D01*
X1364626Y958236D01*
X1366744Y957013D01*
X1369107Y956380D01*
X1371553D01*
X1373916Y957013D01*
X1376034Y958236D01*
X1377764Y959966D01*
X1378987Y962084D01*
X1379620Y964447D01*
Y966893D01*
X1378987Y969256D01*
X1377764Y971374D01*
X1376034Y973104D01*
X1373916Y974327D01*
X1371553Y974960D01*
D02*
G37*
G36*
X1354220Y961860D02*
X1348740D01*
Y956380D01*
X1354220D01*
Y961860D01*
D02*
G37*
G36*
X1341120D02*
X1335640D01*
Y956380D01*
X1341120D01*
Y961860D01*
D02*
G37*
G36*
X1184430Y949350D02*
X1178090D01*
Y943010D01*
X1178445Y943105D01*
X1180905Y944526D01*
X1182914Y946535D01*
X1184335Y948995D01*
X1184430Y949350D01*
D02*
G37*
G36*
X1170470D02*
X1164130D01*
X1164225Y948995D01*
X1165646Y946535D01*
X1167655Y944526D01*
X1170115Y943105D01*
X1170470Y943010D01*
Y949350D01*
D02*
G37*
G36*
X1075701Y963950D02*
X1072859D01*
X1070115Y963215D01*
X1067655Y961794D01*
X1065646Y959785D01*
X1064225Y957325D01*
X1063490Y954581D01*
Y951740D01*
X1064225Y948995D01*
X1065646Y946535D01*
X1067655Y944526D01*
X1070115Y943105D01*
X1072859Y942370D01*
X1075701D01*
X1078445Y943105D01*
X1080905Y944526D01*
X1082914Y946535D01*
X1084335Y948995D01*
X1085070Y951740D01*
Y954581D01*
X1084335Y957325D01*
X1082914Y959785D01*
X1080905Y961794D01*
X1078445Y963215D01*
X1075701Y963950D01*
D02*
G37*
G36*
X1386908Y947420D02*
X1384232D01*
X1381648Y946728D01*
X1379332Y945390D01*
X1377440Y943498D01*
X1376102Y941182D01*
X1375410Y938598D01*
Y935922D01*
X1376102Y933338D01*
X1377440Y931022D01*
X1379332Y929130D01*
X1381648Y927792D01*
X1384232Y927100D01*
X1386908D01*
X1389492Y927792D01*
X1391808Y929130D01*
X1393700Y931022D01*
X1395038Y933338D01*
X1395730Y935922D01*
Y938598D01*
X1395038Y941182D01*
X1393700Y943498D01*
X1391808Y945390D01*
X1389492Y946728D01*
X1386908Y947420D01*
D02*
G37*
%LPD*%
G36*
X1091293Y1907333D02*
X1092553Y1906491D01*
X1094040Y1906195D01*
X1114077D01*
X1114948Y1905692D01*
X1117532Y1905000D01*
X1117860D01*
X1118346Y1903827D01*
X1102063Y1887544D01*
X1100890Y1888030D01*
Y1899810D01*
X1089810D01*
Y1895143D01*
X1088637Y1894657D01*
X1085279Y1898015D01*
Y1911552D01*
X1086549Y1912078D01*
X1091293Y1907333D01*
D02*
G37*
G36*
X1368985Y1606896D02*
X1367715Y1606729D01*
X1367184Y1608711D01*
X1366014Y1610739D01*
X1364359Y1612394D01*
X1362710Y1613346D01*
Y1605280D01*
Y1597214D01*
X1364359Y1598166D01*
X1366014Y1599821D01*
X1367184Y1601849D01*
X1367715Y1603831D01*
X1368985Y1603664D01*
Y1572260D01*
X1300480Y1572260D01*
Y1559826D01*
X1300100Y1558408D01*
Y1555632D01*
X1300480Y1554214D01*
Y1534426D01*
X1300100Y1533008D01*
Y1530232D01*
X1300480Y1528814D01*
Y1516760D01*
X1300100D01*
Y1495680D01*
X1300480D01*
Y1473200D01*
X1248795D01*
Y1491293D01*
X1249568Y1491740D01*
X1251460Y1493632D01*
X1252798Y1495948D01*
X1253490Y1498532D01*
Y1501208D01*
X1252798Y1503792D01*
X1251460Y1506108D01*
X1249568Y1508000D01*
X1247252Y1509338D01*
X1244668Y1510030D01*
X1241992D01*
X1239408Y1509338D01*
X1237092Y1508000D01*
X1235200Y1506108D01*
X1233862Y1503792D01*
X1233170Y1501208D01*
Y1498532D01*
X1233862Y1495948D01*
X1235200Y1493632D01*
X1237092Y1491740D01*
X1239408Y1490402D01*
X1241025Y1489969D01*
Y1473200D01*
X1172210D01*
Y1397229D01*
X1170526Y1395545D01*
X1169204Y1393255D01*
X1168520Y1390702D01*
Y1388058D01*
X1169204Y1385505D01*
X1170526Y1383215D01*
X1172210Y1381531D01*
Y1368790D01*
X1171362Y1368300D01*
X1169470Y1366408D01*
X1168132Y1364092D01*
X1167440Y1361508D01*
Y1358832D01*
X1168132Y1356248D01*
X1169470Y1353932D01*
X1171362Y1352040D01*
X1172210Y1351550D01*
Y1217930D01*
X1167440D01*
Y1197610D01*
X1172210D01*
Y1197468D01*
X1400810D01*
Y1186663D01*
X1400745Y1186646D01*
X1398455Y1185324D01*
X1396586Y1183455D01*
X1395264Y1181165D01*
X1395247Y1181100D01*
X1404620D01*
Y1173480D01*
X1395247D01*
X1395264Y1173415D01*
X1396586Y1171125D01*
X1397376Y1170336D01*
X1396850Y1169301D01*
X1396737Y1169178D01*
X1394447D01*
X1392186Y1168573D01*
X1390159Y1167402D01*
X1388504Y1165747D01*
X1387552Y1164098D01*
X1395617D01*
Y1160288D01*
X1399427D01*
Y1152223D01*
X1399710Y1152386D01*
X1400810Y1151751D01*
Y1131570D01*
X1400751D01*
X1395618Y1130757D01*
X1390675Y1129151D01*
X1386044Y1126791D01*
X1381839Y1123736D01*
X1378164Y1120061D01*
X1375109Y1115856D01*
X1372749Y1111225D01*
X1371143Y1106282D01*
X1370330Y1101149D01*
Y1095951D01*
X1371143Y1090818D01*
X1372749Y1085875D01*
X1375109Y1081244D01*
X1378164Y1077039D01*
X1381839Y1073364D01*
X1386044Y1070309D01*
X1390675Y1067949D01*
X1395618Y1066343D01*
X1400751Y1065530D01*
X1400810D01*
Y1019952D01*
X1379761D01*
X1379235Y1021222D01*
X1379984Y1021971D01*
X1380936Y1023620D01*
X1364804D01*
X1365756Y1021971D01*
X1366505Y1021222D01*
X1365979Y1019952D01*
X1022350D01*
Y1141979D01*
X1022859Y1142370D01*
X1025701D01*
X1028445Y1143105D01*
X1030905Y1144526D01*
X1032914Y1146535D01*
X1034335Y1148995D01*
X1035070Y1151740D01*
Y1154581D01*
X1034335Y1157325D01*
X1032914Y1159785D01*
X1030905Y1161794D01*
X1028445Y1163215D01*
X1025701Y1163950D01*
X1022859D01*
X1022350Y1164341D01*
Y1197468D01*
X1040130D01*
Y1417998D01*
X1042766Y1420020D01*
X1047590Y1424844D01*
X1051742Y1430256D01*
X1055153Y1436164D01*
X1057764Y1442466D01*
X1059530Y1449056D01*
X1060420Y1455819D01*
Y1462641D01*
X1059530Y1469404D01*
X1057764Y1475994D01*
X1055153Y1482296D01*
X1051742Y1488204D01*
X1047590Y1493616D01*
X1042766Y1498440D01*
X1040130Y1500462D01*
Y1526540D01*
X1021080D01*
Y1527849D01*
Y1532890D01*
X1028700D01*
Y1527850D01*
X1028930D01*
Y1534850D01*
Y1535430D01*
X1040130D01*
Y1536890D01*
X1042780D01*
Y1540607D01*
X1043987Y1541413D01*
X1047957Y1545383D01*
X1048799Y1546643D01*
X1049095Y1548130D01*
Y1557020D01*
X1048799Y1558507D01*
X1047957Y1559767D01*
X1044921Y1562803D01*
X1043661Y1563645D01*
X1042780Y1563820D01*
Y1566970D01*
X1040130D01*
Y1572947D01*
X1041400Y1573897D01*
X1042770Y1573530D01*
X1045110D01*
X1047371Y1574136D01*
X1049399Y1575306D01*
X1051054Y1576961D01*
X1052224Y1578989D01*
X1052830Y1581250D01*
Y1583590D01*
X1052224Y1585851D01*
X1051054Y1587879D01*
X1049399Y1589534D01*
X1047825Y1590443D01*
Y1598930D01*
X1085775D01*
Y1578216D01*
X1084505Y1578091D01*
X1084359Y1578827D01*
X1083517Y1580087D01*
X1081570Y1582034D01*
X1082040Y1583790D01*
Y1586130D01*
X1081434Y1588391D01*
X1080264Y1590419D01*
X1078609Y1592074D01*
X1076581Y1593244D01*
X1074320Y1593850D01*
X1071980D01*
X1069719Y1593244D01*
X1067691Y1592074D01*
X1066036Y1590419D01*
X1064866Y1588391D01*
X1064260Y1586130D01*
Y1583790D01*
X1064866Y1581529D01*
X1066036Y1579501D01*
X1067691Y1577846D01*
X1069719Y1576676D01*
X1071980Y1576070D01*
X1074320D01*
X1075935Y1576503D01*
X1076885Y1575683D01*
Y1567790D01*
X1076730D01*
Y1557710D01*
Y1550710D01*
X1084810D01*
Y1552175D01*
X1087045D01*
Y1548509D01*
X1085875Y1547339D01*
X1084810Y1547780D01*
Y1547780D01*
X1076730D01*
Y1546315D01*
X1070280D01*
Y1547970D01*
X1055700D01*
Y1536890D01*
X1070280D01*
Y1538545D01*
X1076730D01*
Y1530700D01*
X1084810D01*
Y1535286D01*
X1093677Y1544153D01*
X1094519Y1545413D01*
X1095780Y1545243D01*
Y1542130D01*
X1096010D01*
Y1547170D01*
X1099820D01*
Y1549129D01*
X1103860D01*
Y1552175D01*
X1106970D01*
X1108457Y1552471D01*
X1109717Y1553313D01*
X1114594Y1558190D01*
X1118180D01*
X1118180Y1558190D01*
Y1558190D01*
X1119176Y1557570D01*
X1145443Y1531303D01*
X1146603Y1530143D01*
X1147863Y1529301D01*
X1149350Y1529005D01*
X1171871D01*
X1188513Y1512363D01*
X1189773Y1511521D01*
X1191260Y1511225D01*
X1202103D01*
X1202112Y1511188D01*
X1203450Y1508872D01*
X1205342Y1506980D01*
X1207658Y1505642D01*
X1210242Y1504950D01*
X1212918D01*
X1215502Y1505642D01*
X1217818Y1506980D01*
X1219710Y1508872D01*
X1221048Y1511188D01*
X1221740Y1513772D01*
Y1516448D01*
X1221048Y1519032D01*
X1219710Y1521348D01*
X1217818Y1523240D01*
X1215502Y1524578D01*
X1212918Y1525270D01*
X1210242D01*
X1207658Y1524578D01*
X1205342Y1523240D01*
X1203450Y1521348D01*
X1202112Y1519032D01*
X1202103Y1518995D01*
X1192869D01*
X1176227Y1535637D01*
X1174967Y1536479D01*
X1173480Y1536775D01*
X1150959D01*
X1144270Y1543464D01*
X1130701Y1557033D01*
X1131180Y1558190D01*
X1131180D01*
Y1565776D01*
X1132610Y1567206D01*
X1133880Y1566911D01*
Y1566260D01*
X1141500D01*
Y1565950D01*
X1144086D01*
X1145443Y1564593D01*
X1148143Y1561893D01*
X1149404Y1561051D01*
X1150890Y1560755D01*
X1206161D01*
X1232963Y1533953D01*
X1234223Y1533111D01*
X1235710Y1532815D01*
X1238932D01*
X1238942Y1532778D01*
X1240280Y1530462D01*
X1242172Y1528570D01*
X1244488Y1527232D01*
X1247072Y1526540D01*
X1249748D01*
X1252332Y1527232D01*
X1254648Y1528570D01*
X1256540Y1530462D01*
X1257878Y1532778D01*
X1258570Y1535362D01*
Y1538038D01*
X1257878Y1540622D01*
X1256540Y1542938D01*
X1254648Y1544830D01*
X1252332Y1546168D01*
X1249748Y1546860D01*
X1247072D01*
X1244488Y1546168D01*
X1242172Y1544830D01*
X1240280Y1542938D01*
X1238942Y1540622D01*
X1238932Y1540585D01*
X1237319D01*
X1210517Y1567387D01*
X1209257Y1568229D01*
X1207770Y1568525D01*
X1152499D01*
X1149580Y1571444D01*
Y1583030D01*
X1141960D01*
Y1583340D01*
X1138374D01*
X1135467Y1586247D01*
X1134207Y1587089D01*
X1132720Y1587385D01*
X1131180D01*
Y1592770D01*
X1130525D01*
Y1598930D01*
X1145720D01*
X1146493Y1597922D01*
X1146410Y1597613D01*
Y1595167D01*
X1146423Y1595120D01*
X1147043Y1592804D01*
X1148266Y1590686D01*
X1149996Y1588956D01*
X1152114Y1587733D01*
X1154477Y1587100D01*
X1156923D01*
X1159286Y1587733D01*
X1161404Y1588956D01*
X1163134Y1590686D01*
X1164357Y1592804D01*
X1164990Y1595167D01*
Y1597613D01*
X1164907Y1597922D01*
X1165680Y1598930D01*
X1171120D01*
X1171893Y1597922D01*
X1171810Y1597613D01*
Y1595167D01*
X1171823Y1595120D01*
X1172443Y1592804D01*
X1173666Y1590686D01*
X1175396Y1588956D01*
X1177514Y1587733D01*
X1179877Y1587100D01*
X1182323D01*
X1184686Y1587733D01*
X1186804Y1588956D01*
X1188534Y1590686D01*
X1189757Y1592804D01*
X1190377Y1595120D01*
X1197223D01*
X1197843Y1592804D01*
X1199066Y1590686D01*
X1200796Y1588956D01*
X1202914Y1587733D01*
X1205277Y1587100D01*
X1207723D01*
X1210086Y1587733D01*
X1212204Y1588956D01*
X1213934Y1590686D01*
X1215157Y1592804D01*
X1215777Y1595120D01*
X1236980D01*
Y1686162D01*
X1237490Y1686672D01*
X1238828Y1688988D01*
X1239520Y1691572D01*
Y1694248D01*
X1238828Y1696832D01*
X1237490Y1699148D01*
X1236980Y1699658D01*
Y1733550D01*
X1239588D01*
X1242172Y1734242D01*
X1244488Y1735580D01*
X1246380Y1737472D01*
X1247718Y1739788D01*
X1248410Y1742372D01*
Y1745048D01*
X1247718Y1747632D01*
X1246380Y1749948D01*
X1244488Y1751840D01*
X1242172Y1753178D01*
X1239588Y1753870D01*
X1236980D01*
Y1807838D01*
X1238250Y1808178D01*
X1238436Y1807856D01*
X1240166Y1806126D01*
X1242284Y1804903D01*
X1244647Y1804270D01*
X1247093D01*
X1249456Y1804903D01*
X1251574Y1806126D01*
X1253304Y1807856D01*
X1254527Y1809974D01*
X1255160Y1812337D01*
Y1814783D01*
X1254527Y1817146D01*
X1253304Y1819264D01*
X1251574Y1820994D01*
X1249456Y1822217D01*
X1247093Y1822850D01*
X1244647D01*
X1242284Y1822217D01*
X1240166Y1820994D01*
X1238436Y1819264D01*
X1238250Y1818942D01*
X1236980Y1819282D01*
Y1878330D01*
X1349751D01*
X1350298Y1877060D01*
X1349564Y1875790D01*
X1365696D01*
X1364962Y1877060D01*
X1365509Y1878330D01*
X1368985D01*
Y1606896D01*
D02*
G37*
G36*
X1091850Y1857780D02*
Y1857780D01*
X1092495Y1856727D01*
X1092706Y1856361D01*
X1094361Y1854706D01*
X1096389Y1853536D01*
X1098650Y1852930D01*
X1100990D01*
X1103251Y1853536D01*
X1105279Y1854706D01*
X1106435Y1855863D01*
X1107705Y1855337D01*
Y1832163D01*
X1106926Y1831564D01*
X1105942Y1830283D01*
X1105261Y1830193D01*
X1105220D01*
X1104538Y1830283D01*
X1103555Y1831564D01*
X1102188Y1832613D01*
X1100597Y1833272D01*
X1099250Y1833449D01*
X1093511Y1839188D01*
X1094048Y1840118D01*
X1094740Y1842702D01*
Y1845378D01*
X1094048Y1847962D01*
X1092710Y1850278D01*
X1090818Y1852170D01*
X1088502Y1853508D01*
X1086035Y1854169D01*
Y1854170D01*
X1085739Y1855657D01*
X1085169Y1856510D01*
X1085717Y1857780D01*
X1091850D01*
X1091850Y1857780D01*
D02*
G37*
G36*
X1105942Y1649517D02*
X1106926Y1648236D01*
X1108292Y1647187D01*
X1109883Y1646528D01*
X1109905Y1646525D01*
Y1639530D01*
X1109750D01*
Y1626754D01*
X1108480Y1626228D01*
X1107328Y1627380D01*
X1105012Y1628718D01*
X1102428Y1629410D01*
X1099752D01*
X1097168Y1628718D01*
X1094852Y1627380D01*
X1094718Y1627246D01*
X1093545Y1627732D01*
Y1642061D01*
X1097916Y1646432D01*
X1098890Y1646304D01*
X1100597Y1646528D01*
X1102188Y1647187D01*
X1103555Y1648236D01*
X1104538Y1649517D01*
X1105220Y1649607D01*
X1105261D01*
X1105942Y1649517D01*
D02*
G37*
G36*
X1389108Y1761904D02*
X1388292Y1761685D01*
X1386265Y1760515D01*
X1384610Y1758860D01*
X1383439Y1756833D01*
X1382834Y1754572D01*
Y1752231D01*
X1383439Y1749970D01*
X1384610Y1747943D01*
X1386265Y1746288D01*
X1388292Y1745117D01*
X1389241Y1744863D01*
X1390588Y1573161D01*
X1389694Y1572260D01*
X1376755D01*
Y1878330D01*
X1388195D01*
X1389108Y1761904D01*
D02*
G37*
G36*
X1390773Y1569821D02*
X1391817Y1569156D01*
X1391845Y1569115D01*
Y1567917D01*
X1382823Y1558895D01*
X1381981Y1557635D01*
X1381685Y1556148D01*
Y1422160D01*
X1362718Y1403193D01*
X1361395Y1403666D01*
X1360924Y1405421D01*
X1359754Y1407448D01*
X1358099Y1409104D01*
X1356072Y1410274D01*
X1354316Y1410744D01*
X1353843Y1412068D01*
X1375617Y1433841D01*
X1376459Y1435101D01*
X1376755Y1436588D01*
Y1569670D01*
X1389694D01*
X1389699Y1569671D01*
X1389704Y1569670D01*
X1390198Y1569771D01*
X1390575Y1569845D01*
X1390773Y1569821D01*
D02*
G37*
G36*
X1095246Y1587121D02*
X1096901Y1585466D01*
X1098929Y1584296D01*
X1099955Y1584021D01*
Y1582420D01*
X1100250Y1580933D01*
X1101092Y1579673D01*
X1106088Y1574677D01*
X1107349Y1573835D01*
X1108835Y1573539D01*
X1113334D01*
X1114821Y1573835D01*
X1116081Y1574677D01*
X1121094Y1579690D01*
X1126995D01*
X1127370Y1579615D01*
X1131111D01*
X1133880Y1576846D01*
Y1575185D01*
X1131210D01*
X1129723Y1574889D01*
X1128463Y1574047D01*
X1125686Y1571270D01*
X1122100D01*
Y1567293D01*
X1120927Y1566807D01*
X1120709Y1567025D01*
X1119449Y1567867D01*
X1118180Y1568119D01*
Y1571270D01*
X1109100D01*
Y1568525D01*
X1099761D01*
X1093545Y1574741D01*
Y1587529D01*
X1094815Y1587869D01*
X1095246Y1587121D01*
D02*
G37*
G36*
X1368985Y1569670D02*
Y1535903D01*
X1367715Y1535377D01*
X1366899Y1536194D01*
X1364871Y1537364D01*
X1362610Y1537970D01*
X1360270D01*
X1358009Y1537364D01*
X1355981Y1536194D01*
X1354326Y1534539D01*
X1353156Y1532511D01*
X1352550Y1530250D01*
Y1527910D01*
X1353156Y1525649D01*
X1354326Y1523621D01*
X1355981Y1521966D01*
X1357555Y1521057D01*
Y1435439D01*
X1288843Y1366727D01*
X1288719Y1366542D01*
X1287719Y1366446D01*
X1287194Y1366545D01*
X1285438Y1368300D01*
X1283122Y1369638D01*
X1280538Y1370330D01*
X1277862D01*
X1275278Y1369638D01*
X1272962Y1368300D01*
X1271070Y1366408D01*
X1269732Y1364092D01*
X1269040Y1361508D01*
Y1358832D01*
X1269732Y1356248D01*
X1271070Y1353932D01*
X1272962Y1352040D01*
X1275278Y1350702D01*
X1277862Y1350010D01*
X1280538D01*
X1283122Y1350702D01*
X1285438Y1352040D01*
X1286435Y1353037D01*
X1287705Y1352511D01*
Y1350349D01*
X1251053Y1313697D01*
X1250211Y1312437D01*
X1249915Y1310950D01*
Y1217248D01*
X1249878Y1217238D01*
X1247562Y1215900D01*
X1245670Y1214008D01*
X1244332Y1211692D01*
X1243640Y1209108D01*
Y1206432D01*
X1244332Y1203848D01*
X1245670Y1201532D01*
X1245971Y1201231D01*
X1245485Y1200058D01*
X1236715D01*
X1236229Y1201231D01*
X1236530Y1201532D01*
X1237868Y1203848D01*
X1238560Y1206432D01*
Y1209108D01*
X1237868Y1211692D01*
X1236530Y1214008D01*
X1234638Y1215900D01*
X1232322Y1217238D01*
X1229738Y1217930D01*
X1227062D01*
X1224478Y1217238D01*
X1222162Y1215900D01*
X1220270Y1214008D01*
X1218932Y1211692D01*
X1218240Y1209108D01*
Y1206432D01*
X1218932Y1203848D01*
X1220270Y1201532D01*
X1220571Y1201231D01*
X1220085Y1200058D01*
X1211315D01*
X1210829Y1201231D01*
X1211130Y1201532D01*
X1212468Y1203848D01*
X1213160Y1206432D01*
Y1209108D01*
X1212468Y1211692D01*
X1211130Y1214008D01*
X1209238Y1215900D01*
X1206922Y1217238D01*
X1204338Y1217930D01*
X1201662D01*
X1199078Y1217238D01*
X1196762Y1215900D01*
X1194870Y1214008D01*
X1193532Y1211692D01*
X1192840Y1209108D01*
Y1206432D01*
X1193532Y1203848D01*
X1194870Y1201532D01*
X1195171Y1201231D01*
X1194685Y1200058D01*
X1187760D01*
Y1217930D01*
X1174800D01*
Y1349359D01*
X1175807Y1350132D01*
X1176262Y1350010D01*
X1178938D01*
X1181522Y1350702D01*
X1183838Y1352040D01*
X1185730Y1353932D01*
X1187068Y1356248D01*
X1187760Y1358832D01*
Y1361508D01*
X1187068Y1364092D01*
X1185730Y1366408D01*
X1183838Y1368300D01*
X1181522Y1369638D01*
X1178938Y1370330D01*
X1176262D01*
X1175807Y1370208D01*
X1174800Y1370981D01*
Y1378950D01*
X1175807Y1379723D01*
X1177238Y1379340D01*
X1179882D01*
X1182435Y1380024D01*
X1184725Y1381346D01*
X1186594Y1383215D01*
X1187916Y1385505D01*
X1187933Y1385570D01*
X1178560D01*
Y1393190D01*
X1187933D01*
X1187916Y1393255D01*
X1186594Y1395545D01*
X1184725Y1397414D01*
X1182435Y1398736D01*
X1179882Y1399420D01*
X1177238D01*
X1175807Y1399037D01*
X1174800Y1399810D01*
Y1470610D01*
X1205785D01*
X1206190Y1469340D01*
X1205121Y1467742D01*
X1204691Y1465580D01*
X1205121Y1463418D01*
X1206346Y1461586D01*
X1208178Y1460361D01*
X1210340Y1459931D01*
X1223840D01*
X1226002Y1460361D01*
X1227369Y1461275D01*
X1232870D01*
Y1460890D01*
X1241335D01*
Y1452190D01*
X1241180D01*
Y1442157D01*
X1241025Y1441380D01*
Y1429600D01*
X1232870D01*
Y1429445D01*
X1229098D01*
X1229059Y1429642D01*
X1227834Y1431474D01*
X1226002Y1432699D01*
X1223840Y1433129D01*
X1210340D01*
X1208178Y1432699D01*
X1206346Y1431474D01*
X1205121Y1429642D01*
X1204691Y1427480D01*
X1205121Y1425318D01*
X1206346Y1423486D01*
X1208178Y1422261D01*
X1210340Y1421832D01*
X1223840D01*
X1225057Y1422073D01*
X1225210Y1421971D01*
X1226696Y1421675D01*
X1232870D01*
Y1421520D01*
X1249950D01*
Y1429600D01*
X1248795D01*
Y1435110D01*
X1249260D01*
Y1442110D01*
Y1452190D01*
X1249105D01*
Y1460890D01*
X1249950D01*
Y1468970D01*
X1248795D01*
Y1470610D01*
X1300480D01*
X1301471Y1470807D01*
X1302311Y1471369D01*
X1302873Y1472209D01*
X1303070Y1473200D01*
Y1495680D01*
X1321180D01*
Y1516760D01*
X1303070D01*
Y1522690D01*
X1304340Y1523087D01*
X1306572Y1521798D01*
X1309252Y1521080D01*
X1312028D01*
X1314708Y1521798D01*
X1317112Y1523186D01*
X1319074Y1525148D01*
X1320462Y1527552D01*
X1321180Y1530232D01*
Y1533008D01*
X1320462Y1535688D01*
X1319074Y1538092D01*
X1317112Y1540054D01*
X1314708Y1541442D01*
X1312028Y1542160D01*
X1309252D01*
X1306572Y1541442D01*
X1304340Y1540153D01*
X1303070Y1540550D01*
Y1548090D01*
X1304340Y1548487D01*
X1306572Y1547198D01*
X1309252Y1546480D01*
X1312028D01*
X1314708Y1547198D01*
X1317112Y1548586D01*
X1319074Y1550548D01*
X1320462Y1552952D01*
X1321180Y1555632D01*
Y1558408D01*
X1320462Y1561088D01*
X1319074Y1563492D01*
X1317112Y1565454D01*
X1314708Y1566842D01*
X1312028Y1567560D01*
X1309252D01*
X1306572Y1566842D01*
X1304340Y1565553D01*
X1303070Y1565950D01*
Y1569670D01*
X1368985Y1569670D01*
D02*
G37*
G36*
Y1522257D02*
Y1438197D01*
X1366498Y1435710D01*
X1365325Y1436196D01*
Y1521057D01*
X1366899Y1521966D01*
X1367715Y1522783D01*
X1368985Y1522257D01*
D02*
G37*
G36*
X1337335Y1402572D02*
Y1398399D01*
X1308555Y1369619D01*
X1308522Y1369638D01*
X1305938Y1370330D01*
X1305093D01*
X1304607Y1371503D01*
X1336162Y1403058D01*
X1337335Y1402572D01*
D02*
G37*
G36*
X1347182Y1394876D02*
X1349209Y1393706D01*
X1350964Y1393235D01*
X1351437Y1391912D01*
X1339879Y1380353D01*
X1339036Y1379093D01*
X1338741Y1377607D01*
Y1367594D01*
X1337471Y1367068D01*
X1336238Y1368300D01*
X1333922Y1369638D01*
X1331338Y1370330D01*
X1328662D01*
X1326078Y1369638D01*
X1323762Y1368300D01*
X1321870Y1366408D01*
X1320532Y1364092D01*
X1319840Y1361508D01*
Y1358832D01*
X1320532Y1356248D01*
X1321870Y1353932D01*
X1323762Y1352040D01*
X1326078Y1350702D01*
X1328662Y1350010D01*
X1331338D01*
X1333008Y1350457D01*
X1333665Y1349319D01*
X1276453Y1292107D01*
X1275611Y1290847D01*
X1275315Y1289360D01*
Y1217248D01*
X1275278Y1217238D01*
X1272962Y1215900D01*
X1271070Y1214008D01*
X1269732Y1211692D01*
X1269040Y1209108D01*
Y1206432D01*
X1269732Y1203848D01*
X1271070Y1201532D01*
X1271371Y1201231D01*
X1270885Y1200058D01*
X1262115D01*
X1261629Y1201231D01*
X1261930Y1201532D01*
X1263268Y1203848D01*
X1263960Y1206432D01*
Y1209108D01*
X1263268Y1211692D01*
X1261930Y1214008D01*
X1260038Y1215900D01*
X1257722Y1217238D01*
X1257685Y1217248D01*
Y1309341D01*
X1294337Y1345993D01*
X1295179Y1347253D01*
X1295475Y1348740D01*
Y1353268D01*
X1296745Y1353657D01*
X1298362Y1352040D01*
X1300678Y1350702D01*
X1303262Y1350010D01*
X1305938D01*
X1308522Y1350702D01*
X1310838Y1352040D01*
X1312730Y1353932D01*
X1314068Y1356248D01*
X1314760Y1358832D01*
Y1361508D01*
X1314068Y1364092D01*
X1314048Y1364125D01*
X1343967Y1394043D01*
X1344809Y1395303D01*
X1344834Y1395428D01*
X1346212Y1395846D01*
X1347182Y1394876D01*
D02*
G37*
%LPC*%
G36*
X1365696Y1868170D02*
X1361440D01*
Y1863914D01*
X1363089Y1864866D01*
X1364744Y1866521D01*
X1365696Y1868170D01*
D02*
G37*
G36*
X1353820D02*
X1349564D01*
X1350516Y1866521D01*
X1352171Y1864866D01*
X1353820Y1863914D01*
Y1868170D01*
D02*
G37*
G36*
X1310540Y1875790D02*
X1308200D01*
X1305939Y1875184D01*
X1303911Y1874014D01*
X1302256Y1872359D01*
X1301086Y1870331D01*
X1300480Y1868070D01*
Y1865730D01*
X1301086Y1863469D01*
X1302256Y1861441D01*
X1303911Y1859786D01*
X1305939Y1858616D01*
X1308200Y1858010D01*
X1310540D01*
X1312801Y1858616D01*
X1314829Y1859786D01*
X1316484Y1861441D01*
X1317654Y1863469D01*
X1318260Y1865730D01*
Y1868070D01*
X1317654Y1870331D01*
X1316484Y1872359D01*
X1314829Y1874014D01*
X1312801Y1875184D01*
X1310540Y1875790D01*
D02*
G37*
G36*
X1310640Y1827976D02*
Y1823720D01*
X1314896D01*
X1313944Y1825369D01*
X1312289Y1827024D01*
X1310640Y1827976D01*
D02*
G37*
G36*
X1303020D02*
X1301371Y1827024D01*
X1299716Y1825369D01*
X1298764Y1823720D01*
X1303020D01*
Y1827976D01*
D02*
G37*
G36*
X1314896Y1816100D02*
X1310640D01*
Y1811844D01*
X1312289Y1812796D01*
X1313944Y1814451D01*
X1314896Y1816100D01*
D02*
G37*
G36*
X1303020D02*
X1298764D01*
X1299716Y1814451D01*
X1301371Y1812796D01*
X1303020Y1811844D01*
Y1816100D01*
D02*
G37*
G36*
X1272493Y1822850D02*
X1270047D01*
X1267684Y1822217D01*
X1265566Y1820994D01*
X1263836Y1819264D01*
X1262613Y1817146D01*
X1261980Y1814783D01*
Y1812337D01*
X1262613Y1809974D01*
X1263836Y1807856D01*
X1265566Y1806126D01*
X1267684Y1804903D01*
X1270047Y1804270D01*
X1272493D01*
X1274856Y1804903D01*
X1276974Y1806126D01*
X1278704Y1807856D01*
X1279927Y1809974D01*
X1280560Y1812337D01*
Y1814783D01*
X1279927Y1817146D01*
X1278704Y1819264D01*
X1276974Y1820994D01*
X1274856Y1822217D01*
X1272493Y1822850D01*
D02*
G37*
G36*
X1333493Y1791970D02*
X1330967D01*
X1328633Y1791003D01*
X1326847Y1789217D01*
X1325880Y1786883D01*
Y1784357D01*
X1326847Y1782023D01*
X1328633Y1780237D01*
X1330967Y1779270D01*
X1333493D01*
X1335827Y1780237D01*
X1337613Y1782023D01*
X1338580Y1784357D01*
Y1786883D01*
X1337613Y1789217D01*
X1335827Y1791003D01*
X1333493Y1791970D01*
D02*
G37*
G36*
X1267528Y1794510D02*
X1264852D01*
X1262268Y1793818D01*
X1259952Y1792480D01*
X1258060Y1790588D01*
X1256722Y1788272D01*
X1256030Y1785688D01*
Y1783012D01*
X1256722Y1780428D01*
X1258060Y1778112D01*
X1259952Y1776220D01*
X1262268Y1774882D01*
X1264852Y1774190D01*
X1267528D01*
X1270112Y1774882D01*
X1272428Y1776220D01*
X1274320Y1778112D01*
X1275658Y1780428D01*
X1276350Y1783012D01*
Y1785688D01*
X1275658Y1788272D01*
X1274320Y1790588D01*
X1272428Y1792480D01*
X1270112Y1793818D01*
X1267528Y1794510D01*
D02*
G37*
G36*
X1309488Y1780920D02*
X1306712D01*
X1304032Y1780202D01*
X1301628Y1778814D01*
X1299666Y1776852D01*
X1298278Y1774448D01*
X1297560Y1771768D01*
Y1768992D01*
X1298278Y1766312D01*
X1299666Y1763908D01*
X1301628Y1761946D01*
X1304032Y1760558D01*
X1306712Y1759840D01*
X1309488D01*
X1312168Y1760558D01*
X1314572Y1761946D01*
X1316534Y1763908D01*
X1317922Y1766312D01*
X1318640Y1768992D01*
Y1771768D01*
X1317922Y1774448D01*
X1316534Y1776852D01*
X1314572Y1778814D01*
X1312168Y1780202D01*
X1309488Y1780920D01*
D02*
G37*
G36*
Y1755520D02*
X1306712D01*
X1304032Y1754802D01*
X1301628Y1753414D01*
X1299666Y1751452D01*
X1298278Y1749048D01*
X1297560Y1746368D01*
Y1743592D01*
X1298278Y1740912D01*
X1299666Y1738508D01*
X1301628Y1736546D01*
X1304032Y1735158D01*
X1306712Y1734440D01*
X1309488D01*
X1312168Y1735158D01*
X1314572Y1736546D01*
X1316534Y1738508D01*
X1317922Y1740912D01*
X1318640Y1743592D01*
Y1746368D01*
X1317922Y1749048D01*
X1316534Y1751452D01*
X1314572Y1753414D01*
X1312168Y1754802D01*
X1309488Y1755520D01*
D02*
G37*
G36*
X1318640Y1730120D02*
X1297560D01*
Y1709040D01*
X1318640D01*
Y1730120D01*
D02*
G37*
G36*
X1270068Y1728470D02*
X1267392D01*
X1264808Y1727778D01*
X1262492Y1726440D01*
X1260600Y1724548D01*
X1259262Y1722232D01*
X1258570Y1719648D01*
Y1716972D01*
X1259262Y1714388D01*
X1260600Y1712072D01*
X1262492Y1710180D01*
X1264808Y1708842D01*
X1267392Y1708150D01*
X1270068D01*
X1272652Y1708842D01*
X1274968Y1710180D01*
X1276860Y1712072D01*
X1278198Y1714388D01*
X1278890Y1716972D01*
Y1719648D01*
X1278198Y1722232D01*
X1276860Y1724548D01*
X1274968Y1726440D01*
X1272652Y1727778D01*
X1270068Y1728470D01*
D02*
G37*
G36*
X1351348Y1658620D02*
X1348672D01*
X1346088Y1657928D01*
X1343772Y1656590D01*
X1341880Y1654698D01*
X1340542Y1652382D01*
X1339850Y1649798D01*
Y1647122D01*
X1340542Y1644538D01*
X1341880Y1642222D01*
X1343772Y1640330D01*
X1346088Y1638992D01*
X1348672Y1638300D01*
X1351348D01*
X1353932Y1638992D01*
X1356248Y1640330D01*
X1358140Y1642222D01*
X1359478Y1644538D01*
X1360170Y1647122D01*
Y1649798D01*
X1359478Y1652382D01*
X1358140Y1654698D01*
X1356248Y1656590D01*
X1353932Y1657928D01*
X1351348Y1658620D01*
D02*
G37*
G36*
X1265093Y1635487D02*
X1262753D01*
X1260492Y1634881D01*
X1258464Y1633711D01*
X1256809Y1632056D01*
X1255639Y1630028D01*
X1255033Y1627767D01*
Y1625427D01*
X1255639Y1623165D01*
X1256809Y1621138D01*
X1258464Y1619483D01*
X1260492Y1618313D01*
X1262753Y1617707D01*
X1265093D01*
X1267354Y1618313D01*
X1269382Y1619483D01*
X1271037Y1621138D01*
X1272207Y1623165D01*
X1272813Y1625427D01*
Y1627767D01*
X1272207Y1630028D01*
X1271037Y1632056D01*
X1269382Y1633711D01*
X1267354Y1634881D01*
X1265093Y1635487D01*
D02*
G37*
G36*
X1256030Y1614616D02*
Y1610360D01*
X1260286D01*
X1259334Y1612009D01*
X1257679Y1613664D01*
X1256030Y1614616D01*
D02*
G37*
G36*
X1248410D02*
X1246761Y1613664D01*
X1245106Y1612009D01*
X1244154Y1610360D01*
X1248410D01*
Y1614616D01*
D02*
G37*
G36*
X1355090Y1613346D02*
X1353441Y1612394D01*
X1351786Y1610739D01*
X1350834Y1609090D01*
X1355090D01*
Y1613346D01*
D02*
G37*
G36*
X1260286Y1602740D02*
X1256030D01*
Y1598484D01*
X1257679Y1599436D01*
X1259334Y1601091D01*
X1260286Y1602740D01*
D02*
G37*
G36*
X1248410D02*
X1244154D01*
X1245106Y1601091D01*
X1246761Y1599436D01*
X1248410Y1598484D01*
Y1602740D01*
D02*
G37*
G36*
X1355090Y1601470D02*
X1350834D01*
X1351786Y1599821D01*
X1353441Y1598166D01*
X1355090Y1597214D01*
Y1601470D01*
D02*
G37*
G36*
X1358800Y1592580D02*
X1356460D01*
X1354199Y1591974D01*
X1352171Y1590804D01*
X1350516Y1589149D01*
X1349346Y1587121D01*
X1348740Y1584860D01*
Y1582520D01*
X1349346Y1580259D01*
X1350516Y1578231D01*
X1352171Y1576576D01*
X1354199Y1575406D01*
X1356460Y1574800D01*
X1358800D01*
X1361061Y1575406D01*
X1363089Y1576576D01*
X1364744Y1578231D01*
X1365914Y1580259D01*
X1366520Y1582520D01*
Y1584860D01*
X1365914Y1587121D01*
X1364744Y1589149D01*
X1363089Y1590804D01*
X1361061Y1591974D01*
X1358800Y1592580D01*
D02*
G37*
G36*
X1070280Y1566970D02*
X1055700D01*
Y1555890D01*
X1070280D01*
Y1566970D01*
D02*
G37*
G36*
X1103860Y1543360D02*
X1103630D01*
Y1542130D01*
X1103860D01*
Y1543360D01*
D02*
G37*
G36*
X1159510Y1526615D02*
X1079718D01*
X1078231Y1526319D01*
X1076971Y1525477D01*
X1075483Y1523989D01*
X1074641Y1522729D01*
X1074345Y1521242D01*
Y1513840D01*
X1074641Y1512353D01*
X1075483Y1511093D01*
X1079989Y1506587D01*
X1081249Y1505745D01*
X1082430Y1505510D01*
Y1503720D01*
X1082585D01*
Y1497095D01*
X1066150D01*
X1064663Y1496799D01*
X1063403Y1495957D01*
X1063238Y1495710D01*
X1062110D01*
Y1485630D01*
Y1485629D01*
X1066150D01*
X1070190D01*
Y1489325D01*
X1082430D01*
Y1479590D01*
X1082561D01*
X1082607Y1478320D01*
X1081661Y1477774D01*
X1080006Y1476119D01*
X1078836Y1474091D01*
X1078230Y1471830D01*
Y1469490D01*
X1078836Y1467229D01*
X1080006Y1465201D01*
X1081661Y1463546D01*
X1083689Y1462376D01*
X1085950Y1461770D01*
X1088290D01*
X1090551Y1462376D01*
X1092579Y1463546D01*
X1094234Y1465201D01*
X1095404Y1467229D01*
X1096010Y1469490D01*
Y1471830D01*
X1095404Y1474091D01*
X1094234Y1476119D01*
X1092579Y1477774D01*
X1090585Y1478925D01*
Y1484400D01*
X1090510Y1484775D01*
Y1486096D01*
X1091757Y1486645D01*
X1102725Y1475677D01*
Y1470496D01*
X1101346Y1469574D01*
X1100121Y1467742D01*
X1099691Y1465580D01*
X1100121Y1463418D01*
X1101346Y1461586D01*
X1103178Y1460361D01*
X1105340Y1459931D01*
X1118840D01*
X1121002Y1460361D01*
X1122834Y1461586D01*
X1124059Y1463418D01*
X1124489Y1465580D01*
X1124059Y1467742D01*
X1122834Y1469574D01*
X1121002Y1470799D01*
X1118840Y1471228D01*
X1110495D01*
Y1477286D01*
X1110199Y1478773D01*
X1109357Y1480033D01*
X1103193Y1486197D01*
X1103679Y1487370D01*
X1114300D01*
Y1498450D01*
X1099720D01*
Y1491329D01*
X1098547Y1490843D01*
X1091243Y1498147D01*
X1090355Y1498740D01*
Y1503720D01*
X1090510D01*
Y1510565D01*
X1099720D01*
Y1506370D01*
X1114300D01*
Y1517450D01*
X1110480D01*
X1110387Y1517575D01*
X1111026Y1518845D01*
X1157901D01*
X1160221Y1516525D01*
X1160202Y1516492D01*
X1159510Y1513908D01*
Y1511232D01*
X1160202Y1508648D01*
X1161540Y1506332D01*
X1163432Y1504440D01*
X1165748Y1503102D01*
X1168332Y1502410D01*
X1171008D01*
X1171202Y1502462D01*
D01*
X1173592Y1503102D01*
X1175908Y1504440D01*
X1177800Y1506332D01*
X1179138Y1508648D01*
X1179830Y1511232D01*
Y1513908D01*
X1179138Y1516492D01*
X1177800Y1518808D01*
X1175908Y1520700D01*
X1173592Y1522038D01*
X1171008Y1522730D01*
X1168332D01*
X1165748Y1522038D01*
X1165715Y1522018D01*
X1162257Y1525477D01*
X1160997Y1526319D01*
X1159510Y1526615D01*
D02*
G37*
G36*
X1157820Y1499560D02*
X1157590D01*
Y1498330D01*
X1157820D01*
Y1499560D01*
D02*
G37*
G36*
X1141800Y1517450D02*
X1127220D01*
Y1511864D01*
X1123743Y1508387D01*
X1122901Y1507127D01*
X1122605Y1505640D01*
Y1499180D01*
X1122901Y1497693D01*
X1123743Y1496433D01*
X1127220Y1492956D01*
Y1487370D01*
X1130804D01*
X1131145Y1486100D01*
X1129921Y1485394D01*
X1128266Y1483739D01*
X1127096Y1481711D01*
X1126490Y1479450D01*
Y1477110D01*
X1127096Y1474849D01*
X1128266Y1472821D01*
X1129921Y1471166D01*
X1131949Y1469996D01*
X1134210Y1469390D01*
X1136550D01*
X1138811Y1469996D01*
X1140839Y1471166D01*
X1142494Y1472821D01*
X1143664Y1474849D01*
X1144270Y1477110D01*
Y1479450D01*
X1143664Y1481711D01*
X1142893Y1483048D01*
X1144270Y1484426D01*
X1145817Y1485972D01*
X1146659Y1487233D01*
X1146955Y1488719D01*
Y1495600D01*
X1146659Y1497087D01*
X1145817Y1498347D01*
X1144270Y1499894D01*
X1141800Y1502364D01*
Y1507160D01*
X1149740D01*
Y1498330D01*
X1149970D01*
Y1503370D01*
X1153780D01*
Y1505329D01*
X1157820D01*
Y1505330D01*
Y1515410D01*
X1149740D01*
Y1514930D01*
X1141800D01*
Y1517450D01*
D02*
G37*
G36*
X1070190Y1479860D02*
X1069960D01*
Y1478630D01*
X1070190D01*
Y1479860D01*
D02*
G37*
G36*
X1062340D02*
X1062110D01*
Y1478630D01*
X1062340D01*
Y1479860D01*
D02*
G37*
G36*
X1118840Y1458528D02*
X1105340D01*
X1103178Y1458099D01*
X1101346Y1456874D01*
X1100121Y1455042D01*
X1099691Y1452880D01*
X1100121Y1450718D01*
X1101346Y1448886D01*
X1103178Y1447661D01*
X1105340Y1447231D01*
X1118840D01*
X1121002Y1447661D01*
X1122834Y1448886D01*
X1124059Y1450718D01*
X1124489Y1452880D01*
X1124059Y1455042D01*
X1122834Y1456874D01*
X1121002Y1458099D01*
X1118840Y1458528D01*
D02*
G37*
G36*
Y1445829D02*
X1105340D01*
X1103178Y1445399D01*
X1101346Y1444174D01*
X1100631Y1443105D01*
X1091620D01*
X1090133Y1442809D01*
X1089836Y1442610D01*
X1077930D01*
Y1434530D01*
X1078155D01*
Y1432775D01*
X1076581Y1431866D01*
X1074926Y1430211D01*
X1073756Y1428184D01*
X1073150Y1425923D01*
Y1423582D01*
X1073756Y1421321D01*
X1074926Y1419294D01*
X1076581Y1417639D01*
X1078609Y1416468D01*
X1080870Y1415862D01*
X1083210D01*
X1085471Y1416468D01*
X1086794Y1417232D01*
X1096721Y1407305D01*
X1096702Y1407272D01*
X1096010Y1404688D01*
Y1402012D01*
X1096702Y1399428D01*
X1098040Y1397112D01*
X1099932Y1395220D01*
X1102248Y1393882D01*
X1104832Y1393190D01*
X1107508D01*
X1110092Y1393882D01*
X1112408Y1395220D01*
X1114300Y1397112D01*
X1115638Y1399428D01*
X1116330Y1402012D01*
Y1404688D01*
X1115638Y1407272D01*
X1114300Y1409588D01*
X1112408Y1411480D01*
X1110092Y1412818D01*
X1107508Y1413510D01*
X1104832D01*
X1102248Y1412818D01*
X1102215Y1412798D01*
X1090930Y1424084D01*
Y1425923D01*
X1090324Y1428184D01*
X1089154Y1430211D01*
X1087499Y1431866D01*
X1085925Y1432775D01*
Y1434530D01*
X1095010D01*
Y1435335D01*
X1102619D01*
X1103178Y1434961D01*
X1105340Y1434532D01*
X1118840D01*
X1121002Y1434961D01*
X1122834Y1436186D01*
X1124059Y1438018D01*
X1124489Y1440180D01*
X1124059Y1442342D01*
X1122834Y1444174D01*
X1121002Y1445399D01*
X1118840Y1445829D01*
D02*
G37*
G36*
X1132740Y1436370D02*
X1130400D01*
X1128139Y1435764D01*
X1126111Y1434594D01*
X1124456Y1432939D01*
X1123959Y1432077D01*
X1123736Y1431958D01*
X1122415Y1431754D01*
X1121002Y1432699D01*
X1118840Y1433129D01*
X1105340D01*
X1103178Y1432699D01*
X1101346Y1431474D01*
X1100121Y1429642D01*
X1099691Y1427480D01*
X1100121Y1425318D01*
X1101346Y1423486D01*
X1103178Y1422261D01*
X1105340Y1421832D01*
X1118840D01*
X1121002Y1422261D01*
X1122415Y1423206D01*
X1123736Y1423002D01*
X1123959Y1422883D01*
X1124456Y1422021D01*
X1126111Y1420366D01*
X1128139Y1419196D01*
X1130400Y1418590D01*
X1132740D01*
X1135001Y1419196D01*
X1137029Y1420366D01*
X1138684Y1422021D01*
X1139854Y1424049D01*
X1140460Y1426310D01*
Y1428650D01*
X1139854Y1430911D01*
X1138684Y1432939D01*
X1137029Y1434594D01*
X1135001Y1435764D01*
X1132740Y1436370D01*
D02*
G37*
G36*
X1156970Y1398753D02*
Y1393190D01*
X1162533D01*
X1162516Y1393255D01*
X1161194Y1395545D01*
X1159325Y1397414D01*
X1157035Y1398736D01*
X1156970Y1398753D01*
D02*
G37*
G36*
X1149350D02*
X1149285Y1398736D01*
X1146995Y1397414D01*
X1145126Y1395545D01*
X1143804Y1393255D01*
X1143787Y1393190D01*
X1149350D01*
Y1398753D01*
D02*
G37*
G36*
X1162533Y1385570D02*
X1156970D01*
Y1380007D01*
X1157035Y1380024D01*
X1159325Y1381346D01*
X1161194Y1383215D01*
X1162516Y1385505D01*
X1162533Y1385570D01*
D02*
G37*
G36*
X1149350D02*
X1143787D01*
X1143804Y1385505D01*
X1145126Y1383215D01*
X1146995Y1381346D01*
X1149285Y1380024D01*
X1149350Y1380007D01*
Y1385570D01*
D02*
G37*
G36*
X1061788Y1393190D02*
X1059112D01*
X1056528Y1392498D01*
X1054212Y1391160D01*
X1052320Y1389268D01*
X1050982Y1386952D01*
X1050290Y1384368D01*
Y1381692D01*
X1050982Y1379108D01*
X1052320Y1376792D01*
X1054212Y1374900D01*
X1056528Y1373562D01*
X1059112Y1372870D01*
X1061788D01*
X1064372Y1373562D01*
X1066688Y1374900D01*
X1068580Y1376792D01*
X1069918Y1379108D01*
X1070610Y1381692D01*
Y1384368D01*
X1069918Y1386952D01*
X1068580Y1389268D01*
X1066688Y1391160D01*
X1064372Y1392498D01*
X1061788Y1393190D01*
D02*
G37*
G36*
X1153621Y1370960D02*
X1150779D01*
X1148035Y1370225D01*
X1145575Y1368804D01*
X1143566Y1366795D01*
X1142145Y1364335D01*
X1141410Y1361591D01*
Y1358750D01*
X1142145Y1356005D01*
X1143566Y1353545D01*
X1145575Y1351536D01*
X1148035Y1350115D01*
X1150779Y1349380D01*
X1153621D01*
X1156365Y1350115D01*
X1158825Y1351536D01*
X1160834Y1353545D01*
X1162255Y1356005D01*
X1162990Y1358750D01*
Y1361591D01*
X1162255Y1364335D01*
X1160834Y1366795D01*
X1158825Y1368804D01*
X1156365Y1370225D01*
X1153621Y1370960D01*
D02*
G37*
G36*
X1075880Y1335277D02*
Y1330560D01*
X1080597D01*
X1079504Y1332454D01*
X1077774Y1334184D01*
X1075880Y1335277D01*
D02*
G37*
G36*
X1068260Y1335278D02*
X1066366Y1334184D01*
X1064636Y1332454D01*
X1063542Y1330560D01*
X1068260D01*
Y1335278D01*
D02*
G37*
G36*
X1080597Y1322940D02*
X1075880D01*
Y1318223D01*
X1077774Y1319316D01*
X1079504Y1321046D01*
X1080597Y1322940D01*
D02*
G37*
G36*
X1068260D02*
X1063542D01*
X1064636Y1321046D01*
X1066366Y1319316D01*
X1068260Y1318223D01*
Y1322940D01*
D02*
G37*
G36*
X1073293Y1310640D02*
X1070847D01*
X1068484Y1310007D01*
X1066366Y1308784D01*
X1064636Y1307054D01*
X1063413Y1304936D01*
X1062780Y1302573D01*
Y1300127D01*
X1063413Y1297764D01*
X1064636Y1295646D01*
X1066366Y1293916D01*
X1068484Y1292693D01*
X1070847Y1292060D01*
X1073293D01*
X1075656Y1292693D01*
X1077774Y1293916D01*
X1079504Y1295646D01*
X1080727Y1297764D01*
X1081360Y1300127D01*
Y1302573D01*
X1080727Y1304936D01*
X1079504Y1307054D01*
X1077774Y1308784D01*
X1075656Y1310007D01*
X1073293Y1310640D01*
D02*
G37*
G36*
Y1285240D02*
X1070847D01*
X1068484Y1284607D01*
X1066366Y1283384D01*
X1064636Y1281654D01*
X1063413Y1279536D01*
X1062780Y1277173D01*
Y1274727D01*
X1063413Y1272364D01*
X1064636Y1270246D01*
X1066366Y1268516D01*
X1068484Y1267293D01*
X1070847Y1266660D01*
X1073293D01*
X1075656Y1267293D01*
X1077774Y1268516D01*
X1079504Y1270246D01*
X1080727Y1272364D01*
X1081360Y1274727D01*
Y1277173D01*
X1080727Y1279536D01*
X1079504Y1281654D01*
X1077774Y1283384D01*
X1075656Y1284607D01*
X1073293Y1285240D01*
D02*
G37*
G36*
X1081360Y1259840D02*
X1062780D01*
Y1241260D01*
X1081360D01*
Y1259840D01*
D02*
G37*
G36*
X1153621Y1218560D02*
X1150779D01*
X1148035Y1217825D01*
X1145575Y1216404D01*
X1143566Y1214395D01*
X1142145Y1211935D01*
X1141410Y1209191D01*
Y1206349D01*
X1142145Y1203605D01*
X1143566Y1201145D01*
X1145575Y1199136D01*
X1148035Y1197715D01*
X1148959Y1197468D01*
X1150779Y1196980D01*
X1153621D01*
X1155441Y1197468D01*
X1156365Y1197715D01*
X1158825Y1199136D01*
X1160834Y1201145D01*
X1162255Y1203605D01*
X1162990Y1206349D01*
Y1209191D01*
X1162255Y1211935D01*
X1160834Y1214395D01*
X1158825Y1216404D01*
X1156365Y1217825D01*
X1153621Y1218560D01*
D02*
G37*
G36*
X1380542Y1187330D02*
X1377898D01*
X1375345Y1186646D01*
X1373055Y1185324D01*
X1371186Y1183455D01*
X1369864Y1181165D01*
X1369180Y1178612D01*
Y1175968D01*
X1369864Y1173415D01*
X1371186Y1171125D01*
X1373055Y1169256D01*
X1375345Y1167934D01*
X1377898Y1167250D01*
X1380542D01*
X1383095Y1167934D01*
X1385385Y1169256D01*
X1387254Y1171125D01*
X1388576Y1173415D01*
X1389260Y1175968D01*
Y1178612D01*
X1388576Y1181165D01*
X1387254Y1183455D01*
X1385385Y1185324D01*
X1383095Y1186646D01*
X1380542Y1187330D01*
D02*
G37*
G36*
X1355142D02*
X1352498D01*
X1349945Y1186646D01*
X1347655Y1185324D01*
X1345786Y1183455D01*
X1344464Y1181165D01*
X1343780Y1178612D01*
Y1175968D01*
X1344464Y1173415D01*
X1345786Y1171125D01*
X1347655Y1169256D01*
X1349945Y1167934D01*
X1352498Y1167250D01*
X1355142D01*
X1357695Y1167934D01*
X1359985Y1169256D01*
X1361854Y1171125D01*
X1363176Y1173415D01*
X1363860Y1175968D01*
Y1178612D01*
X1363176Y1181165D01*
X1361854Y1183455D01*
X1359985Y1185324D01*
X1357695Y1186646D01*
X1355142Y1187330D01*
D02*
G37*
G36*
X1329742D02*
X1327098D01*
X1324545Y1186646D01*
X1322255Y1185324D01*
X1320386Y1183455D01*
X1319064Y1181165D01*
X1318380Y1178612D01*
Y1175968D01*
X1319064Y1173415D01*
X1320386Y1171125D01*
X1322255Y1169256D01*
X1324545Y1167934D01*
X1327098Y1167250D01*
X1329742D01*
X1332295Y1167934D01*
X1334585Y1169256D01*
X1336454Y1171125D01*
X1337776Y1173415D01*
X1338460Y1175968D01*
Y1178612D01*
X1337776Y1181165D01*
X1336454Y1183455D01*
X1334585Y1185324D01*
X1332295Y1186646D01*
X1329742Y1187330D01*
D02*
G37*
G36*
X1313060D02*
X1292980D01*
Y1167250D01*
X1313060D01*
Y1187330D01*
D02*
G37*
G36*
X1341120Y1166306D02*
Y1162050D01*
X1345376D01*
X1344424Y1163699D01*
X1342769Y1165354D01*
X1341120Y1166306D01*
D02*
G37*
G36*
X1333500D02*
X1331851Y1165354D01*
X1330196Y1163699D01*
X1329244Y1162050D01*
X1333500D01*
Y1166306D01*
D02*
G37*
G36*
X1391807Y1156478D02*
X1387552D01*
X1388504Y1154830D01*
X1390159Y1153175D01*
X1391807Y1152223D01*
Y1156478D01*
D02*
G37*
G36*
X1345376Y1154430D02*
X1341120D01*
Y1150174D01*
X1342769Y1151126D01*
X1344424Y1152781D01*
X1345376Y1154430D01*
D02*
G37*
G36*
X1333500D02*
X1329244D01*
X1330196Y1152781D01*
X1331851Y1151126D01*
X1333500Y1150174D01*
Y1154430D01*
D02*
G37*
G36*
X1235070Y1163950D02*
X1213490D01*
Y1142370D01*
X1235070D01*
Y1163950D01*
D02*
G37*
G36*
X1339350Y1108834D02*
X1336872Y1108342D01*
X1334772Y1106938D01*
X1333368Y1104838D01*
X1332876Y1102360D01*
Y1094740D01*
X1333149Y1093363D01*
X1332063Y1092313D01*
X1332015Y1092325D01*
X1332002Y1092328D01*
X1331724Y1092579D01*
X1331671Y1092632D01*
X1330069Y1094234D01*
X1328041Y1095404D01*
X1325780Y1096010D01*
X1323440D01*
X1321179Y1095404D01*
X1319151Y1094234D01*
X1317496Y1092579D01*
X1316326Y1090551D01*
X1315720Y1088290D01*
Y1085950D01*
X1316326Y1083689D01*
X1317496Y1081661D01*
X1319151Y1080006D01*
X1321179Y1078836D01*
X1323440Y1078230D01*
X1325780D01*
X1328041Y1078836D01*
X1330069Y1080006D01*
X1331724Y1081661D01*
X1332894Y1083689D01*
X1333500Y1085950D01*
Y1088290D01*
X1332913Y1090483D01*
X1332894Y1090551D01*
X1332850Y1090752D01*
X1334039Y1091258D01*
X1334772Y1090162D01*
X1336872Y1088758D01*
X1339350Y1088266D01*
X1341828Y1088758D01*
X1343928Y1090162D01*
X1345331Y1092262D01*
X1345824Y1094740D01*
Y1102360D01*
X1345331Y1104838D01*
X1343928Y1106938D01*
X1341828Y1108342D01*
X1339350Y1108834D01*
D02*
G37*
G36*
X1334770Y1052006D02*
Y1047750D01*
X1339026D01*
X1338074Y1049399D01*
X1336419Y1051054D01*
X1334770Y1052006D01*
D02*
G37*
G36*
X1327150D02*
X1325501Y1051054D01*
X1323846Y1049399D01*
X1322894Y1047750D01*
X1327150D01*
Y1052006D01*
D02*
G37*
G36*
X1339026Y1040130D02*
X1334770D01*
Y1035874D01*
X1336419Y1036826D01*
X1338074Y1038481D01*
X1339026Y1040130D01*
D02*
G37*
G36*
X1327150D02*
X1322894D01*
X1323846Y1038481D01*
X1325501Y1036826D01*
X1327150Y1035874D01*
Y1040130D01*
D02*
G37*
G36*
X1376680Y1035496D02*
Y1031240D01*
X1380936D01*
X1379984Y1032889D01*
X1378329Y1034544D01*
X1376680Y1035496D01*
D02*
G37*
G36*
X1369060D02*
X1367411Y1034544D01*
X1365756Y1032889D01*
X1364804Y1031240D01*
X1369060D01*
Y1035496D01*
D02*
G37*
G36*
X1223840Y1458528D02*
X1210340D01*
X1208178Y1458099D01*
X1206346Y1456874D01*
X1205121Y1455042D01*
X1204691Y1452880D01*
X1205121Y1450718D01*
X1206346Y1448886D01*
X1208178Y1447661D01*
X1210340Y1447231D01*
X1223840D01*
X1226002Y1447661D01*
X1227834Y1448886D01*
X1229263Y1448813D01*
X1229750Y1448367D01*
Y1445645D01*
X1224764D01*
X1223840Y1445829D01*
X1210340D01*
X1208178Y1445399D01*
X1206346Y1444174D01*
X1205121Y1442342D01*
X1204691Y1440180D01*
X1205121Y1438018D01*
X1206346Y1436186D01*
X1208178Y1434961D01*
X1210340Y1434532D01*
X1223840D01*
X1226002Y1434961D01*
X1227834Y1436186D01*
X1228480Y1437153D01*
X1229750Y1436767D01*
Y1435110D01*
X1237830D01*
Y1442110D01*
Y1452190D01*
X1237370D01*
X1236537Y1453437D01*
X1232767Y1457207D01*
X1231507Y1458049D01*
X1230020Y1458345D01*
X1224764D01*
X1223840Y1458528D01*
D02*
G37*
G36*
X1290200Y1399420D02*
X1270120D01*
Y1379340D01*
X1290200D01*
Y1399420D01*
D02*
G37*
G36*
X1256082D02*
X1253438D01*
X1250885Y1398736D01*
X1248595Y1397414D01*
X1246726Y1395545D01*
X1245404Y1393255D01*
X1244720Y1390702D01*
Y1388058D01*
X1245404Y1385505D01*
X1246726Y1383215D01*
X1248595Y1381346D01*
X1250885Y1380024D01*
X1253438Y1379340D01*
X1256082D01*
X1258635Y1380024D01*
X1260925Y1381346D01*
X1262794Y1383215D01*
X1264116Y1385505D01*
X1264800Y1388058D01*
Y1390702D01*
X1264116Y1393255D01*
X1262794Y1395545D01*
X1260925Y1397414D01*
X1258635Y1398736D01*
X1256082Y1399420D01*
D02*
G37*
G36*
X1230682D02*
X1228038D01*
X1225485Y1398736D01*
X1223195Y1397414D01*
X1221326Y1395545D01*
X1220004Y1393255D01*
X1219320Y1390702D01*
Y1388058D01*
X1220004Y1385505D01*
X1221326Y1383215D01*
X1223195Y1381346D01*
X1225485Y1380024D01*
X1228038Y1379340D01*
X1230682D01*
X1233235Y1380024D01*
X1235525Y1381346D01*
X1237394Y1383215D01*
X1238716Y1385505D01*
X1239400Y1388058D01*
Y1390702D01*
X1238716Y1393255D01*
X1237394Y1395545D01*
X1235525Y1397414D01*
X1233235Y1398736D01*
X1230682Y1399420D01*
D02*
G37*
G36*
X1205282D02*
X1202638D01*
X1200085Y1398736D01*
X1197795Y1397414D01*
X1195926Y1395545D01*
X1194604Y1393255D01*
X1193920Y1390702D01*
Y1388058D01*
X1194604Y1385505D01*
X1195926Y1383215D01*
X1197795Y1381346D01*
X1200085Y1380024D01*
X1202638Y1379340D01*
X1205282D01*
X1207835Y1380024D01*
X1210125Y1381346D01*
X1211994Y1383215D01*
X1213316Y1385505D01*
X1214000Y1388058D01*
Y1390702D01*
X1213316Y1393255D01*
X1211994Y1395545D01*
X1210125Y1397414D01*
X1207835Y1398736D01*
X1205282Y1399420D01*
D02*
G37*
G36*
X1255138Y1370330D02*
X1252462D01*
X1249878Y1369638D01*
X1247562Y1368300D01*
X1245670Y1366408D01*
X1244332Y1364092D01*
X1243640Y1361508D01*
Y1358832D01*
X1244332Y1356248D01*
X1245670Y1353932D01*
X1247562Y1352040D01*
X1249878Y1350702D01*
X1252462Y1350010D01*
X1255138D01*
X1257722Y1350702D01*
X1260038Y1352040D01*
X1261930Y1353932D01*
X1263268Y1356248D01*
X1263960Y1358832D01*
Y1361508D01*
X1263268Y1364092D01*
X1261930Y1366408D01*
X1260038Y1368300D01*
X1257722Y1369638D01*
X1255138Y1370330D01*
D02*
G37*
G36*
X1229738D02*
X1227062D01*
X1224478Y1369638D01*
X1222162Y1368300D01*
X1220270Y1366408D01*
X1218932Y1364092D01*
X1218240Y1361508D01*
Y1358832D01*
X1218932Y1356248D01*
X1220270Y1353932D01*
X1222162Y1352040D01*
X1224478Y1350702D01*
X1227062Y1350010D01*
X1229738D01*
X1232322Y1350702D01*
X1234638Y1352040D01*
X1236530Y1353932D01*
X1237868Y1356248D01*
X1238560Y1358832D01*
Y1361508D01*
X1237868Y1364092D01*
X1236530Y1366408D01*
X1234638Y1368300D01*
X1232322Y1369638D01*
X1229738Y1370330D01*
D02*
G37*
G36*
X1204338D02*
X1201662D01*
X1199078Y1369638D01*
X1196762Y1368300D01*
X1194870Y1366408D01*
X1193532Y1364092D01*
X1192840Y1361508D01*
Y1358832D01*
X1193532Y1356248D01*
X1194870Y1353932D01*
X1196762Y1352040D01*
X1199078Y1350702D01*
X1201662Y1350010D01*
X1204338D01*
X1206922Y1350702D01*
X1209238Y1352040D01*
X1211130Y1353932D01*
X1212468Y1356248D01*
X1213160Y1358832D01*
Y1361508D01*
X1212468Y1364092D01*
X1211130Y1366408D01*
X1209238Y1368300D01*
X1206922Y1369638D01*
X1204338Y1370330D01*
D02*
G37*
%LPD*%
D14*
X1090930Y1556060D02*
X1106970D01*
X1191260Y1515110D02*
X1211580D01*
X1207770Y1564640D02*
X1235710Y1536700D01*
X1173480Y1532890D02*
X1191260Y1515110D01*
X1149350Y1532890D02*
X1173480D01*
X1117962Y1564278D02*
X1149350Y1532890D01*
X1113640Y1564730D02*
X1114092Y1564278D01*
X1117962D01*
X1113640Y1562730D02*
Y1564730D01*
X1079718Y1522730D02*
X1159510D01*
X1169670Y1512570D01*
X1078230Y1513840D02*
Y1521242D01*
X1079718Y1522730D01*
X1080770Y1562750D02*
Y1577340D01*
X1073150Y1584960D02*
X1080770Y1577340D01*
X1279200Y1289360D02*
X1342625Y1352785D01*
Y1377607D02*
X1385570Y1420551D01*
X1342625Y1352785D02*
Y1377607D01*
X1279200Y1207770D02*
Y1289360D01*
X1253800Y1310950D02*
X1291590Y1348740D01*
Y1363980D02*
X1361440Y1433830D01*
X1291590Y1348740D02*
Y1363980D01*
X1253800Y1207770D02*
Y1310950D01*
X1361440Y1433830D02*
Y1529080D01*
X1341220Y1396790D02*
Y1404938D01*
X1385570Y1420551D02*
Y1556148D01*
X1372870Y1436588D02*
Y1888490D01*
X1341220Y1404938D02*
X1372870Y1436588D01*
X1086240Y1509334D02*
X1086470Y1509104D01*
X1078230Y1513840D02*
X1082736Y1509334D01*
X1086240D01*
X1086470Y1495400D02*
Y1509104D01*
X1088496Y1495400D02*
X1106610Y1477286D01*
X1086470Y1495400D02*
X1088496D01*
X1066150Y1493210D02*
X1086240D01*
X1235710Y1536700D02*
X1248410D01*
X1244910Y1464930D02*
Y1498290D01*
X1241974Y1501226D02*
X1244910Y1498290D01*
X1173440Y1781810D02*
X1174750D01*
X1150890Y1564640D02*
X1207770D01*
X1126490Y1505640D02*
X1132760Y1511910D01*
X1126490Y1499180D02*
X1132760Y1492910D01*
X1126490Y1499180D02*
Y1505640D01*
X1132760Y1511910D02*
X1134510D01*
X1132760Y1492910D02*
X1134510D01*
X1102360Y1592580D02*
X1103839Y1591101D01*
Y1582420D02*
Y1591101D01*
Y1582420D02*
X1108835Y1577424D01*
X1113334D01*
X1120310Y1584400D01*
X1089660Y1573132D02*
Y1643670D01*
X1098152Y1564640D02*
X1113550D01*
X1089660Y1573132D02*
X1098152Y1564640D01*
X1089660Y1643670D02*
X1098890Y1652900D01*
X1113480Y1604010D02*
X1113560Y1603930D01*
X1120310Y1584400D02*
Y1603840D01*
X1113560Y1586310D02*
Y1603930D01*
X1098890Y1652900D02*
Y1658900D01*
X1113550Y1564640D02*
X1113640Y1564730D01*
X1024880Y1551930D02*
X1035490D01*
X1010920Y1537970D02*
X1024880Y1551930D01*
X1112090Y1427480D02*
X1131570D01*
X1143070Y1488719D02*
Y1495600D01*
X1136260Y1502410D02*
X1143070Y1495600D01*
X1135380Y1481029D02*
X1143070Y1488719D01*
X1135380Y1478280D02*
Y1481029D01*
X1134510Y1502410D02*
X1136260D01*
X1391724Y1750840D02*
X1395730Y1746833D01*
X1391724Y1750840D02*
Y1753401D01*
X1395730Y1566308D02*
Y1746833D01*
X1348740Y1912620D02*
X1372870Y1888490D01*
X1385570Y1556148D02*
X1395730Y1566308D01*
X1120310Y1603840D02*
X1120480Y1604010D01*
Y1613940D01*
X1120710Y1614170D02*
X1121100D01*
X1120480Y1613940D02*
X1120710Y1614170D01*
X1122680Y1626180D02*
Y1627180D01*
X1122910Y1625950D02*
X1125152D01*
X1126640Y1586230D02*
Y1624462D01*
X1122680Y1626180D02*
X1122910Y1625950D01*
X1125152D02*
X1126640Y1624462D01*
X1127370Y1583500D02*
X1129370D01*
X1126640Y1584230D02*
Y1586230D01*
Y1584230D02*
X1127370Y1583500D01*
X1126640Y1586230D02*
X1129370Y1583500D01*
X1132720D01*
X1135088Y1640151D02*
X1136039Y1641102D01*
Y1657949D02*
X1136990Y1658900D01*
X1136039Y1641102D02*
Y1657949D01*
X1086700Y1471080D02*
X1087120Y1470660D01*
X1086470Y1484630D02*
X1086700Y1484400D01*
Y1471080D02*
Y1484400D01*
X1304600Y1360170D02*
X1341220Y1396790D01*
X1035490Y1561430D02*
X1036864Y1560056D01*
X1042174D02*
X1045210Y1557020D01*
X1036864Y1560056D02*
X1042174D01*
X1045210Y1548130D02*
Y1557020D01*
X1037220Y1544160D02*
X1041240D01*
X1035490Y1542430D02*
X1037220Y1544160D01*
X1041240D02*
X1045210Y1548130D01*
X1033740Y1542430D02*
X1035490D01*
X1024890Y1539890D02*
X1031200D01*
X1033740Y1542430D01*
X1090930Y1546900D02*
Y1556060D01*
X1080770Y1535740D02*
Y1536740D01*
X1090930Y1546900D01*
X1081000Y1556060D02*
X1090930D01*
X1080770Y1555830D02*
X1081000Y1556060D01*
X1080770Y1555750D02*
Y1555830D01*
X1106970Y1556060D02*
X1113640Y1562730D01*
X1081394Y1896406D02*
X1102010Y1875790D01*
X1082150Y1845762D02*
X1084580Y1843333D01*
Y1842625D02*
Y1843333D01*
X1082150Y1845762D02*
Y1854170D01*
X1079810Y1856510D02*
X1082150Y1854170D01*
X1079810Y1856510D02*
Y1861820D01*
X1084580Y1843333D02*
Y1844040D01*
X1079810Y1872020D02*
X1083580Y1875790D01*
X1079810Y1861820D02*
Y1872020D01*
X1083580Y1875790D02*
X1084580D01*
X1074394Y1936546D02*
X1074676D01*
X1074906Y1936776D02*
Y1940342D01*
X1076394Y1941830D02*
X1093668D01*
X1074676Y1936546D02*
X1074906Y1936776D01*
Y1940342D02*
X1076394Y1941830D01*
X1093668D02*
X1095156Y1940342D01*
Y1920214D02*
Y1940342D01*
Y1920214D02*
X1095350Y1920020D01*
X1074394Y1936546D02*
X1075394D01*
X1085850Y1918270D02*
Y1920020D01*
Y1918270D02*
X1094040Y1910080D01*
X1117600D01*
X1081394Y1896406D02*
Y1936546D01*
X1086810Y1861820D02*
X1086810Y1861820D01*
X1099820D01*
X1111590Y1820900D02*
Y1856160D01*
X1115980Y1860550D01*
X1116980D01*
X1136185Y1821705D02*
X1136990Y1820900D01*
X1135380Y1842770D02*
X1136185Y1841965D01*
X1133436Y1835896D02*
Y1840826D01*
X1135380Y1842770D01*
X1136185Y1821705D02*
Y1841965D01*
X1124290Y1826750D02*
X1133436Y1835896D01*
X1124290Y1820900D02*
Y1826750D01*
X1124135Y1826600D02*
Y1860395D01*
X1123980Y1860550D02*
X1124135Y1860395D01*
X1123980Y1860550D02*
X1130290D01*
X1135370Y1865630D01*
X1135171D02*
X1135370D01*
X1137920D01*
X1131361Y1869440D02*
X1135171Y1865630D01*
X1123950Y1869440D02*
X1131361D01*
X1155909Y1878330D02*
X1159719Y1882140D01*
X1153160Y1878330D02*
X1155909D01*
X1159719Y1882140D02*
X1166170D01*
X1084768Y1424752D02*
X1106170Y1403350D01*
X1043940Y1582420D02*
Y1651000D01*
X1135375Y1511045D02*
X1153550D01*
X1153780Y1510815D01*
Y1510370D02*
Y1510815D01*
X1106610Y1467178D02*
Y1477286D01*
X1108208Y1465580D02*
X1112090D01*
X1106610Y1467178D02*
X1108208Y1465580D01*
X1082040Y1424752D02*
X1084768D01*
X1224776Y1427480D02*
X1226696Y1425560D01*
X1217090Y1427480D02*
X1224776D01*
X1226696Y1425560D02*
X1237910D01*
X1217510Y1465160D02*
X1237280D01*
X1217090Y1465580D02*
X1217510Y1465160D01*
X1244910Y1425560D02*
Y1441380D01*
X1082040Y1438340D02*
X1082270Y1438570D01*
X1082970D01*
X1082040Y1424752D02*
Y1438340D01*
X1337310Y1158240D02*
X1338969Y1159899D01*
X1395228D02*
X1395617Y1160288D01*
X1089320Y1514450D02*
X1107010D01*
X1086470Y1517300D02*
X1089320Y1514450D01*
X1145540Y1569990D02*
X1150890Y1564640D01*
X1145540Y1570990D02*
Y1571070D01*
X1145310Y1571300D02*
X1145540Y1571070D01*
Y1569990D02*
Y1570990D01*
X1244990Y1464930D02*
X1245220Y1464700D01*
X1244910Y1464930D02*
X1244990D01*
X1245220Y1447150D02*
Y1464700D01*
X1043940Y1651000D02*
X1173210Y1780270D01*
Y1781580D02*
X1173440Y1781810D01*
X1173210Y1780270D02*
Y1781580D01*
X1137000Y1888490D02*
X1171682D01*
X1117950Y1869440D02*
X1137000Y1888490D01*
X1116950Y1869440D02*
X1117950D01*
X1173170Y1882140D02*
Y1887002D01*
X1171682Y1888490D02*
X1173170Y1887002D01*
X1173015Y1882065D02*
X1173090Y1882140D01*
X1197840Y1882370D02*
X1198880Y1883410D01*
X1173170Y1882140D02*
X1173400Y1882370D01*
X1197840D01*
X1173015Y1872135D02*
Y1882065D01*
X1172860Y1871980D02*
X1173015Y1872135D01*
X1116965Y1860565D02*
Y1869425D01*
X1116950Y1869440D02*
X1116965Y1869425D01*
Y1860565D02*
X1116980Y1860550D01*
X1102010Y1875790D02*
X1103010D01*
X1131210Y1571300D02*
X1137920D01*
X1126640Y1566730D02*
X1131210Y1571300D01*
X1126640Y1564730D02*
Y1566730D01*
X1137920Y1571300D02*
X1145310D01*
X1096010Y1875790D02*
X1096010Y1875790D01*
X1084580Y1875790D02*
X1096010D01*
X1098890Y1820900D02*
Y1828315D01*
X1084580Y1842625D02*
X1098890Y1828315D01*
X1086240Y1493210D02*
X1086470Y1493440D01*
Y1495400D01*
X1132720Y1583500D02*
X1136690Y1579530D01*
X1137920Y1578300D02*
Y1579300D01*
X1136690Y1579530D02*
X1137690D01*
X1137920Y1579300D01*
X1145310Y1578300D02*
X1145540Y1578070D01*
Y1577990D02*
Y1578070D01*
X1137920Y1578300D02*
X1145310D01*
X1113790Y1626490D02*
Y1627490D01*
X1114100Y1614170D02*
Y1626180D01*
X1113790Y1626490D02*
X1114100Y1626180D01*
X1113560Y1586310D02*
X1113640Y1586230D01*
X1113480Y1613940D02*
X1113710Y1614170D01*
X1113480Y1604010D02*
Y1613940D01*
X1113710Y1614170D02*
X1114100D01*
X1271270Y1912620D02*
X1348740D01*
X1075394Y1936546D02*
X1076350Y1935590D01*
Y1920020D02*
Y1935590D01*
X1245220Y1441690D02*
Y1442690D01*
X1244910Y1441380D02*
X1245220Y1441690D01*
X1080540Y1542430D02*
X1080770Y1542660D01*
X1062990Y1542430D02*
X1080540D01*
X1080770Y1542660D02*
Y1542740D01*
X1166250Y1871980D02*
X1166480Y1871750D01*
Y1863090D02*
Y1871750D01*
X1165860Y1871980D02*
X1166250D01*
X1173170Y1853160D02*
Y1862860D01*
X1172940Y1852930D02*
X1173170Y1853160D01*
X1172860Y1852930D02*
X1172940D01*
X1172860Y1862860D02*
X1173170D01*
X1113790Y1634490D02*
Y1649223D01*
X1111590Y1651422D02*
Y1658900D01*
Y1651422D02*
X1113790Y1649223D01*
X1166480Y1842770D02*
Y1852700D01*
X1166250Y1852930D02*
X1166480Y1852700D01*
X1165860Y1852930D02*
X1166250D01*
X1122680Y1649812D02*
X1124290Y1651422D01*
X1122680Y1634180D02*
Y1649812D01*
X1124290Y1651422D02*
Y1658900D01*
X1174440Y1832610D02*
Y1842540D01*
X1174210Y1842770D02*
X1174440Y1842540D01*
X1173480Y1842770D02*
X1174210D01*
X1167440Y1822450D02*
Y1832610D01*
X1167440Y1832610D02*
X1167440Y1832610D01*
Y1822450D02*
X1167440Y1822450D01*
X1174440Y1812290D02*
Y1822450D01*
X1174440Y1822450D02*
X1174440Y1822450D01*
X1076965Y1876020D02*
Y1891905D01*
Y1876020D02*
X1077195Y1875790D01*
X1077580D01*
X1076350Y1892520D02*
X1076965Y1891905D01*
X1167440Y1802360D02*
Y1812290D01*
X1167670Y1802130D02*
X1167750D01*
X1167440Y1802360D02*
X1167670Y1802130D01*
X1174750Y1792200D02*
Y1802130D01*
X1174520Y1791970D02*
X1174750Y1792200D01*
X1174440Y1791970D02*
X1174520D01*
X1167440Y1781810D02*
Y1791970D01*
X1091620Y1439220D02*
X1108900D01*
X1090970Y1438570D02*
X1091620Y1439220D01*
X1089970Y1438570D02*
X1090970D01*
X1086470Y1517300D02*
Y1518300D01*
X1213900Y1454460D02*
X1230020D01*
X1233790Y1449690D02*
Y1450690D01*
X1230020Y1454460D02*
X1233790Y1450690D01*
Y1441990D02*
Y1442690D01*
X1213900Y1441760D02*
X1233560D01*
X1233790Y1441990D01*
D17*
X1120480Y1604010D02*
D03*
X1121100Y1614170D02*
D03*
X1166170Y1882140D02*
D03*
X1123950Y1869440D02*
D03*
X1123980Y1860550D02*
D03*
X1086810Y1861820D02*
D03*
X1244910Y1464930D02*
D03*
X1174440Y1781810D02*
D03*
X1173170Y1882140D02*
D03*
X1172860Y1871980D02*
D03*
X1116950Y1869440D02*
D03*
X1116980Y1860550D02*
D03*
X1081394Y1936546D02*
D03*
X1103010Y1875790D02*
D03*
X1084580Y1875790D02*
D03*
X1096010Y1875790D02*
D03*
X1079810Y1861820D02*
D03*
X1113480Y1604010D02*
D03*
X1114100Y1614170D02*
D03*
X1074394Y1936546D02*
D03*
X1082970Y1438570D02*
D03*
X1237910Y1425560D02*
D03*
Y1464930D02*
D03*
X1244910Y1425560D02*
D03*
X1165860Y1871980D02*
D03*
X1166480Y1863090D02*
D03*
X1173480D02*
D03*
X1172860Y1852930D02*
D03*
X1165860D02*
D03*
X1166480Y1842770D02*
D03*
X1173480D02*
D03*
X1174440Y1832610D02*
D03*
X1167440Y1822450D02*
D03*
X1167440Y1832610D02*
D03*
X1174440Y1822450D02*
D03*
X1174440Y1812290D02*
D03*
X1077580Y1875790D02*
D03*
X1167750Y1802130D02*
D03*
X1167440Y1812290D02*
D03*
X1174750Y1802130D02*
D03*
X1174440Y1791970D02*
D03*
X1167440D02*
D03*
Y1781810D02*
D03*
X1089970Y1438570D02*
D03*
D18*
X1085850Y1920020D02*
D03*
X1095350D02*
D03*
X1076350D02*
D03*
Y1892520D02*
D03*
X1095350D02*
D03*
D19*
X1035490Y1551930D02*
D03*
X1134510Y1502410D02*
D03*
X1035490Y1561430D02*
D03*
Y1542430D02*
D03*
X1134510Y1511910D02*
D03*
Y1492910D02*
D03*
X1062990Y1542430D02*
D03*
X1107010Y1511910D02*
D03*
Y1492910D02*
D03*
X1062990Y1561430D02*
D03*
D20*
X1145540Y1577990D02*
D03*
Y1570990D02*
D03*
X1080770Y1562750D02*
D03*
X1086470Y1484630D02*
D03*
X1099820Y1547170D02*
D03*
X1024890Y1532890D02*
D03*
X1153780Y1503370D02*
D03*
X1066150Y1483670D02*
D03*
X1245220Y1447150D02*
D03*
X1099820Y1554170D02*
D03*
X1080770Y1555750D02*
D03*
X1080770Y1535740D02*
D03*
X1137920Y1571300D02*
D03*
X1066150Y1490670D02*
D03*
X1086470Y1491630D02*
D03*
Y1508760D02*
D03*
X1137920Y1578300D02*
D03*
X1122680Y1627180D02*
D03*
X1113790Y1627490D02*
D03*
X1024890Y1539890D02*
D03*
X1153780Y1510370D02*
D03*
X1245220Y1440150D02*
D03*
X1080770Y1542740D02*
D03*
X1113790Y1634490D02*
D03*
X1122680Y1634180D02*
D03*
X1086470Y1515760D02*
D03*
X1233790Y1447150D02*
D03*
Y1440150D02*
D03*
D30*
X1008380Y1459230D02*
D03*
Y1826260D02*
D03*
X1516380Y1965960D02*
D03*
X1008380Y1967230D02*
D03*
X1502410Y1826260D02*
D03*
X1503680Y1460500D02*
D03*
D31*
X1155700Y1672590D02*
D03*
X1181100Y1596390D02*
D03*
X1206500D02*
D03*
X1155700D02*
D03*
X1181100Y1672590D02*
D03*
X1072070Y1301350D02*
D03*
X1245870Y1889760D02*
D03*
X1072070Y1326750D02*
D03*
X1395730Y965670D02*
D03*
X1370330D02*
D03*
X1072070Y1275950D02*
D03*
X1421130Y965670D02*
D03*
X1220470Y1813560D02*
D03*
X1271270D02*
D03*
X1220470Y1889760D02*
D03*
X1245870Y1813560D02*
D03*
D32*
X1206500Y1672590D02*
D03*
X1072070Y1250550D02*
D03*
X1271270Y1889760D02*
D03*
D34*
X1344930Y965670D02*
D03*
D43*
X1211580Y1515110D02*
D03*
X1248410Y1536700D02*
D03*
X1101090Y1619250D02*
D03*
X1549400Y990600D02*
D03*
X1422400Y2006600D02*
D03*
X1104900D02*
D03*
X999490Y1347470D02*
D03*
X1060450Y1383030D02*
D03*
X1203000Y1207770D02*
D03*
X1228400D02*
D03*
X1330000D02*
D03*
X1406200D02*
D03*
X1431600D02*
D03*
X1457000D02*
D03*
X1482400D02*
D03*
X1533200Y1360170D02*
D03*
X1507800D02*
D03*
X1482400D02*
D03*
X1380800D02*
D03*
X1355400D02*
D03*
X1330000D02*
D03*
X1279200D02*
D03*
X1177600D02*
D03*
X1203000D02*
D03*
X1431600D02*
D03*
X1406200D02*
D03*
X1228400D02*
D03*
X1253800D02*
D03*
X1304600D02*
D03*
X1253800Y1207770D02*
D03*
X1279200D02*
D03*
X1355400D02*
D03*
X1380800D02*
D03*
X1304600D02*
D03*
X1533200D02*
D03*
X1507800D02*
D03*
X1457000Y1360170D02*
D03*
X1169670Y1512570D02*
D03*
X1385570Y937260D02*
D03*
X1243330Y1499870D02*
D03*
X1474470Y1024890D02*
D03*
X1118870Y1915160D02*
D03*
X1202690Y1619250D02*
D03*
X1424940Y1442720D02*
D03*
X998220Y1243330D02*
D03*
X1146810Y1905000D02*
D03*
X1238250Y1743710D02*
D03*
X1198880Y1883410D02*
D03*
X1461770Y967740D02*
D03*
X1384300Y1958340D02*
D03*
X1350010Y1648460D02*
D03*
X1470660Y1664970D02*
D03*
X1412240Y1484630D02*
D03*
X1268730Y1718310D02*
D03*
X1084580Y1844040D02*
D03*
X1418590Y1818640D02*
D03*
X1431975Y1529080D02*
D03*
X1271270Y1912620D02*
D03*
X1106170Y1403350D02*
D03*
X1266190Y1784350D02*
D03*
X1229360Y1692910D02*
D03*
D44*
X985520Y1719580D02*
D03*
Y1567180D02*
D03*
Y1668780D02*
D03*
Y1617980D02*
D03*
X1524000D02*
D03*
Y1668780D02*
D03*
Y1719580D02*
D03*
Y1567180D02*
D03*
D45*
X1152200Y1207770D02*
D03*
Y1360170D02*
D03*
X1558600D02*
D03*
Y1207770D02*
D03*
X1174280Y953160D02*
D03*
X1024280Y1153160D02*
D03*
X1074280Y953160D02*
D03*
D46*
X1177600Y1207770D02*
D03*
D47*
X1467350Y1098550D02*
D03*
X1339350D02*
D03*
D48*
X1178560Y1389380D02*
D03*
X1430020Y1177290D02*
D03*
X1404620D02*
D03*
X1153160Y1389380D02*
D03*
X1379220Y1177290D02*
D03*
X1353820D02*
D03*
X1229360Y1389380D02*
D03*
X1254760D02*
D03*
X1203960D02*
D03*
X1328420Y1177290D02*
D03*
D49*
X1308100Y1744980D02*
D03*
X1310640Y1531620D02*
D03*
X1308100Y1770380D02*
D03*
X1310640Y1557020D02*
D03*
D50*
X1224280Y1153160D02*
D03*
D51*
X1308100Y1719580D02*
D03*
X1310640Y1506220D02*
D03*
D52*
X1280160Y1389380D02*
D03*
X1303020Y1177290D02*
D03*
D53*
X1073150Y1584960D02*
D03*
X1352640Y1401990D02*
D03*
X1457960Y1386840D02*
D03*
X1102360Y1592580D02*
D03*
X1399540Y1115060D02*
D03*
X1309370Y1866900D02*
D03*
X1010920Y1537970D02*
D03*
X1131570Y1427480D02*
D03*
X1135380Y1478280D02*
D03*
X1358900Y1605280D02*
D03*
X1135088Y1640151D02*
D03*
X1087120Y1470660D02*
D03*
X1459230Y1162050D02*
D03*
X1372870Y1027430D02*
D03*
X1324610Y1087120D02*
D03*
X1398270Y1794510D02*
D03*
X1263923Y1626597D02*
D03*
X1357630Y1583690D02*
D03*
X1402080Y1558290D02*
D03*
X1330960Y1043940D02*
D03*
X1099820Y1861820D02*
D03*
X1135380Y1842770D02*
D03*
X1137920Y1865630D02*
D03*
X1153160Y1878330D02*
D03*
X1043940Y1582420D02*
D03*
X1252220Y1606550D02*
D03*
X1082040Y1424752D02*
D03*
X1337310Y1158240D02*
D03*
X1395617Y1160288D02*
D03*
X1391724Y1753401D02*
D03*
X1357630Y1871980D02*
D03*
X1306830Y1819910D02*
D03*
X1361440Y1529080D02*
D03*
D54*
X1332230Y1785620D02*
D03*
D56*
X1217090Y1465580D02*
D03*
Y1452880D02*
D03*
Y1440180D02*
D03*
Y1427480D02*
D03*
X1112090Y1465580D02*
D03*
Y1452880D02*
D03*
Y1440180D02*
D03*
Y1427480D02*
D03*
D57*
X1403350Y1098550D02*
D03*
D58*
X1120140Y1586230D02*
D03*
X1113640Y1564730D02*
D03*
X1126640D02*
D03*
Y1586230D02*
D03*
X1113640D02*
D03*
D59*
X1136990Y1658900D02*
D03*
Y1820900D02*
D03*
X1124290D02*
D03*
X1111590D02*
D03*
X1098890Y1658900D02*
D03*
Y1820900D02*
D03*
X1111590Y1658900D02*
D03*
X1124290D02*
D03*
D60*
X1443990Y988530D02*
Y1934300D01*
X1421130Y965670D02*
X1443990Y988530D01*
X1160780Y1938020D02*
X1440270D01*
X1443990Y1934300D01*
X1104010Y1876790D02*
Y1881250D01*
X1103010Y1875790D02*
X1104010Y1876790D01*
Y1881250D02*
X1160780Y1938020D01*
M02*
