%TF.GenerationSoftware,Altium Limited,Altium Designer,23.4.1 (23)*%
G04 Layer_Color=8388736*
%FSLAX26Y26*%
%MOIN*%
%TF.SameCoordinates,99C6BA0F-0D9B-4297-A223-D59900673BD4*%
%TF.FilePolarity,Negative*%
%TF.FileFunction,Soldermask,Top*%
%TF.Part,Single*%
G01*
G75*
%TA.AperFunction,SMDPad,CuDef*%
G04:AMPARAMS|DCode=10|XSize=85.593mil|YSize=22.919mil|CornerRadius=11.459mil|HoleSize=0mil|Usage=FLASHONLY|Rotation=90.000|XOffset=0mil|YOffset=0mil|HoleType=Round|Shape=RoundedRectangle|*
%AMROUNDEDRECTD10*
21,1,0.085593,0.000000,0,0,90.0*
21,1,0.062675,0.022919,0,0,90.0*
1,1,0.022919,0.000000,0.031337*
1,1,0.022919,0.000000,-0.031337*
1,1,0.022919,0.000000,-0.031337*
1,1,0.022919,0.000000,0.031337*
%
%ADD10ROUNDEDRECTD10*%
%ADD11R,0.022919X0.085593*%
%ADD16R,0.020866X0.077953*%
%TA.AperFunction,ComponentPad*%
%ADD24C,0.389764*%
%ADD25C,0.053150*%
%ADD26R,0.053150X0.053150*%
%ADD28R,0.053150X0.053150*%
%TA.AperFunction,SMDPad,CuDef*%
%ADD48R,0.027685X0.019811*%
%ADD49R,0.031622X0.045402*%
%ADD50R,0.045402X0.031622*%
%ADD51R,0.019811X0.027685*%
%TA.AperFunction,ComponentPad*%
%ADD52C,0.068000*%
%ADD53C,0.086740*%
%TA.AperFunction,ViaPad*%
%ADD54C,0.068000*%
%TA.AperFunction,ComponentPad*%
%ADD55C,0.072961*%
%ADD56R,0.068000X0.068000*%
%ADD57O,0.038000X0.068000*%
%ADD58C,0.067055*%
%ADD59C,0.070992*%
%ADD60R,0.072961X0.072961*%
%ADD61R,0.070992X0.070992*%
%ADD62R,0.067055X0.067055*%
%TA.AperFunction,ViaPad*%
%ADD63C,0.058000*%
%ADD64C,0.038000*%
D10*
X5405000Y6110000D02*
D03*
X5355000D02*
D03*
Y5923696D02*
D03*
X5405000D02*
D03*
X5455000D02*
D03*
X5305000Y6110000D02*
D03*
X5455000D02*
D03*
X5445000Y6965908D02*
D03*
X5295000D02*
D03*
X5445000Y6779604D02*
D03*
X5395000D02*
D03*
X5345000D02*
D03*
Y6965908D02*
D03*
X5395000D02*
D03*
D11*
X5305000Y5923696D02*
D03*
X5295000Y6779604D02*
D03*
D16*
X5510000Y4494449D02*
D03*
X5410000Y4125551D02*
D03*
Y4494449D02*
D03*
X5360000D02*
D03*
X5460000D02*
D03*
X5510000Y4125551D02*
D03*
X5560000Y4494449D02*
D03*
X5610000D02*
D03*
X5660000D02*
D03*
X5710000D02*
D03*
Y4125551D02*
D03*
X5660000D02*
D03*
X5610000D02*
D03*
X5560000D02*
D03*
X5460000D02*
D03*
X5360000D02*
D03*
D24*
X3970000Y5745000D02*
D03*
Y7190000D02*
D03*
X5970000Y7740000D02*
D03*
X3970000Y7745000D02*
D03*
X5915000Y7190000D02*
D03*
X5920000Y5750000D02*
D03*
D25*
X4550000Y6585000D02*
D03*
X4650000Y6285000D02*
D03*
X4750000D02*
D03*
X4550000D02*
D03*
X4650000Y6585000D02*
D03*
X4220748Y5123425D02*
D03*
X4905000Y7440000D02*
D03*
X4220748Y5223425D02*
D03*
X5495000Y3801850D02*
D03*
X5395000D02*
D03*
X4220748Y5023425D02*
D03*
X5595000Y3801850D02*
D03*
X4805000Y7140000D02*
D03*
X5005000D02*
D03*
X4805000Y7440000D02*
D03*
X4905000Y7140000D02*
D03*
D26*
X4750000Y6585000D02*
D03*
X4220748Y4923425D02*
D03*
X5005000Y7440000D02*
D03*
D28*
X5295000Y3801850D02*
D03*
D48*
X4851221Y6255000D02*
D03*
X4878780D02*
D03*
X5448779Y7045000D02*
D03*
Y7085000D02*
D03*
X5372559Y7060000D02*
D03*
X5267441D02*
D03*
X5395000Y6195000D02*
D03*
X5300000D02*
D03*
X5473779Y6190000D02*
D03*
X5483779Y6230000D02*
D03*
X5353661Y3685000D02*
D03*
X5352441Y3715000D02*
D03*
X5658779Y5460000D02*
D03*
X5388661Y5525000D02*
D03*
X5423780Y6360000D02*
D03*
X5442559Y4560000D02*
D03*
X5318779Y7460000D02*
D03*
X5330000Y4560000D02*
D03*
X5532441Y3711850D02*
D03*
X5531221Y3680000D02*
D03*
X5380000Y3715000D02*
D03*
X5381221Y3685000D02*
D03*
X5560000Y3711850D02*
D03*
X5558780Y3680000D02*
D03*
X5320000Y7225000D02*
D03*
X5295000Y7060000D02*
D03*
X5396221Y6360000D02*
D03*
X5272441Y6195000D02*
D03*
X5287559Y6360000D02*
D03*
X5415000Y4560000D02*
D03*
X5357559D02*
D03*
X5345000Y7060000D02*
D03*
X5367441Y6195000D02*
D03*
X5291220Y7460000D02*
D03*
X5140000Y7115000D02*
D03*
X5421220Y7045000D02*
D03*
Y7085000D02*
D03*
X5446220Y6190000D02*
D03*
X5456220Y6230000D02*
D03*
X5292441Y7225000D02*
D03*
X5260000Y6360000D02*
D03*
X5112441Y7115000D02*
D03*
X5417441Y5440000D02*
D03*
X5416221Y5525000D02*
D03*
X5445000Y5440000D02*
D03*
X5631220Y5460000D02*
D03*
X5583780Y5460000D02*
D03*
X5556221D02*
D03*
D49*
X5252598Y7408268D02*
D03*
X5290000D02*
D03*
X5215197D02*
D03*
X5290000Y7300000D02*
D03*
X5215197D02*
D03*
D50*
X5061732Y6322401D02*
D03*
Y6359803D02*
D03*
Y6285000D02*
D03*
X5170000Y6359803D02*
D03*
Y6285000D02*
D03*
D51*
X5300000Y4122559D02*
D03*
X4311850Y5197441D02*
D03*
X4350000Y5200000D02*
D03*
X5300000Y4095000D02*
D03*
X5195000Y7142559D02*
D03*
X4995000Y6317559D02*
D03*
X4350000Y5227559D02*
D03*
X4311850Y5225000D02*
D03*
X5195000Y7115000D02*
D03*
X4995000Y6290000D02*
D03*
D52*
X4770000Y5965000D02*
D03*
X4915000Y6050000D02*
D03*
X4335000Y6375000D02*
D03*
X3935000Y5305000D02*
D03*
X4175000Y5445000D02*
D03*
X4736221Y4755000D02*
D03*
X4836221D02*
D03*
X5236221D02*
D03*
X5536221D02*
D03*
X5636221D02*
D03*
X5736221D02*
D03*
X5836221D02*
D03*
X6036221Y5355000D02*
D03*
X5936221D02*
D03*
X5836221D02*
D03*
X5436221D02*
D03*
X5336221D02*
D03*
X5236221D02*
D03*
X5036221D02*
D03*
X4636221D02*
D03*
X4736221D02*
D03*
X5636221D02*
D03*
X5536221D02*
D03*
X4836221D02*
D03*
X4936221D02*
D03*
X5136221D02*
D03*
X4936221Y4755000D02*
D03*
X5036221D02*
D03*
X5336221D02*
D03*
X5436221D02*
D03*
X5136221D02*
D03*
X6036221D02*
D03*
X5936221D02*
D03*
X5736221Y5355000D02*
D03*
X4605000Y5955000D02*
D03*
X5455000Y3690000D02*
D03*
X4895000Y5905000D02*
D03*
X5805000Y4035000D02*
D03*
X4405000Y7540000D02*
D03*
X4735000Y6375000D02*
D03*
X5610000Y5680000D02*
D03*
X3930000Y4895000D02*
D03*
X4515000Y7500000D02*
D03*
X4875000Y6865000D02*
D03*
X4720000Y7415000D02*
D03*
X5755000Y3810000D02*
D03*
X5450000Y7710000D02*
D03*
X5315000Y6490000D02*
D03*
X5790000Y6555000D02*
D03*
X5560000Y5845000D02*
D03*
X4995000Y6765000D02*
D03*
X4270000Y7260000D02*
D03*
X5585000Y7160000D02*
D03*
X5637695Y6020000D02*
D03*
X5005000Y7530000D02*
D03*
X4355000Y5525000D02*
D03*
X4985000Y7025000D02*
D03*
X4840000Y6665000D02*
D03*
D53*
X3880000Y6770000D02*
D03*
Y6170000D02*
D03*
Y6570000D02*
D03*
Y6370000D02*
D03*
X6000000D02*
D03*
Y6570000D02*
D03*
Y6770000D02*
D03*
Y6170000D02*
D03*
D54*
X6100000Y3900000D02*
D03*
X5600000Y7900000D02*
D03*
X4350000D02*
D03*
D55*
X4536221Y4755000D02*
D03*
Y5355000D02*
D03*
X6136221D02*
D03*
Y4755000D02*
D03*
X4623150Y3752598D02*
D03*
X4032598Y4540000D02*
D03*
X4229449Y3752598D02*
D03*
D56*
X4636221Y4755000D02*
D03*
D57*
X5776969Y4325000D02*
D03*
X5273031D02*
D03*
D58*
X4640000Y5470000D02*
D03*
X5630000Y4635000D02*
D03*
X5530000D02*
D03*
X4540000Y5470000D02*
D03*
X5430000Y4635000D02*
D03*
X5330000D02*
D03*
X4840000Y5470000D02*
D03*
X4940000D02*
D03*
X4740000D02*
D03*
X5230000Y4635000D02*
D03*
D59*
X5150000Y6870000D02*
D03*
X5160000Y6030000D02*
D03*
X5150000Y6970000D02*
D03*
X5160000Y6130000D02*
D03*
D60*
X4820000Y4540000D02*
D03*
D61*
X5150000Y6770000D02*
D03*
X5160000Y5930000D02*
D03*
D62*
X5040000Y5470000D02*
D03*
X5130000Y4635000D02*
D03*
D63*
X4225000Y6240000D02*
D03*
X5325355Y5519645D02*
D03*
X5740000Y5460000D02*
D03*
X4340000Y6270000D02*
D03*
X5510000Y4390000D02*
D03*
X5155000Y7350000D02*
D03*
X3980000Y6055000D02*
D03*
X4455000Y5620000D02*
D03*
X4470000Y5820000D02*
D03*
X5350000Y6320000D02*
D03*
X4468849Y6457288D02*
D03*
X4280000Y5790000D02*
D03*
X5745000Y4575000D02*
D03*
X5405000Y4045000D02*
D03*
X5215000Y4280000D02*
D03*
X5505000Y7065000D02*
D03*
X4976075Y6403925D02*
D03*
X5345000Y6235000D02*
D03*
X5520000Y6135000D02*
D03*
X5240000Y4110000D02*
D03*
X4330000Y7330000D02*
D03*
X4470000Y7255000D02*
D03*
X4480000Y7345000D02*
D03*
X4540000Y7395000D02*
D03*
X4110000Y6230000D02*
D03*
X4930000Y6325000D02*
D03*
X4260000Y5609261D02*
D03*
X5265000Y4560000D02*
D03*
X5494557Y4568065D02*
D03*
X5479227Y6903154D02*
D03*
X5345000Y7370000D02*
D03*
X5145000Y7165000D02*
D03*
X5360000Y6020000D02*
D03*
D64*
X5245000Y7030000D02*
D03*
%TF.MD5,ac6ff43ff97044aab4275dfe06a0241c*%
M02*
