G04*
G04 #@! TF.GenerationSoftware,Altium Limited,Altium Designer,23.4.1 (23)*
G04*
G04 Layer_Color=32896*
%FSLAX44Y44*%
%MOMM*%
G71*
G04*
G04 #@! TF.SameCoordinates,4F8EF9B8-0785-460B-A287-326F995E0807*
G04*
G04*
G04 #@! TF.FilePolarity,Positive*
G04*
G01*
G75*
%ADD10C,0.2000*%
%ADD12C,0.2500*%
%ADD13C,0.1270*%
%ADD14C,0.2540*%
%ADD65C,0.6000*%
D10*
X1203340Y1413030D02*
Y1480030D01*
X1125840Y1413030D02*
Y1480030D01*
X1203340D01*
X1125840Y1413030D02*
X1203340D01*
X1145040Y1583490D02*
X1146040D01*
X1179940Y1781310D02*
Y1782310D01*
Y1791470D02*
Y1792470D01*
X1180250Y1801630D02*
Y1802630D01*
X1160360Y1871480D02*
Y1872480D01*
X1178980Y1862590D02*
Y1863590D01*
X1161940Y1811790D02*
Y1812790D01*
X1161940Y1832110D02*
Y1833110D01*
X1179940Y1821950D02*
Y1822950D01*
X1178980Y1842270D02*
Y1843270D01*
X1160360Y1852430D02*
Y1853430D01*
X1178670Y1881640D02*
Y1882640D01*
X1085970Y1503260D02*
X1086970D01*
X1115760Y1486910D02*
Y1517910D01*
X1125760Y1486910D02*
Y1517910D01*
X1115760Y1486910D02*
X1125760D01*
X1115760Y1517910D02*
X1125760D01*
X1086440Y1806900D02*
X1149440D01*
X1086440Y1672900D02*
X1149440D01*
X1086440D02*
Y1806900D01*
X1149440Y1672900D02*
Y1806900D01*
X1044240Y1536430D02*
X1054240D01*
X1044240Y1567430D02*
X1054240D01*
X1044240Y1536430D02*
Y1567430D01*
X1054240Y1536430D02*
Y1567430D01*
X1085970Y1479130D02*
X1086970D01*
X1233290Y1434650D02*
X1234290D01*
X1065650Y1496170D02*
X1066650D01*
X1153280Y1497870D02*
X1154280D01*
X1077470Y1438070D02*
Y1439070D01*
X1244720Y1434650D02*
X1245720D01*
X1232410Y1464430D02*
Y1465430D01*
Y1425060D02*
Y1426060D01*
X1092310Y1861320D02*
Y1862320D01*
X1129480Y1860050D02*
Y1861050D01*
X1108600Y1613670D02*
Y1614670D01*
X1080270Y1568250D02*
X1081270D01*
X1129450Y1868940D02*
Y1869940D01*
X1090510Y1875290D02*
Y1876290D01*
X1086894Y1936046D02*
Y1937046D01*
X1090080Y1875290D02*
Y1876290D01*
X1122180Y1639680D02*
X1123180D01*
X1113290Y1639990D02*
X1114290D01*
X1125980Y1603510D02*
Y1604510D01*
X1099320Y1559670D02*
X1100320D01*
X1024390Y1527390D02*
X1025390D01*
X1080270Y1530240D02*
X1081270D01*
X1070350Y1901270D02*
Y1911270D01*
X1101350Y1901270D02*
Y1911270D01*
X1070350D02*
X1101350D01*
X1070350Y1901270D02*
X1101350D01*
X1109140Y1572480D02*
X1131140D01*
X1109140Y1578480D02*
X1131140D01*
Y1572480D02*
Y1578480D01*
X1109140Y1572480D02*
Y1578480D01*
X1137420Y1583800D02*
X1138420D01*
D12*
X1218340Y1474080D02*
G03*
X1218340Y1474080I-1250J0D01*
G01*
X1135760Y1520410D02*
G03*
X1135760Y1520410I-1250J0D01*
G01*
X1090640Y1820900D02*
G03*
X1090640Y1820900I-1250J0D01*
G01*
X1036740Y1533930D02*
G03*
X1036740Y1533930I-1250J0D01*
G01*
X1069100Y1920020D02*
G03*
X1069100Y1920020I-1250J0D01*
G01*
X1107390Y1586230D02*
G03*
X1107390Y1586230I-1250J0D01*
G01*
D13*
X1467350Y1098550D02*
G03*
X1467350Y1098550I-64000J0D01*
G01*
D14*
X1252217Y1548156D02*
X1242060D01*
X1236982Y1553234D01*
X1242060Y1558313D01*
X1252217D01*
X1234443Y1563391D02*
Y1573548D01*
X1247138Y1581165D02*
Y1586244D01*
X1244599Y1588783D01*
X1236982D01*
Y1581165D01*
X1239521Y1578626D01*
X1242060Y1581165D01*
Y1588783D01*
X1236982Y1593861D02*
X1247138D01*
Y1601479D01*
X1244599Y1604018D01*
X1236982D01*
X1247138Y1611635D02*
Y1616714D01*
X1244599Y1619253D01*
X1236982D01*
Y1611635D01*
X1239521Y1609096D01*
X1242060Y1611635D01*
Y1619253D01*
X1236982Y1624331D02*
Y1629410D01*
Y1626870D01*
X1252217D01*
Y1624331D01*
X1236982Y1639566D02*
Y1644645D01*
X1239521Y1647184D01*
X1244599D01*
X1247138Y1644645D01*
Y1639566D01*
X1244599Y1637027D01*
X1239521D01*
X1236982Y1639566D01*
X1231903Y1657341D02*
Y1659880D01*
X1234443Y1662419D01*
X1247138D01*
Y1654801D01*
X1244599Y1652262D01*
X1239521D01*
X1236982Y1654801D01*
Y1662419D01*
X1252217Y1675115D02*
Y1670036D01*
X1249678Y1667497D01*
X1239521D01*
X1236982Y1670036D01*
Y1675115D01*
X1239521Y1677654D01*
X1249678D01*
X1252217Y1675115D01*
Y1682732D02*
X1239521D01*
X1236982Y1685271D01*
Y1690350D01*
X1239521Y1692889D01*
X1252217D01*
Y1697967D02*
Y1708124D01*
Y1703046D01*
X1236982D01*
X1395733Y1831347D02*
X1410968D01*
Y1838964D01*
X1408428Y1841503D01*
X1403350D01*
X1400811Y1838964D01*
Y1831347D01*
Y1836425D02*
X1395733Y1841503D01*
X1408428Y1846582D02*
X1410968Y1849121D01*
Y1854199D01*
X1408428Y1856738D01*
X1405889D01*
X1403350Y1854199D01*
Y1851660D01*
Y1854199D01*
X1400811Y1856738D01*
X1398272D01*
X1395733Y1854199D01*
Y1849121D01*
X1398272Y1846582D01*
X1410968Y1861817D02*
Y1871973D01*
X1408428D01*
X1398272Y1861817D01*
X1395733D01*
X1150618Y1563363D02*
X1135382D01*
Y1555746D01*
X1137922Y1553207D01*
X1143000D01*
X1145539Y1555746D01*
Y1563363D01*
Y1558285D02*
X1150618Y1553207D01*
X1137922Y1548128D02*
X1135382Y1545589D01*
Y1540511D01*
X1137922Y1537972D01*
X1140461D01*
X1143000Y1540511D01*
Y1543050D01*
Y1540511D01*
X1145539Y1537972D01*
X1148078D01*
X1150618Y1540511D01*
Y1545589D01*
X1148078Y1548128D01*
Y1532893D02*
X1150618Y1530354D01*
Y1525276D01*
X1148078Y1522737D01*
X1137922D01*
X1135382Y1525276D01*
Y1530354D01*
X1137922Y1532893D01*
X1140461D01*
X1143000Y1530354D01*
Y1522737D01*
X1183643Y1572262D02*
X1181104Y1569722D01*
X1176026D01*
X1173487Y1572262D01*
Y1582418D01*
X1176026Y1584957D01*
X1181104D01*
X1183643Y1582418D01*
X1198878Y1584957D02*
X1188722D01*
X1198878Y1574801D01*
Y1572262D01*
X1196339Y1569722D01*
X1191261D01*
X1188722Y1572262D01*
X1203957D02*
X1206496Y1569722D01*
X1211574D01*
X1214113Y1572262D01*
Y1582418D01*
X1211574Y1584957D01*
X1206496D01*
X1203957Y1582418D01*
Y1572262D01*
X1311414Y1075687D02*
Y1060452D01*
X1319032D01*
X1321571Y1062992D01*
Y1068070D01*
X1319032Y1070609D01*
X1311414D01*
X1336806Y1075687D02*
X1326649D01*
X1336806Y1065531D01*
Y1062992D01*
X1334267Y1060452D01*
X1329188D01*
X1326649Y1062992D01*
X1207767Y1896119D02*
X1197611D01*
X1192533Y1901197D01*
X1197611Y1906275D01*
X1207767D01*
Y1921510D02*
X1192533D01*
Y1913893D01*
X1195072Y1911354D01*
X1200150D01*
X1202689Y1913893D01*
Y1921510D01*
X1192533Y1926589D02*
Y1931667D01*
Y1929128D01*
X1202689D01*
Y1926589D01*
Y1939285D02*
X1192533Y1944363D01*
X1202689Y1949441D01*
X1098553Y1386817D02*
X1108710D01*
X1113788Y1381738D01*
X1108710Y1376660D01*
X1098553D01*
X1116327Y1371582D02*
Y1361425D01*
X1101092Y1353807D02*
X1103631D01*
Y1356346D01*
Y1351268D01*
Y1353807D01*
X1111249D01*
X1113788Y1351268D01*
X1098553Y1343651D02*
X1113788D01*
X1106170D01*
X1103631Y1341111D01*
Y1336033D01*
X1106170Y1333494D01*
X1113788D01*
X1103631Y1328416D02*
X1113788D01*
X1108710D01*
X1106170Y1325876D01*
X1103631Y1323337D01*
Y1320798D01*
X1113788Y1305563D02*
Y1310641D01*
X1111249Y1313180D01*
X1106170D01*
X1103631Y1310641D01*
Y1305563D01*
X1106170Y1303024D01*
X1108710D01*
Y1313180D01*
X1113788Y1297945D02*
Y1290328D01*
X1111249Y1287789D01*
X1108710Y1290328D01*
Y1295406D01*
X1106170Y1297945D01*
X1103631Y1295406D01*
Y1287789D01*
X1098553Y1275093D02*
Y1280171D01*
X1101092Y1282710D01*
X1111249D01*
X1113788Y1280171D01*
Y1275093D01*
X1111249Y1272553D01*
X1101092D01*
X1098553Y1275093D01*
Y1267475D02*
X1111249D01*
X1113788Y1264936D01*
Y1259858D01*
X1111249Y1257318D01*
X1098553D01*
Y1252240D02*
Y1242083D01*
Y1247162D01*
X1113788D01*
X1027436Y1515112D02*
Y1527808D01*
X1029975Y1530347D01*
X1035054D01*
X1037593Y1527808D01*
Y1515112D01*
X1042671Y1530347D02*
X1047750D01*
X1045210D01*
Y1515112D01*
X1042671Y1517652D01*
X1062985Y1530347D02*
Y1515112D01*
X1055367Y1522730D01*
X1065524D01*
X1169668Y1700536D02*
X1156972D01*
X1154433Y1703075D01*
Y1708154D01*
X1156972Y1710693D01*
X1169668D01*
X1154433Y1715771D02*
Y1720850D01*
Y1718310D01*
X1169668D01*
X1167128Y1715771D01*
Y1728467D02*
X1169668Y1731006D01*
Y1736085D01*
X1167128Y1738624D01*
X1164589D01*
X1162050Y1736085D01*
Y1733546D01*
Y1736085D01*
X1159511Y1738624D01*
X1156972D01*
X1154433Y1736085D01*
Y1731006D01*
X1156972Y1728467D01*
X1104894Y1607818D02*
Y1595122D01*
X1102355Y1592583D01*
X1097276D01*
X1094737Y1595122D01*
Y1607818D01*
X1089659Y1592583D02*
X1084580D01*
X1087120D01*
Y1607818D01*
X1089659Y1605278D01*
X1066806Y1592583D02*
X1076963D01*
X1066806Y1602739D01*
Y1605278D01*
X1069345Y1607818D01*
X1074424D01*
X1076963Y1605278D01*
X1046482Y1938015D02*
X1059178D01*
X1061718Y1935475D01*
Y1930397D01*
X1059178Y1927858D01*
X1046482D01*
X1061718Y1922780D02*
Y1917701D01*
Y1920240D01*
X1046482D01*
X1049022Y1922780D01*
X1061718Y1910084D02*
Y1905005D01*
Y1907545D01*
X1046482D01*
X1049022Y1910084D01*
X1223656Y1499558D02*
Y1486862D01*
X1221117Y1484323D01*
X1216038D01*
X1213499Y1486862D01*
Y1499558D01*
X1208421Y1497018D02*
X1205882Y1499558D01*
X1200803D01*
X1198264Y1497018D01*
Y1494479D01*
X1200803Y1491940D01*
X1198264Y1489401D01*
Y1486862D01*
X1200803Y1484323D01*
X1205882D01*
X1208421Y1486862D01*
Y1489401D01*
X1205882Y1491940D01*
X1208421Y1494479D01*
Y1497018D01*
X1205882Y1491940D02*
X1200803D01*
X1169666Y1498598D02*
Y1485902D01*
X1167127Y1483362D01*
X1162048D01*
X1159509Y1485902D01*
Y1498598D01*
X1144274D02*
X1149352Y1496058D01*
X1154431Y1490980D01*
Y1485902D01*
X1151892Y1483362D01*
X1146813D01*
X1144274Y1485902D01*
Y1488441D01*
X1146813Y1490980D01*
X1154431D01*
X1273153Y1402702D02*
Y1417937D01*
X1265536D01*
X1262997Y1415398D01*
Y1410320D01*
X1265536Y1407781D01*
X1273153D01*
X1268075D02*
X1262997Y1402702D01*
X1257918Y1417937D02*
X1247762Y1402702D01*
Y1417937D02*
X1257918Y1402702D01*
X1232526D02*
X1242683D01*
X1232526Y1412859D01*
Y1415398D01*
X1235066Y1417937D01*
X1240144D01*
X1242683Y1415398D01*
X1272534Y1470663D02*
Y1485898D01*
X1264917D01*
X1262377Y1483358D01*
Y1478280D01*
X1264917Y1475741D01*
X1272534D01*
X1267456D02*
X1262377Y1470663D01*
X1257299Y1485898D02*
X1247142Y1470663D01*
Y1485898D02*
X1257299Y1470663D01*
X1242064D02*
X1236986D01*
X1239525D01*
Y1485898D01*
X1242064Y1483358D01*
X1278893Y1427486D02*
X1294128D01*
Y1435103D01*
X1291588Y1437643D01*
X1286510D01*
X1283971Y1435103D01*
Y1427486D01*
Y1432564D02*
X1278893Y1437643D01*
Y1442721D02*
X1294128D01*
Y1450338D01*
X1291588Y1452878D01*
X1286510D01*
X1283971Y1450338D01*
Y1442721D01*
X1278893Y1457956D02*
Y1463034D01*
Y1460495D01*
X1294128D01*
X1291588Y1457956D01*
X930917Y1541777D02*
Y1526542D01*
X938534D01*
X941073Y1529082D01*
Y1534160D01*
X938534Y1536699D01*
X930917D01*
X935995D02*
X941073Y1541777D01*
X946152Y1529082D02*
X948691Y1526542D01*
X953769D01*
X956308Y1529082D01*
Y1531621D01*
X953769Y1534160D01*
X951230D01*
X953769D01*
X956308Y1536699D01*
Y1539238D01*
X953769Y1541777D01*
X948691D01*
X946152Y1539238D01*
X961387Y1529082D02*
X963926Y1526542D01*
X969004D01*
X971543Y1529082D01*
Y1531621D01*
X969004Y1534160D01*
X971543Y1536699D01*
Y1539238D01*
X969004Y1541777D01*
X963926D01*
X961387Y1539238D01*
Y1536699D01*
X963926Y1534160D01*
X961387Y1531621D01*
Y1529082D01*
X963926Y1534160D02*
X969004D01*
X1087548Y1535428D02*
Y1525272D01*
X1092626D01*
X1094319Y1526964D01*
Y1530350D01*
X1092626Y1532043D01*
X1087548D01*
X1090933D02*
X1094319Y1535428D01*
X1097704Y1526964D02*
X1099397Y1525272D01*
X1102783D01*
X1104475Y1526964D01*
Y1528657D01*
X1102783Y1530350D01*
X1101090D01*
X1102783D01*
X1104475Y1532043D01*
Y1533736D01*
X1102783Y1535428D01*
X1099397D01*
X1097704Y1533736D01*
X1114632Y1525272D02*
X1111247Y1526964D01*
X1107861Y1530350D01*
Y1533736D01*
X1109554Y1535428D01*
X1112940D01*
X1114632Y1533736D01*
Y1532043D01*
X1112940Y1530350D01*
X1107861D01*
X1374142Y1830077D02*
X1389378D01*
Y1837694D01*
X1386838Y1840233D01*
X1381760D01*
X1379221Y1837694D01*
Y1830077D01*
Y1835155D02*
X1374142Y1840233D01*
X1386838Y1845312D02*
X1389378Y1847851D01*
Y1852929D01*
X1386838Y1855468D01*
X1384299D01*
X1381760Y1852929D01*
Y1850390D01*
Y1852929D01*
X1379221Y1855468D01*
X1376682D01*
X1374142Y1852929D01*
Y1847851D01*
X1376682Y1845312D01*
X1389378Y1870703D02*
Y1860547D01*
X1381760D01*
X1384299Y1865625D01*
Y1868164D01*
X1381760Y1870703D01*
X1376682D01*
X1374142Y1868164D01*
Y1863086D01*
X1376682Y1860547D01*
X1009652Y1548137D02*
X1024888D01*
Y1555754D01*
X1022348Y1558293D01*
X1017270D01*
X1014731Y1555754D01*
Y1548137D01*
Y1553215D02*
X1009652Y1558293D01*
X1022348Y1563372D02*
X1024888Y1565911D01*
Y1570989D01*
X1022348Y1573528D01*
X1019809D01*
X1017270Y1570989D01*
Y1568450D01*
Y1570989D01*
X1014731Y1573528D01*
X1012192D01*
X1009652Y1570989D01*
Y1565911D01*
X1012192Y1563372D01*
X1009652Y1588763D02*
Y1578607D01*
X1019809Y1588763D01*
X1022348D01*
X1024888Y1586224D01*
Y1581146D01*
X1022348Y1578607D01*
X1105751Y1551938D02*
Y1541782D01*
X1110829D01*
X1112522Y1543474D01*
Y1546860D01*
X1110829Y1548553D01*
X1105751D01*
X1109136D02*
X1112522Y1551938D01*
X1115907Y1543474D02*
X1117600Y1541782D01*
X1120986D01*
X1122678Y1543474D01*
Y1545167D01*
X1120986Y1546860D01*
X1119293D01*
X1120986D01*
X1122678Y1548553D01*
Y1550246D01*
X1120986Y1551938D01*
X1117600D01*
X1115907Y1550246D01*
X1126064Y1551938D02*
X1129449D01*
X1127757D01*
Y1541782D01*
X1126064Y1543474D01*
X1137078Y1615438D02*
Y1605282D01*
X1142156D01*
X1143849Y1606974D01*
Y1610360D01*
X1142156Y1612053D01*
X1137078D01*
X1140463D02*
X1143849Y1615438D01*
X1147234Y1606974D02*
X1148927Y1605282D01*
X1152313D01*
X1154006Y1606974D01*
Y1608667D01*
X1152313Y1610360D01*
X1150620D01*
X1152313D01*
X1154006Y1612053D01*
Y1613746D01*
X1152313Y1615438D01*
X1148927D01*
X1147234Y1613746D01*
X1157391Y1606974D02*
X1159084Y1605282D01*
X1162469D01*
X1164162Y1606974D01*
Y1613746D01*
X1162469Y1615438D01*
X1159084D01*
X1157391Y1613746D01*
Y1606974D01*
X1351283Y1830077D02*
X1366518D01*
Y1837694D01*
X1363978Y1840233D01*
X1358900D01*
X1356361Y1837694D01*
Y1830077D01*
Y1835155D02*
X1351283Y1840233D01*
Y1855468D02*
Y1845312D01*
X1361439Y1855468D01*
X1363978D01*
X1366518Y1852929D01*
Y1847851D01*
X1363978Y1845312D01*
X1353822Y1860547D02*
X1351283Y1863086D01*
Y1868164D01*
X1353822Y1870703D01*
X1363978D01*
X1366518Y1868164D01*
Y1863086D01*
X1363978Y1860547D01*
X1361439D01*
X1358900Y1863086D01*
Y1870703D01*
X1080763Y1642112D02*
Y1657348D01*
X1073146D01*
X1070607Y1654808D01*
Y1649730D01*
X1073146Y1647191D01*
X1080763D01*
X1075685D02*
X1070607Y1642112D01*
X1055372D02*
X1065528D01*
X1055372Y1652269D01*
Y1654808D01*
X1057911Y1657348D01*
X1062989D01*
X1065528Y1654808D01*
X1050293D02*
X1047754Y1657348D01*
X1042676D01*
X1040137Y1654808D01*
Y1652269D01*
X1042676Y1649730D01*
X1040137Y1647191D01*
Y1644652D01*
X1042676Y1642112D01*
X1047754D01*
X1050293Y1644652D01*
Y1647191D01*
X1047754Y1649730D01*
X1050293Y1652269D01*
Y1654808D01*
X1047754Y1649730D02*
X1042676D01*
X1328422Y1829767D02*
X1343658D01*
Y1837384D01*
X1341118Y1839923D01*
X1336040D01*
X1333501Y1837384D01*
Y1829767D01*
Y1834845D02*
X1328422Y1839923D01*
Y1855158D02*
Y1845002D01*
X1338579Y1855158D01*
X1341118D01*
X1343658Y1852619D01*
Y1847541D01*
X1341118Y1845002D01*
X1343658Y1860237D02*
Y1870393D01*
X1341118D01*
X1330962Y1860237D01*
X1328422D01*
X1104893Y1624332D02*
Y1639568D01*
X1097276D01*
X1094737Y1637028D01*
Y1631950D01*
X1097276Y1629411D01*
X1104893D01*
X1099815D02*
X1094737Y1624332D01*
X1079502D02*
X1089658D01*
X1079502Y1634489D01*
Y1637028D01*
X1082041Y1639568D01*
X1087119D01*
X1089658Y1637028D01*
X1064267Y1639568D02*
X1069345Y1637028D01*
X1074423Y1631950D01*
Y1626872D01*
X1071884Y1624332D01*
X1066806D01*
X1064267Y1626872D01*
Y1629411D01*
X1066806Y1631950D01*
X1074423D01*
X1304292Y1830077D02*
X1319527D01*
Y1837694D01*
X1316988Y1840233D01*
X1311910D01*
X1309371Y1837694D01*
Y1830077D01*
Y1835155D02*
X1304292Y1840233D01*
Y1855468D02*
Y1845312D01*
X1314449Y1855468D01*
X1316988D01*
X1319527Y1852929D01*
Y1847851D01*
X1316988Y1845312D01*
X1319527Y1870703D02*
Y1860547D01*
X1311910D01*
X1314449Y1865625D01*
Y1868164D01*
X1311910Y1870703D01*
X1306832D01*
X1304292Y1868164D01*
Y1863086D01*
X1306832Y1860547D01*
X1280162Y1829766D02*
X1295397D01*
Y1837384D01*
X1292858Y1839923D01*
X1287780D01*
X1285241Y1837384D01*
Y1829766D01*
Y1834845D02*
X1280162Y1839923D01*
Y1855158D02*
Y1845002D01*
X1290319Y1855158D01*
X1292858D01*
X1295397Y1852619D01*
Y1847541D01*
X1292858Y1845002D01*
X1280162Y1867854D02*
X1295397D01*
X1287780Y1860237D01*
Y1870393D01*
X1258572Y1828807D02*
X1273808D01*
Y1836424D01*
X1271268Y1838963D01*
X1266190D01*
X1263651Y1836424D01*
Y1828807D01*
Y1833885D02*
X1258572Y1838963D01*
Y1854198D02*
Y1844042D01*
X1268729Y1854198D01*
X1271268D01*
X1273808Y1851659D01*
Y1846581D01*
X1271268Y1844042D01*
Y1859277D02*
X1273808Y1861816D01*
Y1866894D01*
X1271268Y1869433D01*
X1268729D01*
X1266190Y1866894D01*
Y1864355D01*
Y1866894D01*
X1263651Y1869433D01*
X1261112D01*
X1258572Y1866894D01*
Y1861816D01*
X1261112Y1859277D01*
X1069643Y1877062D02*
Y1892298D01*
X1062026D01*
X1059487Y1889758D01*
Y1884680D01*
X1062026Y1882141D01*
X1069643D01*
X1064565D02*
X1059487Y1877062D01*
X1044252D02*
X1054408D01*
X1044252Y1887219D01*
Y1889758D01*
X1046791Y1892298D01*
X1051869D01*
X1054408Y1889758D01*
X1029017Y1877062D02*
X1039173D01*
X1029017Y1887219D01*
Y1889758D01*
X1031556Y1892298D01*
X1036634D01*
X1039173Y1889758D01*
X1066803Y1944376D02*
X1082038D01*
Y1951993D01*
X1079498Y1954532D01*
X1074420D01*
X1071881Y1951993D01*
Y1944376D01*
Y1949454D02*
X1066803Y1954532D01*
Y1969768D02*
Y1959611D01*
X1076959Y1969768D01*
X1079498D01*
X1082038Y1967228D01*
Y1962150D01*
X1079498Y1959611D01*
X1066803Y1974846D02*
Y1979924D01*
Y1977385D01*
X1082038D01*
X1079498Y1974846D01*
X1234442Y1828186D02*
X1249678D01*
Y1835804D01*
X1247138Y1838343D01*
X1242060D01*
X1239521Y1835804D01*
Y1828186D01*
Y1833265D02*
X1234442Y1838343D01*
Y1853578D02*
Y1843422D01*
X1244599Y1853578D01*
X1247138D01*
X1249678Y1851039D01*
Y1845961D01*
X1247138Y1843422D01*
Y1858657D02*
X1249678Y1861196D01*
Y1866274D01*
X1247138Y1868813D01*
X1236982D01*
X1234442Y1866274D01*
Y1861196D01*
X1236982Y1858657D01*
X1247138D01*
X1104902Y1894846D02*
X1120138D01*
Y1902464D01*
X1117598Y1905003D01*
X1112520D01*
X1109981Y1902464D01*
Y1894846D01*
Y1899924D02*
X1104902Y1905003D01*
Y1910081D02*
Y1915160D01*
Y1912620D01*
X1120138D01*
X1117598Y1910081D01*
X1107442Y1922777D02*
X1104902Y1925316D01*
Y1930395D01*
X1107442Y1932934D01*
X1117598D01*
X1120138Y1930395D01*
Y1925316D01*
X1117598Y1922777D01*
X1115059D01*
X1112520Y1925316D01*
Y1932934D01*
X1210312Y1828496D02*
X1225547D01*
Y1836114D01*
X1223008Y1838653D01*
X1217930D01*
X1215391Y1836114D01*
Y1828496D01*
Y1833575D02*
X1210312Y1838653D01*
Y1843731D02*
Y1848810D01*
Y1846270D01*
X1225547D01*
X1223008Y1843731D01*
Y1856427D02*
X1225547Y1858966D01*
Y1864045D01*
X1223008Y1866584D01*
X1220469D01*
X1217930Y1864045D01*
X1215391Y1866584D01*
X1212852D01*
X1210312Y1864045D01*
Y1858966D01*
X1212852Y1856427D01*
X1215391D01*
X1217930Y1858966D01*
X1220469Y1856427D01*
X1223008D01*
X1217930Y1858966D02*
Y1864045D01*
X1188722Y1828496D02*
X1203958D01*
Y1836114D01*
X1201418Y1838653D01*
X1196340D01*
X1193801Y1836114D01*
Y1828496D01*
Y1833575D02*
X1188722Y1838653D01*
Y1843731D02*
Y1848810D01*
Y1846270D01*
X1203958D01*
X1201418Y1843731D01*
X1203958Y1856427D02*
Y1866584D01*
X1201418D01*
X1191262Y1856427D01*
X1188722D01*
X1090928Y1409694D02*
X1075692D01*
Y1402076D01*
X1078232Y1399537D01*
X1083310D01*
X1085849Y1402076D01*
Y1409694D01*
Y1404615D02*
X1090928Y1399537D01*
Y1394459D02*
Y1389380D01*
Y1391920D01*
X1075692D01*
X1078232Y1394459D01*
X1075692Y1371606D02*
X1078232Y1376685D01*
X1083310Y1381763D01*
X1088388D01*
X1090928Y1379224D01*
Y1374145D01*
X1088388Y1371606D01*
X1085849D01*
X1083310Y1374145D01*
Y1381763D01*
X1078224Y1497332D02*
Y1512567D01*
X1070606D01*
X1068067Y1510028D01*
Y1504950D01*
X1070606Y1502411D01*
X1078224D01*
X1073146D02*
X1068067Y1497332D01*
X1062989D02*
X1057910D01*
X1060450D01*
Y1512567D01*
X1062989Y1510028D01*
X1040136Y1512567D02*
X1050293D01*
Y1504950D01*
X1045214Y1507489D01*
X1042675D01*
X1040136Y1504950D01*
Y1499872D01*
X1042675Y1497332D01*
X1047754D01*
X1050293Y1499872D01*
X1196334Y1502413D02*
Y1517648D01*
X1188716D01*
X1186177Y1515108D01*
Y1510030D01*
X1188716Y1507491D01*
X1196334D01*
X1191255D02*
X1186177Y1502413D01*
X1181099D02*
X1176020D01*
X1178560D01*
Y1517648D01*
X1181099Y1515108D01*
X1160785Y1502413D02*
Y1517648D01*
X1168403Y1510030D01*
X1158246D01*
X1074417Y1475734D02*
X1059182D01*
Y1468116D01*
X1061722Y1465577D01*
X1066800D01*
X1069339Y1468116D01*
Y1475734D01*
Y1470656D02*
X1074417Y1465577D01*
Y1460499D02*
Y1455420D01*
Y1457959D01*
X1059182D01*
X1061722Y1460499D01*
Y1447803D02*
X1059182Y1445264D01*
Y1440185D01*
X1061722Y1437646D01*
X1064261D01*
X1066800Y1440185D01*
Y1442724D01*
Y1440185D01*
X1069339Y1437646D01*
X1071878D01*
X1074417Y1440185D01*
Y1445264D01*
X1071878Y1447803D01*
X1224265Y1911353D02*
Y1926588D01*
X1214108Y1911353D01*
Y1926588D01*
X1201412Y1911353D02*
X1206490D01*
X1209030Y1913892D01*
Y1918970D01*
X1206490Y1921509D01*
X1201412D01*
X1198873Y1918970D01*
Y1916431D01*
X1209030D01*
X1193795Y1921509D02*
Y1913892D01*
X1191255Y1911353D01*
X1183638D01*
Y1921509D01*
X1176020Y1924048D02*
Y1921509D01*
X1178560D01*
X1173481D01*
X1176020D01*
Y1913892D01*
X1173481Y1911353D01*
X1165864Y1921509D02*
Y1911353D01*
Y1916431D01*
X1163325Y1918970D01*
X1160785Y1921509D01*
X1158246D01*
X1148089D02*
X1143011D01*
X1140472Y1918970D01*
Y1911353D01*
X1148089D01*
X1150629Y1913892D01*
X1148089Y1916431D01*
X1140472D01*
X1135394Y1911353D02*
X1130315D01*
X1132854D01*
Y1926588D01*
X1135394D01*
X1136306Y1889758D02*
Y1874523D01*
X1128688D01*
X1126149Y1877062D01*
Y1887218D01*
X1128688Y1889758D01*
X1136306D01*
X1121071Y1887218D02*
X1118531Y1889758D01*
X1113453D01*
X1110914Y1887218D01*
Y1884679D01*
X1113453Y1882140D01*
X1115992D01*
X1113453D01*
X1110914Y1879601D01*
Y1877062D01*
X1113453Y1874523D01*
X1118531D01*
X1121071Y1877062D01*
X1059178Y1604013D02*
X1061718Y1601474D01*
Y1596395D01*
X1059178Y1593856D01*
X1049022D01*
X1046482Y1596395D01*
Y1601474D01*
X1049022Y1604013D01*
X1046482Y1609091D02*
Y1614170D01*
Y1611630D01*
X1061718D01*
X1059178Y1609091D01*
X1049022Y1621787D02*
X1046482Y1624326D01*
Y1629405D01*
X1049022Y1631944D01*
X1059178D01*
X1061718Y1629405D01*
Y1624326D01*
X1059178Y1621787D01*
X1056639D01*
X1054100Y1624326D01*
Y1631944D01*
X1145965Y1622214D02*
X1144273Y1620522D01*
X1140887D01*
X1139194Y1622214D01*
Y1628986D01*
X1140887Y1630678D01*
X1144273D01*
X1145965Y1628986D01*
X1149351Y1630678D02*
X1152736D01*
X1151044D01*
Y1620522D01*
X1149351Y1622214D01*
X1157815D02*
X1159508Y1620522D01*
X1162893D01*
X1164586Y1622214D01*
Y1623907D01*
X1162893Y1625600D01*
X1164586Y1627293D01*
Y1628986D01*
X1162893Y1630678D01*
X1159508D01*
X1157815Y1628986D01*
Y1627293D01*
X1159508Y1625600D01*
X1157815Y1623907D01*
Y1622214D01*
X1159508Y1625600D02*
X1162893D01*
X1123953Y1841502D02*
X1121414Y1838962D01*
X1116335D01*
X1113796Y1841502D01*
Y1851658D01*
X1116335Y1854198D01*
X1121414D01*
X1123953Y1851658D01*
X1129031Y1854198D02*
X1134110D01*
X1131570D01*
Y1838962D01*
X1129031Y1841502D01*
X1141727Y1838962D02*
X1151884D01*
Y1841502D01*
X1141727Y1851658D01*
Y1854198D01*
X1062987Y1868168D02*
X1065526Y1870708D01*
X1070605D01*
X1073144Y1868168D01*
Y1858012D01*
X1070605Y1855472D01*
X1065526D01*
X1062987Y1858012D01*
X1057909Y1855472D02*
X1052830D01*
X1055369D01*
Y1870708D01*
X1057909Y1868168D01*
X1035056Y1870708D02*
X1040135Y1868168D01*
X1045213Y1863090D01*
Y1858012D01*
X1042674Y1855472D01*
X1037595D01*
X1035056Y1858012D01*
Y1860551D01*
X1037595Y1863090D01*
X1045213D01*
X1269998Y1436373D02*
X1272538Y1433834D01*
Y1428755D01*
X1269998Y1426216D01*
X1259842D01*
X1257302Y1428755D01*
Y1433834D01*
X1259842Y1436373D01*
X1257302Y1441451D02*
Y1446530D01*
Y1443990D01*
X1272538D01*
X1269998Y1441451D01*
X1272538Y1464304D02*
Y1454147D01*
X1264920D01*
X1267459Y1459225D01*
Y1461765D01*
X1264920Y1464304D01*
X1259842D01*
X1257302Y1461765D01*
Y1456686D01*
X1259842Y1454147D01*
X1057912Y1418589D02*
X1055372Y1421128D01*
Y1426207D01*
X1057912Y1428746D01*
X1068068D01*
X1070608Y1426207D01*
Y1421128D01*
X1068068Y1418589D01*
X1055372Y1413511D02*
Y1403354D01*
X1057912D01*
X1068068Y1413511D01*
X1070608D01*
X1075690Y1831324D02*
Y1821167D01*
X1070612Y1826245D02*
X1080768D01*
X1068072Y1805932D02*
Y1816089D01*
X1075690D01*
X1073151Y1811010D01*
Y1808471D01*
X1075690Y1805932D01*
X1080768D01*
X1083307Y1808471D01*
Y1813549D01*
X1080768Y1816089D01*
X1068072Y1800853D02*
X1078229D01*
X1083307Y1795775D01*
X1078229Y1790697D01*
X1068072D01*
Y1785618D02*
X1083307D01*
Y1775462D01*
X1068072Y1770383D02*
X1083307D01*
Y1762766D01*
X1080768Y1760226D01*
X1070612D01*
X1068072Y1762766D01*
Y1770383D01*
Y1747531D02*
Y1752609D01*
X1070612Y1755148D01*
X1080768D01*
X1083307Y1752609D01*
Y1747531D01*
X1080768Y1744991D01*
X1070612D01*
X1068072Y1747531D01*
X1083307Y1729756D02*
Y1739913D01*
X1073151Y1729756D01*
X1070612D01*
X1068072Y1732296D01*
Y1737374D01*
X1070612Y1739913D01*
D65*
X1196340Y1470030D02*
G03*
X1196340Y1470030I-3000J0D01*
G01*
X1099440Y1796900D02*
G03*
X1099440Y1796900I-3000J0D01*
G01*
M02*
