G04*
G04 #@! TF.GenerationSoftware,Altium Limited,Altium Designer,23.4.1 (23)*
G04*
G04 Layer_Color=8421504*
%FSLAX44Y44*%
%MOMM*%
G71*
G04*
G04 #@! TF.SameCoordinates,4F8EF9B8-0785-460B-A287-326F995E0807*
G04*
G04*
G04 #@! TF.FilePolarity,Positive*
G04*
G01*
G75*
G04:AMPARAMS|DCode=15|XSize=2.1741mm|YSize=0.5821mm|CornerRadius=0.2911mm|HoleSize=0mm|Usage=FLASHONLY|Rotation=90.000|XOffset=0mm|YOffset=0mm|HoleType=Round|Shape=RoundedRectangle|*
%AMROUNDEDRECTD15*
21,1,2.1741,0.0000,0,0,90.0*
21,1,1.5919,0.5821,0,0,90.0*
1,1,0.5821,0.0000,0.7960*
1,1,0.5821,0.0000,-0.7960*
1,1,0.5821,0.0000,-0.7960*
1,1,0.5821,0.0000,0.7960*
%
%ADD15ROUNDEDRECTD15*%
%ADD16R,0.5821X2.1741*%
%ADD17R,0.5000X0.3000*%
%ADD18R,0.6000X0.9500*%
%ADD19R,0.9500X0.6000*%
%ADD20R,0.3000X0.5000*%
%ADD21R,0.5300X1.9800*%
D15*
X1372870Y1551940D02*
D03*
X1360170D02*
D03*
Y1504619D02*
D03*
X1372870D02*
D03*
X1385570D02*
D03*
X1347470Y1551940D02*
D03*
X1385570D02*
D03*
X1383030Y1769341D02*
D03*
X1344930D02*
D03*
X1383030Y1722019D02*
D03*
X1370330D02*
D03*
X1357630D02*
D03*
Y1769341D02*
D03*
X1370330D02*
D03*
D16*
X1347470Y1504619D02*
D03*
X1344930Y1722019D02*
D03*
D17*
X1232210Y1588770D02*
D03*
X1239210D02*
D03*
X1383990Y1789430D02*
D03*
Y1799590D02*
D03*
X1364630Y1793240D02*
D03*
X1337930D02*
D03*
X1370330Y1573530D02*
D03*
X1346200D02*
D03*
X1390340Y1572260D02*
D03*
X1392880Y1582420D02*
D03*
X1359830Y935990D02*
D03*
X1359520Y943610D02*
D03*
X1437330Y1386840D02*
D03*
X1368720Y1403350D02*
D03*
X1377640Y1615440D02*
D03*
X1382410Y1158240D02*
D03*
X1350970Y1894840D02*
D03*
X1353820Y1158240D02*
D03*
X1405240Y942810D02*
D03*
X1404930Y934720D02*
D03*
X1366520Y943610D02*
D03*
X1366830Y935990D02*
D03*
X1412240Y942810D02*
D03*
X1411930Y934720D02*
D03*
X1351280Y1835150D02*
D03*
X1344930Y1793240D02*
D03*
X1370640Y1615440D02*
D03*
X1339200Y1573530D02*
D03*
X1343040Y1615440D02*
D03*
X1375410Y1158240D02*
D03*
X1360820D02*
D03*
X1357630Y1793240D02*
D03*
X1363330Y1573530D02*
D03*
X1343970Y1894840D02*
D03*
X1305560Y1807210D02*
D03*
X1376990Y1789430D02*
D03*
Y1799590D02*
D03*
X1383340Y1572260D02*
D03*
X1385880Y1582420D02*
D03*
X1344280Y1835150D02*
D03*
X1336040Y1615440D02*
D03*
X1298560Y1807210D02*
D03*
X1376030Y1381760D02*
D03*
X1375720Y1403350D02*
D03*
X1383030Y1381760D02*
D03*
X1430330Y1386840D02*
D03*
X1418280Y1386840D02*
D03*
X1411280D02*
D03*
D18*
X1334160Y1881700D02*
D03*
X1343660D02*
D03*
X1324660D02*
D03*
X1343660Y1854200D02*
D03*
X1324660D02*
D03*
D19*
X1285680Y1605890D02*
D03*
Y1615390D02*
D03*
Y1596390D02*
D03*
X1313180Y1615390D02*
D03*
Y1596390D02*
D03*
D20*
X1346200Y1047130D02*
D03*
X1095210Y1320150D02*
D03*
X1104900Y1320800D02*
D03*
X1346200Y1040130D02*
D03*
X1319530Y1814210D02*
D03*
X1268730Y1604660D02*
D03*
X1104900Y1327800D02*
D03*
X1095210Y1327150D02*
D03*
X1319530Y1807210D02*
D03*
X1268730Y1597660D02*
D03*
D21*
X1399540Y1141590D02*
D03*
X1374140Y1047890D02*
D03*
Y1141590D02*
D03*
X1361440D02*
D03*
X1386840D02*
D03*
X1399540Y1047890D02*
D03*
X1412240Y1141590D02*
D03*
X1424940D02*
D03*
X1437640D02*
D03*
X1450340D02*
D03*
Y1047890D02*
D03*
X1437640D02*
D03*
X1424940D02*
D03*
X1412240D02*
D03*
X1386840D02*
D03*
X1361440D02*
D03*
M02*
