G04*
G04 #@! TF.GenerationSoftware,Altium Limited,Altium Designer,23.4.1 (23)*
G04*
G04 Layer_Physical_Order=1*
G04 Layer_Color=255*
%FSLAX44Y44*%
%MOMM*%
G71*
G04*
G04 #@! TF.SameCoordinates,4F8EF9B8-0785-460B-A287-326F995E0807*
G04*
G04*
G04 #@! TF.FilePolarity,Positive*
G04*
G01*
G75*
%ADD14C,0.2540*%
G04:AMPARAMS|DCode=15|XSize=2.1741mm|YSize=0.5821mm|CornerRadius=0.2911mm|HoleSize=0mm|Usage=FLASHONLY|Rotation=90.000|XOffset=0mm|YOffset=0mm|HoleType=Round|Shape=RoundedRectangle|*
%AMROUNDEDRECTD15*
21,1,2.1741,0.0000,0,0,90.0*
21,1,1.5919,0.5821,0,0,90.0*
1,1,0.5821,0.0000,0.7960*
1,1,0.5821,0.0000,-0.7960*
1,1,0.5821,0.0000,-0.7960*
1,1,0.5821,0.0000,0.7960*
%
%ADD15ROUNDEDRECTD15*%
%ADD16R,0.5821X2.1741*%
%ADD17R,0.5000X0.3000*%
%ADD18R,0.6000X0.9500*%
%ADD19R,0.9500X0.6000*%
%ADD20R,0.3000X0.5000*%
%ADD21R,0.5300X1.9800*%
%ADD30C,9.9000*%
%ADD31C,1.3500*%
%ADD32R,1.3500X1.3500*%
%ADD34R,1.3500X1.3500*%
%ADD42C,0.5080*%
%ADD43C,1.5240*%
%ADD44C,2.0000*%
%ADD45C,1.6500*%
%ADD46R,1.5240X1.5240*%
%ADD47O,0.7620X1.5240*%
%ADD48C,1.5000*%
%ADD49C,1.6000*%
%ADD50R,1.6500X1.6500*%
%ADD51R,1.6000X1.6000*%
%ADD52R,1.5000X1.5000*%
%ADD53C,1.2700*%
%ADD54C,0.7620*%
G36*
X1591310Y2053590D02*
X1593850D01*
Y1602740D01*
X1591310D01*
Y912249D01*
X1590137Y911763D01*
X1590040Y911860D01*
X922020D01*
X920752Y2054468D01*
X921694Y2054859D01*
X922021Y2054860D01*
X1591310D01*
Y2053590D01*
D02*
G37*
%LPC*%
G36*
X1424651Y2029460D02*
X1420148D01*
X1415732Y2028582D01*
X1411572Y2026858D01*
X1407828Y2024357D01*
X1404644Y2021172D01*
X1402142Y2017428D01*
X1400419Y2013268D01*
X1399540Y2008851D01*
Y2004348D01*
X1400419Y1999932D01*
X1402142Y1995772D01*
X1404644Y1992028D01*
X1407828Y1988844D01*
X1411572Y1986342D01*
X1415732Y1984619D01*
X1420148Y1983740D01*
X1424651D01*
X1429068Y1984619D01*
X1433228Y1986342D01*
X1436972Y1988844D01*
X1440157Y1992028D01*
X1442658Y1995772D01*
X1444382Y1999932D01*
X1445260Y2004348D01*
Y2008851D01*
X1444382Y2013268D01*
X1442658Y2017428D01*
X1440157Y2021172D01*
X1436972Y2024357D01*
X1433228Y2026858D01*
X1429068Y2028582D01*
X1424651Y2029460D01*
D02*
G37*
G36*
X1107151D02*
X1102648D01*
X1098232Y2028582D01*
X1094072Y2026858D01*
X1090328Y2024357D01*
X1087143Y2021172D01*
X1084642Y2017428D01*
X1082918Y2013268D01*
X1082040Y2008851D01*
Y2004348D01*
X1082918Y1999932D01*
X1084642Y1995772D01*
X1087143Y1992028D01*
X1090328Y1988844D01*
X1094072Y1986342D01*
X1098232Y1984619D01*
X1102648Y1983740D01*
X1107151D01*
X1111568Y1984619D01*
X1115728Y1986342D01*
X1119472Y1988844D01*
X1122656Y1992028D01*
X1125158Y1995772D01*
X1126881Y1999932D01*
X1127760Y2004348D01*
Y2008851D01*
X1126881Y2013268D01*
X1125158Y2017428D01*
X1122656Y2021172D01*
X1119472Y2024357D01*
X1115728Y2026858D01*
X1111568Y2028582D01*
X1107151Y2029460D01*
D02*
G37*
G36*
X1012190Y2019217D02*
Y1971040D01*
X1060367D01*
X1059530Y1977404D01*
X1057764Y1983994D01*
X1055153Y1990296D01*
X1051742Y1996204D01*
X1047590Y2001616D01*
X1042766Y2006440D01*
X1037354Y2010592D01*
X1031446Y2014003D01*
X1025144Y2016614D01*
X1018554Y2018380D01*
X1012190Y2019217D01*
D02*
G37*
G36*
X1004570D02*
X998206Y2018380D01*
X991616Y2016614D01*
X985314Y2014003D01*
X979406Y2010592D01*
X973994Y2006440D01*
X969170Y2001616D01*
X965017Y1996204D01*
X961607Y1990296D01*
X958996Y1983994D01*
X957230Y1977404D01*
X956393Y1971040D01*
X1004570D01*
Y2019217D01*
D02*
G37*
G36*
X1520190Y2017948D02*
Y1969770D01*
X1568367D01*
X1567530Y1976134D01*
X1565764Y1982724D01*
X1563153Y1989026D01*
X1559742Y1994934D01*
X1555590Y2000346D01*
X1550766Y2005170D01*
X1545590Y2009141D01*
X1545354Y2009323D01*
X1539446Y2012733D01*
X1533144Y2015344D01*
X1526554Y2017110D01*
X1520190Y2017948D01*
D02*
G37*
G36*
X1512570D02*
X1506206Y2017110D01*
X1499616Y2015344D01*
X1493314Y2012733D01*
X1487406Y2009323D01*
X1481994Y2005170D01*
X1477170Y2000346D01*
X1473017Y1994934D01*
X1469607Y1989026D01*
X1466996Y1982724D01*
X1465230Y1976134D01*
X1464393Y1969770D01*
X1512570D01*
Y2017948D01*
D02*
G37*
G36*
X1568367Y1962150D02*
X1520190D01*
Y1913972D01*
X1526554Y1914810D01*
X1533144Y1916576D01*
X1539446Y1919187D01*
X1545354Y1922598D01*
X1545590Y1922779D01*
X1550766Y1926750D01*
X1555590Y1931574D01*
X1559742Y1936986D01*
X1563153Y1942894D01*
X1565764Y1949196D01*
X1567530Y1955786D01*
X1568367Y1962150D01*
D02*
G37*
G36*
X1512570D02*
X1464393D01*
X1465230Y1955786D01*
X1466996Y1949196D01*
X1469607Y1942894D01*
X1473017Y1936986D01*
X1477170Y1931574D01*
X1481994Y1926750D01*
X1487406Y1922598D01*
X1493314Y1919187D01*
X1499616Y1916576D01*
X1506206Y1914810D01*
X1512570Y1913972D01*
Y1962150D01*
D02*
G37*
G36*
X1272608Y1922780D02*
X1269932D01*
X1267348Y1922088D01*
X1265032Y1920750D01*
X1263140Y1918858D01*
X1261802Y1916542D01*
X1261110Y1913958D01*
Y1911282D01*
X1261802Y1908698D01*
X1263140Y1906382D01*
X1265032Y1904490D01*
X1267348Y1903152D01*
X1267385Y1903143D01*
Y1899050D01*
X1261980D01*
Y1880470D01*
X1280560D01*
Y1899050D01*
X1275155D01*
Y1903143D01*
X1275192Y1903152D01*
X1277508Y1904490D01*
X1279400Y1906382D01*
X1280738Y1908698D01*
X1281430Y1911282D01*
Y1913958D01*
X1280738Y1916542D01*
X1279400Y1918858D01*
X1277508Y1920750D01*
X1275192Y1922088D01*
X1272608Y1922780D01*
D02*
G37*
G36*
X1247093Y1899050D02*
X1244647D01*
X1242284Y1898417D01*
X1240166Y1897194D01*
X1238436Y1895464D01*
X1237213Y1893346D01*
X1236580Y1890983D01*
Y1888537D01*
X1237213Y1886174D01*
X1238436Y1884056D01*
X1240166Y1882326D01*
X1242284Y1881103D01*
X1244647Y1880470D01*
X1247093D01*
X1249456Y1881103D01*
X1251574Y1882326D01*
X1253304Y1884056D01*
X1254527Y1886174D01*
X1255160Y1888537D01*
Y1890983D01*
X1254527Y1893346D01*
X1253304Y1895464D01*
X1251574Y1897194D01*
X1249456Y1898417D01*
X1247093Y1899050D01*
D02*
G37*
G36*
X1221693D02*
X1219247D01*
X1216884Y1898417D01*
X1214766Y1897194D01*
X1213036Y1895464D01*
X1211813Y1893346D01*
X1211180Y1890983D01*
Y1888537D01*
X1211813Y1886174D01*
X1213036Y1884056D01*
X1214766Y1882326D01*
X1216884Y1881103D01*
X1219247Y1880470D01*
X1221693D01*
X1224056Y1881103D01*
X1226174Y1882326D01*
X1227904Y1884056D01*
X1229127Y1886174D01*
X1229760Y1888537D01*
Y1890983D01*
X1229127Y1893346D01*
X1227904Y1895464D01*
X1226174Y1897194D01*
X1224056Y1898417D01*
X1221693Y1899050D01*
D02*
G37*
G36*
X1385638Y1968500D02*
X1382962D01*
X1380378Y1967808D01*
X1378062Y1966470D01*
X1376170Y1964578D01*
X1374832Y1962262D01*
X1374140Y1959678D01*
Y1957002D01*
X1374832Y1954418D01*
X1376170Y1952102D01*
X1378062Y1950210D01*
X1380378Y1948872D01*
X1380415Y1948862D01*
Y1930400D01*
Y1869779D01*
X1349826Y1839190D01*
X1347855D01*
Y1846910D01*
X1349200D01*
Y1861490D01*
X1338120D01*
Y1846910D01*
X1340085D01*
Y1839190D01*
X1339240D01*
Y1831110D01*
X1340305D01*
X1341111Y1830128D01*
X1341045Y1829800D01*
Y1803278D01*
X1339872Y1802792D01*
X1332707Y1809957D01*
X1331447Y1810799D01*
X1329960Y1811095D01*
X1323570D01*
Y1819250D01*
X1315720D01*
Y1821080D01*
X1315114Y1823341D01*
X1313944Y1825369D01*
X1312289Y1827024D01*
X1310261Y1828194D01*
X1308000Y1828800D01*
X1305660D01*
X1303399Y1828194D01*
X1301371Y1827024D01*
X1299716Y1825369D01*
X1298546Y1823341D01*
X1297940Y1821080D01*
Y1818740D01*
X1298546Y1816479D01*
X1299716Y1814451D01*
X1301371Y1812796D01*
X1301850Y1812520D01*
X1301510Y1811250D01*
X1293520D01*
Y1811095D01*
X1281270D01*
X1280497Y1812102D01*
X1280560Y1812337D01*
Y1814783D01*
X1279927Y1817146D01*
X1278704Y1819264D01*
X1276974Y1820994D01*
X1274856Y1822217D01*
X1272493Y1822850D01*
X1270047D01*
X1267684Y1822217D01*
X1265566Y1820994D01*
X1263836Y1819264D01*
X1262613Y1817146D01*
X1261980Y1814783D01*
Y1812337D01*
X1262613Y1809974D01*
X1263836Y1807856D01*
X1265566Y1806126D01*
X1267684Y1804903D01*
X1270047Y1804270D01*
X1272493D01*
X1274856Y1804903D01*
X1274858Y1804904D01*
X1275299Y1804463D01*
X1276559Y1803621D01*
X1278046Y1803325D01*
X1293520D01*
Y1803170D01*
X1304215D01*
Y1780251D01*
X1304032Y1780202D01*
X1301628Y1778814D01*
X1299666Y1776852D01*
X1298278Y1774448D01*
X1298229Y1774265D01*
X1281769D01*
X1275639Y1780395D01*
X1275658Y1780428D01*
X1276350Y1783012D01*
Y1785688D01*
X1275658Y1788272D01*
X1274320Y1790588D01*
X1272428Y1792480D01*
X1270112Y1793818D01*
X1267528Y1794510D01*
X1264852D01*
X1262268Y1793818D01*
X1259952Y1792480D01*
X1258060Y1790588D01*
X1256722Y1788272D01*
X1256030Y1785688D01*
Y1783012D01*
X1256079Y1782828D01*
X1254941Y1782171D01*
X1228399Y1808713D01*
X1229127Y1809974D01*
X1229760Y1812337D01*
Y1814783D01*
X1229127Y1817146D01*
X1227904Y1819264D01*
X1226174Y1820994D01*
X1224056Y1822217D01*
X1221693Y1822850D01*
X1219247D01*
X1216884Y1822217D01*
X1214766Y1820994D01*
X1213036Y1819264D01*
X1211813Y1817146D01*
X1211180Y1814783D01*
Y1812337D01*
X1211813Y1809974D01*
X1213036Y1807856D01*
X1214766Y1806126D01*
X1216884Y1804903D01*
X1219247Y1804270D01*
X1221693D01*
X1221820Y1804304D01*
X1265951Y1760173D01*
X1265465Y1759000D01*
X1191310D01*
Y1874953D01*
X1192483Y1875439D01*
X1192642Y1875280D01*
X1194958Y1873942D01*
X1197542Y1873250D01*
X1200218D01*
X1202802Y1873942D01*
X1205118Y1875280D01*
X1207010Y1877172D01*
X1208348Y1879488D01*
X1209040Y1882072D01*
Y1884748D01*
X1208348Y1887332D01*
X1207010Y1889648D01*
X1205118Y1891540D01*
X1202802Y1892878D01*
X1200218Y1893570D01*
X1197542D01*
X1194958Y1892878D01*
X1192642Y1891540D01*
X1192483Y1891382D01*
X1191310Y1891868D01*
Y1924499D01*
X1191214Y1924979D01*
X1191124Y1925461D01*
X1191116Y1925475D01*
X1191113Y1925490D01*
X1190841Y1925897D01*
X1190573Y1926308D01*
X1190560Y1926317D01*
X1190551Y1926330D01*
X1190145Y1926602D01*
X1189740Y1926879D01*
X1189724Y1926883D01*
X1189711Y1926892D01*
X1189230Y1926987D01*
X1188752Y1927089D01*
X1124223Y1927876D01*
X1124047Y1927843D01*
X1123869Y1927856D01*
X1123555Y1927751D01*
X1123229Y1927691D01*
X1123080Y1927593D01*
X1122910Y1927537D01*
X1122660Y1927320D01*
X1122382Y1927139D01*
X1122281Y1926992D01*
X1122146Y1926875D01*
X1121998Y1926579D01*
X1121811Y1926306D01*
X1121787Y1926195D01*
X1121711Y1926006D01*
X1121694Y1925972D01*
X1121686Y1925945D01*
X1121315Y1925023D01*
X1120208Y1925320D01*
X1117532D01*
X1117410Y1925287D01*
X1116312Y1925925D01*
X1116275Y1926068D01*
X1116228Y1926165D01*
X1116194Y1926267D01*
X1116173Y1926375D01*
X1115985Y1926665D01*
X1115833Y1926977D01*
X1115711Y1927085D01*
X1115622Y1927222D01*
X1115337Y1927418D01*
X1115078Y1927648D01*
X1114923Y1927701D01*
X1114789Y1927794D01*
X1114450Y1927865D01*
X1114123Y1927979D01*
X1113960Y1927969D01*
X1113801Y1928003D01*
X1045240Y1928839D01*
X1044761Y1930015D01*
X1046319Y1931573D01*
X1047590Y1932844D01*
X1051742Y1938256D01*
X1055153Y1944164D01*
X1057764Y1950466D01*
X1059530Y1957056D01*
X1060367Y1963420D01*
X956393D01*
X957230Y1957056D01*
X958996Y1950466D01*
X961607Y1944164D01*
X965017Y1938256D01*
X969170Y1932844D01*
X971095Y1930919D01*
X970602Y1929749D01*
X968675Y1929772D01*
X968667Y1929771D01*
X968659Y1929773D01*
X968172Y1929679D01*
X967682Y1929588D01*
X967675Y1929583D01*
X967667Y1929582D01*
X967254Y1929310D01*
X966835Y1929036D01*
X966830Y1929030D01*
X966824Y1929025D01*
X965920Y1928133D01*
X965916Y1928126D01*
X965909Y1928122D01*
X965632Y1927708D01*
X965353Y1927296D01*
X965352Y1927288D01*
X965347Y1927281D01*
X965250Y1926794D01*
X965150Y1926306D01*
X965152Y1926298D01*
X965150Y1926290D01*
Y1860757D01*
X965167Y1860673D01*
X965156Y1860588D01*
X965265Y1860181D01*
X965347Y1859766D01*
X965395Y1859695D01*
X965417Y1859612D01*
X965674Y1859277D01*
X965909Y1858926D01*
X965980Y1858878D01*
X966032Y1858810D01*
X966122Y1858759D01*
X966469Y1857878D01*
X966522Y1857340D01*
X966477Y1857136D01*
X965017Y1855234D01*
X961607Y1849326D01*
X958996Y1843024D01*
X957230Y1836434D01*
X956340Y1829671D01*
Y1822849D01*
X957230Y1816086D01*
X958996Y1809496D01*
X961607Y1803194D01*
X965017Y1797286D01*
X966477Y1795384D01*
X966522Y1795180D01*
X966469Y1794642D01*
X966122Y1793761D01*
X966032Y1793710D01*
X965980Y1793642D01*
X965909Y1793594D01*
X965674Y1793243D01*
X965417Y1792908D01*
X965395Y1792825D01*
X965347Y1792754D01*
X965265Y1792340D01*
X965156Y1791932D01*
X965167Y1791847D01*
X965150Y1791763D01*
Y1759000D01*
X960120D01*
X959129Y1758803D01*
X958289Y1758241D01*
X957727Y1757401D01*
X957530Y1756410D01*
Y1751330D01*
Y1695450D01*
X957727Y1694459D01*
X958289Y1693619D01*
X959129Y1693057D01*
X960120Y1692860D01*
X967740D01*
X967740Y1692860D01*
X1078230Y1692860D01*
X1214120D01*
X1215111Y1693057D01*
X1215951Y1693619D01*
X1218363Y1696030D01*
X1219501Y1695373D01*
X1219200Y1694248D01*
Y1691572D01*
X1219367Y1690950D01*
X1210296Y1681880D01*
X1197210D01*
Y1681880D01*
Y1663300D01*
X1215790D01*
Y1676386D01*
X1222154Y1682750D01*
X1223795Y1684391D01*
X1225438Y1683442D01*
X1228022Y1682750D01*
X1230698D01*
X1233282Y1683442D01*
X1235598Y1684780D01*
X1237490Y1686672D01*
X1238828Y1688988D01*
X1239520Y1691572D01*
Y1694248D01*
X1238828Y1696832D01*
X1237490Y1699148D01*
X1235598Y1701040D01*
X1233282Y1702378D01*
X1230698Y1703070D01*
X1228022D01*
X1226897Y1702769D01*
X1226240Y1703907D01*
X1253293Y1730960D01*
X1296638D01*
X1297560Y1730120D01*
Y1722195D01*
X1278207D01*
X1278198Y1722232D01*
X1276860Y1724548D01*
X1274968Y1726440D01*
X1272652Y1727778D01*
X1270068Y1728470D01*
X1267392D01*
X1264808Y1727778D01*
X1262492Y1726440D01*
X1260600Y1724548D01*
X1259262Y1722232D01*
X1258570Y1719648D01*
Y1716972D01*
X1259262Y1714388D01*
X1260600Y1712072D01*
X1262492Y1710180D01*
X1264808Y1708842D01*
X1267392Y1708150D01*
X1270068D01*
X1272652Y1708842D01*
X1274968Y1710180D01*
X1276860Y1712072D01*
X1278198Y1714388D01*
X1278207Y1714425D01*
X1297560D01*
Y1712831D01*
X1297544Y1711630D01*
X1297056Y1711530D01*
X1296569Y1711433D01*
X1296562Y1711428D01*
X1296554Y1711426D01*
X1296143Y1711148D01*
X1295729Y1710871D01*
X1295724Y1710864D01*
X1295717Y1710860D01*
X1294827Y1709958D01*
X1294554Y1709544D01*
X1294277Y1709130D01*
X1294276Y1709122D01*
X1294271Y1709115D01*
X1294177Y1708627D01*
X1294080Y1708139D01*
Y1704340D01*
X1294277Y1703349D01*
X1294839Y1702509D01*
X1295679Y1701947D01*
X1296670Y1701750D01*
X1365250D01*
X1366241Y1701947D01*
X1366545Y1702150D01*
X1366849Y1701947D01*
X1367840Y1701750D01*
X1428700D01*
Y1688582D01*
X1428897Y1687591D01*
X1429459Y1686751D01*
X1430299Y1686189D01*
X1431290Y1685992D01*
X1466775Y1685992D01*
Y1682750D01*
Y1674447D01*
X1466738Y1674438D01*
X1464422Y1673100D01*
X1462530Y1671208D01*
X1461192Y1668892D01*
X1460500Y1666308D01*
Y1663632D01*
X1461192Y1661048D01*
X1462530Y1658732D01*
X1464422Y1656840D01*
X1466738Y1655502D01*
X1469322Y1654810D01*
X1471998D01*
X1474582Y1655502D01*
X1476898Y1656840D01*
X1478790Y1658732D01*
X1480128Y1661048D01*
X1480820Y1663632D01*
Y1666308D01*
X1480128Y1668892D01*
X1478790Y1671208D01*
X1476898Y1673100D01*
X1474582Y1674438D01*
X1474545Y1674447D01*
Y1682750D01*
Y1685905D01*
X1475491Y1686822D01*
X1476914Y1686751D01*
X1477754Y1686189D01*
X1478745Y1685992D01*
X1570210Y1685992D01*
X1571201Y1686189D01*
X1572042Y1686751D01*
X1572603Y1687591D01*
X1572800Y1688582D01*
Y1893032D01*
X1572603Y1894023D01*
X1572042Y1894863D01*
X1571201Y1895425D01*
X1570210Y1895622D01*
X1431290D01*
X1430299Y1895425D01*
X1429459Y1894863D01*
X1428897Y1894023D01*
X1428700Y1893032D01*
Y1823989D01*
X1427430Y1823648D01*
X1426720Y1824878D01*
X1424828Y1826770D01*
X1422512Y1828108D01*
X1419928Y1828800D01*
X1417252D01*
X1414668Y1828108D01*
X1412352Y1826770D01*
X1410460Y1824878D01*
X1409122Y1822562D01*
X1408772Y1821255D01*
X1377950D01*
X1376463Y1820959D01*
X1375203Y1820117D01*
X1354895Y1799809D01*
X1354053Y1798549D01*
X1353801Y1797280D01*
X1352590D01*
Y1789200D01*
X1353745D01*
Y1781260D01*
X1353700Y1781230D01*
X1352496Y1779427D01*
X1352073Y1777300D01*
Y1761381D01*
X1352496Y1759254D01*
X1353700Y1757451D01*
X1355503Y1756247D01*
X1357630Y1755824D01*
X1357683Y1755834D01*
X1365415Y1748102D01*
X1366675Y1747260D01*
X1368162Y1746965D01*
X1385156D01*
X1385516Y1747036D01*
X1386265Y1746288D01*
X1388292Y1745117D01*
X1390553Y1744511D01*
X1392894D01*
X1395155Y1745117D01*
X1397182Y1746288D01*
X1398837Y1747943D01*
X1400008Y1749970D01*
X1400614Y1752231D01*
Y1754572D01*
X1400008Y1756833D01*
X1398837Y1758860D01*
X1397182Y1760515D01*
X1395155Y1761685D01*
X1392894Y1762291D01*
X1390553D01*
X1389595Y1762034D01*
X1388587Y1762808D01*
Y1777300D01*
X1388164Y1779427D01*
X1386960Y1781230D01*
X1386915Y1781260D01*
Y1785390D01*
X1389030D01*
Y1790194D01*
X1390300Y1790534D01*
X1391156Y1789051D01*
X1392811Y1787396D01*
X1394839Y1786226D01*
X1397100Y1785620D01*
X1399440D01*
X1401701Y1786226D01*
X1403729Y1787396D01*
X1405384Y1789051D01*
X1406554Y1791079D01*
X1407160Y1793340D01*
Y1795680D01*
X1406554Y1797941D01*
X1405384Y1799969D01*
X1403729Y1801624D01*
X1401701Y1802794D01*
X1399440Y1803400D01*
X1397100D01*
X1394839Y1802794D01*
X1393502Y1802023D01*
X1393188Y1802337D01*
X1391927Y1803179D01*
X1390441Y1803475D01*
X1389030D01*
Y1803630D01*
X1387870D01*
X1387579Y1805095D01*
X1386737Y1806355D01*
X1385249Y1807843D01*
X1383989Y1808685D01*
X1382502Y1808981D01*
X1376714D01*
X1376228Y1810154D01*
X1379559Y1813485D01*
X1409834D01*
X1410460Y1812402D01*
X1412352Y1810510D01*
X1414668Y1809172D01*
X1417252Y1808480D01*
X1419928D01*
X1422512Y1809172D01*
X1424828Y1810510D01*
X1426720Y1812402D01*
X1427430Y1813632D01*
X1428700Y1813291D01*
X1428700Y1741816D01*
X1367790D01*
X1366799Y1741619D01*
X1365959Y1741058D01*
X1365397Y1740218D01*
X1365200Y1739227D01*
Y1737410D01*
X1362308D01*
X1362292Y1737407D01*
X1362277Y1737410D01*
X1361797Y1737308D01*
X1361317Y1737213D01*
X1361304Y1737204D01*
X1361288Y1737201D01*
X1360884Y1736924D01*
X1360477Y1736651D01*
X1360468Y1736638D01*
X1360455Y1736629D01*
X1360188Y1736219D01*
X1359915Y1735811D01*
X1358814Y1735301D01*
X1357630Y1735536D01*
X1356446Y1735301D01*
X1355345Y1735811D01*
X1355072Y1736219D01*
X1354805Y1736629D01*
X1354792Y1736638D01*
X1354783Y1736651D01*
X1354376Y1736924D01*
X1353972Y1737201D01*
X1353956Y1737204D01*
X1353943Y1737213D01*
X1353463Y1737308D01*
X1352983Y1737410D01*
X1352968Y1737407D01*
X1352952Y1737410D01*
X1350381D01*
X1349390Y1737213D01*
X1348549Y1736651D01*
X1347988Y1735811D01*
X1347912Y1735430D01*
X1341948D01*
X1341872Y1735811D01*
X1341311Y1736651D01*
X1340470Y1737213D01*
X1339479Y1737410D01*
X1325955D01*
Y1746250D01*
X1325659Y1747737D01*
X1324817Y1748997D01*
X1313595Y1760219D01*
X1313761Y1761478D01*
X1314572Y1761946D01*
X1316534Y1763908D01*
X1317922Y1766312D01*
X1318640Y1768992D01*
Y1771768D01*
X1317922Y1774448D01*
X1316534Y1776852D01*
X1314572Y1778814D01*
X1312168Y1780202D01*
X1311985Y1780251D01*
Y1805670D01*
X1311689Y1807157D01*
X1310847Y1808417D01*
X1310600Y1808664D01*
Y1810555D01*
X1310768Y1810729D01*
X1311870Y1811198D01*
X1312733Y1810621D01*
X1314220Y1810325D01*
X1315490D01*
Y1802170D01*
X1323570D01*
Y1803325D01*
X1328351D01*
X1333331Y1798345D01*
X1332890Y1797280D01*
X1332890D01*
Y1794694D01*
X1330455Y1792259D01*
X1329992Y1791566D01*
X1328633Y1791003D01*
X1326847Y1789217D01*
X1325880Y1786883D01*
Y1784357D01*
X1326847Y1782023D01*
X1328633Y1780237D01*
X1330967Y1779270D01*
X1333493D01*
X1335827Y1780237D01*
X1337613Y1782023D01*
X1338580Y1784357D01*
Y1786883D01*
X1338097Y1788049D01*
X1338963Y1789200D01*
X1341045D01*
Y1781260D01*
X1341000Y1781230D01*
X1339796Y1779427D01*
X1339373Y1777300D01*
Y1761381D01*
X1339796Y1759254D01*
X1341000Y1757451D01*
X1342803Y1756247D01*
X1344930Y1755824D01*
X1347057Y1756247D01*
X1348860Y1757451D01*
X1350064Y1759254D01*
X1350487Y1761381D01*
Y1777300D01*
X1350064Y1779427D01*
X1348860Y1781230D01*
X1348815Y1781260D01*
Y1789200D01*
X1349970D01*
Y1797280D01*
X1348815D01*
Y1828191D01*
X1351734Y1831110D01*
X1356320D01*
Y1834696D01*
X1387047Y1865423D01*
X1387889Y1866683D01*
X1388185Y1868170D01*
Y1930400D01*
Y1948862D01*
X1388222Y1948872D01*
X1390538Y1950210D01*
X1392430Y1952102D01*
X1393768Y1954418D01*
X1394460Y1957002D01*
Y1959678D01*
X1393768Y1962262D01*
X1392430Y1964578D01*
X1390538Y1966470D01*
X1388222Y1967808D01*
X1385638Y1968500D01*
D02*
G37*
G36*
X1356010Y1898880D02*
X1338930D01*
Y1898725D01*
X1336050D01*
X1334563Y1898429D01*
X1333303Y1897587D01*
X1324706Y1888990D01*
X1319120D01*
Y1874410D01*
X1321467D01*
X1321953Y1873237D01*
X1319501Y1870785D01*
X1317392D01*
X1316484Y1872359D01*
X1314829Y1874014D01*
X1312801Y1875184D01*
X1310540Y1875790D01*
X1308200D01*
X1305939Y1875184D01*
X1303911Y1874014D01*
X1302256Y1872359D01*
X1301086Y1870331D01*
X1300480Y1868070D01*
Y1865730D01*
X1301086Y1863469D01*
X1302256Y1861441D01*
X1303911Y1859786D01*
X1305939Y1858616D01*
X1308200Y1858010D01*
X1310540D01*
X1312801Y1858616D01*
X1314829Y1859786D01*
X1316484Y1861441D01*
X1317392Y1863015D01*
X1321110D01*
X1322597Y1863311D01*
X1323857Y1864153D01*
X1334114Y1874410D01*
X1348034D01*
X1348808Y1873402D01*
X1348740Y1873150D01*
Y1870810D01*
X1349346Y1868549D01*
X1350516Y1866521D01*
X1352171Y1864866D01*
X1354199Y1863696D01*
X1356460Y1863090D01*
X1358800D01*
X1361061Y1863696D01*
X1363089Y1864866D01*
X1364744Y1866521D01*
X1365914Y1868549D01*
X1366520Y1870810D01*
Y1873150D01*
X1365914Y1875411D01*
X1364744Y1877439D01*
X1363089Y1879094D01*
X1361061Y1880264D01*
X1358800Y1880870D01*
X1356460D01*
X1355884Y1880716D01*
X1354855Y1881581D01*
Y1890800D01*
X1356010D01*
Y1898880D01*
D02*
G37*
G36*
X1330200Y1861490D02*
X1319120D01*
Y1846910D01*
X1330200D01*
Y1861490D01*
D02*
G37*
G36*
X1247093Y1822850D02*
X1244647D01*
X1242284Y1822217D01*
X1240166Y1820994D01*
X1238436Y1819264D01*
X1237213Y1817146D01*
X1236580Y1814783D01*
Y1812337D01*
X1237213Y1809974D01*
X1238436Y1807856D01*
X1240166Y1806126D01*
X1242284Y1804903D01*
X1244647Y1804270D01*
X1247093D01*
X1249456Y1804903D01*
X1251574Y1806126D01*
X1253304Y1807856D01*
X1254527Y1809974D01*
X1255160Y1812337D01*
Y1814783D01*
X1254527Y1817146D01*
X1253304Y1819264D01*
X1251574Y1820994D01*
X1249456Y1822217D01*
X1247093Y1822850D01*
D02*
G37*
G36*
X1527810Y1680741D02*
Y1672590D01*
X1535961D01*
X1535685Y1673620D01*
X1534034Y1676480D01*
X1531700Y1678815D01*
X1528840Y1680465D01*
X1527810Y1680741D01*
D02*
G37*
G36*
X1520190D02*
X1519160Y1680465D01*
X1516300Y1678815D01*
X1513965Y1676480D01*
X1512315Y1673620D01*
X1512039Y1672590D01*
X1520190D01*
Y1680741D01*
D02*
G37*
G36*
X989330D02*
Y1672590D01*
X997482D01*
X997205Y1673620D01*
X995555Y1676480D01*
X993220Y1678815D01*
X990360Y1680465D01*
X989330Y1680741D01*
D02*
G37*
G36*
X981710D02*
X980680Y1680465D01*
X977820Y1678815D01*
X975486Y1676480D01*
X973835Y1673620D01*
X973559Y1672590D01*
X981710D01*
Y1680741D01*
D02*
G37*
G36*
X1182323Y1681880D02*
X1179877D01*
X1178384Y1681480D01*
X1177514Y1681247D01*
X1175396Y1680024D01*
X1173666Y1678294D01*
X1172443Y1676176D01*
X1171810Y1673813D01*
Y1671367D01*
X1172443Y1669004D01*
X1173666Y1666886D01*
X1175396Y1665156D01*
X1177514Y1663933D01*
X1179877Y1663300D01*
X1182323D01*
X1184686Y1663933D01*
X1186804Y1665156D01*
X1188534Y1666886D01*
X1189757Y1669004D01*
X1190390Y1671367D01*
Y1673813D01*
X1189757Y1676176D01*
X1188534Y1678294D01*
X1186804Y1680024D01*
X1184686Y1681247D01*
X1182323Y1681880D01*
D02*
G37*
G36*
X1156923D02*
X1154477D01*
X1152984Y1681480D01*
X1152114Y1681247D01*
X1149996Y1680024D01*
X1148266Y1678294D01*
X1147043Y1676176D01*
X1146410Y1673813D01*
Y1671367D01*
X1147043Y1669004D01*
X1148266Y1666886D01*
X1149996Y1665156D01*
X1152114Y1663933D01*
X1154477Y1663300D01*
X1156923D01*
X1159286Y1663933D01*
X1161404Y1665156D01*
X1163134Y1666886D01*
X1164357Y1669004D01*
X1164990Y1671367D01*
Y1673813D01*
X1164357Y1676176D01*
X1163134Y1678294D01*
X1161404Y1680024D01*
X1159286Y1681247D01*
X1156923Y1681880D01*
D02*
G37*
G36*
X1535961Y1664970D02*
X1527810D01*
Y1656819D01*
X1528840Y1657095D01*
X1531700Y1658746D01*
X1534034Y1661080D01*
X1535685Y1663940D01*
X1535961Y1664970D01*
D02*
G37*
G36*
X1520190D02*
X1512039D01*
X1512315Y1663940D01*
X1513965Y1661080D01*
X1516300Y1658746D01*
X1519160Y1657095D01*
X1520190Y1656819D01*
Y1664970D01*
D02*
G37*
G36*
X997482D02*
X989330D01*
Y1656819D01*
X990360Y1657095D01*
X993220Y1658746D01*
X995555Y1661080D01*
X997205Y1663940D01*
X997482Y1664970D01*
D02*
G37*
G36*
X981710D02*
X973559D01*
X973835Y1663940D01*
X975486Y1661080D01*
X977820Y1658746D01*
X980680Y1657095D01*
X981710Y1656819D01*
Y1664970D01*
D02*
G37*
G36*
X1136258Y1649041D02*
X1133917D01*
X1131656Y1648435D01*
X1129629Y1647265D01*
X1127974Y1645610D01*
X1126804Y1643582D01*
X1126198Y1641322D01*
Y1638981D01*
X1126804Y1636720D01*
X1127974Y1634693D01*
X1129629Y1633037D01*
X1131656Y1631867D01*
X1133917Y1631261D01*
X1136258D01*
X1138519Y1631867D01*
X1140546Y1633037D01*
X1142202Y1634693D01*
X1143372Y1636720D01*
X1143978Y1638981D01*
Y1641322D01*
X1143372Y1643582D01*
X1142202Y1645610D01*
X1140546Y1647265D01*
X1138519Y1648435D01*
X1136258Y1649041D01*
D02*
G37*
G36*
X1527810Y1629942D02*
Y1621790D01*
X1535961D01*
X1535685Y1622820D01*
X1534034Y1625680D01*
X1531700Y1628015D01*
X1528840Y1629665D01*
X1527810Y1629942D01*
D02*
G37*
G36*
X1520190D02*
X1519160Y1629665D01*
X1516300Y1628015D01*
X1513965Y1625680D01*
X1512315Y1622820D01*
X1512039Y1621790D01*
X1520190D01*
Y1629942D01*
D02*
G37*
G36*
X989330D02*
Y1621790D01*
X997482D01*
X997205Y1622820D01*
X995555Y1625680D01*
X993220Y1628015D01*
X990360Y1629665D01*
X989330Y1629942D01*
D02*
G37*
G36*
X981710D02*
X980680Y1629665D01*
X977820Y1628015D01*
X975486Y1625680D01*
X973835Y1622820D01*
X973559Y1621790D01*
X981710D01*
Y1629942D01*
D02*
G37*
G36*
X1351348Y1658620D02*
X1348672D01*
X1346088Y1657928D01*
X1343772Y1656590D01*
X1341880Y1654698D01*
X1340542Y1652382D01*
X1339850Y1649798D01*
Y1647122D01*
X1340542Y1644538D01*
X1341880Y1642222D01*
X1343772Y1640330D01*
X1346088Y1638992D01*
X1348672Y1638300D01*
X1351348D01*
X1353932Y1638992D01*
X1353965Y1639012D01*
X1366755Y1626221D01*
Y1619480D01*
X1365600D01*
Y1619325D01*
X1348080D01*
Y1619480D01*
X1331000D01*
Y1619300D01*
X1320470D01*
Y1620930D01*
X1305890D01*
Y1609850D01*
X1320470D01*
Y1611530D01*
X1331000D01*
Y1611400D01*
X1339155D01*
Y1602349D01*
Y1577979D01*
X1338746Y1577570D01*
X1334160D01*
Y1569490D01*
X1335315D01*
Y1568170D01*
X1335611Y1566683D01*
X1336453Y1565423D01*
X1341923Y1559953D01*
X1341913Y1559900D01*
Y1543980D01*
X1342336Y1541854D01*
X1343540Y1540051D01*
X1345343Y1538846D01*
X1347470Y1538423D01*
X1349597Y1538846D01*
X1351400Y1540051D01*
X1352604Y1541854D01*
X1353027Y1543980D01*
Y1559900D01*
X1352604Y1562026D01*
X1351400Y1563829D01*
X1349597Y1565034D01*
X1347470Y1565457D01*
X1347417Y1565446D01*
X1344547Y1568317D01*
X1345033Y1569490D01*
X1351240D01*
Y1572076D01*
X1352379Y1573215D01*
X1353193Y1573759D01*
X1354704Y1575270D01*
X1356460Y1574800D01*
X1358290D01*
Y1569490D01*
X1359445D01*
Y1565557D01*
X1359141Y1565252D01*
X1358043Y1565034D01*
X1356240Y1563829D01*
X1355036Y1562026D01*
X1354613Y1559900D01*
Y1543980D01*
X1355036Y1541854D01*
X1356240Y1540051D01*
X1356913Y1539601D01*
Y1536732D01*
X1355981Y1536194D01*
X1354326Y1534539D01*
X1353156Y1532511D01*
X1352550Y1530250D01*
Y1527910D01*
X1353156Y1525649D01*
X1354326Y1523621D01*
X1355981Y1521966D01*
X1356386Y1521733D01*
X1356474Y1521399D01*
X1356446Y1521270D01*
X1356383Y1521110D01*
X1356369Y1521088D01*
X1355464Y1520240D01*
X1352921D01*
X1351930Y1520043D01*
X1351089Y1519481D01*
X1350528Y1518641D01*
X1350406Y1518029D01*
X1344534D01*
X1344412Y1518641D01*
X1343851Y1519481D01*
X1343010Y1520043D01*
X1342019Y1520240D01*
X1327225D01*
Y1539026D01*
X1326929Y1540513D01*
X1326087Y1541773D01*
X1319523Y1548337D01*
X1319005Y1548683D01*
X1318795Y1550269D01*
X1319074Y1550548D01*
X1320462Y1552952D01*
X1321180Y1555632D01*
Y1558408D01*
X1320462Y1561088D01*
X1319074Y1563492D01*
X1317112Y1565454D01*
X1314708Y1566842D01*
X1312028Y1567560D01*
X1309252D01*
X1306572Y1566842D01*
X1304168Y1565454D01*
X1302206Y1563492D01*
X1302199Y1563480D01*
X1291894D01*
X1263857Y1591517D01*
X1262597Y1592359D01*
X1261110Y1592655D01*
X1244250D01*
Y1592810D01*
X1239664D01*
X1230125Y1602349D01*
X1212907Y1619567D01*
X1212850Y1619605D01*
Y1620588D01*
X1212158Y1623172D01*
X1210820Y1625488D01*
X1208928Y1627380D01*
X1206612Y1628718D01*
X1204028Y1629410D01*
X1201352D01*
X1198768Y1628718D01*
X1196452Y1627380D01*
X1194560Y1625488D01*
X1193222Y1623172D01*
X1192530Y1620588D01*
Y1617912D01*
X1193222Y1615328D01*
X1194560Y1613012D01*
X1196452Y1611120D01*
X1198768Y1609782D01*
X1201352Y1609090D01*
X1204028D01*
X1206612Y1609782D01*
X1208928Y1611120D01*
X1209647Y1611839D01*
X1227611Y1593875D01*
X1227179Y1592832D01*
X1227036Y1592655D01*
X1216355D01*
X1215423Y1593798D01*
X1215790Y1595167D01*
Y1597613D01*
X1215157Y1599976D01*
X1213934Y1602094D01*
X1213679Y1602349D01*
X1212204Y1603824D01*
X1210086Y1605047D01*
X1207723Y1605680D01*
X1205277D01*
X1202914Y1605047D01*
X1200796Y1603824D01*
X1199321Y1602349D01*
X1199066Y1602094D01*
X1197843Y1599976D01*
X1197210Y1597613D01*
Y1595167D01*
X1197843Y1592804D01*
X1199066Y1590686D01*
X1199637Y1590115D01*
X1199111Y1588845D01*
X1188489D01*
X1187963Y1590115D01*
X1188534Y1590686D01*
X1189757Y1592804D01*
X1190390Y1595167D01*
Y1597613D01*
X1189757Y1599976D01*
X1188534Y1602094D01*
X1188279Y1602349D01*
X1186804Y1603824D01*
X1184686Y1605047D01*
X1182323Y1605680D01*
X1179877D01*
X1177514Y1605047D01*
X1175396Y1603824D01*
X1173921Y1602349D01*
X1173666Y1602094D01*
X1172443Y1599976D01*
X1171810Y1597613D01*
Y1595167D01*
X1172443Y1592804D01*
X1173666Y1590686D01*
X1174237Y1590115D01*
X1173711Y1588845D01*
X1168739D01*
X1164446Y1593138D01*
X1164990Y1595167D01*
Y1597613D01*
X1164357Y1599976D01*
X1163134Y1602094D01*
X1162879Y1602349D01*
X1161404Y1603824D01*
X1159286Y1605047D01*
X1156923Y1605680D01*
X1154477D01*
X1152448Y1605136D01*
X1135587Y1621997D01*
X1134327Y1622839D01*
X1132840Y1623135D01*
X1110567D01*
X1110558Y1623172D01*
X1109220Y1625488D01*
X1107328Y1627380D01*
X1105012Y1628718D01*
X1102428Y1629410D01*
X1099752D01*
X1097168Y1628718D01*
X1094852Y1627380D01*
X1092960Y1625488D01*
X1091622Y1623172D01*
X1090930Y1620588D01*
Y1619625D01*
X1090855Y1619250D01*
X1090930Y1618875D01*
Y1617912D01*
X1091622Y1615328D01*
X1092960Y1613012D01*
X1094852Y1611120D01*
X1097168Y1609782D01*
X1099752Y1609090D01*
X1102428D01*
X1105012Y1609782D01*
X1107328Y1611120D01*
X1109220Y1613012D01*
X1110558Y1615328D01*
X1110567Y1615365D01*
X1131231D01*
X1146954Y1599642D01*
X1146410Y1597613D01*
Y1595167D01*
X1147043Y1592804D01*
X1148266Y1590686D01*
X1149996Y1588956D01*
X1152114Y1587733D01*
X1154477Y1587100D01*
X1156923D01*
X1158590Y1587547D01*
X1159064Y1587045D01*
X1158511Y1585780D01*
X1110215Y1586211D01*
X1109684Y1587486D01*
X1110644Y1589149D01*
X1111250Y1591410D01*
Y1593750D01*
X1110644Y1596011D01*
X1109474Y1598039D01*
X1107819Y1599694D01*
X1105791Y1600864D01*
X1103530Y1601470D01*
X1101190D01*
X1098929Y1600864D01*
X1096901Y1599694D01*
X1095246Y1598039D01*
X1094076Y1596011D01*
X1093470Y1593750D01*
Y1591410D01*
X1094076Y1589149D01*
X1094960Y1587617D01*
X1094320Y1586353D01*
X1082146Y1586461D01*
X1082140Y1586460D01*
X1082134Y1586461D01*
X1081960Y1586428D01*
X1081434Y1588391D01*
X1080264Y1590419D01*
X1078609Y1592074D01*
X1076581Y1593244D01*
X1074320Y1593850D01*
X1071980D01*
X1069719Y1593244D01*
X1067691Y1592074D01*
X1066036Y1590419D01*
X1065017Y1588654D01*
X1064842Y1588689D01*
X1064522Y1588798D01*
X1064351Y1588786D01*
X1064184Y1588820D01*
X1050113D01*
X1049399Y1589534D01*
X1047371Y1590704D01*
X1045110Y1591310D01*
X1042770D01*
X1040509Y1590704D01*
X1038481Y1589534D01*
X1037767Y1588820D01*
X952500D01*
X951509Y1588623D01*
X950669Y1588061D01*
X950107Y1587221D01*
X949910Y1586230D01*
Y1385570D01*
Y1371600D01*
Y1123950D01*
X950107Y1122959D01*
X950669Y1122119D01*
X951509Y1121557D01*
X952500Y1121360D01*
X1046480D01*
X1047700Y1120308D01*
Y930910D01*
X1047897Y929919D01*
X1048459Y929079D01*
X1049299Y928517D01*
X1050290Y928320D01*
X1354235D01*
X1354609Y928395D01*
X1354988Y928432D01*
X1355101Y928493D01*
X1355226Y928517D01*
X1355543Y928729D01*
X1355879Y928909D01*
X1355960Y929008D01*
X1356066Y929079D01*
X1356278Y929396D01*
X1356519Y929690D01*
X1357075Y930730D01*
X1357112Y930853D01*
X1357183Y930959D01*
X1357257Y931333D01*
X1357367Y931697D01*
X1358619Y931950D01*
X1363732D01*
X1364848Y931205D01*
X1366830Y930810D01*
X1368812Y931205D01*
X1369928Y931950D01*
X1371870D01*
Y935289D01*
X1372009Y935990D01*
Y941775D01*
X1373992Y943757D01*
X1375115Y945438D01*
X1375509Y947420D01*
Y953337D01*
X1376683Y953823D01*
X1381685Y948821D01*
Y946738D01*
X1381648Y946728D01*
X1379332Y945390D01*
X1377440Y943498D01*
X1376102Y941182D01*
X1375410Y938598D01*
Y935922D01*
X1376102Y933338D01*
X1377440Y931022D01*
X1379332Y929130D01*
X1381648Y927792D01*
X1384232Y927100D01*
X1386908D01*
X1389492Y927792D01*
X1391808Y929130D01*
X1392199Y929201D01*
X1393271Y929079D01*
X1393404Y928990D01*
X1393434Y928960D01*
X1393526Y928855D01*
X1393829Y928706D01*
X1394111Y928517D01*
X1394279Y928484D01*
X1394432Y928409D01*
X1394770Y928386D01*
X1395102Y928320D01*
X1399890D01*
X1400881Y928517D01*
X1401721Y929079D01*
X1402283Y929919D01*
X1402434Y930680D01*
X1414426D01*
X1414577Y929919D01*
X1415139Y929079D01*
X1415979Y928517D01*
X1416970Y928320D01*
X1573848D01*
X1574839Y928517D01*
X1575679Y929079D01*
X1576240Y929919D01*
X1576437Y930910D01*
Y1010229D01*
X1576631Y1010359D01*
X1577193Y1011199D01*
X1577390Y1012190D01*
Y1223010D01*
X1577193Y1224001D01*
X1576631Y1224841D01*
X1575791Y1225403D01*
X1574800Y1225600D01*
X1521460D01*
X1520469Y1225403D01*
X1519629Y1224841D01*
X1519067Y1224001D01*
X1518870Y1223010D01*
Y1210618D01*
X1517600Y1210450D01*
X1517268Y1211692D01*
X1515930Y1214008D01*
X1514038Y1215900D01*
X1511722Y1217238D01*
X1509138Y1217930D01*
X1506462D01*
X1503878Y1217238D01*
X1501562Y1215900D01*
X1499670Y1214008D01*
X1498332Y1211692D01*
X1497640Y1209108D01*
Y1206432D01*
X1498332Y1203848D01*
X1499670Y1201532D01*
X1501562Y1199640D01*
X1503878Y1198302D01*
X1506462Y1197610D01*
X1509138D01*
X1511722Y1198302D01*
X1514038Y1199640D01*
X1515930Y1201532D01*
X1517268Y1203848D01*
X1517600Y1205090D01*
X1518870Y1204922D01*
Y1014780D01*
X1499920D01*
Y1035050D01*
X1499723Y1036041D01*
X1499161Y1036881D01*
X1498321Y1037443D01*
X1497330Y1037640D01*
X1479732D01*
X1479565Y1037606D01*
X1479394Y1037618D01*
X1479074Y1037509D01*
X1478741Y1037443D01*
X1478599Y1037348D01*
X1478438Y1037293D01*
X1478183Y1037069D01*
X1477901Y1036881D01*
X1477806Y1036739D01*
X1477678Y1036627D01*
X1477528Y1036323D01*
X1477340Y1036041D01*
X1477321Y1035947D01*
X1476842Y1034773D01*
X1475808Y1035050D01*
X1473132D01*
X1472098Y1034773D01*
X1471619Y1035947D01*
X1471600Y1036041D01*
X1471412Y1036323D01*
X1471262Y1036627D01*
X1471134Y1036739D01*
X1471039Y1036881D01*
X1470757Y1037069D01*
X1470502Y1037293D01*
X1470341Y1037348D01*
X1470199Y1037443D01*
X1469866Y1037509D01*
X1469546Y1037618D01*
X1469375Y1037606D01*
X1469208Y1037640D01*
X1455530D01*
Y1060330D01*
X1445150D01*
Y1037640D01*
X1442830D01*
Y1060330D01*
X1432450D01*
Y1037640D01*
X1430130D01*
Y1060330D01*
X1419750D01*
Y1037640D01*
X1417430D01*
Y1060330D01*
X1407050D01*
Y1035450D01*
X1414402D01*
X1414730Y1035050D01*
Y1032510D01*
Y1014780D01*
X1148130D01*
Y1178510D01*
X1271467D01*
X1334209Y1115769D01*
X1335049Y1115207D01*
X1335540Y1115110D01*
X1335415Y1113840D01*
X1322070D01*
X1321079Y1113643D01*
X1320239Y1113081D01*
X1319677Y1112241D01*
X1319480Y1111250D01*
Y1096686D01*
X1319514Y1096519D01*
X1319502Y1096348D01*
X1319611Y1096027D01*
X1319677Y1095695D01*
X1319496Y1094803D01*
X1319187Y1094254D01*
X1319151Y1094234D01*
X1317496Y1092579D01*
X1316326Y1090551D01*
X1315720Y1088290D01*
Y1085950D01*
X1316326Y1083689D01*
X1317496Y1081661D01*
X1319151Y1080006D01*
X1321179Y1078836D01*
X1323440Y1078230D01*
X1325466D01*
X1342315Y1061381D01*
Y1052170D01*
X1342160D01*
Y1047825D01*
X1338983D01*
X1338074Y1049399D01*
X1336419Y1051054D01*
X1334391Y1052224D01*
X1332130Y1052830D01*
X1329790D01*
X1327529Y1052224D01*
X1325501Y1051054D01*
X1323846Y1049399D01*
X1322676Y1047371D01*
X1322070Y1045110D01*
Y1042770D01*
X1322676Y1040509D01*
X1323846Y1038481D01*
X1325501Y1036826D01*
X1327529Y1035656D01*
X1329790Y1035050D01*
X1332130D01*
X1334391Y1035656D01*
X1336419Y1036826D01*
X1338074Y1038481D01*
X1338983Y1040055D01*
X1340781D01*
X1342160Y1038676D01*
Y1035090D01*
X1344746D01*
X1355153Y1024683D01*
X1356413Y1023841D01*
X1357900Y1023545D01*
X1364848D01*
X1365756Y1021971D01*
X1367411Y1020316D01*
X1369439Y1019146D01*
X1371700Y1018540D01*
X1374040D01*
X1376301Y1019146D01*
X1378329Y1020316D01*
X1379984Y1021971D01*
X1381154Y1023999D01*
X1381760Y1026260D01*
Y1028600D01*
X1381154Y1030861D01*
X1379984Y1032889D01*
X1378692Y1034180D01*
X1379207Y1035450D01*
X1379330D01*
Y1060330D01*
X1368950D01*
Y1035450D01*
X1368950Y1035450D01*
X1368950D01*
X1367981Y1034874D01*
X1366981Y1035142D01*
X1366744Y1035352D01*
X1366719Y1035383D01*
X1366630Y1036410D01*
X1366630Y1036635D01*
Y1060330D01*
X1356250D01*
Y1036370D01*
X1354980Y1035844D01*
X1350240Y1040584D01*
Y1052170D01*
X1350085D01*
Y1062990D01*
X1349789Y1064477D01*
X1348947Y1065737D01*
X1336407Y1078277D01*
X1336893Y1079450D01*
X1485900D01*
X1486891Y1079647D01*
X1487731Y1080209D01*
X1488293Y1081049D01*
X1488490Y1082040D01*
Y1111250D01*
X1488293Y1112241D01*
X1487731Y1113081D01*
X1486891Y1113643D01*
X1485900Y1113840D01*
X1408468D01*
X1408430Y1113890D01*
Y1116230D01*
X1407824Y1118491D01*
X1406654Y1120519D01*
X1404999Y1122174D01*
X1403425Y1123083D01*
Y1129150D01*
X1404730D01*
Y1148536D01*
X1405877Y1149683D01*
X1407050Y1149197D01*
Y1129150D01*
X1417430D01*
Y1154030D01*
X1411883D01*
X1411397Y1155203D01*
X1412415Y1156221D01*
X1452486D01*
X1453408Y1155300D01*
X1452893Y1154030D01*
X1445150D01*
Y1129150D01*
X1455530D01*
Y1152523D01*
X1456800Y1153497D01*
X1458060Y1153160D01*
X1460400D01*
X1462661Y1153766D01*
X1464689Y1154936D01*
X1466344Y1156591D01*
X1467514Y1158619D01*
X1468120Y1160880D01*
Y1163220D01*
X1467514Y1165481D01*
X1466344Y1167509D01*
X1464689Y1169164D01*
X1462661Y1170334D01*
X1460400Y1170940D01*
X1458060D01*
X1455799Y1170334D01*
X1453771Y1169164D01*
X1452116Y1167509D01*
X1450946Y1165481D01*
X1450546Y1163991D01*
X1410806D01*
X1409319Y1163695D01*
X1408059Y1162853D01*
X1405681Y1160474D01*
X1404507Y1160960D01*
Y1161459D01*
X1403902Y1163720D01*
X1402731Y1165747D01*
X1402267Y1166212D01*
X1402924Y1167350D01*
X1403298Y1167250D01*
X1405942D01*
X1408495Y1167934D01*
X1410785Y1169256D01*
X1412654Y1171125D01*
X1413976Y1173415D01*
X1414660Y1175968D01*
Y1178612D01*
X1413976Y1181165D01*
X1412654Y1183455D01*
X1410785Y1185324D01*
X1408495Y1186646D01*
X1405942Y1187330D01*
X1403298D01*
X1400745Y1186646D01*
X1398455Y1185324D01*
X1396586Y1183455D01*
X1395264Y1181165D01*
X1394580Y1178612D01*
Y1175968D01*
X1395264Y1173415D01*
X1396586Y1171125D01*
X1397376Y1170336D01*
X1396850Y1169301D01*
X1396737Y1169178D01*
X1394447D01*
X1392186Y1168573D01*
X1390159Y1167402D01*
X1388504Y1165747D01*
X1387333Y1163720D01*
X1386967Y1162355D01*
X1382640D01*
X1382265Y1162280D01*
X1379295D01*
Y1167250D01*
X1380542D01*
X1383095Y1167934D01*
X1385385Y1169256D01*
X1387254Y1171125D01*
X1388576Y1173415D01*
X1389260Y1175968D01*
Y1178612D01*
X1388576Y1181165D01*
X1387254Y1183455D01*
X1385385Y1185324D01*
X1383895Y1186184D01*
Y1198081D01*
X1384722Y1198302D01*
X1387038Y1199640D01*
X1388930Y1201532D01*
X1390268Y1203848D01*
X1390960Y1206432D01*
Y1209108D01*
X1390268Y1211692D01*
X1388930Y1214008D01*
X1387038Y1215900D01*
X1384722Y1217238D01*
X1382138Y1217930D01*
X1379462D01*
X1376878Y1217238D01*
X1374562Y1215900D01*
X1372670Y1214008D01*
X1371332Y1211692D01*
X1370640Y1209108D01*
Y1206432D01*
X1371289Y1204010D01*
X1371086Y1203518D01*
X1370506Y1202740D01*
X1365497D01*
X1365280Y1203117D01*
X1364911Y1204010D01*
X1365560Y1206432D01*
Y1209108D01*
X1364868Y1211692D01*
X1363530Y1214008D01*
X1361638Y1215900D01*
X1359322Y1217238D01*
X1356738Y1217930D01*
X1354062D01*
X1351478Y1217238D01*
X1349162Y1215900D01*
X1347270Y1214008D01*
X1345932Y1211692D01*
X1345240Y1209108D01*
Y1206432D01*
X1345889Y1204010D01*
X1345520Y1203117D01*
X1345302Y1202740D01*
X1340098D01*
X1339880Y1203117D01*
X1339511Y1204010D01*
X1340160Y1206432D01*
Y1209108D01*
X1339468Y1211692D01*
X1338130Y1214008D01*
X1336238Y1215900D01*
X1333922Y1217238D01*
X1331338Y1217930D01*
X1328662D01*
X1326078Y1217238D01*
X1323762Y1215900D01*
X1321870Y1214008D01*
X1320532Y1211692D01*
X1319840Y1209108D01*
Y1206432D01*
X1320489Y1204010D01*
X1320120Y1203117D01*
X1319902Y1202740D01*
X1314698D01*
X1314480Y1203117D01*
X1314111Y1204010D01*
X1314760Y1206432D01*
Y1209108D01*
X1314068Y1211692D01*
X1312730Y1214008D01*
X1310838Y1215900D01*
X1308522Y1217238D01*
X1308485Y1217248D01*
Y1335730D01*
X1308189Y1337217D01*
X1307347Y1338477D01*
X1295475Y1350349D01*
Y1353268D01*
X1296745Y1353657D01*
X1298362Y1352040D01*
X1300678Y1350702D01*
X1303262Y1350010D01*
X1305938D01*
X1308522Y1350702D01*
X1310838Y1352040D01*
X1312730Y1353932D01*
X1314068Y1356248D01*
X1314760Y1358832D01*
Y1361508D01*
X1314068Y1364092D01*
X1312730Y1366408D01*
X1310838Y1368300D01*
X1308522Y1369638D01*
X1305938Y1370330D01*
X1303262D01*
X1300678Y1369638D01*
X1298362Y1368300D01*
X1296745Y1366683D01*
X1295475Y1367072D01*
Y1483310D01*
X1367790D01*
X1368781Y1483507D01*
X1369085Y1483710D01*
X1369389Y1483507D01*
X1370380Y1483310D01*
X1402080D01*
Y1483292D01*
X1402772Y1480708D01*
X1404110Y1478392D01*
X1406002Y1476500D01*
X1408318Y1475162D01*
X1410902Y1474470D01*
X1413578D01*
X1416162Y1475162D01*
X1418478Y1476500D01*
X1420370Y1478392D01*
X1421708Y1480708D01*
X1422400Y1483292D01*
Y1483310D01*
X1435100D01*
X1436320Y1482258D01*
X1436320Y1444411D01*
X1435050Y1444243D01*
X1434408Y1446642D01*
X1433070Y1448958D01*
X1431178Y1450850D01*
X1428862Y1452188D01*
X1426278Y1452880D01*
X1423602D01*
X1421018Y1452188D01*
X1418702Y1450850D01*
X1416810Y1448958D01*
X1415472Y1446642D01*
X1414780Y1444058D01*
Y1441382D01*
X1415472Y1438798D01*
X1416810Y1436482D01*
X1418702Y1434590D01*
X1421018Y1433252D01*
X1423602Y1432560D01*
X1426278D01*
X1428862Y1433252D01*
X1431178Y1434590D01*
X1433070Y1436482D01*
X1434408Y1438798D01*
X1435050Y1441197D01*
X1436320Y1441030D01*
Y1395212D01*
X1436517Y1394221D01*
X1437079Y1393381D01*
X1437919Y1392819D01*
X1438910Y1392622D01*
X1448825D01*
X1449558Y1391352D01*
X1449196Y1390725D01*
X1442370D01*
Y1390880D01*
X1425290D01*
Y1390725D01*
X1423320D01*
Y1390880D01*
X1406240D01*
Y1382800D01*
X1407395D01*
Y1382594D01*
X1407691Y1381108D01*
X1408533Y1379847D01*
X1417627Y1370753D01*
Y1370258D01*
X1417923Y1368771D01*
X1418765Y1367511D01*
X1422151Y1364125D01*
X1422132Y1364092D01*
X1421440Y1361508D01*
Y1358832D01*
X1422132Y1356248D01*
X1423470Y1353932D01*
X1425362Y1352040D01*
X1427678Y1350702D01*
X1430262Y1350010D01*
X1432938D01*
X1435522Y1350702D01*
X1437838Y1352040D01*
X1439730Y1353932D01*
X1441068Y1356248D01*
X1441760Y1358832D01*
Y1361508D01*
X1441068Y1364092D01*
X1439730Y1366408D01*
X1437838Y1368300D01*
X1435522Y1369638D01*
X1432938Y1370330D01*
X1430262D01*
X1427678Y1369638D01*
X1427645Y1369619D01*
X1425397Y1371867D01*
Y1372362D01*
X1425101Y1373849D01*
X1424259Y1375109D01*
X1417741Y1381627D01*
X1418227Y1382800D01*
X1423320D01*
Y1382955D01*
X1425290D01*
Y1382800D01*
X1442370D01*
Y1382955D01*
X1449937D01*
X1450846Y1381381D01*
X1452501Y1379726D01*
X1454529Y1378556D01*
X1456790Y1377950D01*
X1459130D01*
X1461391Y1378556D01*
X1463419Y1379726D01*
X1465074Y1381381D01*
X1466244Y1383409D01*
X1466850Y1385670D01*
Y1388010D01*
X1466244Y1390271D01*
X1465620Y1391352D01*
X1466353Y1392622D01*
X1571480Y1392622D01*
X1572471Y1392819D01*
X1573312Y1393381D01*
X1573873Y1394221D01*
X1574070Y1395212D01*
Y1599662D01*
X1573873Y1600653D01*
X1573312Y1601494D01*
X1572471Y1602055D01*
X1571480Y1602252D01*
X1438910D01*
X1437919Y1602055D01*
X1437079Y1601494D01*
X1436517Y1600653D01*
X1436320Y1599662D01*
Y1550490D01*
X1405681Y1536564D01*
X1405492Y1536427D01*
X1405278Y1536335D01*
X1405085Y1536135D01*
X1404861Y1535974D01*
X1404738Y1535776D01*
X1404576Y1535608D01*
X1404474Y1535350D01*
X1404328Y1535115D01*
X1404290Y1534885D01*
X1404205Y1534668D01*
X1404209Y1534391D01*
X1404165Y1534118D01*
X1403729Y1533426D01*
X1403244Y1532965D01*
X1369462D01*
X1368554Y1534539D01*
X1366899Y1536194D01*
X1364871Y1537364D01*
X1364682Y1537415D01*
Y1540923D01*
X1365304Y1541854D01*
X1365727Y1543980D01*
Y1559900D01*
X1365570Y1560693D01*
X1366077Y1561201D01*
X1366361Y1561626D01*
X1367557Y1561131D01*
X1367313Y1559900D01*
Y1543980D01*
X1367736Y1541854D01*
X1368940Y1540051D01*
X1370743Y1538846D01*
X1372870Y1538423D01*
X1374997Y1538846D01*
X1376800Y1540051D01*
X1378004Y1541854D01*
X1378427Y1543980D01*
Y1556043D01*
X1378743Y1556232D01*
X1380013Y1555512D01*
Y1543980D01*
X1380436Y1541854D01*
X1381640Y1540051D01*
X1383443Y1538846D01*
X1385570Y1538423D01*
X1387697Y1538846D01*
X1389500Y1540051D01*
X1390704Y1541854D01*
X1391127Y1543980D01*
Y1548055D01*
X1394062D01*
X1395548Y1548351D01*
X1396808Y1549193D01*
X1397997Y1550382D01*
X1398649Y1550006D01*
X1400910Y1549400D01*
X1403250D01*
X1405511Y1550006D01*
X1407539Y1551176D01*
X1409194Y1552831D01*
X1410364Y1554859D01*
X1410970Y1557120D01*
Y1559460D01*
X1410364Y1561721D01*
X1409194Y1563749D01*
X1407539Y1565404D01*
X1405511Y1566574D01*
X1403250Y1567180D01*
X1401914D01*
X1395380Y1573714D01*
Y1576300D01*
X1394225D01*
Y1578271D01*
X1394334Y1578380D01*
X1397920D01*
Y1586460D01*
X1380840D01*
Y1583874D01*
X1380593Y1583627D01*
X1379751Y1582367D01*
X1379455Y1580880D01*
Y1576300D01*
X1378300D01*
Y1568220D01*
X1378300Y1568220D01*
X1378300D01*
X1377814Y1567142D01*
X1375422Y1564750D01*
X1374997Y1565034D01*
X1372870Y1565457D01*
X1370743Y1565034D01*
X1368940Y1563829D01*
X1368293Y1562861D01*
X1367097Y1563357D01*
X1367215Y1563948D01*
Y1569490D01*
X1375370D01*
Y1577570D01*
X1370784D01*
X1366375Y1581979D01*
X1366520Y1582520D01*
Y1584860D01*
X1365914Y1587121D01*
X1364744Y1589149D01*
X1363089Y1590804D01*
X1361061Y1591974D01*
X1358800Y1592580D01*
X1356460D01*
X1354199Y1591974D01*
X1352171Y1590804D01*
X1350516Y1589149D01*
X1349346Y1587121D01*
X1348740Y1584860D01*
Y1582520D01*
X1349210Y1580764D01*
X1348243Y1579796D01*
X1348195Y1579764D01*
X1346925Y1580443D01*
Y1611400D01*
X1348080D01*
Y1611555D01*
X1350923D01*
X1351525Y1610285D01*
X1350616Y1608711D01*
X1350010Y1606450D01*
Y1604110D01*
X1350616Y1601849D01*
X1351786Y1599821D01*
X1353441Y1598166D01*
X1355469Y1596996D01*
X1357730Y1596390D01*
X1360070D01*
X1362331Y1596996D01*
X1364359Y1598166D01*
X1366014Y1599821D01*
X1367184Y1601849D01*
X1367584Y1603339D01*
X1368424D01*
X1369911Y1603635D01*
X1371171Y1604477D01*
X1378094Y1611400D01*
X1382680D01*
Y1619480D01*
X1374525D01*
Y1627830D01*
X1374229Y1629317D01*
X1373387Y1630577D01*
X1359458Y1644505D01*
X1359478Y1644538D01*
X1360170Y1647122D01*
Y1649798D01*
X1359478Y1652382D01*
X1358140Y1654698D01*
X1356248Y1656590D01*
X1353932Y1657928D01*
X1351348Y1658620D01*
D02*
G37*
G36*
X1535961Y1614170D02*
X1527810D01*
Y1606019D01*
X1528840Y1606295D01*
X1531700Y1607946D01*
X1534034Y1610280D01*
X1535685Y1613140D01*
X1535961Y1614170D01*
D02*
G37*
G36*
X1520190D02*
X1512039D01*
X1512315Y1613140D01*
X1513965Y1610280D01*
X1516300Y1607946D01*
X1519160Y1606295D01*
X1520190Y1606019D01*
Y1614170D01*
D02*
G37*
G36*
X997482D02*
X989330D01*
Y1606019D01*
X990360Y1606295D01*
X993220Y1607946D01*
X995555Y1610280D01*
X997205Y1613140D01*
X997482Y1614170D01*
D02*
G37*
G36*
X981710D02*
X973559D01*
X973835Y1613140D01*
X975486Y1610280D01*
X977820Y1607946D01*
X980680Y1606295D01*
X981710Y1606019D01*
Y1614170D01*
D02*
G37*
G36*
X1265093Y1635487D02*
X1262753D01*
X1260492Y1634881D01*
X1258464Y1633711D01*
X1256809Y1632056D01*
X1255639Y1630028D01*
X1255033Y1627767D01*
Y1625427D01*
X1255639Y1623165D01*
X1256809Y1621138D01*
X1258464Y1619483D01*
X1260492Y1618313D01*
X1262753Y1617707D01*
X1265093D01*
X1266849Y1618177D01*
X1278390Y1606636D01*
Y1602349D01*
Y1600910D01*
X1272770D01*
Y1602349D01*
Y1609700D01*
X1264690D01*
Y1609490D01*
X1260636D01*
X1260504Y1609981D01*
X1259334Y1612009D01*
X1257679Y1613664D01*
X1255651Y1614834D01*
X1253390Y1615440D01*
X1251050D01*
X1248789Y1614834D01*
X1246761Y1613664D01*
X1245106Y1612009D01*
X1243936Y1609981D01*
X1243330Y1607720D01*
Y1605380D01*
X1243802Y1603619D01*
X1243936Y1603119D01*
X1245106Y1601091D01*
X1246761Y1599436D01*
X1248789Y1598266D01*
X1251050Y1597660D01*
X1253390D01*
X1255651Y1598266D01*
X1257679Y1599436D01*
X1259334Y1601091D01*
X1259697Y1601720D01*
X1264690D01*
Y1592620D01*
X1272770D01*
Y1593140D01*
X1278390D01*
Y1590850D01*
X1292970D01*
Y1596436D01*
X1295607Y1599073D01*
X1296449Y1600333D01*
X1296745Y1601820D01*
Y1602349D01*
Y1609960D01*
X1296449Y1611447D01*
X1295607Y1612707D01*
X1292970Y1615344D01*
Y1620930D01*
X1278390D01*
Y1619283D01*
X1277217Y1618797D01*
X1272343Y1623671D01*
X1272813Y1625427D01*
Y1627767D01*
X1272207Y1630028D01*
X1271037Y1632056D01*
X1269382Y1633711D01*
X1267354Y1634881D01*
X1265093Y1635487D01*
D02*
G37*
G36*
X1320470Y1601930D02*
X1305890D01*
Y1590850D01*
X1320470D01*
Y1601930D01*
D02*
G37*
G36*
X1534538Y1370330D02*
X1531862D01*
X1529278Y1369638D01*
X1526962Y1368300D01*
X1525070Y1366408D01*
X1523732Y1364092D01*
X1523040Y1361508D01*
Y1358832D01*
X1523732Y1356248D01*
X1525070Y1353932D01*
X1526962Y1352040D01*
X1529278Y1350702D01*
X1531862Y1350010D01*
X1534538D01*
X1537122Y1350702D01*
X1539438Y1352040D01*
X1541330Y1353932D01*
X1542668Y1356248D01*
X1543360Y1358832D01*
Y1361508D01*
X1542668Y1364092D01*
X1541330Y1366408D01*
X1539438Y1368300D01*
X1537122Y1369638D01*
X1534538Y1370330D01*
D02*
G37*
G36*
X1509138D02*
X1506462D01*
X1503878Y1369638D01*
X1501562Y1368300D01*
X1499670Y1366408D01*
X1498332Y1364092D01*
X1497640Y1361508D01*
Y1358832D01*
X1498332Y1356248D01*
X1499670Y1353932D01*
X1501562Y1352040D01*
X1503878Y1350702D01*
X1506462Y1350010D01*
X1509138D01*
X1511722Y1350702D01*
X1514038Y1352040D01*
X1515930Y1353932D01*
X1517268Y1356248D01*
X1517960Y1358832D01*
Y1361508D01*
X1517268Y1364092D01*
X1515930Y1366408D01*
X1514038Y1368300D01*
X1511722Y1369638D01*
X1509138Y1370330D01*
D02*
G37*
G36*
X1483738D02*
X1481062D01*
X1478478Y1369638D01*
X1476162Y1368300D01*
X1474270Y1366408D01*
X1472932Y1364092D01*
X1472240Y1361508D01*
Y1358832D01*
X1472932Y1356248D01*
X1474270Y1353932D01*
X1476162Y1352040D01*
X1478478Y1350702D01*
X1481062Y1350010D01*
X1483738D01*
X1486322Y1350702D01*
X1488638Y1352040D01*
X1490530Y1353932D01*
X1491868Y1356248D01*
X1492560Y1358832D01*
Y1361508D01*
X1491868Y1364092D01*
X1490530Y1366408D01*
X1488638Y1368300D01*
X1486322Y1369638D01*
X1483738Y1370330D01*
D02*
G37*
G36*
X1458338D02*
X1455662D01*
X1453078Y1369638D01*
X1450762Y1368300D01*
X1448870Y1366408D01*
X1447532Y1364092D01*
X1446840Y1361508D01*
Y1358832D01*
X1447532Y1356248D01*
X1448870Y1353932D01*
X1450762Y1352040D01*
X1453078Y1350702D01*
X1455662Y1350010D01*
X1458338D01*
X1460922Y1350702D01*
X1463238Y1352040D01*
X1465130Y1353932D01*
X1466468Y1356248D01*
X1467160Y1358832D01*
Y1361508D01*
X1466468Y1364092D01*
X1465130Y1366408D01*
X1463238Y1368300D01*
X1460922Y1369638D01*
X1458338Y1370330D01*
D02*
G37*
G36*
X1353811Y1410880D02*
X1351470D01*
X1349209Y1410274D01*
X1347182Y1409104D01*
X1345526Y1407448D01*
X1344356Y1405421D01*
X1343750Y1403160D01*
Y1400819D01*
X1344356Y1398558D01*
X1345526Y1396531D01*
X1347182Y1394876D01*
X1349209Y1393706D01*
X1351470Y1393100D01*
X1353811D01*
X1356072Y1393706D01*
X1358099Y1394876D01*
X1359754Y1396531D01*
X1360924Y1398558D01*
X1361106Y1399235D01*
X1368490D01*
X1368865Y1399310D01*
X1372145D01*
Y1385800D01*
X1370990D01*
Y1377720D01*
X1383156D01*
X1396752Y1364125D01*
X1396732Y1364092D01*
X1396040Y1361508D01*
Y1358832D01*
X1396732Y1356248D01*
X1398070Y1353932D01*
X1399962Y1352040D01*
X1402278Y1350702D01*
X1404862Y1350010D01*
X1407538D01*
X1410122Y1350702D01*
X1412438Y1352040D01*
X1414330Y1353932D01*
X1415668Y1356248D01*
X1416360Y1358832D01*
Y1361508D01*
X1415668Y1364092D01*
X1414330Y1366408D01*
X1412438Y1368300D01*
X1410122Y1369638D01*
X1407538Y1370330D01*
X1404862D01*
X1402278Y1369638D01*
X1402245Y1369619D01*
X1388070Y1383794D01*
Y1385800D01*
X1384498D01*
X1384123Y1385875D01*
X1383748Y1385800D01*
X1379915D01*
Y1399310D01*
X1380760D01*
Y1407390D01*
X1363680D01*
Y1407005D01*
X1360010D01*
X1359754Y1407448D01*
X1358099Y1409104D01*
X1356072Y1410274D01*
X1353811Y1410880D01*
D02*
G37*
G36*
X1382138Y1370330D02*
X1379462D01*
X1376878Y1369638D01*
X1374562Y1368300D01*
X1372670Y1366408D01*
X1371332Y1364092D01*
X1370640Y1361508D01*
Y1358832D01*
X1371332Y1356248D01*
X1372670Y1353932D01*
X1374562Y1352040D01*
X1376878Y1350702D01*
X1379462Y1350010D01*
X1382138D01*
X1384722Y1350702D01*
X1387038Y1352040D01*
X1388930Y1353932D01*
X1390268Y1356248D01*
X1390960Y1358832D01*
Y1361508D01*
X1390268Y1364092D01*
X1388930Y1366408D01*
X1387038Y1368300D01*
X1384722Y1369638D01*
X1382138Y1370330D01*
D02*
G37*
G36*
X1356738D02*
X1354062D01*
X1351478Y1369638D01*
X1349162Y1368300D01*
X1347270Y1366408D01*
X1345932Y1364092D01*
X1345240Y1361508D01*
Y1358832D01*
X1345932Y1356248D01*
X1347270Y1353932D01*
X1349162Y1352040D01*
X1351478Y1350702D01*
X1354062Y1350010D01*
X1356738D01*
X1359322Y1350702D01*
X1361638Y1352040D01*
X1363530Y1353932D01*
X1364868Y1356248D01*
X1365560Y1358832D01*
Y1361508D01*
X1364868Y1364092D01*
X1363530Y1366408D01*
X1361638Y1368300D01*
X1359322Y1369638D01*
X1356738Y1370330D01*
D02*
G37*
G36*
X1331338D02*
X1328662D01*
X1326078Y1369638D01*
X1323762Y1368300D01*
X1321870Y1366408D01*
X1320532Y1364092D01*
X1319840Y1361508D01*
Y1358832D01*
X1320532Y1356248D01*
X1321870Y1353932D01*
X1323762Y1352040D01*
X1326078Y1350702D01*
X1328662Y1350010D01*
X1331338D01*
X1333922Y1350702D01*
X1336238Y1352040D01*
X1338130Y1353932D01*
X1339468Y1356248D01*
X1340160Y1358832D01*
Y1361508D01*
X1339468Y1364092D01*
X1338130Y1366408D01*
X1336238Y1368300D01*
X1333922Y1369638D01*
X1331338Y1370330D01*
D02*
G37*
G36*
X1560020Y1370960D02*
X1557180D01*
X1554435Y1370225D01*
X1551975Y1368804D01*
X1549966Y1366795D01*
X1548545Y1364335D01*
X1547810Y1361591D01*
Y1358750D01*
X1548545Y1356005D01*
X1549966Y1353545D01*
X1551975Y1351536D01*
X1554435Y1350115D01*
X1557180Y1349380D01*
X1560020D01*
X1562765Y1350115D01*
X1565225Y1351536D01*
X1567234Y1353545D01*
X1568655Y1356005D01*
X1569390Y1358750D01*
Y1361591D01*
X1568655Y1364335D01*
X1567234Y1366795D01*
X1565225Y1368804D01*
X1562765Y1370225D01*
X1560020Y1370960D01*
D02*
G37*
G36*
X1483738Y1217930D02*
X1481062D01*
X1478478Y1217238D01*
X1476162Y1215900D01*
X1474270Y1214008D01*
X1472932Y1211692D01*
X1472240Y1209108D01*
Y1206432D01*
X1472932Y1203848D01*
X1474270Y1201532D01*
X1476162Y1199640D01*
X1478478Y1198302D01*
X1481062Y1197610D01*
X1483738D01*
X1486322Y1198302D01*
X1488638Y1199640D01*
X1490530Y1201532D01*
X1491868Y1203848D01*
X1492560Y1206432D01*
Y1209108D01*
X1491868Y1211692D01*
X1490530Y1214008D01*
X1488638Y1215900D01*
X1486322Y1217238D01*
X1483738Y1217930D01*
D02*
G37*
G36*
X1458338D02*
X1455662D01*
X1453078Y1217238D01*
X1450762Y1215900D01*
X1448870Y1214008D01*
X1447532Y1211692D01*
X1446840Y1209108D01*
Y1206432D01*
X1447532Y1203848D01*
X1448870Y1201532D01*
X1450762Y1199640D01*
X1453078Y1198302D01*
X1455662Y1197610D01*
X1458338D01*
X1460922Y1198302D01*
X1463238Y1199640D01*
X1465130Y1201532D01*
X1466468Y1203848D01*
X1467160Y1206432D01*
Y1209108D01*
X1466468Y1211692D01*
X1465130Y1214008D01*
X1463238Y1215900D01*
X1460922Y1217238D01*
X1458338Y1217930D01*
D02*
G37*
G36*
X1432938D02*
X1430262D01*
X1427678Y1217238D01*
X1425362Y1215900D01*
X1423470Y1214008D01*
X1422132Y1211692D01*
X1421440Y1209108D01*
Y1206432D01*
X1422132Y1203848D01*
X1423470Y1201532D01*
X1425362Y1199640D01*
X1427678Y1198302D01*
X1430262Y1197610D01*
X1432938D01*
X1435522Y1198302D01*
X1437838Y1199640D01*
X1439730Y1201532D01*
X1441068Y1203848D01*
X1441760Y1206432D01*
Y1209108D01*
X1441068Y1211692D01*
X1439730Y1214008D01*
X1437838Y1215900D01*
X1435522Y1217238D01*
X1432938Y1217930D01*
D02*
G37*
G36*
X1407538D02*
X1404862D01*
X1402278Y1217238D01*
X1399962Y1215900D01*
X1398070Y1214008D01*
X1396732Y1211692D01*
X1396040Y1209108D01*
Y1206432D01*
X1396732Y1203848D01*
X1398070Y1201532D01*
X1399962Y1199640D01*
X1402278Y1198302D01*
X1404862Y1197610D01*
X1407538D01*
X1410122Y1198302D01*
X1412438Y1199640D01*
X1414330Y1201532D01*
X1415668Y1203848D01*
X1416360Y1206432D01*
Y1209108D01*
X1415668Y1211692D01*
X1414330Y1214008D01*
X1412438Y1215900D01*
X1410122Y1217238D01*
X1407538Y1217930D01*
D02*
G37*
G36*
X1431342Y1187330D02*
X1428698D01*
X1426145Y1186646D01*
X1423855Y1185324D01*
X1421986Y1183455D01*
X1420664Y1181165D01*
X1419980Y1178612D01*
Y1175968D01*
X1420664Y1173415D01*
X1421986Y1171125D01*
X1423855Y1169256D01*
X1426145Y1167934D01*
X1428698Y1167250D01*
X1431342D01*
X1433895Y1167934D01*
X1436185Y1169256D01*
X1438054Y1171125D01*
X1439376Y1173415D01*
X1440060Y1175968D01*
Y1178612D01*
X1439376Y1181165D01*
X1438054Y1183455D01*
X1436185Y1185324D01*
X1433895Y1186646D01*
X1431342Y1187330D01*
D02*
G37*
G36*
X1235070Y1163950D02*
X1213490D01*
Y1142370D01*
X1235070D01*
Y1163950D01*
D02*
G37*
G36*
X1442830Y1154030D02*
X1432450D01*
Y1129150D01*
X1442830D01*
Y1154030D01*
D02*
G37*
G36*
X1430130D02*
X1419750D01*
Y1129150D01*
X1430130D01*
Y1154030D01*
D02*
G37*
G36*
X1404730Y1060330D02*
X1394350D01*
Y1035450D01*
X1404730D01*
Y1060330D01*
D02*
G37*
G36*
X1392030D02*
X1381650D01*
Y1035450D01*
X1392030D01*
Y1060330D01*
D02*
G37*
%LPD*%
G36*
X975189Y1927103D02*
X979406Y1923867D01*
X985314Y1920457D01*
X991616Y1917846D01*
X998206Y1916080D01*
X1004969Y1915190D01*
X1011791D01*
X1018554Y1916080D01*
X1025144Y1917846D01*
X1031446Y1920457D01*
X1037354Y1923867D01*
X1040532Y1926306D01*
X1113769Y1925413D01*
X1114102Y1924139D01*
X1112632Y1923290D01*
X1110740Y1921398D01*
X1109402Y1919082D01*
X1109372Y1918970D01*
X1118870D01*
X1128367D01*
X1128338Y1919082D01*
X1127000Y1921398D01*
X1125108Y1923290D01*
X1123844Y1924020D01*
X1124191Y1925286D01*
X1188720Y1924499D01*
Y1884748D01*
Y1882072D01*
Y1756410D01*
X1271022D01*
X1271398Y1756335D01*
X1304848D01*
X1305016Y1755065D01*
X1304032Y1754802D01*
X1301628Y1753414D01*
X1299666Y1751452D01*
X1298278Y1749048D01*
X1298209Y1748790D01*
X1308100D01*
Y1741170D01*
X1298209D01*
X1298278Y1740912D01*
X1299666Y1738508D01*
X1301628Y1736546D01*
X1304032Y1735158D01*
X1305294Y1734820D01*
X1305127Y1733550D01*
X1252220D01*
X1214120Y1695450D01*
X1078230D01*
X967740Y1695450D01*
Y1695450D01*
X960120D01*
Y1751330D01*
Y1756410D01*
X967740D01*
Y1791763D01*
X968943Y1792171D01*
X969170Y1791874D01*
X973994Y1787050D01*
X979406Y1782897D01*
X985314Y1779487D01*
X991616Y1776876D01*
X998206Y1775110D01*
X1004570Y1774272D01*
Y1826260D01*
Y1878248D01*
X998206Y1877410D01*
X991616Y1875644D01*
X985314Y1873033D01*
X979406Y1869622D01*
X973994Y1865470D01*
X969170Y1860646D01*
X968943Y1860349D01*
X967740Y1860757D01*
Y1926290D01*
X968643Y1927183D01*
X975189Y1927103D01*
D02*
G37*
G36*
X1365250Y1732187D02*
X1365196Y1732106D01*
X1364773Y1729979D01*
Y1714060D01*
X1365196Y1711933D01*
X1365250Y1711852D01*
Y1704340D01*
X1296670D01*
Y1708139D01*
X1297560Y1709040D01*
X1304290D01*
Y1719580D01*
X1311910D01*
Y1709040D01*
X1318640D01*
Y1715695D01*
X1320582D01*
X1322069Y1715991D01*
X1323329Y1716833D01*
X1324817Y1718321D01*
X1325659Y1719581D01*
X1325955Y1721068D01*
Y1734820D01*
X1339479D01*
Y1725829D01*
X1344930D01*
X1350381D01*
Y1734820D01*
X1352952D01*
X1353461Y1733550D01*
X1352496Y1732106D01*
X1352073Y1729979D01*
Y1725829D01*
X1357630D01*
X1363187D01*
Y1729979D01*
X1362764Y1732106D01*
X1361799Y1733550D01*
X1362308Y1734820D01*
X1365250D01*
Y1732187D01*
D02*
G37*
G36*
X1570210Y1688582D02*
X1478745Y1688582D01*
X1478259Y1689755D01*
X1504199Y1715695D01*
X1512059D01*
X1512315Y1714740D01*
X1513965Y1711880D01*
X1516300Y1709545D01*
X1519160Y1707895D01*
X1520190Y1707619D01*
Y1719580D01*
Y1731541D01*
X1519160Y1731265D01*
X1516300Y1729615D01*
X1513965Y1727280D01*
X1512315Y1724420D01*
X1512059Y1723465D01*
X1502590D01*
X1501103Y1723169D01*
X1499843Y1722327D01*
X1481856Y1704340D01*
X1467913Y1690397D01*
X1467071Y1689137D01*
X1466961Y1688582D01*
X1431290Y1688582D01*
Y1704340D01*
X1367840D01*
Y1707757D01*
X1369110Y1708745D01*
X1370330Y1708502D01*
X1372457Y1708925D01*
X1374260Y1710130D01*
X1375464Y1711933D01*
X1375887Y1714060D01*
Y1718209D01*
X1370330D01*
Y1725829D01*
X1375887D01*
Y1729979D01*
X1375464Y1732106D01*
X1374260Y1733909D01*
X1372457Y1735113D01*
X1370330Y1735536D01*
X1369060Y1735284D01*
X1367790Y1736248D01*
Y1739227D01*
X1431290D01*
X1431290Y1893032D01*
X1570210D01*
Y1688582D01*
D02*
G37*
%LPC*%
G36*
X1128367Y1911350D02*
X1122680D01*
Y1905663D01*
X1122792Y1905692D01*
X1125108Y1907030D01*
X1127000Y1908922D01*
X1128338Y1911238D01*
X1128367Y1911350D01*
D02*
G37*
G36*
X1115060D02*
X1109372D01*
X1109402Y1911238D01*
X1110740Y1908922D01*
X1112632Y1907030D01*
X1114948Y1905692D01*
X1115060Y1905663D01*
Y1911350D01*
D02*
G37*
G36*
X1148148Y1915160D02*
X1145472D01*
X1142888Y1914468D01*
X1140572Y1913130D01*
X1138680Y1911238D01*
X1137342Y1908922D01*
X1136650Y1906338D01*
Y1903662D01*
X1137342Y1901078D01*
X1138680Y1898762D01*
X1140572Y1896870D01*
X1142888Y1895532D01*
X1145472Y1894840D01*
X1148148D01*
X1150732Y1895532D01*
X1153048Y1896870D01*
X1154940Y1898762D01*
X1156278Y1901078D01*
X1156970Y1903662D01*
Y1906338D01*
X1156278Y1908922D01*
X1154940Y1911238D01*
X1153048Y1913130D01*
X1150732Y1914468D01*
X1148148Y1915160D01*
D02*
G37*
G36*
X1156970Y1886396D02*
Y1882140D01*
X1161226D01*
X1160274Y1883789D01*
X1158619Y1885444D01*
X1156970Y1886396D01*
D02*
G37*
G36*
X1149350D02*
X1147701Y1885444D01*
X1146046Y1883789D01*
X1145094Y1882140D01*
X1149350D01*
Y1886396D01*
D02*
G37*
G36*
X1161226Y1874520D02*
X1156970D01*
Y1870264D01*
X1158619Y1871216D01*
X1160274Y1872871D01*
X1161226Y1874520D01*
D02*
G37*
G36*
X1149350D02*
X1145094D01*
X1146046Y1872871D01*
X1147701Y1871216D01*
X1149350Y1870264D01*
Y1874520D01*
D02*
G37*
G36*
X1141730Y1873696D02*
Y1869440D01*
X1145986D01*
X1145034Y1871089D01*
X1143379Y1872744D01*
X1141730Y1873696D01*
D02*
G37*
G36*
X1134110D02*
X1132461Y1872744D01*
X1130806Y1871089D01*
X1129854Y1869440D01*
X1134110D01*
Y1873696D01*
D02*
G37*
G36*
X1103630Y1869886D02*
Y1865630D01*
X1107886D01*
X1106934Y1867279D01*
X1105279Y1868934D01*
X1103630Y1869886D01*
D02*
G37*
G36*
X1096010D02*
X1094361Y1868934D01*
X1092706Y1867279D01*
X1091754Y1865630D01*
X1096010D01*
Y1869886D01*
D02*
G37*
G36*
X1145986Y1861820D02*
X1141730D01*
Y1857564D01*
X1143379Y1858516D01*
X1145034Y1860171D01*
X1145986Y1861820D01*
D02*
G37*
G36*
X1134110D02*
X1129854D01*
X1130806Y1860171D01*
X1132461Y1858516D01*
X1134110Y1857564D01*
Y1861820D01*
D02*
G37*
G36*
X1107886Y1858010D02*
X1103630D01*
Y1853754D01*
X1105279Y1854706D01*
X1106934Y1856361D01*
X1107886Y1858010D01*
D02*
G37*
G36*
X1096010D02*
X1091754D01*
X1092706Y1856361D01*
X1094361Y1854706D01*
X1096010Y1853754D01*
Y1858010D01*
D02*
G37*
G36*
X1139190Y1850836D02*
Y1846580D01*
X1143446D01*
X1142494Y1848229D01*
X1140839Y1849884D01*
X1139190Y1850836D01*
D02*
G37*
G36*
X1131570D02*
X1129921Y1849884D01*
X1128266Y1848229D01*
X1127314Y1846580D01*
X1131570D01*
Y1850836D01*
D02*
G37*
G36*
X1143446Y1838960D02*
X1139190D01*
Y1834704D01*
X1140839Y1835656D01*
X1142494Y1837311D01*
X1143446Y1838960D01*
D02*
G37*
G36*
X1131570D02*
X1127314D01*
X1128266Y1837311D01*
X1129921Y1835656D01*
X1131570Y1834704D01*
Y1838960D01*
D02*
G37*
G36*
X1085918Y1854200D02*
X1083242D01*
X1080658Y1853508D01*
X1078342Y1852170D01*
X1076450Y1850278D01*
X1075112Y1847962D01*
X1074420Y1845378D01*
Y1842702D01*
X1075112Y1840118D01*
X1076450Y1837802D01*
X1078342Y1835910D01*
X1080658Y1834572D01*
X1083242Y1833880D01*
X1085918D01*
X1088502Y1834572D01*
X1090818Y1835910D01*
X1092710Y1837802D01*
X1094048Y1840118D01*
X1094740Y1842702D01*
Y1845378D01*
X1094048Y1847962D01*
X1092710Y1850278D01*
X1090818Y1852170D01*
X1088502Y1853508D01*
X1085918Y1854200D01*
D02*
G37*
G36*
X1012190Y1878248D02*
Y1830070D01*
X1060367D01*
X1059530Y1836434D01*
X1057764Y1843024D01*
X1055153Y1849326D01*
X1051742Y1855234D01*
X1047590Y1860646D01*
X1042766Y1865470D01*
X1037354Y1869622D01*
X1031446Y1873033D01*
X1025144Y1875644D01*
X1018554Y1877410D01*
X1012190Y1878248D01*
D02*
G37*
G36*
X1060367Y1822450D02*
X1012190D01*
Y1774272D01*
X1018554Y1775110D01*
X1025144Y1776876D01*
X1031446Y1779487D01*
X1037354Y1782897D01*
X1042766Y1787050D01*
X1047590Y1791874D01*
X1051742Y1797286D01*
X1055153Y1803194D01*
X1057764Y1809496D01*
X1059530Y1816086D01*
X1060367Y1822450D01*
D02*
G37*
G36*
X1242060Y1753208D02*
Y1747520D01*
X1247747D01*
X1247718Y1747632D01*
X1246380Y1749948D01*
X1244488Y1751840D01*
X1242172Y1753178D01*
X1242060Y1753208D01*
D02*
G37*
G36*
X1234440D02*
X1234328Y1753178D01*
X1232012Y1751840D01*
X1230120Y1749948D01*
X1228782Y1747632D01*
X1228753Y1747520D01*
X1234440D01*
Y1753208D01*
D02*
G37*
G36*
X1247747Y1739900D02*
X1242060D01*
Y1734212D01*
X1242172Y1734242D01*
X1244488Y1735580D01*
X1246380Y1737472D01*
X1247718Y1739788D01*
X1247747Y1739900D01*
D02*
G37*
G36*
X1234440D02*
X1228753D01*
X1228782Y1739788D01*
X1230120Y1737472D01*
X1232012Y1735580D01*
X1234328Y1734242D01*
X1234440Y1734212D01*
Y1739900D01*
D02*
G37*
G36*
X989330Y1731541D02*
Y1723390D01*
X997482D01*
X997205Y1724420D01*
X995555Y1727280D01*
X993220Y1729615D01*
X990360Y1731265D01*
X989330Y1731541D01*
D02*
G37*
G36*
X981710D02*
X980680Y1731265D01*
X977820Y1729615D01*
X975486Y1727280D01*
X973835Y1724420D01*
X973559Y1723390D01*
X981710D01*
Y1731541D01*
D02*
G37*
G36*
X997482Y1715770D02*
X989330D01*
Y1707619D01*
X990360Y1707895D01*
X993220Y1709545D01*
X995555Y1711880D01*
X997205Y1714740D01*
X997482Y1715770D01*
D02*
G37*
G36*
X981710D02*
X973559D01*
X973835Y1714740D01*
X975486Y1711880D01*
X977820Y1709545D01*
X980680Y1707895D01*
X981710Y1707619D01*
Y1715770D01*
D02*
G37*
G36*
X1363187Y1718209D02*
X1361440D01*
Y1710050D01*
X1361560Y1710130D01*
X1362764Y1711933D01*
X1363187Y1714060D01*
Y1718209D01*
D02*
G37*
G36*
X1353820D02*
X1352073D01*
Y1714060D01*
X1352496Y1711933D01*
X1353700Y1710130D01*
X1353820Y1710050D01*
Y1718209D01*
D02*
G37*
G36*
X1350381D02*
X1348740D01*
Y1708609D01*
X1350381D01*
Y1718209D01*
D02*
G37*
G36*
X1341120D02*
X1339479D01*
Y1708609D01*
X1341120D01*
Y1718209D01*
D02*
G37*
G36*
X1506220Y1878248D02*
Y1830070D01*
X1554397D01*
X1553560Y1836434D01*
X1551794Y1843024D01*
X1549183Y1849326D01*
X1545773Y1855234D01*
X1541620Y1860646D01*
X1536796Y1865470D01*
X1531384Y1869622D01*
X1525476Y1873033D01*
X1519174Y1875644D01*
X1512584Y1877410D01*
X1506220Y1878248D01*
D02*
G37*
G36*
X1498600D02*
X1492236Y1877410D01*
X1485646Y1875644D01*
X1479344Y1873033D01*
X1473436Y1869622D01*
X1468024Y1865470D01*
X1463200Y1860646D01*
X1459048Y1855234D01*
X1455637Y1849326D01*
X1453026Y1843024D01*
X1451260Y1836434D01*
X1450423Y1830070D01*
X1498600D01*
Y1878248D01*
D02*
G37*
G36*
X1554397Y1822450D02*
X1506220D01*
Y1774272D01*
X1512584Y1775110D01*
X1519174Y1776876D01*
X1525476Y1779487D01*
X1531384Y1782897D01*
X1536796Y1787050D01*
X1541620Y1791874D01*
X1545773Y1797286D01*
X1549183Y1803194D01*
X1551794Y1809496D01*
X1553560Y1816086D01*
X1554397Y1822450D01*
D02*
G37*
G36*
X1498600D02*
X1450423D01*
X1451260Y1816086D01*
X1453026Y1809496D01*
X1455637Y1803194D01*
X1459048Y1797286D01*
X1463200Y1791874D01*
X1468024Y1787050D01*
X1473436Y1782897D01*
X1479344Y1779487D01*
X1485646Y1776876D01*
X1492236Y1775110D01*
X1498600Y1774272D01*
Y1822450D01*
D02*
G37*
G36*
X1386840Y1733989D02*
Y1725829D01*
X1388587D01*
Y1729979D01*
X1388164Y1732106D01*
X1386960Y1733909D01*
X1386840Y1733989D01*
D02*
G37*
G36*
X1379220Y1733989D02*
X1379100Y1733909D01*
X1377896Y1732106D01*
X1377473Y1729979D01*
Y1725829D01*
X1379220D01*
Y1733989D01*
D02*
G37*
G36*
X1527810Y1731541D02*
Y1723390D01*
X1535961D01*
X1535685Y1724420D01*
X1534034Y1727280D01*
X1531700Y1729615D01*
X1528840Y1731265D01*
X1527810Y1731541D01*
D02*
G37*
G36*
X1388587Y1718209D02*
X1386840D01*
Y1710050D01*
X1386960Y1710130D01*
X1388164Y1711933D01*
X1388587Y1714060D01*
Y1718209D01*
D02*
G37*
G36*
X1379220D02*
X1377473D01*
Y1714060D01*
X1377896Y1711933D01*
X1379100Y1710130D01*
X1379220Y1710050D01*
Y1718209D01*
D02*
G37*
G36*
X1535961Y1715770D02*
X1527810D01*
Y1707619D01*
X1528840Y1707895D01*
X1531700Y1709545D01*
X1534034Y1711880D01*
X1535685Y1714740D01*
X1535961Y1715770D01*
D02*
G37*
%LPD*%
G36*
X1280533Y1554964D02*
X1279990Y1553815D01*
X1273513Y1554447D01*
X1239616Y1579870D01*
X1240017Y1581075D01*
X1254421D01*
X1280533Y1554964D01*
D02*
G37*
G36*
X1571480Y1395212D02*
X1461064Y1395212D01*
X1459130Y1395730D01*
X1456790D01*
X1454856Y1395212D01*
X1438910D01*
Y1489710D01*
X1435100Y1485900D01*
X1422400D01*
Y1485968D01*
X1421708Y1488552D01*
X1420370Y1490868D01*
X1418478Y1492760D01*
X1416162Y1494098D01*
X1416050Y1494128D01*
Y1484630D01*
X1408430D01*
Y1494128D01*
X1408318Y1494098D01*
X1406002Y1492760D01*
X1404110Y1490868D01*
X1402772Y1488552D01*
X1402080Y1485968D01*
Y1485900D01*
X1370380D01*
Y1490356D01*
X1371650Y1491344D01*
X1372870Y1491102D01*
X1374997Y1491525D01*
X1376800Y1492729D01*
X1378004Y1494532D01*
X1378427Y1496659D01*
Y1500809D01*
X1372870D01*
Y1508429D01*
X1378427D01*
Y1512578D01*
X1378004Y1514705D01*
X1376800Y1516508D01*
X1374997Y1517713D01*
X1373981Y1517915D01*
X1373828Y1519240D01*
X1386930Y1525195D01*
X1422497D01*
X1422507Y1525158D01*
X1423844Y1522842D01*
X1425736Y1520950D01*
X1428053Y1519612D01*
X1430637Y1518920D01*
X1433312D01*
X1435896Y1519612D01*
X1438213Y1520950D01*
X1438910Y1521647D01*
X1440105Y1522842D01*
X1441442Y1525158D01*
X1442135Y1527742D01*
Y1530418D01*
X1441442Y1533002D01*
X1440105Y1535318D01*
X1438910Y1536513D01*
X1438213Y1537210D01*
X1435896Y1538548D01*
X1433312Y1539240D01*
X1430637D01*
X1428053Y1538548D01*
X1425736Y1537210D01*
X1423844Y1535318D01*
X1422507Y1533002D01*
X1422497Y1532965D01*
X1407022D01*
X1406753Y1534206D01*
X1438910Y1548823D01*
Y1599662D01*
X1571480D01*
Y1395212D01*
D02*
G37*
G36*
X1064260Y1586130D02*
Y1583790D01*
X1064866Y1581529D01*
X1066036Y1579501D01*
X1067691Y1577846D01*
X1069719Y1576676D01*
X1071461Y1576209D01*
D01*
X1071980Y1576070D01*
X1074320D01*
X1076581Y1576676D01*
X1078609Y1577846D01*
X1080264Y1579501D01*
X1081434Y1581529D01*
X1082040Y1583790D01*
X1082123Y1583872D01*
X1101144Y1583702D01*
X1101190Y1583690D01*
X1102503D01*
X1163450Y1583146D01*
X1164383Y1582213D01*
X1165643Y1581371D01*
X1167130Y1581075D01*
X1233693D01*
X1272540Y1551940D01*
X1284747Y1550749D01*
X1292653Y1542843D01*
X1293913Y1542001D01*
X1295400Y1541705D01*
X1304488D01*
X1304829Y1540435D01*
X1304168Y1540054D01*
X1302206Y1538092D01*
X1300818Y1535688D01*
X1300749Y1535430D01*
X1310640D01*
Y1531620D01*
X1314450D01*
Y1521729D01*
X1314708Y1521798D01*
X1317112Y1523186D01*
X1318185Y1524259D01*
X1319455Y1523734D01*
Y1516760D01*
X1303891D01*
X1302690Y1516776D01*
X1302590Y1517264D01*
X1302493Y1517751D01*
X1302488Y1517758D01*
X1302486Y1517766D01*
X1302208Y1518177D01*
X1301931Y1518591D01*
X1301924Y1518596D01*
X1301920Y1518603D01*
X1301018Y1519493D01*
X1300604Y1519766D01*
X1300190Y1520043D01*
X1300182Y1520044D01*
X1300175Y1520049D01*
X1299687Y1520143D01*
X1299199Y1520240D01*
X1288688D01*
X1288674Y1520237D01*
X1288660Y1520240D01*
X1288179Y1520139D01*
X1287697Y1520043D01*
X1287685Y1520035D01*
X1287671Y1520032D01*
X1287265Y1519754D01*
X1286857Y1519481D01*
X1286849Y1519469D01*
X1286837Y1519462D01*
X1285949Y1518554D01*
X1285941Y1518542D01*
X1285929Y1518534D01*
X1285665Y1518119D01*
X1285396Y1517708D01*
X1285394Y1517694D01*
X1285386Y1517682D01*
X1285300Y1517197D01*
X1285210Y1516715D01*
X1285213Y1516701D01*
X1285210Y1516687D01*
X1285540Y1501288D01*
X1280294Y1500150D01*
X1253627Y1526817D01*
X1253793Y1528076D01*
X1254648Y1528570D01*
X1256540Y1530462D01*
X1257878Y1532778D01*
X1258570Y1535362D01*
Y1538038D01*
X1257878Y1540622D01*
X1256540Y1542938D01*
X1254648Y1544830D01*
X1252332Y1546168D01*
X1249748Y1546860D01*
X1247072D01*
X1244488Y1546168D01*
X1242172Y1544830D01*
X1240280Y1542938D01*
X1238942Y1540622D01*
X1238250Y1538038D01*
Y1535362D01*
X1238942Y1532778D01*
X1240280Y1530462D01*
X1242172Y1528570D01*
X1244488Y1527232D01*
X1244525Y1527222D01*
Y1526540D01*
X1244821Y1525053D01*
X1245663Y1523793D01*
X1270328Y1499128D01*
X1269970Y1497910D01*
X1253166Y1494264D01*
X1252417Y1495290D01*
X1252798Y1495948D01*
X1252828Y1496060D01*
X1243330D01*
X1233832D01*
X1233862Y1495948D01*
X1235200Y1493632D01*
X1236816Y1492016D01*
X1236606Y1490671D01*
X1220470Y1487170D01*
X1179418Y1515444D01*
X1179138Y1516492D01*
X1177800Y1518808D01*
X1175908Y1520700D01*
X1173592Y1522038D01*
X1171008Y1522730D01*
X1168839D01*
X1143024Y1540510D01*
X1071461D01*
Y1386097D01*
X1070191Y1385930D01*
X1069918Y1386952D01*
X1068580Y1389268D01*
X1066688Y1391160D01*
X1064372Y1392498D01*
X1064260Y1392527D01*
Y1383030D01*
Y1373533D01*
X1064372Y1373562D01*
X1066688Y1374900D01*
X1068580Y1376792D01*
X1069918Y1379108D01*
X1070191Y1380130D01*
X1071461Y1379963D01*
Y1371600D01*
X988060Y1371600D01*
Y1244668D01*
Y1241992D01*
Y1202690D01*
X1046480D01*
Y1123950D01*
X952500D01*
Y1371600D01*
Y1586230D01*
X1064184D01*
X1064260Y1586130D01*
D02*
G37*
G36*
X1367790Y1514787D02*
X1367736Y1514705D01*
X1367313Y1512578D01*
Y1496659D01*
X1367736Y1494532D01*
X1367790Y1494451D01*
Y1485900D01*
X1294475D01*
X1294337Y1486107D01*
X1288327Y1492116D01*
X1287800Y1516742D01*
X1288688Y1517650D01*
X1299199D01*
X1300100Y1516760D01*
Y1510030D01*
X1310640D01*
Y1506220D01*
X1314450D01*
Y1495680D01*
X1321180D01*
Y1502335D01*
X1321852D01*
X1323339Y1502631D01*
X1324599Y1503473D01*
X1326087Y1504961D01*
X1326929Y1506221D01*
X1327225Y1507708D01*
Y1517650D01*
X1342019D01*
Y1508429D01*
X1347470D01*
X1352921D01*
Y1517650D01*
X1355837D01*
X1356155Y1516380D01*
X1355036Y1514705D01*
X1354613Y1512578D01*
Y1508429D01*
X1360170D01*
X1365727D01*
Y1512578D01*
X1365304Y1514705D01*
X1364185Y1516380D01*
X1364503Y1517650D01*
X1367790D01*
Y1514787D01*
D02*
G37*
G36*
X1142218Y1537920D02*
X1164513Y1522565D01*
X1164463Y1521295D01*
X1163432Y1520700D01*
X1161540Y1518808D01*
X1160202Y1516492D01*
X1159510Y1513908D01*
Y1511232D01*
X1160202Y1508648D01*
X1161540Y1506332D01*
X1163432Y1504440D01*
X1165748Y1503102D01*
X1168332Y1502410D01*
X1171008D01*
X1173592Y1503102D01*
X1175908Y1504440D01*
X1177800Y1506332D01*
X1179138Y1508648D01*
X1179658Y1510592D01*
X1181018Y1511197D01*
X1219001Y1485037D01*
X1219039Y1485021D01*
X1219069Y1484992D01*
X1219502Y1484821D01*
X1219929Y1484637D01*
X1219970Y1484637D01*
X1220009Y1484622D01*
X1220474Y1484630D01*
X1220939Y1484623D01*
X1220978Y1484638D01*
X1221019Y1484639D01*
X1237155Y1488140D01*
X1237185Y1488153D01*
X1237217Y1488154D01*
X1237648Y1488354D01*
X1238082Y1488543D01*
X1238105Y1488566D01*
X1238134Y1488580D01*
X1238455Y1488929D01*
X1238784Y1489270D01*
X1238796Y1489300D01*
X1238818Y1489324D01*
X1239298Y1490202D01*
X1240280Y1490146D01*
X1240428Y1490129D01*
X1241992Y1489710D01*
X1244668D01*
X1247252Y1490402D01*
X1249568Y1491740D01*
X1250602Y1492774D01*
X1251074Y1492737D01*
X1251423Y1492416D01*
X1251765Y1492086D01*
X1251794Y1492074D01*
X1251817Y1492053D01*
X1252263Y1491889D01*
X1252705Y1491716D01*
X1252737Y1491716D01*
X1252766Y1491705D01*
X1253240Y1491725D01*
X1253715Y1491733D01*
X1270519Y1495379D01*
X1270858Y1495526D01*
X1271210Y1495636D01*
X1271318Y1495726D01*
X1271446Y1495782D01*
X1271658Y1496002D01*
X1272008Y1496283D01*
X1272871Y1496254D01*
X1272946Y1496240D01*
X1273353Y1496103D01*
X1287705Y1481751D01*
Y1399420D01*
X1275614D01*
X1271477Y1403557D01*
X1270217Y1404399D01*
X1268730Y1404695D01*
X1197610D01*
X1196123Y1404399D01*
X1194863Y1403557D01*
X1188513Y1397207D01*
X1187756Y1396073D01*
X1187412Y1395916D01*
X1186346Y1395793D01*
X1184725Y1397414D01*
X1182435Y1398736D01*
X1179882Y1399420D01*
X1177238D01*
X1174685Y1398736D01*
X1172395Y1397414D01*
X1170526Y1395545D01*
X1169204Y1393255D01*
X1168520Y1390702D01*
Y1388058D01*
X1169204Y1385505D01*
X1170526Y1383215D01*
X1172395Y1381346D01*
X1174685Y1380024D01*
X1177238Y1379340D01*
X1179882D01*
X1182435Y1380024D01*
X1184725Y1381346D01*
X1186105Y1382727D01*
X1187375Y1382201D01*
Y1375439D01*
X1181555Y1369619D01*
X1181522Y1369638D01*
X1178938Y1370330D01*
X1176262D01*
X1173678Y1369638D01*
X1171362Y1368300D01*
X1169470Y1366408D01*
X1168132Y1364092D01*
X1167440Y1361508D01*
Y1358832D01*
X1168132Y1356248D01*
X1169470Y1353932D01*
X1171362Y1352040D01*
X1173678Y1350702D01*
X1176262Y1350010D01*
X1178938D01*
X1181522Y1350702D01*
X1183838Y1352040D01*
X1185730Y1353932D01*
X1187068Y1356248D01*
X1187760Y1358832D01*
Y1361508D01*
X1187068Y1364092D01*
X1187048Y1364125D01*
X1194007Y1371083D01*
X1194849Y1372343D01*
X1195145Y1373830D01*
Y1382201D01*
X1196415Y1382727D01*
X1197795Y1381346D01*
X1199595Y1380307D01*
Y1369776D01*
X1199078Y1369638D01*
X1196762Y1368300D01*
X1194870Y1366408D01*
X1193532Y1364092D01*
X1192840Y1361508D01*
Y1358832D01*
X1193532Y1356248D01*
X1194870Y1353932D01*
X1196762Y1352040D01*
X1199078Y1350702D01*
X1201662Y1350010D01*
X1204338D01*
X1206922Y1350702D01*
X1209238Y1352040D01*
X1211130Y1353932D01*
X1212468Y1356248D01*
X1213160Y1358832D01*
Y1361508D01*
X1212468Y1364092D01*
X1211130Y1366408D01*
X1209238Y1368300D01*
X1207365Y1369382D01*
Y1379898D01*
X1207835Y1380024D01*
X1210125Y1381346D01*
X1211994Y1383215D01*
X1213316Y1385505D01*
X1214000Y1388058D01*
Y1390702D01*
X1213316Y1393255D01*
X1211994Y1395545D01*
X1211787Y1395752D01*
X1212273Y1396925D01*
X1221047D01*
X1221533Y1395752D01*
X1221326Y1395545D01*
X1220004Y1393255D01*
X1219320Y1390702D01*
Y1388058D01*
X1220004Y1385505D01*
X1221326Y1383215D01*
X1223195Y1381346D01*
X1224995Y1380307D01*
Y1369776D01*
X1224478Y1369638D01*
X1222162Y1368300D01*
X1220270Y1366408D01*
X1218932Y1364092D01*
X1218240Y1361508D01*
Y1358832D01*
X1218932Y1356248D01*
X1220270Y1353932D01*
X1222162Y1352040D01*
X1224478Y1350702D01*
X1227062Y1350010D01*
X1229738D01*
X1232322Y1350702D01*
X1234638Y1352040D01*
X1236530Y1353932D01*
X1237868Y1356248D01*
X1238560Y1358832D01*
Y1361508D01*
X1237868Y1364092D01*
X1236530Y1366408D01*
X1234638Y1368300D01*
X1232765Y1369382D01*
Y1379898D01*
X1233235Y1380024D01*
X1235525Y1381346D01*
X1237394Y1383215D01*
X1238716Y1385505D01*
X1239400Y1388058D01*
Y1390702D01*
X1238716Y1393255D01*
X1237394Y1395545D01*
X1237187Y1395752D01*
X1237673Y1396925D01*
X1246447D01*
X1246933Y1395752D01*
X1246726Y1395545D01*
X1245404Y1393255D01*
X1244720Y1390702D01*
Y1388058D01*
X1245404Y1385505D01*
X1246726Y1383215D01*
X1248595Y1381346D01*
X1250885Y1380024D01*
X1253438Y1379340D01*
X1256082D01*
X1258519Y1379993D01*
X1263575Y1374936D01*
Y1366099D01*
X1262305Y1365758D01*
X1261930Y1366408D01*
X1260038Y1368300D01*
X1257722Y1369638D01*
X1255138Y1370330D01*
X1252462D01*
X1249878Y1369638D01*
X1247562Y1368300D01*
X1245670Y1366408D01*
X1244332Y1364092D01*
X1243640Y1361508D01*
Y1358832D01*
X1244332Y1356248D01*
X1244352Y1356215D01*
X1235681Y1347545D01*
X1149689D01*
X1148579Y1348655D01*
X1149236Y1349794D01*
X1150779Y1349380D01*
X1153621D01*
X1156365Y1350115D01*
X1158825Y1351536D01*
X1160834Y1353545D01*
X1162255Y1356005D01*
X1162990Y1358750D01*
Y1361591D01*
X1162255Y1364335D01*
X1160834Y1366795D01*
X1158825Y1368804D01*
X1156365Y1370225D01*
X1153621Y1370960D01*
X1150779D01*
X1148035Y1370225D01*
X1145575Y1368804D01*
X1143566Y1366795D01*
X1142145Y1364335D01*
X1141410Y1361591D01*
Y1358750D01*
X1141824Y1357206D01*
X1140685Y1356549D01*
X1105314Y1391920D01*
X1105840Y1393190D01*
X1107508D01*
X1110092Y1393882D01*
X1112408Y1395220D01*
X1114300Y1397112D01*
X1115638Y1399428D01*
X1116330Y1402012D01*
Y1404688D01*
X1115638Y1407272D01*
X1114300Y1409588D01*
X1112408Y1411480D01*
X1110092Y1412818D01*
X1107508Y1413510D01*
X1104832D01*
X1102248Y1412818D01*
X1099932Y1411480D01*
X1098040Y1409588D01*
X1096702Y1407272D01*
X1096010Y1404688D01*
Y1403020D01*
X1094740Y1402494D01*
X1085925Y1411309D01*
Y1416730D01*
X1087499Y1417639D01*
X1089154Y1419294D01*
X1090324Y1421321D01*
X1090930Y1423582D01*
Y1425923D01*
X1090324Y1428184D01*
X1089154Y1430211D01*
X1087499Y1431866D01*
X1085471Y1433036D01*
X1083210Y1433642D01*
X1080870D01*
X1078609Y1433036D01*
X1076581Y1431866D01*
X1075321Y1430606D01*
X1074051Y1431132D01*
Y1537920D01*
X1142218Y1537920D01*
D02*
G37*
G36*
X1287705Y1367829D02*
X1286435Y1367303D01*
X1285438Y1368300D01*
X1283122Y1369638D01*
X1280538Y1370330D01*
X1277862D01*
X1275278Y1369638D01*
X1272962Y1368300D01*
X1272518Y1367856D01*
X1271345Y1368342D01*
Y1376545D01*
X1271049Y1378032D01*
X1271023Y1378070D01*
X1271702Y1379340D01*
X1287705D01*
Y1367829D01*
D02*
G37*
G36*
Y1352511D02*
Y1348740D01*
X1288001Y1347253D01*
X1288843Y1345993D01*
X1300715Y1334121D01*
Y1217248D01*
X1300678Y1217238D01*
X1298362Y1215900D01*
X1296470Y1214008D01*
X1295132Y1211692D01*
X1294440Y1209108D01*
Y1206432D01*
X1295089Y1204010D01*
X1294720Y1203117D01*
X1294503Y1202740D01*
X1289297D01*
X1289080Y1203117D01*
X1288711Y1204010D01*
X1289360Y1206432D01*
Y1209108D01*
X1288668Y1211692D01*
X1287330Y1214008D01*
X1285438Y1215900D01*
X1283122Y1217238D01*
X1280538Y1217930D01*
X1277862D01*
X1275278Y1217238D01*
X1272962Y1215900D01*
X1271070Y1214008D01*
X1269732Y1211692D01*
X1269040Y1209108D01*
Y1206432D01*
X1269689Y1204010D01*
X1269320Y1203117D01*
X1269102Y1202740D01*
X1263897D01*
X1263680Y1203117D01*
X1263311Y1204010D01*
X1263960Y1206432D01*
Y1209108D01*
X1263268Y1211692D01*
X1261930Y1214008D01*
X1260038Y1215900D01*
X1257722Y1217238D01*
X1255138Y1217930D01*
X1252462D01*
X1249878Y1217238D01*
X1247562Y1215900D01*
X1245670Y1214008D01*
X1244332Y1211692D01*
X1243640Y1209108D01*
Y1206432D01*
X1244289Y1204010D01*
X1243920Y1203117D01*
X1243702Y1202740D01*
X1238497D01*
X1238280Y1203117D01*
X1237911Y1204010D01*
X1238560Y1206432D01*
Y1209108D01*
X1237868Y1211692D01*
X1236530Y1214008D01*
X1234638Y1215900D01*
X1232322Y1217238D01*
X1229738Y1217930D01*
X1227062D01*
X1224478Y1217238D01*
X1222162Y1215900D01*
X1220270Y1214008D01*
X1218932Y1211692D01*
X1218240Y1209108D01*
Y1206432D01*
X1218889Y1204010D01*
X1218520Y1203117D01*
X1218303Y1202740D01*
X1213098D01*
X1212880Y1203117D01*
X1212511Y1204010D01*
X1213160Y1206432D01*
Y1209108D01*
X1212468Y1211692D01*
X1211130Y1214008D01*
X1209238Y1215900D01*
X1206922Y1217238D01*
X1204338Y1217930D01*
X1201662D01*
X1199078Y1217238D01*
X1196762Y1215900D01*
X1194870Y1214008D01*
X1193532Y1211692D01*
X1192840Y1209108D01*
Y1206432D01*
X1193489Y1204010D01*
X1193120Y1203117D01*
X1192903Y1202740D01*
X1187760D01*
Y1212436D01*
X1270207Y1294883D01*
X1271049Y1296143D01*
X1271345Y1297630D01*
Y1351998D01*
X1272518Y1352484D01*
X1272962Y1352040D01*
X1275278Y1350702D01*
X1277862Y1350010D01*
X1280538D01*
X1283122Y1350702D01*
X1285438Y1352040D01*
X1286435Y1353037D01*
X1287705Y1352511D01*
D02*
G37*
G36*
X1115010Y1290945D02*
X1113740Y1290820D01*
X1113643Y1291311D01*
X1113081Y1292151D01*
X1112241Y1292713D01*
X1111250Y1292910D01*
X1078411D01*
X1078038Y1294180D01*
X1079504Y1295646D01*
X1080727Y1297764D01*
X1081360Y1300127D01*
Y1302573D01*
X1080816Y1304603D01*
X1091324Y1315110D01*
X1099250D01*
Y1316265D01*
X1100860D01*
Y1315760D01*
X1108940D01*
Y1318210D01*
X1115010D01*
Y1290945D01*
D02*
G37*
G36*
X993252Y1339340D02*
X995568Y1338002D01*
X998152Y1337310D01*
X1000828D01*
X1003412Y1338002D01*
X1003445Y1338022D01*
X1017463Y1324003D01*
X1018723Y1323161D01*
X1020210Y1322865D01*
X1063586D01*
X1064636Y1321046D01*
X1066366Y1319316D01*
X1068484Y1318093D01*
X1070847Y1317460D01*
X1073293D01*
X1075656Y1318093D01*
X1077774Y1319316D01*
X1078997Y1318969D01*
X1079139Y1318874D01*
X1079252Y1318745D01*
X1079556Y1318596D01*
X1079837Y1318407D01*
X1080005Y1318374D01*
X1080158Y1318298D01*
X1080496Y1318276D01*
X1080828Y1318210D01*
X1081777D01*
X1082263Y1317037D01*
X1075322Y1310096D01*
X1073293Y1310640D01*
X1070847D01*
X1068484Y1310007D01*
X1066366Y1308784D01*
X1064636Y1307054D01*
X1063413Y1304936D01*
X1062780Y1302573D01*
Y1300127D01*
X1063413Y1297764D01*
X1064636Y1295646D01*
X1066102Y1294180D01*
X1065729Y1292910D01*
X1050290D01*
X1049299Y1292713D01*
X1048459Y1292151D01*
X1047897Y1291311D01*
X1047700Y1290320D01*
Y1206332D01*
X1046480Y1205280D01*
X990650D01*
Y1234873D01*
X991823Y1235359D01*
X991982Y1235200D01*
X994298Y1233862D01*
X996882Y1233170D01*
X999558D01*
X1002142Y1233862D01*
X1004458Y1235200D01*
X1006350Y1237092D01*
X1007688Y1239408D01*
X1008380Y1241992D01*
Y1244668D01*
X1007688Y1247252D01*
X1006350Y1249568D01*
X1004458Y1251460D01*
X1002142Y1252798D01*
X999558Y1253490D01*
X996882D01*
X994298Y1252798D01*
X991982Y1251460D01*
X991823Y1251301D01*
X990650Y1251787D01*
Y1340146D01*
X991920Y1340672D01*
X993252Y1339340D01*
D02*
G37*
G36*
X1076581Y1417639D02*
X1078155Y1416730D01*
Y1409700D01*
X1078451Y1408213D01*
X1079293Y1406953D01*
X1145333Y1340913D01*
X1146593Y1340071D01*
X1148080Y1339775D01*
X1237290D01*
X1238777Y1340071D01*
X1240037Y1340913D01*
X1249845Y1350722D01*
X1249878Y1350702D01*
X1252462Y1350010D01*
X1255138D01*
X1257722Y1350702D01*
X1260038Y1352040D01*
X1261930Y1353932D01*
X1262305Y1354582D01*
X1263575Y1354241D01*
Y1299239D01*
X1182266Y1217930D01*
X1169720D01*
Y1334770D01*
X1169523Y1335761D01*
X1168961Y1336601D01*
X1168121Y1337163D01*
X1167130Y1337360D01*
X1078984D01*
X1077993Y1337163D01*
X1077153Y1336601D01*
X1076591Y1335761D01*
X1076574Y1335719D01*
X1075656Y1335407D01*
X1073293Y1336040D01*
X1070847D01*
X1068484Y1335407D01*
X1066366Y1334184D01*
X1064636Y1332454D01*
X1063586Y1330635D01*
X1021819D01*
X1008939Y1343515D01*
X1008958Y1343548D01*
X1009650Y1346132D01*
Y1348808D01*
X1008958Y1351392D01*
X1007620Y1353708D01*
X1005728Y1355600D01*
X1003412Y1356938D01*
X1000828Y1357630D01*
X998152D01*
X995568Y1356938D01*
X993252Y1355600D01*
X991920Y1354268D01*
X990650Y1354794D01*
Y1369010D01*
X1071461Y1369010D01*
X1072452Y1369207D01*
X1073293Y1369769D01*
X1073854Y1370609D01*
X1074051Y1371600D01*
Y1379963D01*
X1073985Y1380295D01*
X1073963Y1380633D01*
X1073887Y1380786D01*
X1073854Y1380954D01*
X1073666Y1381236D01*
X1073516Y1381539D01*
X1073388Y1381652D01*
X1073293Y1381794D01*
X1073011Y1381982D01*
X1072756Y1382206D01*
X1072595Y1382261D01*
X1072452Y1382356D01*
X1072375Y1383030D01*
X1072452Y1383704D01*
X1072595Y1383799D01*
X1072756Y1383854D01*
X1073011Y1384078D01*
X1073293Y1384266D01*
X1073388Y1384408D01*
X1073516Y1384521D01*
X1073666Y1384824D01*
X1073854Y1385106D01*
X1073887Y1385274D01*
X1073963Y1385427D01*
X1073985Y1385765D01*
X1074051Y1386097D01*
Y1418373D01*
X1075321Y1418899D01*
X1076581Y1417639D01*
D02*
G37*
G36*
X1167130Y1200150D02*
X1167440D01*
Y1197610D01*
X1187760D01*
Y1200150D01*
X1196252D01*
X1196762Y1199640D01*
X1199078Y1198302D01*
X1201662Y1197610D01*
X1204338D01*
X1206922Y1198302D01*
X1209238Y1199640D01*
X1209748Y1200150D01*
X1221652D01*
X1222162Y1199640D01*
X1224478Y1198302D01*
X1227062Y1197610D01*
X1229738D01*
X1232322Y1198302D01*
X1234638Y1199640D01*
X1235148Y1200150D01*
X1247052D01*
X1247562Y1199640D01*
X1249878Y1198302D01*
X1252462Y1197610D01*
X1255138D01*
X1257722Y1198302D01*
X1260038Y1199640D01*
X1260548Y1200150D01*
X1272452D01*
X1272962Y1199640D01*
X1275278Y1198302D01*
X1277862Y1197610D01*
X1280538D01*
X1283122Y1198302D01*
X1285438Y1199640D01*
X1285948Y1200150D01*
X1297852D01*
X1298362Y1199640D01*
X1300678Y1198302D01*
X1303262Y1197610D01*
X1305938D01*
X1308522Y1198302D01*
X1310838Y1199640D01*
X1311348Y1200150D01*
X1323252D01*
X1323762Y1199640D01*
X1326078Y1198302D01*
X1328662Y1197610D01*
X1331338D01*
X1333922Y1198302D01*
X1336238Y1199640D01*
X1336748Y1200150D01*
X1348652D01*
X1349162Y1199640D01*
X1350725Y1198737D01*
Y1186855D01*
X1349945Y1186646D01*
X1347655Y1185324D01*
X1345786Y1183455D01*
X1344464Y1181165D01*
X1343780Y1178612D01*
Y1175968D01*
X1344464Y1173415D01*
X1345786Y1171125D01*
X1347655Y1169256D01*
X1349945Y1167934D01*
X1352498Y1167250D01*
X1355142D01*
X1355993Y1167478D01*
X1356935Y1166663D01*
Y1162280D01*
X1348780D01*
Y1162050D01*
X1353820D01*
Y1154430D01*
X1348780D01*
Y1154200D01*
X1355050D01*
X1356250Y1154030D01*
Y1129150D01*
X1366630D01*
Y1154030D01*
X1365860Y1154200D01*
Y1162280D01*
X1364705D01*
Y1168295D01*
X1364409Y1169782D01*
X1363567Y1171042D01*
X1362451Y1172159D01*
X1363176Y1173415D01*
X1363860Y1175968D01*
Y1178612D01*
X1363176Y1181165D01*
X1361854Y1183455D01*
X1359985Y1185324D01*
X1358495Y1186184D01*
Y1198081D01*
X1359322Y1198302D01*
X1361638Y1199640D01*
X1362148Y1200150D01*
X1371600D01*
Y1183869D01*
X1371186Y1183455D01*
X1369864Y1181165D01*
X1369180Y1178612D01*
Y1175968D01*
X1369864Y1173415D01*
X1371186Y1171125D01*
X1371600Y1170711D01*
Y1170484D01*
X1371525Y1170108D01*
Y1162280D01*
X1370370D01*
Y1158546D01*
X1370255Y1157970D01*
Y1154030D01*
X1368950D01*
Y1129150D01*
X1371600D01*
Y1117600D01*
X1336040D01*
X1272540Y1181100D01*
X1145790D01*
X1145540Y1181150D01*
X1117600D01*
Y1320800D01*
X1108940D01*
Y1325841D01*
X1104900D01*
Y1327800D01*
X1101090D01*
Y1332840D01*
X1100860D01*
Y1327525D01*
X1100785Y1327150D01*
X1100860Y1326775D01*
Y1324035D01*
X1099250D01*
Y1332190D01*
X1099020D01*
Y1327150D01*
X1095210D01*
Y1325190D01*
X1091170D01*
Y1323065D01*
X1089900D01*
X1088413Y1322769D01*
X1087153Y1321927D01*
X1086026Y1320800D01*
X1080828D01*
X1080095Y1322070D01*
X1080597Y1322940D01*
X1072070D01*
Y1330560D01*
X1080597D01*
X1079504Y1332454D01*
X1078458Y1333500D01*
X1078984Y1334770D01*
X1167130D01*
Y1200150D01*
D02*
G37*
G36*
X1381650Y1145400D02*
X1386840D01*
X1392030D01*
Y1150731D01*
X1393148Y1151589D01*
X1394350Y1151178D01*
Y1129150D01*
X1394460D01*
Y1122392D01*
X1394081Y1122174D01*
X1392426Y1120519D01*
X1391256Y1118491D01*
X1390650Y1116230D01*
Y1113890D01*
X1391256Y1111629D01*
X1392426Y1109601D01*
X1394081Y1107946D01*
X1396109Y1106776D01*
X1398370Y1106170D01*
X1400710D01*
X1402971Y1106776D01*
X1404999Y1107946D01*
X1406654Y1109601D01*
X1407606Y1111250D01*
X1485900D01*
Y1082040D01*
X1333409D01*
X1332676Y1083310D01*
X1332894Y1083689D01*
X1333500Y1085950D01*
Y1088290D01*
X1332913Y1090483D01*
X1332894Y1090551D01*
X1332850Y1090752D01*
X1334039Y1091258D01*
X1334772Y1090162D01*
X1335540Y1089649D01*
Y1094740D01*
X1332876D01*
X1333149Y1093363D01*
X1332063Y1092313D01*
X1332015Y1092325D01*
X1332002Y1092328D01*
X1331724Y1092579D01*
X1331671Y1092632D01*
X1330069Y1094234D01*
X1328041Y1095404D01*
X1325780Y1096010D01*
X1323440D01*
X1323078Y1095913D01*
X1322070Y1096686D01*
Y1111250D01*
X1379220D01*
Y1129150D01*
X1379330D01*
Y1153160D01*
X1381650D01*
Y1145400D01*
D02*
G37*
G36*
X1497330Y1014780D02*
X1479819D01*
X1479478Y1016050D01*
X1480708Y1016760D01*
X1482600Y1018652D01*
X1483938Y1020968D01*
X1483967Y1021080D01*
X1474470D01*
X1464973D01*
X1465002Y1020968D01*
X1466340Y1018652D01*
X1468232Y1016760D01*
X1469462Y1016050D01*
X1469121Y1014780D01*
X1417320D01*
Y1032510D01*
Y1035050D01*
X1469208D01*
X1469548Y1033780D01*
X1468232Y1033020D01*
X1466340Y1031128D01*
X1465002Y1028812D01*
X1464973Y1028700D01*
X1474470D01*
X1483967D01*
X1483938Y1028812D01*
X1482600Y1031128D01*
X1480708Y1033020D01*
X1479392Y1033780D01*
X1479732Y1035050D01*
X1497330D01*
Y1014780D01*
D02*
G37*
G36*
X1111250Y1178560D02*
X1145540D01*
Y1012190D01*
X1521460D01*
Y1223010D01*
X1574800D01*
Y1012190D01*
X1573848D01*
Y930910D01*
X1416970D01*
Y938760D01*
X1417280Y938770D01*
Y946850D01*
X1416125D01*
Y955171D01*
X1417878Y956924D01*
X1419907Y956380D01*
X1422353D01*
X1424716Y957013D01*
X1426834Y958236D01*
X1428564Y959966D01*
X1429787Y962084D01*
X1429984Y962820D01*
X1452879D01*
X1453640Y961502D01*
X1455532Y959610D01*
X1457848Y958272D01*
X1460432Y957580D01*
X1463108D01*
X1465692Y958272D01*
X1468008Y959610D01*
X1469900Y961502D01*
X1471238Y963818D01*
X1471930Y966402D01*
Y969078D01*
X1471238Y971662D01*
X1469900Y973978D01*
X1468008Y975870D01*
X1465692Y977208D01*
X1463108Y977900D01*
X1460432D01*
X1457848Y977208D01*
X1455532Y975870D01*
X1453640Y973978D01*
X1452302Y971662D01*
X1452015Y970590D01*
X1429017D01*
X1428564Y971374D01*
X1426834Y973104D01*
X1424716Y974327D01*
X1422353Y974960D01*
X1419907D01*
X1417544Y974327D01*
X1415426Y973104D01*
X1413696Y971374D01*
X1412473Y969256D01*
X1411840Y966893D01*
Y964447D01*
X1412384Y962418D01*
X1409493Y959527D01*
X1409297Y959233D01*
X1408761Y959100D01*
X1407726Y959168D01*
X1404476Y962418D01*
X1405020Y964447D01*
Y966893D01*
X1404387Y969256D01*
X1403164Y971374D01*
X1401434Y973104D01*
X1399316Y974327D01*
X1396953Y974960D01*
X1394507D01*
X1392144Y974327D01*
X1390026Y973104D01*
X1388296Y971374D01*
X1387073Y969256D01*
X1386440Y966893D01*
Y964447D01*
X1387073Y962084D01*
X1388296Y959966D01*
X1390026Y958236D01*
X1392144Y957013D01*
X1394507Y956380D01*
X1396953D01*
X1398983Y956924D01*
X1401355Y954551D01*
Y946850D01*
X1400200D01*
Y938770D01*
X1399890Y938760D01*
Y930910D01*
X1395102D01*
X1394369Y932180D01*
X1395038Y933338D01*
X1395067Y933450D01*
X1385570D01*
Y941070D01*
X1395067D01*
X1395038Y941182D01*
X1393700Y943498D01*
X1391808Y945390D01*
X1389492Y946728D01*
X1389455Y946738D01*
Y950430D01*
X1389159Y951917D01*
X1388317Y953177D01*
X1379634Y961860D01*
X1361803D01*
X1362896Y959966D01*
X1364626Y958236D01*
X1365150Y957933D01*
Y949565D01*
X1363235Y947650D01*
X1360974D01*
X1354295Y954329D01*
Y960190D01*
X1354220Y960565D01*
Y974960D01*
X1335640D01*
Y956380D01*
X1346525D01*
Y952720D01*
X1346821Y951233D01*
X1347663Y949973D01*
X1354480Y943156D01*
Y939570D01*
X1354790D01*
Y931950D01*
X1354235Y930910D01*
X1050290D01*
Y1290320D01*
X1111250D01*
Y1178560D01*
D02*
G37*
%LPC*%
G36*
X1527810Y1579142D02*
Y1570990D01*
X1535961D01*
X1535685Y1572020D01*
X1534034Y1574880D01*
X1531700Y1577215D01*
X1528840Y1578865D01*
X1527810Y1579142D01*
D02*
G37*
G36*
X1520190D02*
X1519160Y1578865D01*
X1516300Y1577215D01*
X1513965Y1574880D01*
X1512315Y1572020D01*
X1512039Y1570990D01*
X1520190D01*
Y1579142D01*
D02*
G37*
G36*
X1535961Y1563370D02*
X1527810D01*
Y1555219D01*
X1528840Y1555495D01*
X1531700Y1557146D01*
X1534034Y1559480D01*
X1535685Y1562340D01*
X1535961Y1563370D01*
D02*
G37*
G36*
X1520190D02*
X1512039D01*
X1512315Y1562340D01*
X1513965Y1559480D01*
X1516300Y1557146D01*
X1519160Y1555495D01*
X1520190Y1555219D01*
Y1563370D01*
D02*
G37*
G36*
X1389380Y1516588D02*
Y1508429D01*
X1391127D01*
Y1512578D01*
X1390704Y1514705D01*
X1389500Y1516508D01*
X1389380Y1516588D01*
D02*
G37*
G36*
X1381760D02*
X1381640Y1516508D01*
X1380436Y1514705D01*
X1380013Y1512578D01*
Y1508429D01*
X1381760D01*
Y1516588D01*
D02*
G37*
G36*
X1391127Y1500809D02*
X1389380D01*
Y1492649D01*
X1389500Y1492729D01*
X1390704Y1494532D01*
X1391127Y1496659D01*
Y1500809D01*
D02*
G37*
G36*
X1381760D02*
X1380013D01*
Y1496659D01*
X1380436Y1494532D01*
X1381640Y1492729D01*
X1381760Y1492649D01*
Y1500809D01*
D02*
G37*
G36*
X1507490Y1512487D02*
Y1464310D01*
X1555667D01*
X1554830Y1470674D01*
X1553064Y1477264D01*
X1550453Y1483566D01*
X1547043Y1489474D01*
X1542890Y1494886D01*
X1538066Y1499710D01*
X1532654Y1503862D01*
X1526746Y1507273D01*
X1520444Y1509884D01*
X1513854Y1511650D01*
X1507490Y1512487D01*
D02*
G37*
G36*
X1499870D02*
X1493506Y1511650D01*
X1486916Y1509884D01*
X1480614Y1507273D01*
X1474706Y1503862D01*
X1469294Y1499710D01*
X1464470Y1494886D01*
X1460318Y1489474D01*
X1456907Y1483566D01*
X1454296Y1477264D01*
X1452530Y1470674D01*
X1451693Y1464310D01*
X1499870D01*
Y1512487D01*
D02*
G37*
G36*
X1555667Y1456690D02*
X1507490D01*
Y1408513D01*
X1513854Y1409350D01*
X1520444Y1411116D01*
X1526746Y1413727D01*
X1532654Y1417137D01*
X1538066Y1421290D01*
X1542890Y1426114D01*
X1547043Y1431526D01*
X1550453Y1437434D01*
X1553064Y1443736D01*
X1554830Y1450326D01*
X1555667Y1456690D01*
D02*
G37*
G36*
X1499870D02*
X1451693D01*
X1452530Y1450326D01*
X1454296Y1443736D01*
X1456907Y1437434D01*
X1460318Y1431526D01*
X1464470Y1426114D01*
X1469294Y1421290D01*
X1474706Y1417137D01*
X1480614Y1413727D01*
X1486916Y1411116D01*
X1493506Y1409350D01*
X1499870Y1408513D01*
Y1456690D01*
D02*
G37*
G36*
X1052006Y1578610D02*
X1047750D01*
Y1574354D01*
X1049399Y1575306D01*
X1051054Y1576961D01*
X1052006Y1578610D01*
D02*
G37*
G36*
X1040130D02*
X1035874D01*
X1036826Y1576961D01*
X1038481Y1575306D01*
X1040130Y1574354D01*
Y1578610D01*
D02*
G37*
G36*
X989330Y1579142D02*
Y1570990D01*
X997482D01*
X997205Y1572020D01*
X995555Y1574880D01*
X993220Y1577215D01*
X990360Y1578865D01*
X989330Y1579142D01*
D02*
G37*
G36*
X981710D02*
X980680Y1578865D01*
X977820Y1577215D01*
X975486Y1574880D01*
X973835Y1572020D01*
X973559Y1570990D01*
X981710D01*
Y1579142D01*
D02*
G37*
G36*
X997482Y1563370D02*
X989330D01*
Y1555219D01*
X990360Y1555495D01*
X993220Y1557146D01*
X995555Y1559480D01*
X997205Y1562340D01*
X997482Y1563370D01*
D02*
G37*
G36*
X981710D02*
X973559D01*
X973835Y1562340D01*
X975486Y1559480D01*
X977820Y1557146D01*
X980680Y1555495D01*
X981710Y1555219D01*
Y1563370D01*
D02*
G37*
G36*
X1012090Y1546860D02*
X1009750D01*
X1007489Y1546254D01*
X1005461Y1545084D01*
X1003806Y1543429D01*
X1002636Y1541401D01*
X1002030Y1539140D01*
Y1536800D01*
X1002636Y1534539D01*
X1003806Y1532511D01*
X1005461Y1530856D01*
X1007489Y1529686D01*
X1009750Y1529080D01*
X1012090D01*
X1014351Y1529686D01*
X1016379Y1530856D01*
X1018034Y1532511D01*
X1019204Y1534539D01*
X1019810Y1536800D01*
Y1539140D01*
X1019204Y1541401D01*
X1018034Y1543429D01*
X1016379Y1545084D01*
X1014351Y1546254D01*
X1012090Y1546860D01*
D02*
G37*
G36*
X1306830Y1527810D02*
X1300749D01*
X1300818Y1527552D01*
X1302206Y1525148D01*
X1304168Y1523186D01*
X1306572Y1521798D01*
X1306830Y1521729D01*
Y1527810D01*
D02*
G37*
G36*
X1212918Y1525270D02*
X1210242D01*
X1207658Y1524578D01*
X1205342Y1523240D01*
X1203450Y1521348D01*
X1202112Y1519032D01*
X1201420Y1516448D01*
Y1513772D01*
X1202112Y1511188D01*
X1203450Y1508872D01*
X1205342Y1506980D01*
X1207658Y1505642D01*
X1210242Y1504950D01*
X1212918D01*
X1215502Y1505642D01*
X1217818Y1506980D01*
X1219710Y1508872D01*
X1221048Y1511188D01*
X1221740Y1513772D01*
Y1516448D01*
X1221048Y1519032D01*
X1219710Y1521348D01*
X1217818Y1523240D01*
X1215502Y1524578D01*
X1212918Y1525270D01*
D02*
G37*
G36*
X1247140Y1509368D02*
Y1503680D01*
X1252828D01*
X1252798Y1503792D01*
X1251460Y1506108D01*
X1249568Y1508000D01*
X1247252Y1509338D01*
X1247140Y1509368D01*
D02*
G37*
G36*
X1239520D02*
X1239408Y1509338D01*
X1237092Y1508000D01*
X1235200Y1506108D01*
X1233862Y1503792D01*
X1233832Y1503680D01*
X1239520D01*
Y1509368D01*
D02*
G37*
G36*
X1012190Y1511217D02*
Y1463040D01*
X1060367D01*
X1059530Y1469404D01*
X1057764Y1475994D01*
X1055153Y1482296D01*
X1051742Y1488204D01*
X1047590Y1493616D01*
X1042766Y1498440D01*
X1037354Y1502592D01*
X1031446Y1506003D01*
X1025144Y1508614D01*
X1018554Y1510380D01*
X1012190Y1511217D01*
D02*
G37*
G36*
X1004570D02*
X998206Y1510380D01*
X991616Y1508614D01*
X985314Y1506003D01*
X979406Y1502592D01*
X973994Y1498440D01*
X969170Y1493616D01*
X965017Y1488204D01*
X961607Y1482296D01*
X958996Y1475994D01*
X957230Y1469404D01*
X956393Y1463040D01*
X1004570D01*
Y1511217D01*
D02*
G37*
G36*
X1060367Y1455420D02*
X1012190D01*
Y1407242D01*
X1018554Y1408080D01*
X1025144Y1409846D01*
X1031446Y1412457D01*
X1037354Y1415867D01*
X1042766Y1420020D01*
X1047590Y1424844D01*
X1051742Y1430256D01*
X1055153Y1436164D01*
X1057764Y1442466D01*
X1059530Y1449056D01*
X1060367Y1455420D01*
D02*
G37*
G36*
X1004570D02*
X956393D01*
X957230Y1449056D01*
X958996Y1442466D01*
X961607Y1436164D01*
X965017Y1430256D01*
X969170Y1424844D01*
X973994Y1420020D01*
X979406Y1415867D01*
X985314Y1412457D01*
X991616Y1409846D01*
X998206Y1408080D01*
X1004570Y1407242D01*
Y1455420D01*
D02*
G37*
G36*
X1056640Y1392527D02*
X1056528Y1392498D01*
X1054212Y1391160D01*
X1052320Y1389268D01*
X1050982Y1386952D01*
X1050953Y1386840D01*
X1056640D01*
Y1392527D01*
D02*
G37*
G36*
Y1379220D02*
X1050953D01*
X1050982Y1379108D01*
X1052320Y1376792D01*
X1054212Y1374900D01*
X1056528Y1373562D01*
X1056640Y1373533D01*
Y1379220D01*
D02*
G37*
G36*
X1028090Y1163310D02*
Y1156970D01*
X1034430D01*
X1034335Y1157325D01*
X1032914Y1159785D01*
X1030905Y1161794D01*
X1028445Y1163215D01*
X1028090Y1163310D01*
D02*
G37*
G36*
X1020470D02*
X1020115Y1163215D01*
X1017655Y1161794D01*
X1015646Y1159785D01*
X1014225Y1157325D01*
X1014130Y1156970D01*
X1020470D01*
Y1163310D01*
D02*
G37*
G36*
X1034430Y1149350D02*
X1028090D01*
Y1143010D01*
X1028445Y1143105D01*
X1030905Y1144526D01*
X1032914Y1146535D01*
X1034335Y1148995D01*
X1034430Y1149350D01*
D02*
G37*
G36*
X1020470D02*
X1014130D01*
X1014225Y1148995D01*
X1015646Y1146535D01*
X1017655Y1144526D01*
X1020115Y1143105D01*
X1020470Y1143010D01*
Y1149350D01*
D02*
G37*
G36*
X1306830Y1502410D02*
X1300100D01*
Y1495680D01*
X1306830D01*
Y1502410D01*
D02*
G37*
G36*
X1365727Y1500809D02*
X1363980D01*
Y1492649D01*
X1364100Y1492729D01*
X1365304Y1494532D01*
X1365727Y1496659D01*
Y1500809D01*
D02*
G37*
G36*
X1356360D02*
X1354613D01*
Y1496659D01*
X1355036Y1494532D01*
X1356240Y1492729D01*
X1356360Y1492649D01*
Y1500809D01*
D02*
G37*
G36*
X1352921D02*
X1351280D01*
Y1491208D01*
X1352921D01*
Y1500809D01*
D02*
G37*
G36*
X1343660D02*
X1342019D01*
Y1491208D01*
X1343660D01*
Y1500809D01*
D02*
G37*
G36*
X1136550Y1487170D02*
X1134210D01*
X1131949Y1486564D01*
X1129921Y1485394D01*
X1128266Y1483739D01*
X1127096Y1481711D01*
X1126490Y1479450D01*
Y1477110D01*
X1127096Y1474849D01*
X1128266Y1472821D01*
X1129921Y1471166D01*
X1131949Y1469996D01*
X1134210Y1469390D01*
X1136550D01*
X1138811Y1469996D01*
X1140839Y1471166D01*
X1142494Y1472821D01*
X1143664Y1474849D01*
X1144270Y1477110D01*
Y1479450D01*
X1143664Y1481711D01*
X1142494Y1483739D01*
X1140839Y1485394D01*
X1138811Y1486564D01*
X1136550Y1487170D01*
D02*
G37*
G36*
X1088290Y1479550D02*
X1085950D01*
X1083689Y1478944D01*
X1081661Y1477774D01*
X1080006Y1476119D01*
X1078836Y1474091D01*
X1078230Y1471830D01*
Y1469490D01*
X1078836Y1467229D01*
X1080006Y1465201D01*
X1081661Y1463546D01*
X1083689Y1462376D01*
X1085950Y1461770D01*
X1088290D01*
X1090551Y1462376D01*
X1092579Y1463546D01*
X1094234Y1465201D01*
X1095404Y1467229D01*
X1096010Y1469490D01*
Y1471830D01*
X1095404Y1474091D01*
X1094234Y1476119D01*
X1092579Y1477774D01*
X1090551Y1478944D01*
X1088290Y1479550D01*
D02*
G37*
G36*
X1132740Y1436370D02*
X1130400D01*
X1128139Y1435764D01*
X1126111Y1434594D01*
X1124456Y1432939D01*
X1123286Y1430911D01*
X1122680Y1428650D01*
Y1426310D01*
X1123286Y1424049D01*
X1124456Y1422021D01*
X1126111Y1420366D01*
X1128139Y1419196D01*
X1130400Y1418590D01*
X1132740D01*
X1135001Y1419196D01*
X1137029Y1420366D01*
X1138684Y1422021D01*
X1139854Y1424049D01*
X1140460Y1426310D01*
Y1428650D01*
X1139854Y1430911D01*
X1138684Y1432939D01*
X1137029Y1434594D01*
X1135001Y1435764D01*
X1132740Y1436370D01*
D02*
G37*
G36*
X1154482Y1399420D02*
X1151838D01*
X1149285Y1398736D01*
X1146995Y1397414D01*
X1145126Y1395545D01*
X1143804Y1393255D01*
X1143120Y1390702D01*
Y1388058D01*
X1143804Y1385505D01*
X1145126Y1383215D01*
X1146995Y1381346D01*
X1149285Y1380024D01*
X1151838Y1379340D01*
X1154482D01*
X1157035Y1380024D01*
X1159325Y1381346D01*
X1161194Y1383215D01*
X1162516Y1385505D01*
X1163200Y1388058D01*
Y1390702D01*
X1162516Y1393255D01*
X1161194Y1395545D01*
X1159325Y1397414D01*
X1157035Y1398736D01*
X1154482Y1399420D01*
D02*
G37*
G36*
X1108940Y1332840D02*
X1108710D01*
Y1331610D01*
X1108940D01*
Y1332840D01*
D02*
G37*
G36*
X1091400Y1332190D02*
X1091170D01*
Y1330960D01*
X1091400D01*
Y1332190D01*
D02*
G37*
G36*
X1153621Y1218560D02*
X1150779D01*
X1148035Y1217825D01*
X1145575Y1216404D01*
X1143566Y1214395D01*
X1142145Y1211935D01*
X1141410Y1209191D01*
Y1206349D01*
X1142145Y1203605D01*
X1143566Y1201145D01*
X1145575Y1199136D01*
X1148035Y1197715D01*
X1150779Y1196980D01*
X1153621D01*
X1156365Y1197715D01*
X1158825Y1199136D01*
X1160834Y1201145D01*
X1162255Y1203605D01*
X1162990Y1206349D01*
Y1209191D01*
X1162255Y1211935D01*
X1160834Y1214395D01*
X1158825Y1216404D01*
X1156365Y1217825D01*
X1153621Y1218560D01*
D02*
G37*
G36*
X1329742Y1187330D02*
X1327098D01*
X1324545Y1186646D01*
X1322255Y1185324D01*
X1320386Y1183455D01*
X1319064Y1181165D01*
X1318380Y1178612D01*
Y1175968D01*
X1319064Y1173415D01*
X1320386Y1171125D01*
X1322255Y1169256D01*
X1324545Y1167934D01*
X1327098Y1167250D01*
X1329742D01*
X1332295Y1167934D01*
X1334585Y1169256D01*
X1336454Y1171125D01*
X1337776Y1173415D01*
X1338460Y1175968D01*
Y1178612D01*
X1337776Y1181165D01*
X1336454Y1183455D01*
X1334585Y1185324D01*
X1332295Y1186646D01*
X1329742Y1187330D01*
D02*
G37*
G36*
X1313060D02*
X1292980D01*
Y1167250D01*
X1313060D01*
Y1187330D01*
D02*
G37*
G36*
X1341120Y1166306D02*
Y1162050D01*
X1345376D01*
X1344424Y1163699D01*
X1342769Y1165354D01*
X1341120Y1166306D01*
D02*
G37*
G36*
X1333500D02*
X1331851Y1165354D01*
X1330196Y1163699D01*
X1329244Y1162050D01*
X1333500D01*
Y1166306D01*
D02*
G37*
G36*
X1345376Y1154430D02*
X1341120D01*
Y1150174D01*
X1342769Y1151126D01*
X1344424Y1152781D01*
X1345376Y1154430D01*
D02*
G37*
G36*
X1333500D02*
X1329244D01*
X1330196Y1152781D01*
X1331851Y1151126D01*
X1333500Y1150174D01*
Y1154430D01*
D02*
G37*
G36*
X1392030Y1137780D02*
X1390650D01*
Y1129150D01*
X1392030D01*
Y1137780D01*
D02*
G37*
G36*
X1383030D02*
X1381650D01*
Y1129150D01*
X1383030D01*
Y1137780D01*
D02*
G37*
G36*
X1471160Y1107451D02*
Y1102360D01*
X1473824D01*
X1473332Y1104838D01*
X1471928Y1106938D01*
X1471160Y1107451D01*
D02*
G37*
G36*
X1463540Y1107451D02*
X1462772Y1106938D01*
X1461369Y1104838D01*
X1460876Y1102360D01*
X1463540D01*
Y1107451D01*
D02*
G37*
G36*
X1343160D02*
Y1102360D01*
X1345824D01*
Y1102360D01*
X1345331Y1104838D01*
X1343928Y1106938D01*
X1343160Y1107451D01*
D02*
G37*
G36*
X1335540Y1107451D02*
X1334772Y1106938D01*
X1333368Y1104838D01*
X1332876Y1102360D01*
Y1102360D01*
X1335540D01*
Y1107451D01*
D02*
G37*
G36*
X1345824Y1094740D02*
X1343160D01*
Y1089649D01*
X1343928Y1090162D01*
X1345331Y1092262D01*
X1345824Y1094740D01*
D02*
G37*
G36*
X1463540Y1094740D02*
X1460876D01*
Y1094740D01*
X1461369Y1092262D01*
X1462772Y1090162D01*
X1463540Y1089649D01*
Y1094740D01*
D02*
G37*
G36*
X1473824D02*
X1471160D01*
Y1089649D01*
X1471928Y1090162D01*
X1473332Y1092262D01*
X1473824Y1094740D01*
Y1094740D01*
D02*
G37*
G36*
X1075880Y1284477D02*
Y1279760D01*
X1080597D01*
X1079504Y1281654D01*
X1077774Y1283384D01*
X1075880Y1284477D01*
D02*
G37*
G36*
X1068260Y1284478D02*
X1066366Y1283384D01*
X1064636Y1281654D01*
X1063542Y1279760D01*
X1068260D01*
Y1284478D01*
D02*
G37*
G36*
X1080597Y1272140D02*
X1075880D01*
Y1267423D01*
X1077774Y1268516D01*
X1079504Y1270246D01*
X1080597Y1272140D01*
D02*
G37*
G36*
X1068260D02*
X1063542D01*
X1064636Y1270246D01*
X1066366Y1268516D01*
X1068260Y1267422D01*
Y1272140D01*
D02*
G37*
G36*
X1081360Y1259840D02*
X1062780D01*
Y1241260D01*
X1081360D01*
Y1259840D01*
D02*
G37*
G36*
X1537010Y1217268D02*
Y1211580D01*
X1542697D01*
X1542668Y1211692D01*
X1541330Y1214008D01*
X1539438Y1215900D01*
X1537122Y1217238D01*
X1537010Y1217268D01*
D02*
G37*
G36*
X1529390D02*
X1529278Y1217238D01*
X1526962Y1215900D01*
X1525070Y1214008D01*
X1523732Y1211692D01*
X1523703Y1211580D01*
X1529390D01*
Y1217268D01*
D02*
G37*
G36*
X1542697Y1203960D02*
X1537010D01*
Y1198272D01*
X1537122Y1198302D01*
X1539438Y1199640D01*
X1541330Y1201532D01*
X1542668Y1203848D01*
X1542697Y1203960D01*
D02*
G37*
G36*
X1529390D02*
X1523703D01*
X1523732Y1203848D01*
X1525070Y1201532D01*
X1526962Y1199640D01*
X1529278Y1198302D01*
X1529390Y1198272D01*
Y1203960D01*
D02*
G37*
G36*
X1560020Y1218560D02*
X1557180D01*
X1554435Y1217825D01*
X1551975Y1216404D01*
X1549966Y1214395D01*
X1548545Y1211935D01*
X1547810Y1209191D01*
Y1206349D01*
X1548545Y1203605D01*
X1549966Y1201145D01*
X1551975Y1199136D01*
X1554435Y1197715D01*
X1557180Y1196980D01*
X1560020D01*
X1562765Y1197715D01*
X1565225Y1199136D01*
X1567234Y1201145D01*
X1568655Y1203605D01*
X1569390Y1206349D01*
Y1209191D01*
X1568655Y1211935D01*
X1567234Y1214395D01*
X1565225Y1216404D01*
X1562765Y1217825D01*
X1560020Y1218560D01*
D02*
G37*
G36*
X1374140Y974197D02*
Y969480D01*
X1378858D01*
X1377764Y971374D01*
X1376034Y973104D01*
X1374140Y974197D01*
D02*
G37*
G36*
X1366520D02*
X1364626Y973104D01*
X1362896Y971374D01*
X1361803Y969480D01*
X1366520D01*
Y974197D01*
D02*
G37*
G36*
X1551651Y1013460D02*
X1547148D01*
X1542732Y1012581D01*
X1541787Y1012190D01*
X1538532D01*
X1538780Y1010944D01*
X1538572Y1010858D01*
X1534828Y1008356D01*
X1531644Y1005172D01*
X1529142Y1001428D01*
X1527419Y997268D01*
X1526540Y992851D01*
Y988348D01*
X1527419Y983932D01*
X1529142Y979772D01*
X1531644Y976028D01*
X1534828Y972843D01*
X1538572Y970342D01*
X1542732Y968618D01*
X1547148Y967740D01*
X1551651D01*
X1556068Y968618D01*
X1560228Y970342D01*
X1563972Y972843D01*
X1567157Y976028D01*
X1569658Y979772D01*
X1571382Y983932D01*
X1572260Y988348D01*
Y992851D01*
X1571382Y997268D01*
X1569658Y1001428D01*
X1567157Y1005172D01*
X1563972Y1008356D01*
X1560228Y1010858D01*
X1560020Y1010944D01*
X1560268Y1012190D01*
X1557013D01*
X1556068Y1012581D01*
X1551651Y1013460D01*
D02*
G37*
G36*
X1078090Y963310D02*
Y956970D01*
X1084430D01*
X1084335Y957325D01*
X1082914Y959785D01*
X1080905Y961794D01*
X1078445Y963215D01*
X1078090Y963310D01*
D02*
G37*
G36*
X1070470D02*
X1070115Y963215D01*
X1067655Y961794D01*
X1065646Y959785D01*
X1064225Y957325D01*
X1064130Y956970D01*
X1070470D01*
Y963310D01*
D02*
G37*
G36*
X1084430Y949350D02*
X1078090D01*
Y943010D01*
X1078445Y943105D01*
X1080905Y944526D01*
X1082914Y946535D01*
X1084335Y948995D01*
X1084430Y949350D01*
D02*
G37*
G36*
X1070470D02*
X1064130D01*
X1064225Y948995D01*
X1065646Y946535D01*
X1067655Y944526D01*
X1070115Y943105D01*
X1070470Y943010D01*
Y949350D01*
D02*
G37*
G36*
X1175701Y963950D02*
X1172859D01*
X1170115Y963215D01*
X1167655Y961794D01*
X1165646Y959785D01*
X1164225Y957325D01*
X1163490Y954581D01*
Y951740D01*
X1164225Y948995D01*
X1165646Y946535D01*
X1167655Y944526D01*
X1170115Y943105D01*
X1172859Y942370D01*
X1175701D01*
X1178445Y943105D01*
X1180905Y944526D01*
X1182914Y946535D01*
X1184335Y948995D01*
X1185070Y951740D01*
Y954581D01*
X1184335Y957325D01*
X1182914Y959785D01*
X1180905Y961794D01*
X1178445Y963215D01*
X1175701Y963950D01*
D02*
G37*
%LPD*%
D14*
X1248410Y1526540D02*
Y1536700D01*
Y1526540D02*
X1291590Y1483360D01*
Y1348740D02*
Y1483360D01*
X1100114Y1619250D02*
X1132840D01*
X1155700Y1596390D01*
X1094740Y1619250D02*
X1099820Y1624330D01*
X1502590Y1719580D02*
X1524000D01*
X1470660Y1664970D02*
Y1687650D01*
X1502590Y1719580D01*
X1370330Y962704D02*
X1373296D01*
X1268730Y1400810D02*
X1280160Y1389380D01*
X1191260Y1394460D02*
X1197610Y1400810D01*
X1268730D01*
X1191260Y1373830D02*
Y1394460D01*
X1350970Y1894610D02*
X1351200Y1894840D01*
X1221740Y1809878D02*
Y1812290D01*
Y1809878D02*
X1271398Y1760220D01*
X1308100D01*
X1353770Y1403120D02*
X1368490D01*
X1352640Y1401990D02*
X1353770Y1403120D01*
X1287430Y1615390D02*
X1292860Y1609960D01*
X1288065Y1597025D02*
X1292860Y1601820D01*
Y1609960D01*
X1268960Y1597025D02*
X1288065D01*
X1285680Y1615390D02*
X1287430D01*
X1437330Y1386840D02*
X1457960D01*
X1399540Y1115060D02*
Y1141590D01*
X1334160Y1879950D02*
Y1881700D01*
X1321110Y1866900D02*
X1334160Y1879950D01*
X1309370Y1866900D02*
X1321110D01*
X1368424Y1607224D02*
X1376640Y1615440D01*
X1360844Y1607224D02*
X1368424D01*
X1376640Y1615440D02*
X1377640D01*
X1358900Y1605280D02*
X1360844Y1607224D01*
X1350010Y1648460D02*
X1370640Y1627830D01*
Y1615440D02*
Y1627830D01*
X1104900Y1320380D02*
Y1320800D01*
X1095210Y1320150D02*
X1104670D01*
X1104900Y1320380D01*
X1089900Y1319180D02*
X1094980D01*
X1095210Y1319410D01*
Y1320150D01*
X1072070Y1301350D02*
X1089900Y1319180D01*
X1457286Y1160106D02*
X1459230Y1162050D01*
X1410806Y1160106D02*
X1457286D01*
X1399540Y1148840D02*
X1410806Y1160106D01*
X1399540Y1141590D02*
Y1148840D01*
X1346200Y1040130D02*
X1346430Y1039900D01*
Y1038900D02*
X1357900Y1027430D01*
X1372870D02*
X1373505Y1028065D01*
Y1047255D01*
X1357900Y1027430D02*
X1372870D01*
X1346430Y1038900D02*
Y1039900D01*
X1373505Y1047255D02*
X1374140Y1047890D01*
X1346200Y1047130D02*
Y1062990D01*
X1324610Y1084580D02*
Y1087120D01*
Y1084580D02*
X1346200Y1062990D01*
X1333202Y1789512D02*
X1336930Y1793240D01*
X1333202Y1786592D02*
Y1789512D01*
X1332230Y1785620D02*
X1333202Y1786592D01*
X1336930Y1793240D02*
X1337930D01*
X1365630Y1793470D02*
Y1798482D01*
X1372244Y1805096D01*
X1365400Y1793240D02*
X1365630Y1793470D01*
X1364630Y1793240D02*
X1365400D01*
X1372244Y1805096D02*
X1382502D01*
X1383990Y1803608D01*
Y1799590D02*
Y1803608D01*
X1395521Y1794510D02*
X1398270D01*
X1383990Y1799590D02*
X1390441D01*
X1395521Y1794510D01*
X1383990Y1789430D02*
Y1799590D01*
X1383030Y1789200D02*
X1383260Y1789430D01*
X1383030Y1769341D02*
Y1789200D01*
X1383260Y1789430D02*
X1383990D01*
X1283930Y1605890D02*
X1285680D01*
X1282200Y1607620D02*
Y1608320D01*
Y1607620D02*
X1283930Y1605890D01*
X1263923Y1626597D02*
X1263923D01*
X1282200Y1608320D01*
X1357630Y1583690D02*
X1359170D01*
X1369330Y1573530D02*
X1370330D01*
X1359170Y1583690D02*
X1369330Y1573530D01*
X1350176Y1576506D02*
X1350446D01*
X1357630Y1583690D01*
X1346200Y1573530D02*
X1347200D01*
X1350176Y1576506D01*
X1357630Y1583690D02*
X1357630D01*
X1383340Y1572260D02*
Y1580880D01*
X1384880Y1582420D01*
X1391650Y1581190D02*
Y1582190D01*
X1391880Y1582420D02*
X1392880D01*
X1390340Y1579880D02*
X1391650Y1581190D01*
X1391340Y1572260D02*
X1400136Y1563464D01*
X1400645Y1559725D02*
Y1563464D01*
X1390340Y1572260D02*
Y1579880D01*
X1391650Y1582190D02*
X1391880Y1582420D01*
X1400645Y1559725D02*
X1402080Y1558290D01*
X1390340Y1572260D02*
X1391340D01*
X1385570Y1551940D02*
X1394062D01*
X1400412Y1558290D01*
X1402080D01*
X1361440Y1529080D02*
X1431975D01*
X1368490Y1403120D02*
X1368720Y1403350D01*
X1346200Y1040130D02*
Y1041130D01*
X1345970Y1041360D02*
X1346200Y1041130D01*
X1344970Y1041360D02*
X1345970D01*
X1330960Y1043940D02*
X1342390D01*
X1344970Y1041360D01*
X1350410Y952720D02*
X1358290Y944840D01*
X1350410Y952720D02*
Y960190D01*
X1358520Y943610D02*
X1359520D01*
X1358290Y943840D02*
X1358520Y943610D01*
X1358290Y943840D02*
Y944840D01*
X1344930Y965670D02*
X1350410Y960190D01*
X1359520Y943610D02*
X1359600D01*
X1359830Y935990D02*
Y943380D01*
X1359600Y943610D02*
X1359830Y943380D01*
X1210160Y1616820D02*
X1238210Y1588770D01*
X1205120Y1616820D02*
X1210160D01*
X1202690Y1619250D02*
X1205120Y1616820D01*
X1238210Y1588770D02*
X1239210D01*
X1417320Y1817370D02*
X1422306Y1822356D01*
X1357642Y1797062D02*
X1377950Y1817370D01*
X1417320D01*
X1357630Y1793240D02*
X1357642Y1793252D01*
Y1797062D01*
X1376990Y1789430D02*
Y1799590D01*
X1375990Y1789430D02*
X1376990D01*
X1268730Y1604660D02*
Y1605375D01*
X1253165Y1605605D02*
X1268500D01*
X1252220Y1606550D02*
X1253165Y1605605D01*
X1268500D02*
X1268730Y1605375D01*
X1382410Y1158240D02*
X1382640Y1158470D01*
X1393799D02*
X1395617Y1160288D01*
X1382640Y1158470D02*
X1393799D01*
X1082040Y1409700D02*
Y1424752D01*
Y1409700D02*
X1148080Y1343660D01*
X1226820Y1692910D02*
X1229360D01*
X1206500Y1672590D02*
X1226820Y1692910D01*
X1389780Y1751457D02*
X1391724Y1753401D01*
X1385764Y1751457D02*
X1389780D01*
X1385156Y1750849D02*
X1385764Y1751457D01*
X1368162Y1750849D02*
X1385156D01*
X1350970Y1879688D02*
X1357630Y1873028D01*
Y1871980D02*
Y1873028D01*
X1351200Y1894840D02*
X1351970D01*
X1350970Y1879688D02*
Y1894610D01*
X1308520Y1819910D02*
X1314220Y1814210D01*
X1306830Y1819910D02*
X1308520D01*
X1314220Y1814210D02*
X1319530D01*
X1104900Y1327380D02*
Y1327800D01*
X1104670Y1327150D02*
X1104900Y1327380D01*
X999490Y1347470D02*
X1020210Y1326750D01*
X1072070D01*
X1405240Y942810D02*
Y956160D01*
X1395730Y965670D02*
X1405240Y956160D01*
Y942810D02*
X1405660D01*
X1405890Y942580D01*
Y935190D02*
Y942580D01*
X1385570Y937260D02*
Y950430D01*
X1373296Y962704D02*
X1385570Y950430D01*
X1422165Y966705D02*
X1460735D01*
X1461770Y967740D01*
X1421130Y965670D02*
X1422165Y966705D01*
X1412240Y956780D02*
X1421130Y965670D01*
X1412890Y935190D02*
Y942580D01*
X1412660Y942810D02*
X1412890Y942580D01*
X1412240Y942810D02*
Y956780D01*
Y942810D02*
X1412660D01*
X1291590Y1348740D02*
X1304600Y1335730D01*
Y1207770D02*
Y1335730D01*
X1384300Y1868170D02*
Y1958340D01*
X1352510Y1836380D02*
X1384300Y1868170D01*
X1352510Y1835380D02*
Y1836380D01*
X1352280Y1835150D02*
X1352510Y1835380D01*
X1350280Y1835150D02*
X1351280D01*
X1352280D01*
X1344930Y1829800D02*
X1350280Y1835150D01*
X1329960Y1807210D02*
X1343930Y1793240D01*
X1344930D01*
X1319530Y1807210D02*
X1329960D01*
X1344930Y1793240D02*
Y1829800D01*
Y1769341D02*
Y1793240D01*
X1347470Y1551940D02*
Y1559900D01*
X1340200Y1573530D02*
X1343040Y1576370D01*
Y1615440D01*
X1339200Y1573530D02*
X1340200D01*
X1343040Y1615440D02*
X1370640D01*
X1370640Y1615440D01*
X1339200Y1568170D02*
Y1573530D01*
Y1568170D02*
X1347470Y1559900D01*
X1268730Y1718310D02*
X1306830D01*
X1320582Y1719580D02*
X1322070Y1721068D01*
X1308100Y1719580D02*
X1320582D01*
X1308100Y1760220D02*
X1322070Y1746250D01*
Y1721068D02*
Y1746250D01*
X1306830Y1718310D02*
X1308100Y1719580D01*
X1295400Y1545590D02*
X1316776D01*
X1256030Y1584960D02*
X1295400Y1545590D01*
X1316776D02*
X1323340Y1539026D01*
X1167130Y1584960D02*
X1256030D01*
X1155700Y1596390D02*
X1167130Y1584960D01*
X1321852Y1506220D02*
X1323340Y1507708D01*
Y1539026D01*
X1310640Y1506220D02*
X1321852D01*
X1374140Y1157970D02*
X1374410Y1158240D01*
X1374140Y1141590D02*
Y1157970D01*
X1374410Y1158240D02*
X1375410D01*
Y1170108D02*
X1379220Y1173918D01*
X1375410Y1158240D02*
Y1170108D01*
X1379220Y1173918D02*
Y1177290D01*
X1380010Y1178080D02*
Y1206980D01*
X1380800Y1207770D01*
X1379220Y1177290D02*
X1380010Y1178080D01*
X1360820Y1158240D02*
X1361210D01*
X1361440Y1158010D01*
Y1141590D02*
Y1158010D01*
X1353820Y1175295D02*
Y1177290D01*
X1360820Y1158240D02*
Y1168295D01*
X1353820Y1175295D02*
X1360820Y1168295D01*
X1353820Y1177290D02*
X1354610Y1178080D01*
Y1206980D02*
X1355400Y1207770D01*
X1354610Y1178080D02*
Y1206980D01*
X1357630Y1761381D02*
X1368162Y1750849D01*
X1357630Y1761381D02*
Y1793240D01*
X1363330Y1563948D02*
Y1573530D01*
X1360798Y1529722D02*
X1361440Y1529080D01*
X1360170Y1560788D02*
X1363330Y1563948D01*
X1360798Y1529722D02*
Y1551312D01*
X1360170Y1551940D02*
Y1560788D01*
Y1551940D02*
X1360798Y1551312D01*
X1271270Y1889760D02*
Y1908810D01*
Y1889760D02*
X1272540Y1888490D01*
X1148080Y1343660D02*
X1237290D01*
X1253800Y1360170D01*
X1343660Y1894610D02*
X1343890Y1894840D01*
X1343660Y1881700D02*
Y1894610D01*
X1324660Y1883450D02*
X1336050Y1894840D01*
X1324660Y1881700D02*
Y1883450D01*
X1336050Y1894840D02*
X1343890D01*
X1343970D01*
X1268730Y1597255D02*
X1268960Y1597025D01*
X1268730Y1597255D02*
Y1597660D01*
X1306560Y1807210D02*
X1308100Y1805670D01*
Y1770380D02*
Y1805670D01*
X1305560Y1807210D02*
X1306560D01*
X1280160Y1770380D02*
X1308100D01*
X1266190Y1784350D02*
X1280160Y1770380D01*
X1308065Y1559595D02*
X1310640Y1557020D01*
X1261110Y1588770D02*
X1290285Y1559595D01*
X1308065D01*
X1239210Y1588770D02*
X1261110D01*
X1370330Y1769341D02*
Y1783770D01*
X1375990Y1789430D01*
X1372870Y1551940D02*
Y1559012D01*
X1374386Y1560527D02*
X1376693D01*
X1383340Y1567174D02*
Y1572260D01*
X1372870Y1559012D02*
X1374386Y1560527D01*
X1376693D02*
X1383340Y1567174D01*
X1384880Y1582420D02*
X1385880D01*
X1228880Y1388900D02*
X1229360Y1389380D01*
X1228400Y1360170D02*
X1228880Y1360650D01*
Y1388900D01*
X1177600Y1207770D02*
X1267460Y1297630D01*
Y1376545D01*
X1254760Y1389245D02*
Y1389380D01*
Y1389245D02*
X1267460Y1376545D01*
X1344200Y1835150D02*
X1344280D01*
X1343660Y1854200D02*
X1343970Y1853890D01*
Y1835380D02*
Y1853890D01*
Y1835380D02*
X1344200Y1835150D01*
X1313180Y1615390D02*
X1313205Y1615415D01*
X1336015D02*
X1336040Y1615440D01*
X1313205Y1615415D02*
X1336015D01*
X1278046Y1807210D02*
X1298560D01*
X1271270Y1811020D02*
X1274236D01*
X1278046Y1807210D01*
X1206500Y1596390D02*
X1214120Y1588770D01*
X1232210D01*
X1375800Y1403350D02*
X1376030Y1403120D01*
Y1381760D02*
Y1403120D01*
X1375720Y1403350D02*
X1375800D01*
X1384260Y1381530D02*
X1384840D01*
X1384123Y1381667D02*
X1384260Y1381530D01*
X1384123Y1381667D02*
Y1381990D01*
X1384840Y1381530D02*
X1406200Y1360170D01*
X1418280Y1386840D02*
X1430330D01*
X1430330Y1386840D01*
X1418280Y1386840D02*
X1418280Y1386840D01*
X1411280Y1382594D02*
X1421512Y1372362D01*
Y1370258D02*
Y1372362D01*
X1411280Y1382594D02*
Y1386840D01*
X1421512Y1370258D02*
X1431600Y1360170D01*
X1203480Y1388900D02*
X1203960Y1389380D01*
X1203480Y1360650D02*
Y1388900D01*
X1203000Y1360170D02*
X1203480Y1360650D01*
X1177600Y1360170D02*
X1191260Y1373830D01*
D15*
X1372870Y1551940D02*
D03*
X1360170D02*
D03*
Y1504619D02*
D03*
X1372870D02*
D03*
X1385570D02*
D03*
X1347470Y1551940D02*
D03*
X1385570D02*
D03*
X1383030Y1769341D02*
D03*
X1344930D02*
D03*
X1383030Y1722019D02*
D03*
X1370330D02*
D03*
X1357630D02*
D03*
Y1769341D02*
D03*
X1370330D02*
D03*
D16*
X1347470Y1504619D02*
D03*
X1344930Y1722019D02*
D03*
D17*
X1232210Y1588770D02*
D03*
X1239210D02*
D03*
X1383990Y1789430D02*
D03*
Y1799590D02*
D03*
X1364630Y1793240D02*
D03*
X1337930D02*
D03*
X1370330Y1573530D02*
D03*
X1346200D02*
D03*
X1390340Y1572260D02*
D03*
X1392880Y1582420D02*
D03*
X1359830Y935990D02*
D03*
X1359520Y943610D02*
D03*
X1437330Y1386840D02*
D03*
X1368720Y1403350D02*
D03*
X1377640Y1615440D02*
D03*
X1382410Y1158240D02*
D03*
X1350970Y1894840D02*
D03*
X1353820Y1158240D02*
D03*
X1405240Y942810D02*
D03*
X1404930Y934720D02*
D03*
X1366520Y943610D02*
D03*
X1366830Y935990D02*
D03*
X1412240Y942810D02*
D03*
X1411930Y934720D02*
D03*
X1351280Y1835150D02*
D03*
X1344930Y1793240D02*
D03*
X1370640Y1615440D02*
D03*
X1339200Y1573530D02*
D03*
X1343040Y1615440D02*
D03*
X1375410Y1158240D02*
D03*
X1360820D02*
D03*
X1357630Y1793240D02*
D03*
X1363330Y1573530D02*
D03*
X1343970Y1894840D02*
D03*
X1305560Y1807210D02*
D03*
X1376990Y1789430D02*
D03*
Y1799590D02*
D03*
X1383340Y1572260D02*
D03*
X1385880Y1582420D02*
D03*
X1344280Y1835150D02*
D03*
X1336040Y1615440D02*
D03*
X1298560Y1807210D02*
D03*
X1376030Y1381760D02*
D03*
X1375720Y1403350D02*
D03*
X1383030Y1381760D02*
D03*
X1430330Y1386840D02*
D03*
X1418280Y1386840D02*
D03*
X1411280D02*
D03*
D18*
X1334160Y1881700D02*
D03*
X1343660D02*
D03*
X1324660D02*
D03*
X1343660Y1854200D02*
D03*
X1324660D02*
D03*
D19*
X1285680Y1605890D02*
D03*
Y1615390D02*
D03*
Y1596390D02*
D03*
X1313180Y1615390D02*
D03*
Y1596390D02*
D03*
D20*
X1346200Y1047130D02*
D03*
X1095210Y1320150D02*
D03*
X1104900Y1320800D02*
D03*
X1346200Y1040130D02*
D03*
X1319530Y1814210D02*
D03*
X1268730Y1604660D02*
D03*
X1104900Y1327800D02*
D03*
X1095210Y1327150D02*
D03*
X1319530Y1807210D02*
D03*
X1268730Y1597660D02*
D03*
D21*
X1399540Y1141590D02*
D03*
X1374140Y1047890D02*
D03*
Y1141590D02*
D03*
X1361440D02*
D03*
X1386840D02*
D03*
X1399540Y1047890D02*
D03*
X1412240Y1141590D02*
D03*
X1424940D02*
D03*
X1437640D02*
D03*
X1450340D02*
D03*
Y1047890D02*
D03*
X1437640D02*
D03*
X1424940D02*
D03*
X1412240D02*
D03*
X1386840D02*
D03*
X1361440D02*
D03*
D30*
X1008380Y1459230D02*
D03*
Y1826260D02*
D03*
X1516380Y1965960D02*
D03*
X1008380Y1967230D02*
D03*
X1502410Y1826260D02*
D03*
X1503680Y1460500D02*
D03*
D31*
X1155700Y1672590D02*
D03*
X1181100Y1596390D02*
D03*
X1206500D02*
D03*
X1155700D02*
D03*
X1181100Y1672590D02*
D03*
X1072070Y1301350D02*
D03*
X1245870Y1889760D02*
D03*
X1072070Y1326750D02*
D03*
X1395730Y965670D02*
D03*
X1370330D02*
D03*
X1072070Y1275950D02*
D03*
X1421130Y965670D02*
D03*
X1220470Y1813560D02*
D03*
X1271270D02*
D03*
X1220470Y1889760D02*
D03*
X1245870Y1813560D02*
D03*
D32*
X1206500Y1672590D02*
D03*
X1072070Y1250550D02*
D03*
X1271270Y1889760D02*
D03*
D34*
X1344930Y965670D02*
D03*
D42*
X1366520Y943610D02*
X1370330Y947420D01*
Y962704D01*
Y965670D01*
X1366520Y943610D02*
X1366600D01*
X1366830Y935990D02*
Y943380D01*
X1366600Y943610D02*
X1366830Y943380D01*
D43*
X1211580Y1515110D02*
D03*
X1248410Y1536700D02*
D03*
X1101090Y1619250D02*
D03*
X1549400Y990600D02*
D03*
X1422400Y2006600D02*
D03*
X1104900D02*
D03*
X999490Y1347470D02*
D03*
X1060450Y1383030D02*
D03*
X1203000Y1207770D02*
D03*
X1228400D02*
D03*
X1330000D02*
D03*
X1406200D02*
D03*
X1431600D02*
D03*
X1457000D02*
D03*
X1482400D02*
D03*
X1533200Y1360170D02*
D03*
X1507800D02*
D03*
X1482400D02*
D03*
X1380800D02*
D03*
X1355400D02*
D03*
X1330000D02*
D03*
X1279200D02*
D03*
X1177600D02*
D03*
X1203000D02*
D03*
X1431600D02*
D03*
X1406200D02*
D03*
X1228400D02*
D03*
X1253800D02*
D03*
X1304600D02*
D03*
X1253800Y1207770D02*
D03*
X1279200D02*
D03*
X1355400D02*
D03*
X1380800D02*
D03*
X1304600D02*
D03*
X1533200D02*
D03*
X1507800D02*
D03*
X1457000Y1360170D02*
D03*
X1169670Y1512570D02*
D03*
X1385570Y937260D02*
D03*
X1243330Y1499870D02*
D03*
X1474470Y1024890D02*
D03*
X1118870Y1915160D02*
D03*
X1202690Y1619250D02*
D03*
X1424940Y1442720D02*
D03*
X998220Y1243330D02*
D03*
X1146810Y1905000D02*
D03*
X1238250Y1743710D02*
D03*
X1198880Y1883410D02*
D03*
X1461770Y967740D02*
D03*
X1384300Y1958340D02*
D03*
X1350010Y1648460D02*
D03*
X1470660Y1664970D02*
D03*
X1412240Y1484630D02*
D03*
X1268730Y1718310D02*
D03*
X1084580Y1844040D02*
D03*
X1418590Y1818640D02*
D03*
X1431975Y1529080D02*
D03*
X1271270Y1912620D02*
D03*
X1106170Y1403350D02*
D03*
X1266190Y1784350D02*
D03*
X1229360Y1692910D02*
D03*
D44*
X985520Y1719580D02*
D03*
Y1567180D02*
D03*
Y1668780D02*
D03*
Y1617980D02*
D03*
X1524000D02*
D03*
Y1668780D02*
D03*
Y1719580D02*
D03*
Y1567180D02*
D03*
D45*
X1152200Y1207770D02*
D03*
Y1360170D02*
D03*
X1558600D02*
D03*
Y1207770D02*
D03*
X1174280Y953160D02*
D03*
X1024280Y1153160D02*
D03*
X1074280Y953160D02*
D03*
D46*
X1177600Y1207770D02*
D03*
D47*
X1467350Y1098550D02*
D03*
X1339350D02*
D03*
D48*
X1178560Y1389380D02*
D03*
X1430020Y1177290D02*
D03*
X1404620D02*
D03*
X1153160Y1389380D02*
D03*
X1379220Y1177290D02*
D03*
X1353820D02*
D03*
X1229360Y1389380D02*
D03*
X1254760D02*
D03*
X1203960D02*
D03*
X1328420Y1177290D02*
D03*
D49*
X1308100Y1744980D02*
D03*
X1310640Y1531620D02*
D03*
X1308100Y1770380D02*
D03*
X1310640Y1557020D02*
D03*
D50*
X1224280Y1153160D02*
D03*
D51*
X1308100Y1719580D02*
D03*
X1310640Y1506220D02*
D03*
D52*
X1280160Y1389380D02*
D03*
X1303020Y1177290D02*
D03*
D53*
X1073150Y1584960D02*
D03*
X1352640Y1401990D02*
D03*
X1457960Y1386840D02*
D03*
X1102360Y1592580D02*
D03*
X1399540Y1115060D02*
D03*
X1309370Y1866900D02*
D03*
X1010920Y1537970D02*
D03*
X1131570Y1427480D02*
D03*
X1135380Y1478280D02*
D03*
X1358900Y1605280D02*
D03*
X1135088Y1640151D02*
D03*
X1087120Y1470660D02*
D03*
X1459230Y1162050D02*
D03*
X1372870Y1027430D02*
D03*
X1324610Y1087120D02*
D03*
X1398270Y1794510D02*
D03*
X1263923Y1626597D02*
D03*
X1357630Y1583690D02*
D03*
X1402080Y1558290D02*
D03*
X1330960Y1043940D02*
D03*
X1099820Y1861820D02*
D03*
X1135380Y1842770D02*
D03*
X1137920Y1865630D02*
D03*
X1153160Y1878330D02*
D03*
X1043940Y1582420D02*
D03*
X1252220Y1606550D02*
D03*
X1082040Y1424752D02*
D03*
X1337310Y1158240D02*
D03*
X1395617Y1160288D02*
D03*
X1391724Y1753401D02*
D03*
X1357630Y1871980D02*
D03*
X1306830Y1819910D02*
D03*
X1361440Y1529080D02*
D03*
D54*
X1332230Y1785620D02*
D03*
M02*
