G04*
G04 #@! TF.GenerationSoftware,Altium Limited,Altium Designer,23.4.1 (23)*
G04*
G04 Layer_Physical_Order=2*
G04 Layer_Color=36540*
%FSLAX44Y44*%
%MOMM*%
G71*
G04*
G04 #@! TF.SameCoordinates,4F8EF9B8-0785-460B-A287-326F995E0807*
G04*
G04*
G04 #@! TF.FilePolarity,Positive*
G04*
G01*
G75*
%ADD30C,9.9000*%
%ADD31C,1.3500*%
%ADD32R,1.3500X1.3500*%
%ADD34R,1.3500X1.3500*%
%ADD43C,1.5240*%
%ADD44C,2.0000*%
%ADD45C,1.6500*%
%ADD47O,0.7620X1.5240*%
%ADD48C,1.5000*%
%ADD49C,1.6000*%
%ADD50R,1.6500X1.6500*%
%ADD51R,1.6000X1.6000*%
%ADD52R,1.5000X1.5000*%
%ADD53C,1.2700*%
%ADD54C,0.7620*%
G36*
X1593847Y912760D02*
X1592950Y911862D01*
X920750Y913130D01*
Y2052315D01*
X1590035D01*
X1593847Y912760D01*
D02*
G37*
%LPC*%
G36*
X1424651Y2029460D02*
X1420148D01*
X1415732Y2028582D01*
X1411572Y2026858D01*
X1407828Y2024357D01*
X1404644Y2021172D01*
X1402142Y2017428D01*
X1400419Y2013268D01*
X1399540Y2008851D01*
Y2004348D01*
X1400419Y1999932D01*
X1402142Y1995772D01*
X1404644Y1992028D01*
X1407828Y1988844D01*
X1411572Y1986342D01*
X1415732Y1984619D01*
X1420148Y1983740D01*
X1424651D01*
X1429068Y1984619D01*
X1433228Y1986342D01*
X1436972Y1988844D01*
X1440157Y1992028D01*
X1442658Y1995772D01*
X1444382Y1999932D01*
X1445260Y2004348D01*
Y2008851D01*
X1444382Y2013268D01*
X1442658Y2017428D01*
X1440157Y2021172D01*
X1436972Y2024357D01*
X1433228Y2026858D01*
X1429068Y2028582D01*
X1424651Y2029460D01*
D02*
G37*
G36*
X1107151D02*
X1102648D01*
X1098232Y2028582D01*
X1094072Y2026858D01*
X1090328Y2024357D01*
X1087143Y2021172D01*
X1084642Y2017428D01*
X1082918Y2013268D01*
X1082040Y2008851D01*
Y2004348D01*
X1082918Y1999932D01*
X1084642Y1995772D01*
X1087143Y1992028D01*
X1090328Y1988844D01*
X1094072Y1986342D01*
X1098232Y1984619D01*
X1102648Y1983740D01*
X1107151D01*
X1111568Y1984619D01*
X1115728Y1986342D01*
X1119472Y1988844D01*
X1122656Y1992028D01*
X1125158Y1995772D01*
X1126881Y1999932D01*
X1127760Y2004348D01*
Y2008851D01*
X1126881Y2013268D01*
X1125158Y2017428D01*
X1122656Y2021172D01*
X1119472Y2024357D01*
X1115728Y2026858D01*
X1111568Y2028582D01*
X1107151Y2029460D01*
D02*
G37*
G36*
X1385638Y1968500D02*
X1382962D01*
X1380378Y1967808D01*
X1378062Y1966470D01*
X1376170Y1964578D01*
X1374832Y1962262D01*
X1374140Y1959678D01*
Y1957002D01*
X1374832Y1954418D01*
X1376170Y1952102D01*
X1378062Y1950210D01*
X1380378Y1948872D01*
X1382962Y1948180D01*
X1385638D01*
X1388222Y1948872D01*
X1390538Y1950210D01*
X1392430Y1952102D01*
X1393768Y1954418D01*
X1394460Y1957002D01*
Y1959678D01*
X1393768Y1962262D01*
X1392430Y1964578D01*
X1390538Y1966470D01*
X1388222Y1967808D01*
X1385638Y1968500D01*
D02*
G37*
G36*
X1011791Y2019270D02*
X1004969D01*
X998206Y2018380D01*
X991616Y2016614D01*
X985314Y2014003D01*
X979406Y2010592D01*
X973994Y2006440D01*
X969170Y2001616D01*
X965017Y1996204D01*
X961607Y1990296D01*
X958996Y1983994D01*
X957230Y1977404D01*
X956340Y1970641D01*
Y1963819D01*
X957230Y1957056D01*
X958996Y1950466D01*
X961607Y1944164D01*
X965017Y1938256D01*
X969170Y1932844D01*
X973994Y1928020D01*
X979406Y1923867D01*
X985314Y1920457D01*
X991616Y1917846D01*
X998206Y1916080D01*
X1004969Y1915190D01*
X1011791D01*
X1018554Y1916080D01*
X1025144Y1917846D01*
X1031446Y1920457D01*
X1037354Y1923867D01*
X1042766Y1928020D01*
X1047590Y1932844D01*
X1051742Y1938256D01*
X1055153Y1944164D01*
X1057764Y1950466D01*
X1059530Y1957056D01*
X1060420Y1963819D01*
Y1970641D01*
X1059530Y1977404D01*
X1057764Y1983994D01*
X1055153Y1990296D01*
X1051742Y1996204D01*
X1047590Y2001616D01*
X1042766Y2006440D01*
X1037354Y2010592D01*
X1031446Y2014003D01*
X1025144Y2016614D01*
X1018554Y2018380D01*
X1011791Y2019270D01*
D02*
G37*
G36*
X1519791Y2018000D02*
X1512969D01*
X1506206Y2017110D01*
X1499616Y2015344D01*
X1493314Y2012733D01*
X1487406Y2009323D01*
X1481994Y2005170D01*
X1477170Y2000346D01*
X1473017Y1994934D01*
X1469607Y1989026D01*
X1466996Y1982724D01*
X1465230Y1976134D01*
X1464340Y1969371D01*
Y1962549D01*
X1465230Y1955786D01*
X1466996Y1949196D01*
X1469607Y1942894D01*
X1473017Y1936986D01*
X1477170Y1931574D01*
X1481994Y1926750D01*
X1487406Y1922598D01*
X1493314Y1919187D01*
X1499616Y1916576D01*
X1506206Y1914810D01*
X1512969Y1913920D01*
X1519791D01*
X1526554Y1914810D01*
X1533144Y1916576D01*
X1539446Y1919187D01*
X1545354Y1922598D01*
X1550766Y1926750D01*
X1555590Y1931574D01*
X1559742Y1936986D01*
X1563153Y1942894D01*
X1565764Y1949196D01*
X1567530Y1955786D01*
X1568420Y1962549D01*
Y1969371D01*
X1567530Y1976134D01*
X1565764Y1982724D01*
X1563153Y1989026D01*
X1559742Y1994934D01*
X1555590Y2000346D01*
X1550766Y2005170D01*
X1545354Y2009323D01*
X1539446Y2012733D01*
X1533144Y2015344D01*
X1526554Y2017110D01*
X1519791Y2018000D01*
D02*
G37*
G36*
X1150620Y1914498D02*
Y1908810D01*
X1156308D01*
X1156278Y1908922D01*
X1154940Y1911238D01*
X1153048Y1913130D01*
X1150732Y1914468D01*
X1150620Y1914498D01*
D02*
G37*
G36*
X1143000D02*
X1142888Y1914468D01*
X1140572Y1913130D01*
X1138680Y1911238D01*
X1137342Y1908922D01*
X1137312Y1908810D01*
X1143000D01*
Y1914498D01*
D02*
G37*
G36*
X1120208Y1925320D02*
X1117532D01*
X1114948Y1924628D01*
X1112632Y1923290D01*
X1110740Y1921398D01*
X1109402Y1919082D01*
X1108710Y1916498D01*
Y1913822D01*
X1109402Y1911238D01*
X1110740Y1908922D01*
X1112632Y1907030D01*
X1114948Y1905692D01*
X1117532Y1905000D01*
X1120208D01*
X1122792Y1905692D01*
X1125108Y1907030D01*
X1127000Y1908922D01*
X1128338Y1911238D01*
X1129030Y1913822D01*
Y1916498D01*
X1128338Y1919082D01*
X1127000Y1921398D01*
X1125108Y1923290D01*
X1122792Y1924628D01*
X1120208Y1925320D01*
D02*
G37*
G36*
X1272608Y1922780D02*
X1269932D01*
X1267348Y1922088D01*
X1265032Y1920750D01*
X1263140Y1918858D01*
X1261802Y1916542D01*
X1261110Y1913958D01*
Y1911282D01*
X1261802Y1908698D01*
X1263140Y1906382D01*
X1265032Y1904490D01*
X1267348Y1903152D01*
X1269932Y1902460D01*
X1272608D01*
X1275192Y1903152D01*
X1277508Y1904490D01*
X1279400Y1906382D01*
X1280738Y1908698D01*
X1281430Y1911282D01*
Y1913958D01*
X1280738Y1916542D01*
X1279400Y1918858D01*
X1277508Y1920750D01*
X1275192Y1922088D01*
X1272608Y1922780D01*
D02*
G37*
G36*
X1156308Y1901190D02*
X1150620D01*
Y1895502D01*
X1150732Y1895532D01*
X1153048Y1896870D01*
X1154940Y1898762D01*
X1156278Y1901078D01*
X1156308Y1901190D01*
D02*
G37*
G36*
X1143000D02*
X1137312D01*
X1137342Y1901078D01*
X1138680Y1898762D01*
X1140572Y1896870D01*
X1142888Y1895532D01*
X1143000Y1895502D01*
Y1901190D01*
D02*
G37*
G36*
X1249680Y1898288D02*
Y1893570D01*
X1254398D01*
X1253304Y1895464D01*
X1251574Y1897194D01*
X1249680Y1898288D01*
D02*
G37*
G36*
X1242060D02*
X1240166Y1897194D01*
X1238436Y1895464D01*
X1237343Y1893570D01*
X1242060D01*
Y1898288D01*
D02*
G37*
G36*
X1254398Y1885950D02*
X1249680D01*
Y1881232D01*
X1251574Y1882326D01*
X1253304Y1884056D01*
X1254398Y1885950D01*
D02*
G37*
G36*
X1242060D02*
X1237343D01*
X1238436Y1884056D01*
X1240166Y1882326D01*
X1242060Y1881232D01*
Y1885950D01*
D02*
G37*
G36*
X1280560Y1899050D02*
X1261980D01*
Y1880470D01*
X1280560D01*
Y1899050D01*
D02*
G37*
G36*
X1221693D02*
X1219247D01*
X1216884Y1898417D01*
X1214766Y1897194D01*
X1213036Y1895464D01*
X1211813Y1893346D01*
X1211180Y1890983D01*
Y1888537D01*
X1211813Y1886174D01*
X1213036Y1884056D01*
X1214766Y1882326D01*
X1216884Y1881103D01*
X1219247Y1880470D01*
X1221693D01*
X1224056Y1881103D01*
X1226174Y1882326D01*
X1227904Y1884056D01*
X1229127Y1886174D01*
X1229760Y1888537D01*
Y1890983D01*
X1229127Y1893346D01*
X1227904Y1895464D01*
X1226174Y1897194D01*
X1224056Y1898417D01*
X1221693Y1899050D01*
D02*
G37*
G36*
X1200218Y1893570D02*
X1197542D01*
X1194958Y1892878D01*
X1192642Y1891540D01*
X1190750Y1889648D01*
X1189412Y1887332D01*
X1188720Y1884748D01*
Y1882072D01*
X1189412Y1879488D01*
X1190750Y1877172D01*
X1192642Y1875280D01*
X1194958Y1873942D01*
X1197542Y1873250D01*
X1200218D01*
X1202802Y1873942D01*
X1205118Y1875280D01*
X1207010Y1877172D01*
X1208348Y1879488D01*
X1209040Y1882072D01*
Y1884748D01*
X1208348Y1887332D01*
X1207010Y1889648D01*
X1205118Y1891540D01*
X1202802Y1892878D01*
X1200218Y1893570D01*
D02*
G37*
G36*
X1313180Y1874966D02*
Y1870710D01*
X1317436D01*
X1316484Y1872359D01*
X1314829Y1874014D01*
X1313180Y1874966D01*
D02*
G37*
G36*
X1305560D02*
X1303911Y1874014D01*
X1302256Y1872359D01*
X1301304Y1870710D01*
X1305560D01*
Y1874966D01*
D02*
G37*
G36*
X1154330Y1887220D02*
X1151990D01*
X1149729Y1886614D01*
X1147701Y1885444D01*
X1146046Y1883789D01*
X1144876Y1881761D01*
X1144270Y1879500D01*
Y1877160D01*
X1144876Y1874899D01*
X1146046Y1872871D01*
X1147701Y1871216D01*
X1149729Y1870046D01*
X1151990Y1869440D01*
X1154330D01*
X1156591Y1870046D01*
X1158619Y1871216D01*
X1160274Y1872871D01*
X1161444Y1874899D01*
X1162050Y1877160D01*
Y1879500D01*
X1161444Y1881761D01*
X1160274Y1883789D01*
X1158619Y1885444D01*
X1156591Y1886614D01*
X1154330Y1887220D01*
D02*
G37*
G36*
X1358800Y1880870D02*
X1356460D01*
X1354199Y1880264D01*
X1352171Y1879094D01*
X1350516Y1877439D01*
X1349346Y1875411D01*
X1348740Y1873150D01*
Y1870810D01*
X1349346Y1868549D01*
X1350516Y1866521D01*
X1352171Y1864866D01*
X1354199Y1863696D01*
X1356460Y1863090D01*
X1358800D01*
X1361061Y1863696D01*
X1363089Y1864866D01*
X1364744Y1866521D01*
X1365914Y1868549D01*
X1366520Y1870810D01*
Y1873150D01*
X1365914Y1875411D01*
X1364744Y1877439D01*
X1363089Y1879094D01*
X1361061Y1880264D01*
X1358800Y1880870D01*
D02*
G37*
G36*
X1317436Y1863090D02*
X1313180D01*
Y1858834D01*
X1314829Y1859786D01*
X1316484Y1861441D01*
X1317436Y1863090D01*
D02*
G37*
G36*
X1305560D02*
X1301304D01*
X1302256Y1861441D01*
X1303911Y1859786D01*
X1305560Y1858834D01*
Y1863090D01*
D02*
G37*
G36*
X1139090Y1874520D02*
X1136750D01*
X1134489Y1873914D01*
X1132461Y1872744D01*
X1130806Y1871089D01*
X1129636Y1869061D01*
X1129030Y1866800D01*
Y1864460D01*
X1129636Y1862199D01*
X1130806Y1860171D01*
X1132461Y1858516D01*
X1134489Y1857346D01*
X1136750Y1856740D01*
X1139090D01*
X1141351Y1857346D01*
X1143379Y1858516D01*
X1145034Y1860171D01*
X1146204Y1862199D01*
X1146810Y1864460D01*
Y1866800D01*
X1146204Y1869061D01*
X1145034Y1871089D01*
X1143379Y1872744D01*
X1141351Y1873914D01*
X1139090Y1874520D01*
D02*
G37*
G36*
X1100990Y1870710D02*
X1098650D01*
X1096389Y1870104D01*
X1094361Y1868934D01*
X1092706Y1867279D01*
X1091536Y1865251D01*
X1090930Y1862990D01*
Y1860650D01*
X1091536Y1858389D01*
X1092706Y1856361D01*
X1094361Y1854706D01*
X1096389Y1853536D01*
X1098650Y1852930D01*
X1100990D01*
X1103251Y1853536D01*
X1105279Y1854706D01*
X1106934Y1856361D01*
X1108104Y1858389D01*
X1108710Y1860650D01*
Y1862990D01*
X1108104Y1865251D01*
X1106934Y1867279D01*
X1105279Y1868934D01*
X1103251Y1870104D01*
X1100990Y1870710D01*
D02*
G37*
G36*
X1136550Y1851660D02*
X1134210D01*
X1131949Y1851054D01*
X1129921Y1849884D01*
X1128266Y1848229D01*
X1127096Y1846201D01*
X1126490Y1843940D01*
Y1841600D01*
X1127096Y1839339D01*
X1128266Y1837311D01*
X1129921Y1835656D01*
X1131949Y1834486D01*
X1134210Y1833880D01*
X1136550D01*
X1138811Y1834486D01*
X1140839Y1835656D01*
X1142494Y1837311D01*
X1143664Y1839339D01*
X1144270Y1841600D01*
Y1843940D01*
X1143664Y1846201D01*
X1142494Y1848229D01*
X1140839Y1849884D01*
X1138811Y1851054D01*
X1136550Y1851660D01*
D02*
G37*
G36*
X1085918Y1854200D02*
X1083242D01*
X1080658Y1853508D01*
X1078342Y1852170D01*
X1076450Y1850278D01*
X1075112Y1847962D01*
X1074420Y1845378D01*
Y1842702D01*
X1075112Y1840118D01*
X1076450Y1837802D01*
X1078342Y1835910D01*
X1080658Y1834572D01*
X1083242Y1833880D01*
X1085918D01*
X1088502Y1834572D01*
X1090818Y1835910D01*
X1092710Y1837802D01*
X1094048Y1840118D01*
X1094740Y1842702D01*
Y1845378D01*
X1094048Y1847962D01*
X1092710Y1850278D01*
X1090818Y1852170D01*
X1088502Y1853508D01*
X1085918Y1854200D01*
D02*
G37*
G36*
X1308000Y1828800D02*
X1305660D01*
X1303399Y1828194D01*
X1301371Y1827024D01*
X1299716Y1825369D01*
X1298546Y1823341D01*
X1297940Y1821080D01*
Y1818740D01*
X1298546Y1816479D01*
X1299716Y1814451D01*
X1301371Y1812796D01*
X1303399Y1811626D01*
X1305660Y1811020D01*
X1308000D01*
X1310261Y1811626D01*
X1312289Y1812796D01*
X1313944Y1814451D01*
X1315114Y1816479D01*
X1315720Y1818740D01*
Y1821080D01*
X1315114Y1823341D01*
X1313944Y1825369D01*
X1312289Y1827024D01*
X1310261Y1828194D01*
X1308000Y1828800D01*
D02*
G37*
G36*
X1419928D02*
X1417252D01*
X1414668Y1828108D01*
X1412352Y1826770D01*
X1410460Y1824878D01*
X1409122Y1822562D01*
X1408430Y1819978D01*
Y1817302D01*
X1409122Y1814718D01*
X1410460Y1812402D01*
X1412352Y1810510D01*
X1414668Y1809172D01*
X1417252Y1808480D01*
X1419928D01*
X1422512Y1809172D01*
X1424828Y1810510D01*
X1426720Y1812402D01*
X1428058Y1814718D01*
X1428750Y1817302D01*
Y1819978D01*
X1428058Y1822562D01*
X1426720Y1824878D01*
X1424828Y1826770D01*
X1422512Y1828108D01*
X1419928Y1828800D01*
D02*
G37*
G36*
X1272493Y1822850D02*
X1270047D01*
X1267684Y1822217D01*
X1265566Y1820994D01*
X1263836Y1819264D01*
X1262613Y1817146D01*
X1261980Y1814783D01*
Y1812337D01*
X1262613Y1809974D01*
X1263836Y1807856D01*
X1265566Y1806126D01*
X1267684Y1804903D01*
X1270047Y1804270D01*
X1272493D01*
X1274856Y1804903D01*
X1276974Y1806126D01*
X1278704Y1807856D01*
X1279927Y1809974D01*
X1280560Y1812337D01*
Y1814783D01*
X1279927Y1817146D01*
X1278704Y1819264D01*
X1276974Y1820994D01*
X1274856Y1822217D01*
X1272493Y1822850D01*
D02*
G37*
G36*
X1247093D02*
X1244647D01*
X1242284Y1822217D01*
X1240166Y1820994D01*
X1238436Y1819264D01*
X1237213Y1817146D01*
X1236580Y1814783D01*
Y1812337D01*
X1237213Y1809974D01*
X1238436Y1807856D01*
X1240166Y1806126D01*
X1242284Y1804903D01*
X1244647Y1804270D01*
X1247093D01*
X1249456Y1804903D01*
X1251574Y1806126D01*
X1253304Y1807856D01*
X1254527Y1809974D01*
X1255160Y1812337D01*
Y1814783D01*
X1254527Y1817146D01*
X1253304Y1819264D01*
X1251574Y1820994D01*
X1249456Y1822217D01*
X1247093Y1822850D01*
D02*
G37*
G36*
X1221693D02*
X1219247D01*
X1216884Y1822217D01*
X1214766Y1820994D01*
X1213036Y1819264D01*
X1211813Y1817146D01*
X1211180Y1814783D01*
Y1812337D01*
X1211813Y1809974D01*
X1213036Y1807856D01*
X1214766Y1806126D01*
X1216884Y1804903D01*
X1219247Y1804270D01*
X1221693D01*
X1224056Y1804903D01*
X1226174Y1806126D01*
X1227904Y1807856D01*
X1229127Y1809974D01*
X1229760Y1812337D01*
Y1814783D01*
X1229127Y1817146D01*
X1227904Y1819264D01*
X1226174Y1820994D01*
X1224056Y1822217D01*
X1221693Y1822850D01*
D02*
G37*
G36*
X1402080Y1802576D02*
Y1798320D01*
X1406336D01*
X1405384Y1799969D01*
X1403729Y1801624D01*
X1402080Y1802576D01*
D02*
G37*
G36*
X1394460D02*
X1392811Y1801624D01*
X1391156Y1799969D01*
X1390204Y1798320D01*
X1394460D01*
Y1802576D01*
D02*
G37*
G36*
X1336040Y1790790D02*
Y1789430D01*
X1337400D01*
X1336040Y1790790D01*
D02*
G37*
G36*
X1328420D02*
X1327060Y1789430D01*
X1328420D01*
Y1790790D01*
D02*
G37*
G36*
X1406336Y1790700D02*
X1402080D01*
Y1786444D01*
X1403729Y1787396D01*
X1405384Y1789051D01*
X1406336Y1790700D01*
D02*
G37*
G36*
X1394460D02*
X1390204D01*
X1391156Y1789051D01*
X1392811Y1787396D01*
X1394460Y1786444D01*
Y1790700D01*
D02*
G37*
G36*
X1337400Y1781810D02*
X1336040D01*
Y1780450D01*
X1337400Y1781810D01*
D02*
G37*
G36*
X1328420D02*
X1327060D01*
X1328420Y1780450D01*
Y1781810D01*
D02*
G37*
G36*
X1505821Y1878300D02*
X1498999D01*
X1492236Y1877410D01*
X1485646Y1875644D01*
X1479344Y1873033D01*
X1473436Y1869622D01*
X1468024Y1865470D01*
X1463200Y1860646D01*
X1459048Y1855234D01*
X1455637Y1849326D01*
X1453026Y1843024D01*
X1451260Y1836434D01*
X1450370Y1829671D01*
Y1822849D01*
X1451260Y1816086D01*
X1453026Y1809496D01*
X1455637Y1803194D01*
X1459048Y1797286D01*
X1463200Y1791874D01*
X1468024Y1787050D01*
X1473436Y1782897D01*
X1479344Y1779487D01*
X1485646Y1776876D01*
X1492236Y1775110D01*
X1498999Y1774220D01*
X1505821D01*
X1512584Y1775110D01*
X1519174Y1776876D01*
X1525476Y1779487D01*
X1531384Y1782897D01*
X1536796Y1787050D01*
X1541620Y1791874D01*
X1545773Y1797286D01*
X1549183Y1803194D01*
X1551794Y1809496D01*
X1553560Y1816086D01*
X1554450Y1822849D01*
Y1829671D01*
X1553560Y1836434D01*
X1551794Y1843024D01*
X1549183Y1849326D01*
X1545773Y1855234D01*
X1541620Y1860646D01*
X1536796Y1865470D01*
X1531384Y1869622D01*
X1525476Y1873033D01*
X1519174Y1875644D01*
X1512584Y1877410D01*
X1505821Y1878300D01*
D02*
G37*
G36*
X1011791D02*
X1004969D01*
X998206Y1877410D01*
X991616Y1875644D01*
X985314Y1873033D01*
X979406Y1869622D01*
X973994Y1865470D01*
X969170Y1860646D01*
X965017Y1855234D01*
X961607Y1849326D01*
X958996Y1843024D01*
X957230Y1836434D01*
X956340Y1829671D01*
Y1822849D01*
X957230Y1816086D01*
X958996Y1809496D01*
X961607Y1803194D01*
X965017Y1797286D01*
X969170Y1791874D01*
X973994Y1787050D01*
X979406Y1782897D01*
X985314Y1779487D01*
X991616Y1776876D01*
X998206Y1775110D01*
X1004969Y1774220D01*
X1011791D01*
X1018554Y1775110D01*
X1025144Y1776876D01*
X1031446Y1779487D01*
X1037354Y1782897D01*
X1042766Y1787050D01*
X1047590Y1791874D01*
X1051742Y1797286D01*
X1055153Y1803194D01*
X1057764Y1809496D01*
X1059530Y1816086D01*
X1060420Y1822849D01*
Y1829671D01*
X1059530Y1836434D01*
X1057764Y1843024D01*
X1055153Y1849326D01*
X1051742Y1855234D01*
X1047590Y1860646D01*
X1042766Y1865470D01*
X1037354Y1869622D01*
X1031446Y1873033D01*
X1025144Y1875644D01*
X1018554Y1877410D01*
X1011791Y1878300D01*
D02*
G37*
G36*
X1267528Y1794510D02*
X1264852D01*
X1262268Y1793818D01*
X1259952Y1792480D01*
X1258060Y1790588D01*
X1256722Y1788272D01*
X1256030Y1785688D01*
Y1783012D01*
X1256722Y1780428D01*
X1258060Y1778112D01*
X1259952Y1776220D01*
X1262268Y1774882D01*
X1264852Y1774190D01*
X1267528D01*
X1270112Y1774882D01*
X1272428Y1776220D01*
X1274320Y1778112D01*
X1275658Y1780428D01*
X1276350Y1783012D01*
Y1785688D01*
X1275658Y1788272D01*
X1274320Y1790588D01*
X1272428Y1792480D01*
X1270112Y1793818D01*
X1267528Y1794510D01*
D02*
G37*
G36*
X1309488Y1780920D02*
X1306712D01*
X1304032Y1780202D01*
X1301628Y1778814D01*
X1299666Y1776852D01*
X1298278Y1774448D01*
X1297560Y1771768D01*
Y1768992D01*
X1298278Y1766312D01*
X1299666Y1763908D01*
X1301628Y1761946D01*
X1304032Y1760558D01*
X1306712Y1759840D01*
X1309488D01*
X1312168Y1760558D01*
X1314572Y1761946D01*
X1316534Y1763908D01*
X1317922Y1766312D01*
X1318640Y1768992D01*
Y1771768D01*
X1317922Y1774448D01*
X1316534Y1776852D01*
X1314572Y1778814D01*
X1312168Y1780202D01*
X1309488Y1780920D01*
D02*
G37*
G36*
X1392894Y1762291D02*
X1390553D01*
X1388292Y1761685D01*
X1386265Y1760515D01*
X1384610Y1758860D01*
X1383439Y1756833D01*
X1382834Y1754572D01*
Y1752231D01*
X1383439Y1749970D01*
X1384610Y1747943D01*
X1386265Y1746288D01*
X1388292Y1745117D01*
X1390553Y1744511D01*
X1392894D01*
X1395155Y1745117D01*
X1397182Y1746288D01*
X1398837Y1747943D01*
X1400008Y1749970D01*
X1400614Y1752231D01*
Y1754572D01*
X1400008Y1756833D01*
X1398837Y1758860D01*
X1397182Y1760515D01*
X1395155Y1761685D01*
X1392894Y1762291D01*
D02*
G37*
G36*
X1309488Y1755520D02*
X1306712D01*
X1304032Y1754802D01*
X1301628Y1753414D01*
X1299666Y1751452D01*
X1298278Y1749048D01*
X1297560Y1746368D01*
Y1743592D01*
X1298278Y1740912D01*
X1299666Y1738508D01*
X1301628Y1736546D01*
X1304032Y1735158D01*
X1306712Y1734440D01*
X1309488D01*
X1312168Y1735158D01*
X1314572Y1736546D01*
X1316534Y1738508D01*
X1317922Y1740912D01*
X1318640Y1743592D01*
Y1746368D01*
X1317922Y1749048D01*
X1316534Y1751452D01*
X1314572Y1753414D01*
X1312168Y1754802D01*
X1309488Y1755520D01*
D02*
G37*
G36*
X1239588Y1753870D02*
X1236912D01*
X1234328Y1753178D01*
X1232012Y1751840D01*
X1230120Y1749948D01*
X1228782Y1747632D01*
X1228090Y1745048D01*
Y1742372D01*
X1228782Y1739788D01*
X1230120Y1737472D01*
X1232012Y1735580D01*
X1234328Y1734242D01*
X1236912Y1733550D01*
X1239588D01*
X1242172Y1734242D01*
X1244488Y1735580D01*
X1246380Y1737472D01*
X1247718Y1739788D01*
X1248410Y1742372D01*
Y1745048D01*
X1247718Y1747632D01*
X1246380Y1749948D01*
X1244488Y1751840D01*
X1242172Y1753178D01*
X1239588Y1753870D01*
D02*
G37*
G36*
X1318640Y1730120D02*
X1297560D01*
Y1709040D01*
X1318640D01*
Y1730120D01*
D02*
G37*
G36*
X1270068Y1728470D02*
X1267392D01*
X1264808Y1727778D01*
X1262492Y1726440D01*
X1260600Y1724548D01*
X1259262Y1722232D01*
X1258570Y1719648D01*
Y1716972D01*
X1259262Y1714388D01*
X1260600Y1712072D01*
X1262492Y1710180D01*
X1264808Y1708842D01*
X1267392Y1708150D01*
X1270068D01*
X1272652Y1708842D01*
X1274968Y1710180D01*
X1276860Y1712072D01*
X1278198Y1714388D01*
X1278890Y1716972D01*
Y1719648D01*
X1278198Y1722232D01*
X1276860Y1724548D01*
X1274968Y1726440D01*
X1272652Y1727778D01*
X1270068Y1728470D01*
D02*
G37*
G36*
X1525651Y1732120D02*
X1522349D01*
X1519160Y1731265D01*
X1516300Y1729615D01*
X1513965Y1727280D01*
X1512315Y1724420D01*
X1511460Y1721231D01*
Y1717929D01*
X1512315Y1714740D01*
X1513965Y1711880D01*
X1516300Y1709545D01*
X1519160Y1707895D01*
X1522349Y1707040D01*
X1525651D01*
X1528840Y1707895D01*
X1531700Y1709545D01*
X1534034Y1711880D01*
X1535685Y1714740D01*
X1536540Y1717929D01*
Y1721231D01*
X1535685Y1724420D01*
X1534034Y1727280D01*
X1531700Y1729615D01*
X1528840Y1731265D01*
X1525651Y1732120D01*
D02*
G37*
G36*
X987171D02*
X983869D01*
X980680Y1731265D01*
X977820Y1729615D01*
X975486Y1727280D01*
X973835Y1724420D01*
X972980Y1721231D01*
Y1717929D01*
X973835Y1714740D01*
X975486Y1711880D01*
X977820Y1709545D01*
X980680Y1707895D01*
X983869Y1707040D01*
X987171D01*
X990360Y1707895D01*
X993220Y1709545D01*
X995555Y1711880D01*
X997205Y1714740D01*
X998060Y1717929D01*
Y1721231D01*
X997205Y1724420D01*
X995555Y1727280D01*
X993220Y1729615D01*
X990360Y1731265D01*
X987171Y1732120D01*
D02*
G37*
G36*
X1230698Y1703070D02*
X1228022D01*
X1225438Y1702378D01*
X1223122Y1701040D01*
X1221230Y1699148D01*
X1219892Y1696832D01*
X1219200Y1694248D01*
Y1691572D01*
X1219892Y1688988D01*
X1221230Y1686672D01*
X1223122Y1684780D01*
X1225438Y1683442D01*
X1228022Y1682750D01*
X1230698D01*
X1233282Y1683442D01*
X1235598Y1684780D01*
X1237490Y1686672D01*
X1238828Y1688988D01*
X1239520Y1691572D01*
Y1694248D01*
X1238828Y1696832D01*
X1237490Y1699148D01*
X1235598Y1701040D01*
X1233282Y1702378D01*
X1230698Y1703070D01*
D02*
G37*
G36*
X1184910Y1681118D02*
Y1676400D01*
X1189628D01*
X1188534Y1678294D01*
X1186804Y1680024D01*
X1184910Y1681118D01*
D02*
G37*
G36*
X1177290D02*
X1175396Y1680024D01*
X1173666Y1678294D01*
X1172572Y1676400D01*
X1177290D01*
Y1681118D01*
D02*
G37*
G36*
X1189628Y1668780D02*
X1184910D01*
Y1664062D01*
X1186804Y1665156D01*
X1188534Y1666886D01*
X1189628Y1668780D01*
D02*
G37*
G36*
X1177290D02*
X1172572D01*
X1173666Y1666886D01*
X1175396Y1665156D01*
X1177290Y1664062D01*
Y1668780D01*
D02*
G37*
G36*
X1215790Y1681880D02*
X1197210D01*
Y1663300D01*
X1215790D01*
Y1681880D01*
D02*
G37*
G36*
X1156923D02*
X1154477D01*
X1152114Y1681247D01*
X1149996Y1680024D01*
X1148266Y1678294D01*
X1147043Y1676176D01*
X1146410Y1673813D01*
Y1671367D01*
X1147043Y1669004D01*
X1148266Y1666886D01*
X1149996Y1665156D01*
X1152114Y1663933D01*
X1154477Y1663300D01*
X1156923D01*
X1159286Y1663933D01*
X1161404Y1665156D01*
X1163134Y1666886D01*
X1164357Y1669004D01*
X1164990Y1671367D01*
Y1673813D01*
X1164357Y1676176D01*
X1163134Y1678294D01*
X1161404Y1680024D01*
X1159286Y1681247D01*
X1156923Y1681880D01*
D02*
G37*
G36*
X1525651Y1681320D02*
X1522349D01*
X1519160Y1680465D01*
X1516300Y1678815D01*
X1513965Y1676480D01*
X1512315Y1673620D01*
X1511460Y1670431D01*
Y1667129D01*
X1512315Y1663940D01*
X1513965Y1661080D01*
X1516300Y1658746D01*
X1519160Y1657095D01*
X1522349Y1656240D01*
X1525651D01*
X1528840Y1657095D01*
X1531700Y1658746D01*
X1534034Y1661080D01*
X1535685Y1663940D01*
X1536540Y1667129D01*
Y1670431D01*
X1535685Y1673620D01*
X1534034Y1676480D01*
X1531700Y1678815D01*
X1528840Y1680465D01*
X1525651Y1681320D01*
D02*
G37*
G36*
X987171D02*
X983869D01*
X980680Y1680465D01*
X977820Y1678815D01*
X975486Y1676480D01*
X973835Y1673620D01*
X972980Y1670431D01*
Y1667129D01*
X973835Y1663940D01*
X975486Y1661080D01*
X977820Y1658746D01*
X980680Y1657095D01*
X983869Y1656240D01*
X987171D01*
X990360Y1657095D01*
X993220Y1658746D01*
X995555Y1661080D01*
X997205Y1663940D01*
X998060Y1667129D01*
Y1670431D01*
X997205Y1673620D01*
X995555Y1676480D01*
X993220Y1678815D01*
X990360Y1680465D01*
X987171Y1681320D01*
D02*
G37*
G36*
X1471998Y1675130D02*
X1469322D01*
X1466738Y1674438D01*
X1464422Y1673100D01*
X1462530Y1671208D01*
X1461192Y1668892D01*
X1460500Y1666308D01*
Y1663632D01*
X1461192Y1661048D01*
X1462530Y1658732D01*
X1464422Y1656840D01*
X1466738Y1655502D01*
X1469322Y1654810D01*
X1471998D01*
X1474582Y1655502D01*
X1476898Y1656840D01*
X1478790Y1658732D01*
X1480128Y1661048D01*
X1480820Y1663632D01*
Y1666308D01*
X1480128Y1668892D01*
X1478790Y1671208D01*
X1476898Y1673100D01*
X1474582Y1674438D01*
X1471998Y1675130D01*
D02*
G37*
G36*
X1138898Y1648217D02*
Y1643961D01*
X1143153D01*
X1142202Y1645610D01*
X1140546Y1647265D01*
X1138898Y1648217D01*
D02*
G37*
G36*
X1131278D02*
X1129629Y1647265D01*
X1127974Y1645610D01*
X1127022Y1643961D01*
X1131278D01*
Y1648217D01*
D02*
G37*
G36*
X1351348Y1658620D02*
X1348672D01*
X1346088Y1657928D01*
X1343772Y1656590D01*
X1341880Y1654698D01*
X1340542Y1652382D01*
X1339850Y1649798D01*
Y1647122D01*
X1340542Y1644538D01*
X1341880Y1642222D01*
X1343772Y1640330D01*
X1346088Y1638992D01*
X1348672Y1638300D01*
X1351348D01*
X1353932Y1638992D01*
X1356248Y1640330D01*
X1358140Y1642222D01*
X1359478Y1644538D01*
X1360170Y1647122D01*
Y1649798D01*
X1359478Y1652382D01*
X1358140Y1654698D01*
X1356248Y1656590D01*
X1353932Y1657928D01*
X1351348Y1658620D01*
D02*
G37*
G36*
X1143153Y1636341D02*
X1138898D01*
Y1632086D01*
X1140546Y1633037D01*
X1142202Y1634693D01*
X1143153Y1636341D01*
D02*
G37*
G36*
X1131278D02*
X1127022D01*
X1127974Y1634693D01*
X1129629Y1633037D01*
X1131278Y1632086D01*
Y1636341D01*
D02*
G37*
G36*
X1267733Y1634662D02*
Y1630407D01*
X1271989D01*
X1271037Y1632056D01*
X1269382Y1633711D01*
X1267733Y1634662D01*
D02*
G37*
G36*
X1260113D02*
X1258464Y1633711D01*
X1256809Y1632056D01*
X1255857Y1630407D01*
X1260113D01*
Y1634662D01*
D02*
G37*
G36*
X1271989Y1622787D02*
X1267733D01*
Y1618531D01*
X1269382Y1619483D01*
X1271037Y1621138D01*
X1271989Y1622787D01*
D02*
G37*
G36*
X1260113D02*
X1255857D01*
X1256809Y1621138D01*
X1258464Y1619483D01*
X1260113Y1618531D01*
Y1622787D01*
D02*
G37*
G36*
X1204028Y1629410D02*
X1201352D01*
X1198768Y1628718D01*
X1196452Y1627380D01*
X1194560Y1625488D01*
X1193222Y1623172D01*
X1192530Y1620588D01*
Y1617912D01*
X1193222Y1615328D01*
X1194560Y1613012D01*
X1196452Y1611120D01*
X1198768Y1609782D01*
X1201352Y1609090D01*
X1204028D01*
X1206612Y1609782D01*
X1208928Y1611120D01*
X1210820Y1613012D01*
X1212158Y1615328D01*
X1212850Y1617912D01*
Y1620588D01*
X1212158Y1623172D01*
X1210820Y1625488D01*
X1208928Y1627380D01*
X1206612Y1628718D01*
X1204028Y1629410D01*
D02*
G37*
G36*
X1102428D02*
X1099752D01*
X1097168Y1628718D01*
X1094852Y1627380D01*
X1092960Y1625488D01*
X1091622Y1623172D01*
X1090930Y1620588D01*
Y1617912D01*
X1091622Y1615328D01*
X1092960Y1613012D01*
X1094852Y1611120D01*
X1097168Y1609782D01*
X1099752Y1609090D01*
X1102428D01*
X1105012Y1609782D01*
X1107328Y1611120D01*
X1109220Y1613012D01*
X1110558Y1615328D01*
X1111250Y1617912D01*
Y1620588D01*
X1110558Y1623172D01*
X1109220Y1625488D01*
X1107328Y1627380D01*
X1105012Y1628718D01*
X1102428Y1629410D01*
D02*
G37*
G36*
X1525651Y1630520D02*
X1522349D01*
X1519160Y1629665D01*
X1516300Y1628015D01*
X1513965Y1625680D01*
X1512315Y1622820D01*
X1511460Y1619631D01*
Y1616329D01*
X1512315Y1613140D01*
X1513965Y1610280D01*
X1516300Y1607946D01*
X1519160Y1606295D01*
X1522349Y1605440D01*
X1525651D01*
X1528840Y1606295D01*
X1531700Y1607946D01*
X1534034Y1610280D01*
X1535685Y1613140D01*
X1536540Y1616329D01*
Y1619631D01*
X1535685Y1622820D01*
X1534034Y1625680D01*
X1531700Y1628015D01*
X1528840Y1629665D01*
X1525651Y1630520D01*
D02*
G37*
G36*
X987171D02*
X983869D01*
X980680Y1629665D01*
X977820Y1628015D01*
X975486Y1625680D01*
X973835Y1622820D01*
X972980Y1619631D01*
Y1616329D01*
X973835Y1613140D01*
X975486Y1610280D01*
X977820Y1607946D01*
X980680Y1606295D01*
X983869Y1605440D01*
X987171D01*
X990360Y1606295D01*
X993220Y1607946D01*
X995555Y1610280D01*
X997205Y1613140D01*
X998060Y1616329D01*
Y1619631D01*
X997205Y1622820D01*
X995555Y1625680D01*
X993220Y1628015D01*
X990360Y1629665D01*
X987171Y1630520D01*
D02*
G37*
G36*
X1253390Y1615440D02*
X1251050D01*
X1248789Y1614834D01*
X1246761Y1613664D01*
X1245106Y1612009D01*
X1243936Y1609981D01*
X1243330Y1607720D01*
Y1605380D01*
X1243936Y1603119D01*
X1245106Y1601091D01*
X1246761Y1599436D01*
X1248789Y1598266D01*
X1251050Y1597660D01*
X1253390D01*
X1255651Y1598266D01*
X1257679Y1599436D01*
X1259334Y1601091D01*
X1260504Y1603119D01*
X1261110Y1605380D01*
Y1607720D01*
X1260504Y1609981D01*
X1259334Y1612009D01*
X1257679Y1613664D01*
X1255651Y1614834D01*
X1253390Y1615440D01*
D02*
G37*
G36*
X1360070Y1614170D02*
X1357730D01*
X1355469Y1613564D01*
X1353441Y1612394D01*
X1351786Y1610739D01*
X1350616Y1608711D01*
X1350010Y1606450D01*
Y1604110D01*
X1350616Y1601849D01*
X1351786Y1599821D01*
X1353441Y1598166D01*
X1355469Y1596996D01*
X1357730Y1596390D01*
X1360070D01*
X1362331Y1596996D01*
X1364359Y1598166D01*
X1366014Y1599821D01*
X1367184Y1601849D01*
X1367790Y1604110D01*
Y1606450D01*
X1367184Y1608711D01*
X1366014Y1610739D01*
X1364359Y1612394D01*
X1362331Y1613564D01*
X1360070Y1614170D01*
D02*
G37*
G36*
X1106170Y1600646D02*
Y1596390D01*
X1110426D01*
X1109474Y1598039D01*
X1107819Y1599694D01*
X1106170Y1600646D01*
D02*
G37*
G36*
X1098550D02*
X1096901Y1599694D01*
X1095246Y1598039D01*
X1094294Y1596390D01*
X1098550D01*
Y1600646D01*
D02*
G37*
G36*
X1076960Y1593026D02*
Y1588770D01*
X1081216D01*
X1080264Y1590419D01*
X1078609Y1592074D01*
X1076960Y1593026D01*
D02*
G37*
G36*
X1069340D02*
X1067691Y1592074D01*
X1066036Y1590419D01*
X1065084Y1588770D01*
X1069340D01*
Y1593026D01*
D02*
G37*
G36*
X1361440Y1591756D02*
Y1587500D01*
X1365696D01*
X1364744Y1589149D01*
X1363089Y1590804D01*
X1361440Y1591756D01*
D02*
G37*
G36*
X1353820D02*
X1352171Y1590804D01*
X1350516Y1589149D01*
X1349564Y1587500D01*
X1353820D01*
Y1591756D01*
D02*
G37*
G36*
X1207723Y1605680D02*
X1205277D01*
X1202914Y1605047D01*
X1200796Y1603824D01*
X1199066Y1602094D01*
X1197843Y1599976D01*
X1197210Y1597613D01*
Y1595167D01*
X1197843Y1592804D01*
X1199066Y1590686D01*
X1200796Y1588956D01*
X1202914Y1587733D01*
X1205277Y1587100D01*
X1207723D01*
X1210086Y1587733D01*
X1212204Y1588956D01*
X1213934Y1590686D01*
X1215157Y1592804D01*
X1215790Y1595167D01*
Y1597613D01*
X1215157Y1599976D01*
X1213934Y1602094D01*
X1212204Y1603824D01*
X1210086Y1605047D01*
X1207723Y1605680D01*
D02*
G37*
G36*
X1182323D02*
X1179877D01*
X1177514Y1605047D01*
X1175396Y1603824D01*
X1173666Y1602094D01*
X1172443Y1599976D01*
X1171810Y1597613D01*
Y1595167D01*
X1172443Y1592804D01*
X1173666Y1590686D01*
X1175396Y1588956D01*
X1177514Y1587733D01*
X1179877Y1587100D01*
X1182323D01*
X1184686Y1587733D01*
X1186804Y1588956D01*
X1188534Y1590686D01*
X1189757Y1592804D01*
X1190390Y1595167D01*
Y1597613D01*
X1189757Y1599976D01*
X1188534Y1602094D01*
X1186804Y1603824D01*
X1184686Y1605047D01*
X1182323Y1605680D01*
D02*
G37*
G36*
X1156923D02*
X1154477D01*
X1152114Y1605047D01*
X1149996Y1603824D01*
X1148266Y1602094D01*
X1147043Y1599976D01*
X1146410Y1597613D01*
Y1595167D01*
X1147043Y1592804D01*
X1148266Y1590686D01*
X1149996Y1588956D01*
X1152114Y1587733D01*
X1154477Y1587100D01*
X1156923D01*
X1159286Y1587733D01*
X1161404Y1588956D01*
X1163134Y1590686D01*
X1164357Y1592804D01*
X1164990Y1595167D01*
Y1597613D01*
X1164357Y1599976D01*
X1163134Y1602094D01*
X1161404Y1603824D01*
X1159286Y1605047D01*
X1156923Y1605680D01*
D02*
G37*
G36*
X1110426Y1588770D02*
X1106170D01*
Y1584514D01*
X1107819Y1585466D01*
X1109474Y1587121D01*
X1110426Y1588770D01*
D02*
G37*
G36*
X1098550D02*
X1094294D01*
X1095246Y1587121D01*
X1096901Y1585466D01*
X1098550Y1584514D01*
Y1588770D01*
D02*
G37*
G36*
X1081216Y1581150D02*
X1076960D01*
Y1576894D01*
X1078609Y1577846D01*
X1080264Y1579501D01*
X1081216Y1581150D01*
D02*
G37*
G36*
X1069340D02*
X1065084D01*
X1066036Y1579501D01*
X1067691Y1577846D01*
X1069340Y1576894D01*
Y1581150D01*
D02*
G37*
G36*
X1365696Y1579880D02*
X1361440D01*
Y1575624D01*
X1363089Y1576576D01*
X1364744Y1578231D01*
X1365696Y1579880D01*
D02*
G37*
G36*
X1353820D02*
X1349564D01*
X1350516Y1578231D01*
X1352171Y1576576D01*
X1353820Y1575624D01*
Y1579880D01*
D02*
G37*
G36*
X1045110Y1591310D02*
X1042770D01*
X1040509Y1590704D01*
X1038481Y1589534D01*
X1036826Y1587879D01*
X1035656Y1585851D01*
X1035050Y1583590D01*
Y1581250D01*
X1035656Y1578989D01*
X1036826Y1576961D01*
X1038481Y1575306D01*
X1040509Y1574136D01*
X1042770Y1573530D01*
X1045110D01*
X1047371Y1574136D01*
X1049399Y1575306D01*
X1051054Y1576961D01*
X1052224Y1578989D01*
X1052830Y1581250D01*
Y1583590D01*
X1052224Y1585851D01*
X1051054Y1587879D01*
X1049399Y1589534D01*
X1047371Y1590704D01*
X1045110Y1591310D01*
D02*
G37*
G36*
X1405890Y1566356D02*
Y1562100D01*
X1410146D01*
X1409194Y1563749D01*
X1407539Y1565404D01*
X1405890Y1566356D01*
D02*
G37*
G36*
X1398270D02*
X1396621Y1565404D01*
X1394966Y1563749D01*
X1394014Y1562100D01*
X1398270D01*
Y1566356D01*
D02*
G37*
G36*
X1525651Y1579720D02*
X1522349D01*
X1519160Y1578865D01*
X1516300Y1577215D01*
X1513965Y1574880D01*
X1512315Y1572020D01*
X1511460Y1568831D01*
Y1565529D01*
X1512315Y1562340D01*
X1513965Y1559480D01*
X1516300Y1557146D01*
X1519160Y1555495D01*
X1522349Y1554640D01*
X1525651D01*
X1528840Y1555495D01*
X1531700Y1557146D01*
X1534034Y1559480D01*
X1535685Y1562340D01*
X1536540Y1565529D01*
Y1568831D01*
X1535685Y1572020D01*
X1534034Y1574880D01*
X1531700Y1577215D01*
X1528840Y1578865D01*
X1525651Y1579720D01*
D02*
G37*
G36*
X987171D02*
X983869D01*
X980680Y1578865D01*
X977820Y1577215D01*
X975486Y1574880D01*
X973835Y1572020D01*
X972980Y1568831D01*
Y1565529D01*
X973835Y1562340D01*
X975486Y1559480D01*
X977820Y1557146D01*
X980680Y1555495D01*
X983869Y1554640D01*
X987171D01*
X990360Y1555495D01*
X993220Y1557146D01*
X995555Y1559480D01*
X997205Y1562340D01*
X998060Y1565529D01*
Y1568831D01*
X997205Y1572020D01*
X995555Y1574880D01*
X993220Y1577215D01*
X990360Y1578865D01*
X987171Y1579720D01*
D02*
G37*
G36*
X1410146Y1554480D02*
X1405890D01*
Y1550224D01*
X1407539Y1551176D01*
X1409194Y1552831D01*
X1410146Y1554480D01*
D02*
G37*
G36*
X1398270D02*
X1394014D01*
X1394966Y1552831D01*
X1396621Y1551176D01*
X1398270Y1550224D01*
Y1554480D01*
D02*
G37*
G36*
X1312028Y1567560D02*
X1309252D01*
X1306572Y1566842D01*
X1304168Y1565454D01*
X1302206Y1563492D01*
X1300818Y1561088D01*
X1300100Y1558408D01*
Y1555632D01*
X1300818Y1552952D01*
X1302206Y1550548D01*
X1304168Y1548586D01*
X1306572Y1547198D01*
X1309252Y1546480D01*
X1312028D01*
X1314708Y1547198D01*
X1317112Y1548586D01*
X1319074Y1550548D01*
X1320462Y1552952D01*
X1321180Y1555632D01*
Y1558408D01*
X1320462Y1561088D01*
X1319074Y1563492D01*
X1317112Y1565454D01*
X1314708Y1566842D01*
X1312028Y1567560D01*
D02*
G37*
G36*
X1014730Y1546036D02*
Y1541780D01*
X1018986D01*
X1018034Y1543429D01*
X1016379Y1545084D01*
X1014730Y1546036D01*
D02*
G37*
G36*
X1007110D02*
X1005461Y1545084D01*
X1003806Y1543429D01*
X1002854Y1541780D01*
X1007110D01*
Y1546036D01*
D02*
G37*
G36*
X1018986Y1534160D02*
X1014730D01*
Y1529904D01*
X1016379Y1530856D01*
X1018034Y1532511D01*
X1018986Y1534160D01*
D02*
G37*
G36*
X1007110D02*
X1002854D01*
X1003806Y1532511D01*
X1005461Y1530856D01*
X1007110Y1529904D01*
Y1534160D01*
D02*
G37*
G36*
X1249748Y1546860D02*
X1247072D01*
X1244488Y1546168D01*
X1242172Y1544830D01*
X1240280Y1542938D01*
X1238942Y1540622D01*
X1238250Y1538038D01*
Y1535362D01*
X1238942Y1532778D01*
X1240280Y1530462D01*
X1242172Y1528570D01*
X1244488Y1527232D01*
X1247072Y1526540D01*
X1249748D01*
X1252332Y1527232D01*
X1254648Y1528570D01*
X1256540Y1530462D01*
X1257878Y1532778D01*
X1258570Y1535362D01*
Y1538038D01*
X1257878Y1540622D01*
X1256540Y1542938D01*
X1254648Y1544830D01*
X1252332Y1546168D01*
X1249748Y1546860D01*
D02*
G37*
G36*
X1312028Y1542160D02*
X1309252D01*
X1306572Y1541442D01*
X1304168Y1540054D01*
X1302206Y1538092D01*
X1300818Y1535688D01*
X1300100Y1533008D01*
Y1530232D01*
X1300818Y1527552D01*
X1302206Y1525148D01*
X1304168Y1523186D01*
X1306572Y1521798D01*
X1309252Y1521080D01*
X1312028D01*
X1314708Y1521798D01*
X1317112Y1523186D01*
X1319074Y1525148D01*
X1320462Y1527552D01*
X1321180Y1530232D01*
Y1533008D01*
X1320462Y1535688D01*
X1319074Y1538092D01*
X1317112Y1540054D01*
X1314708Y1541442D01*
X1312028Y1542160D01*
D02*
G37*
G36*
X1362610Y1537970D02*
X1360270D01*
X1358009Y1537364D01*
X1355981Y1536194D01*
X1354326Y1534539D01*
X1353156Y1532511D01*
X1352550Y1530250D01*
Y1527910D01*
X1353156Y1525649D01*
X1354326Y1523621D01*
X1355981Y1521966D01*
X1358009Y1520796D01*
X1360270Y1520190D01*
X1362610D01*
X1364871Y1520796D01*
X1366899Y1521966D01*
X1368554Y1523621D01*
X1369724Y1525649D01*
X1370330Y1527910D01*
Y1530250D01*
X1369724Y1532511D01*
X1368554Y1534539D01*
X1366899Y1536194D01*
X1364871Y1537364D01*
X1362610Y1537970D01*
D02*
G37*
G36*
X1433312Y1539240D02*
X1430637D01*
X1428053Y1538548D01*
X1425736Y1537210D01*
X1423844Y1535318D01*
X1422507Y1533002D01*
X1421815Y1530418D01*
Y1527742D01*
X1422507Y1525158D01*
X1423844Y1522842D01*
X1425736Y1520950D01*
X1428053Y1519612D01*
X1430637Y1518920D01*
X1433312D01*
X1435896Y1519612D01*
X1438213Y1520950D01*
X1440105Y1522842D01*
X1441442Y1525158D01*
X1442135Y1527742D01*
Y1530418D01*
X1441442Y1533002D01*
X1440105Y1535318D01*
X1438213Y1537210D01*
X1435896Y1538548D01*
X1433312Y1539240D01*
D02*
G37*
G36*
X1212918Y1525270D02*
X1210242D01*
X1207658Y1524578D01*
X1205342Y1523240D01*
X1203450Y1521348D01*
X1202112Y1519032D01*
X1201420Y1516448D01*
Y1513772D01*
X1202112Y1511188D01*
X1203450Y1508872D01*
X1205342Y1506980D01*
X1207658Y1505642D01*
X1210242Y1504950D01*
X1212918D01*
X1215502Y1505642D01*
X1217818Y1506980D01*
X1219710Y1508872D01*
X1221048Y1511188D01*
X1221740Y1513772D01*
Y1516448D01*
X1221048Y1519032D01*
X1219710Y1521348D01*
X1217818Y1523240D01*
X1215502Y1524578D01*
X1212918Y1525270D01*
D02*
G37*
G36*
X1171008Y1522730D02*
X1168332D01*
X1165748Y1522038D01*
X1163432Y1520700D01*
X1161540Y1518808D01*
X1160202Y1516492D01*
X1159510Y1513908D01*
Y1511232D01*
X1160202Y1508648D01*
X1161540Y1506332D01*
X1163432Y1504440D01*
X1165748Y1503102D01*
X1168332Y1502410D01*
X1171008D01*
X1173592Y1503102D01*
X1175908Y1504440D01*
X1177800Y1506332D01*
X1179138Y1508648D01*
X1179830Y1511232D01*
Y1513908D01*
X1179138Y1516492D01*
X1177800Y1518808D01*
X1175908Y1520700D01*
X1173592Y1522038D01*
X1171008Y1522730D01*
D02*
G37*
G36*
X1321180Y1516760D02*
X1300100D01*
Y1495680D01*
X1321180D01*
Y1516760D01*
D02*
G37*
G36*
X1244668Y1510030D02*
X1241992D01*
X1239408Y1509338D01*
X1237092Y1508000D01*
X1235200Y1506108D01*
X1233862Y1503792D01*
X1233170Y1501208D01*
Y1498532D01*
X1233862Y1495948D01*
X1235200Y1493632D01*
X1237092Y1491740D01*
X1239408Y1490402D01*
X1241992Y1489710D01*
X1244668D01*
X1247252Y1490402D01*
X1249568Y1491740D01*
X1251460Y1493632D01*
X1252798Y1495948D01*
X1253490Y1498532D01*
Y1501208D01*
X1252798Y1503792D01*
X1251460Y1506108D01*
X1249568Y1508000D01*
X1247252Y1509338D01*
X1244668Y1510030D01*
D02*
G37*
G36*
X1139190Y1486346D02*
Y1482090D01*
X1143446D01*
X1142494Y1483739D01*
X1140839Y1485394D01*
X1139190Y1486346D01*
D02*
G37*
G36*
X1131570D02*
X1129921Y1485394D01*
X1128266Y1483739D01*
X1127314Y1482090D01*
X1131570D01*
Y1486346D01*
D02*
G37*
G36*
X1413578Y1494790D02*
X1410902D01*
X1408318Y1494098D01*
X1406002Y1492760D01*
X1404110Y1490868D01*
X1402772Y1488552D01*
X1402080Y1485968D01*
Y1483292D01*
X1402772Y1480708D01*
X1404110Y1478392D01*
X1406002Y1476500D01*
X1408318Y1475162D01*
X1410902Y1474470D01*
X1413578D01*
X1416162Y1475162D01*
X1418478Y1476500D01*
X1420370Y1478392D01*
X1421708Y1480708D01*
X1422400Y1483292D01*
Y1485968D01*
X1421708Y1488552D01*
X1420370Y1490868D01*
X1418478Y1492760D01*
X1416162Y1494098D01*
X1413578Y1494790D01*
D02*
G37*
G36*
X1090930Y1478726D02*
Y1474470D01*
X1095186D01*
X1094234Y1476119D01*
X1092579Y1477774D01*
X1090930Y1478726D01*
D02*
G37*
G36*
X1083310D02*
X1081661Y1477774D01*
X1080006Y1476119D01*
X1079054Y1474470D01*
X1083310D01*
Y1478726D01*
D02*
G37*
G36*
X1143446Y1474470D02*
X1139190D01*
Y1470214D01*
X1140839Y1471166D01*
X1142494Y1472821D01*
X1143446Y1474470D01*
D02*
G37*
G36*
X1131570D02*
X1127314D01*
X1128266Y1472821D01*
X1129921Y1471166D01*
X1131570Y1470214D01*
Y1474470D01*
D02*
G37*
G36*
X1095186Y1466850D02*
X1090930D01*
Y1462594D01*
X1092579Y1463546D01*
X1094234Y1465201D01*
X1095186Y1466850D01*
D02*
G37*
G36*
X1083310D02*
X1079054D01*
X1080006Y1465201D01*
X1081661Y1463546D01*
X1083310Y1462594D01*
Y1466850D01*
D02*
G37*
G36*
X1428750Y1452218D02*
Y1446530D01*
X1434438D01*
X1434408Y1446642D01*
X1433070Y1448958D01*
X1431178Y1450850D01*
X1428862Y1452188D01*
X1428750Y1452218D01*
D02*
G37*
G36*
X1421130D02*
X1421018Y1452188D01*
X1418702Y1450850D01*
X1416810Y1448958D01*
X1415472Y1446642D01*
X1415443Y1446530D01*
X1421130D01*
Y1452218D01*
D02*
G37*
G36*
X1434438Y1438910D02*
X1428750D01*
Y1433223D01*
X1428862Y1433252D01*
X1431178Y1434590D01*
X1433070Y1436482D01*
X1434408Y1438798D01*
X1434438Y1438910D01*
D02*
G37*
G36*
X1421130D02*
X1415443D01*
X1415472Y1438798D01*
X1416810Y1436482D01*
X1418702Y1434590D01*
X1421018Y1433252D01*
X1421130Y1433223D01*
Y1438910D01*
D02*
G37*
G36*
X1135380Y1435546D02*
Y1431290D01*
X1139636D01*
X1138684Y1432939D01*
X1137029Y1434594D01*
X1135380Y1435546D01*
D02*
G37*
G36*
X1127760D02*
X1126111Y1434594D01*
X1124456Y1432939D01*
X1123504Y1431290D01*
X1127760D01*
Y1435546D01*
D02*
G37*
G36*
X1139636Y1423670D02*
X1135380D01*
Y1419414D01*
X1137029Y1420366D01*
X1138684Y1422021D01*
X1139636Y1423670D01*
D02*
G37*
G36*
X1127760D02*
X1123504D01*
X1124456Y1422021D01*
X1126111Y1420366D01*
X1127760Y1419414D01*
Y1423670D01*
D02*
G37*
G36*
X1083210Y1433642D02*
X1080870D01*
X1078609Y1433036D01*
X1076581Y1431866D01*
X1074926Y1430211D01*
X1073756Y1428184D01*
X1073150Y1425923D01*
Y1423582D01*
X1073756Y1421321D01*
X1074926Y1419294D01*
X1076581Y1417639D01*
X1078609Y1416468D01*
X1080870Y1415862D01*
X1083210D01*
X1085471Y1416468D01*
X1087499Y1417639D01*
X1089154Y1419294D01*
X1090324Y1421321D01*
X1090930Y1423582D01*
Y1425923D01*
X1090324Y1428184D01*
X1089154Y1430211D01*
X1087499Y1431866D01*
X1085471Y1433036D01*
X1083210Y1433642D01*
D02*
G37*
G36*
X1507091Y1512540D02*
X1500269D01*
X1493506Y1511650D01*
X1486916Y1509884D01*
X1480614Y1507273D01*
X1474706Y1503862D01*
X1469294Y1499710D01*
X1464470Y1494886D01*
X1460318Y1489474D01*
X1456907Y1483566D01*
X1454296Y1477264D01*
X1452530Y1470674D01*
X1451640Y1463911D01*
Y1457089D01*
X1452530Y1450326D01*
X1454296Y1443736D01*
X1456907Y1437434D01*
X1460318Y1431526D01*
X1464470Y1426114D01*
X1469294Y1421290D01*
X1474706Y1417137D01*
X1480614Y1413727D01*
X1486916Y1411116D01*
X1493506Y1409350D01*
X1500269Y1408460D01*
X1507091D01*
X1513854Y1409350D01*
X1520444Y1411116D01*
X1526746Y1413727D01*
X1532654Y1417137D01*
X1538066Y1421290D01*
X1542890Y1426114D01*
X1547043Y1431526D01*
X1550453Y1437434D01*
X1553064Y1443736D01*
X1554830Y1450326D01*
X1555720Y1457089D01*
Y1463911D01*
X1554830Y1470674D01*
X1553064Y1477264D01*
X1550453Y1483566D01*
X1547043Y1489474D01*
X1542890Y1494886D01*
X1538066Y1499710D01*
X1532654Y1503862D01*
X1526746Y1507273D01*
X1520444Y1509884D01*
X1513854Y1511650D01*
X1507091Y1512540D01*
D02*
G37*
G36*
X1011791Y1511270D02*
X1004969D01*
X998206Y1510380D01*
X991616Y1508614D01*
X985314Y1506003D01*
X979406Y1502592D01*
X973994Y1498440D01*
X969170Y1493616D01*
X965017Y1488204D01*
X961607Y1482296D01*
X958996Y1475994D01*
X957230Y1469404D01*
X956340Y1462641D01*
Y1455819D01*
X957230Y1449056D01*
X958996Y1442466D01*
X961607Y1436164D01*
X965017Y1430256D01*
X969170Y1424844D01*
X973994Y1420020D01*
X979406Y1415867D01*
X985314Y1412457D01*
X991616Y1409846D01*
X998206Y1408080D01*
X1004969Y1407190D01*
X1011791D01*
X1018554Y1408080D01*
X1025144Y1409846D01*
X1031446Y1412457D01*
X1037354Y1415867D01*
X1042766Y1420020D01*
X1047590Y1424844D01*
X1051742Y1430256D01*
X1055153Y1436164D01*
X1057764Y1442466D01*
X1059530Y1449056D01*
X1060420Y1455819D01*
Y1462641D01*
X1059530Y1469404D01*
X1057764Y1475994D01*
X1055153Y1482296D01*
X1051742Y1488204D01*
X1047590Y1493616D01*
X1042766Y1498440D01*
X1037354Y1502592D01*
X1031446Y1506003D01*
X1025144Y1508614D01*
X1018554Y1510380D01*
X1011791Y1511270D01*
D02*
G37*
G36*
X1356450Y1410055D02*
Y1405800D01*
X1360706D01*
X1359754Y1407448D01*
X1358099Y1409104D01*
X1356450Y1410055D01*
D02*
G37*
G36*
X1348830D02*
X1347182Y1409104D01*
X1345526Y1407448D01*
X1344575Y1405800D01*
X1348830D01*
Y1410055D01*
D02*
G37*
G36*
X1360706Y1398180D02*
X1356450D01*
Y1393924D01*
X1358099Y1394876D01*
X1359754Y1396531D01*
X1360706Y1398180D01*
D02*
G37*
G36*
X1348830D02*
X1344575D01*
X1345526Y1396531D01*
X1347182Y1394876D01*
X1348830Y1393924D01*
Y1398180D01*
D02*
G37*
G36*
X1182370Y1398753D02*
Y1393190D01*
X1187933D01*
X1187916Y1393255D01*
X1186594Y1395545D01*
X1184725Y1397414D01*
X1182435Y1398736D01*
X1182370Y1398753D01*
D02*
G37*
G36*
X1107508Y1413510D02*
X1104832D01*
X1102248Y1412818D01*
X1099932Y1411480D01*
X1098040Y1409588D01*
X1096702Y1407272D01*
X1096010Y1404688D01*
Y1402012D01*
X1096702Y1399428D01*
X1098040Y1397112D01*
X1099932Y1395220D01*
X1102248Y1393882D01*
X1104832Y1393190D01*
X1107508D01*
X1110092Y1393882D01*
X1112408Y1395220D01*
X1114300Y1397112D01*
X1115638Y1399428D01*
X1116330Y1402012D01*
Y1404688D01*
X1115638Y1407272D01*
X1114300Y1409588D01*
X1112408Y1411480D01*
X1110092Y1412818D01*
X1107508Y1413510D01*
D02*
G37*
G36*
X1174750Y1398753D02*
X1174685Y1398736D01*
X1172395Y1397414D01*
X1170526Y1395545D01*
X1169204Y1393255D01*
X1169187Y1393190D01*
X1174750D01*
Y1398753D01*
D02*
G37*
G36*
X1461770Y1394906D02*
Y1390650D01*
X1466026D01*
X1465074Y1392299D01*
X1463419Y1393954D01*
X1461770Y1394906D01*
D02*
G37*
G36*
X1454150D02*
X1452501Y1393954D01*
X1450846Y1392299D01*
X1449894Y1390650D01*
X1454150D01*
Y1394906D01*
D02*
G37*
G36*
X1187933Y1385570D02*
X1182370D01*
Y1380007D01*
X1182435Y1380024D01*
X1184725Y1381346D01*
X1186594Y1383215D01*
X1187916Y1385505D01*
X1187933Y1385570D01*
D02*
G37*
G36*
X1174750D02*
X1169187D01*
X1169204Y1385505D01*
X1170526Y1383215D01*
X1172395Y1381346D01*
X1174685Y1380024D01*
X1174750Y1380007D01*
Y1385570D01*
D02*
G37*
G36*
X1290200Y1399420D02*
X1270120D01*
Y1379340D01*
X1290200D01*
Y1399420D01*
D02*
G37*
G36*
X1256082D02*
X1253438D01*
X1250885Y1398736D01*
X1248595Y1397414D01*
X1246726Y1395545D01*
X1245404Y1393255D01*
X1244720Y1390702D01*
Y1388058D01*
X1245404Y1385505D01*
X1246726Y1383215D01*
X1248595Y1381346D01*
X1250885Y1380024D01*
X1253438Y1379340D01*
X1256082D01*
X1258635Y1380024D01*
X1260925Y1381346D01*
X1262794Y1383215D01*
X1264116Y1385505D01*
X1264800Y1388058D01*
Y1390702D01*
X1264116Y1393255D01*
X1262794Y1395545D01*
X1260925Y1397414D01*
X1258635Y1398736D01*
X1256082Y1399420D01*
D02*
G37*
G36*
X1230682D02*
X1228038D01*
X1225485Y1398736D01*
X1223195Y1397414D01*
X1221326Y1395545D01*
X1220004Y1393255D01*
X1219320Y1390702D01*
Y1388058D01*
X1220004Y1385505D01*
X1221326Y1383215D01*
X1223195Y1381346D01*
X1225485Y1380024D01*
X1228038Y1379340D01*
X1230682D01*
X1233235Y1380024D01*
X1235525Y1381346D01*
X1237394Y1383215D01*
X1238716Y1385505D01*
X1239400Y1388058D01*
Y1390702D01*
X1238716Y1393255D01*
X1237394Y1395545D01*
X1235525Y1397414D01*
X1233235Y1398736D01*
X1230682Y1399420D01*
D02*
G37*
G36*
X1205282D02*
X1202638D01*
X1200085Y1398736D01*
X1197795Y1397414D01*
X1195926Y1395545D01*
X1194604Y1393255D01*
X1193920Y1390702D01*
Y1388058D01*
X1194604Y1385505D01*
X1195926Y1383215D01*
X1197795Y1381346D01*
X1200085Y1380024D01*
X1202638Y1379340D01*
X1205282D01*
X1207835Y1380024D01*
X1210125Y1381346D01*
X1211994Y1383215D01*
X1213316Y1385505D01*
X1214000Y1388058D01*
Y1390702D01*
X1213316Y1393255D01*
X1211994Y1395545D01*
X1210125Y1397414D01*
X1207835Y1398736D01*
X1205282Y1399420D01*
D02*
G37*
G36*
X1154482D02*
X1151838D01*
X1149285Y1398736D01*
X1146995Y1397414D01*
X1145126Y1395545D01*
X1143804Y1393255D01*
X1143120Y1390702D01*
Y1388058D01*
X1143804Y1385505D01*
X1145126Y1383215D01*
X1146995Y1381346D01*
X1149285Y1380024D01*
X1151838Y1379340D01*
X1154482D01*
X1157035Y1380024D01*
X1159325Y1381346D01*
X1161194Y1383215D01*
X1162516Y1385505D01*
X1163200Y1388058D01*
Y1390702D01*
X1162516Y1393255D01*
X1161194Y1395545D01*
X1159325Y1397414D01*
X1157035Y1398736D01*
X1154482Y1399420D01*
D02*
G37*
G36*
X1466026Y1383030D02*
X1461770D01*
Y1378774D01*
X1463419Y1379726D01*
X1465074Y1381381D01*
X1466026Y1383030D01*
D02*
G37*
G36*
X1454150D02*
X1449894D01*
X1450846Y1381381D01*
X1452501Y1379726D01*
X1454150Y1378774D01*
Y1383030D01*
D02*
G37*
G36*
X1061788Y1393190D02*
X1059112D01*
X1056528Y1392498D01*
X1054212Y1391160D01*
X1052320Y1389268D01*
X1050982Y1386952D01*
X1050290Y1384368D01*
Y1381692D01*
X1050982Y1379108D01*
X1052320Y1376792D01*
X1054212Y1374900D01*
X1056528Y1373562D01*
X1059112Y1372870D01*
X1061788D01*
X1064372Y1373562D01*
X1066688Y1374900D01*
X1068580Y1376792D01*
X1069918Y1379108D01*
X1070610Y1381692D01*
Y1384368D01*
X1069918Y1386952D01*
X1068580Y1389268D01*
X1066688Y1391160D01*
X1064372Y1392498D01*
X1061788Y1393190D01*
D02*
G37*
G36*
X1460810Y1369668D02*
Y1363980D01*
X1466497D01*
X1466468Y1364092D01*
X1465130Y1366408D01*
X1463238Y1368300D01*
X1460922Y1369638D01*
X1460810Y1369668D01*
D02*
G37*
G36*
X1453190Y1369668D02*
X1453078Y1369638D01*
X1450762Y1368300D01*
X1448870Y1366408D01*
X1447532Y1364092D01*
X1447502Y1363980D01*
X1453190D01*
Y1369668D01*
D02*
G37*
G36*
Y1356360D02*
X1447502D01*
X1447532Y1356248D01*
X1448870Y1353932D01*
X1450762Y1352040D01*
X1453078Y1350702D01*
X1453190Y1350672D01*
Y1356360D01*
D02*
G37*
G36*
X1466497D02*
X1460810D01*
Y1350672D01*
X1460922Y1350702D01*
X1463238Y1352040D01*
X1465130Y1353932D01*
X1466468Y1356248D01*
X1466497Y1356360D01*
D02*
G37*
G36*
X1534538Y1370330D02*
X1531862D01*
X1529278Y1369638D01*
X1526962Y1368300D01*
X1525070Y1366408D01*
X1523732Y1364092D01*
X1523040Y1361508D01*
Y1358832D01*
X1523732Y1356248D01*
X1525070Y1353932D01*
X1526962Y1352040D01*
X1529278Y1350702D01*
X1531862Y1350010D01*
X1534538D01*
X1537122Y1350702D01*
X1539438Y1352040D01*
X1541330Y1353932D01*
X1542668Y1356248D01*
X1543360Y1358832D01*
Y1361508D01*
X1542668Y1364092D01*
X1541330Y1366408D01*
X1539438Y1368300D01*
X1537122Y1369638D01*
X1534538Y1370330D01*
D02*
G37*
G36*
X1509138D02*
X1506462D01*
X1503878Y1369638D01*
X1501562Y1368300D01*
X1499670Y1366408D01*
X1498332Y1364092D01*
X1497640Y1361508D01*
Y1358832D01*
X1498332Y1356248D01*
X1499670Y1353932D01*
X1501562Y1352040D01*
X1503878Y1350702D01*
X1506462Y1350010D01*
X1509138D01*
X1511722Y1350702D01*
X1514038Y1352040D01*
X1515930Y1353932D01*
X1517268Y1356248D01*
X1517960Y1358832D01*
Y1361508D01*
X1517268Y1364092D01*
X1515930Y1366408D01*
X1514038Y1368300D01*
X1511722Y1369638D01*
X1509138Y1370330D01*
D02*
G37*
G36*
X1483738D02*
X1481062D01*
X1478478Y1369638D01*
X1476162Y1368300D01*
X1474270Y1366408D01*
X1472932Y1364092D01*
X1472240Y1361508D01*
Y1358832D01*
X1472932Y1356248D01*
X1474270Y1353932D01*
X1476162Y1352040D01*
X1478478Y1350702D01*
X1481062Y1350010D01*
X1483738D01*
X1486322Y1350702D01*
X1488638Y1352040D01*
X1490530Y1353932D01*
X1491868Y1356248D01*
X1492560Y1358832D01*
Y1361508D01*
X1491868Y1364092D01*
X1490530Y1366408D01*
X1488638Y1368300D01*
X1486322Y1369638D01*
X1483738Y1370330D01*
D02*
G37*
G36*
X1432938D02*
X1430262D01*
X1427678Y1369638D01*
X1425362Y1368300D01*
X1423470Y1366408D01*
X1422132Y1364092D01*
X1421440Y1361508D01*
Y1358832D01*
X1422132Y1356248D01*
X1423470Y1353932D01*
X1425362Y1352040D01*
X1427678Y1350702D01*
X1430262Y1350010D01*
X1432938D01*
X1435522Y1350702D01*
X1437838Y1352040D01*
X1439730Y1353932D01*
X1441068Y1356248D01*
X1441760Y1358832D01*
Y1361508D01*
X1441068Y1364092D01*
X1439730Y1366408D01*
X1437838Y1368300D01*
X1435522Y1369638D01*
X1432938Y1370330D01*
D02*
G37*
G36*
X1407538D02*
X1404862D01*
X1402278Y1369638D01*
X1399962Y1368300D01*
X1398070Y1366408D01*
X1396732Y1364092D01*
X1396040Y1361508D01*
Y1358832D01*
X1396732Y1356248D01*
X1398070Y1353932D01*
X1399962Y1352040D01*
X1402278Y1350702D01*
X1404862Y1350010D01*
X1407538D01*
X1410122Y1350702D01*
X1412438Y1352040D01*
X1414330Y1353932D01*
X1415668Y1356248D01*
X1416360Y1358832D01*
Y1361508D01*
X1415668Y1364092D01*
X1414330Y1366408D01*
X1412438Y1368300D01*
X1410122Y1369638D01*
X1407538Y1370330D01*
D02*
G37*
G36*
X1382138D02*
X1379462D01*
X1376878Y1369638D01*
X1374562Y1368300D01*
X1372670Y1366408D01*
X1371332Y1364092D01*
X1370640Y1361508D01*
Y1358832D01*
X1371332Y1356248D01*
X1372670Y1353932D01*
X1374562Y1352040D01*
X1376878Y1350702D01*
X1379462Y1350010D01*
X1382138D01*
X1384722Y1350702D01*
X1387038Y1352040D01*
X1388930Y1353932D01*
X1390268Y1356248D01*
X1390960Y1358832D01*
Y1361508D01*
X1390268Y1364092D01*
X1388930Y1366408D01*
X1387038Y1368300D01*
X1384722Y1369638D01*
X1382138Y1370330D01*
D02*
G37*
G36*
X1356738D02*
X1354062D01*
X1351478Y1369638D01*
X1349162Y1368300D01*
X1347270Y1366408D01*
X1345932Y1364092D01*
X1345240Y1361508D01*
Y1358832D01*
X1345932Y1356248D01*
X1347270Y1353932D01*
X1349162Y1352040D01*
X1351478Y1350702D01*
X1354062Y1350010D01*
X1356738D01*
X1359322Y1350702D01*
X1361638Y1352040D01*
X1363530Y1353932D01*
X1364868Y1356248D01*
X1365560Y1358832D01*
Y1361508D01*
X1364868Y1364092D01*
X1363530Y1366408D01*
X1361638Y1368300D01*
X1359322Y1369638D01*
X1356738Y1370330D01*
D02*
G37*
G36*
X1331338D02*
X1328662D01*
X1326078Y1369638D01*
X1323762Y1368300D01*
X1321870Y1366408D01*
X1320532Y1364092D01*
X1319840Y1361508D01*
Y1358832D01*
X1320532Y1356248D01*
X1321870Y1353932D01*
X1323762Y1352040D01*
X1326078Y1350702D01*
X1328662Y1350010D01*
X1331338D01*
X1333922Y1350702D01*
X1336238Y1352040D01*
X1338130Y1353932D01*
X1339468Y1356248D01*
X1340160Y1358832D01*
Y1361508D01*
X1339468Y1364092D01*
X1338130Y1366408D01*
X1336238Y1368300D01*
X1333922Y1369638D01*
X1331338Y1370330D01*
D02*
G37*
G36*
X1305938D02*
X1303262D01*
X1300678Y1369638D01*
X1298362Y1368300D01*
X1296470Y1366408D01*
X1295132Y1364092D01*
X1294440Y1361508D01*
Y1358832D01*
X1295132Y1356248D01*
X1296470Y1353932D01*
X1298362Y1352040D01*
X1300678Y1350702D01*
X1303262Y1350010D01*
X1305938D01*
X1308522Y1350702D01*
X1310838Y1352040D01*
X1312730Y1353932D01*
X1314068Y1356248D01*
X1314760Y1358832D01*
Y1361508D01*
X1314068Y1364092D01*
X1312730Y1366408D01*
X1310838Y1368300D01*
X1308522Y1369638D01*
X1305938Y1370330D01*
D02*
G37*
G36*
X1280538D02*
X1277862D01*
X1275278Y1369638D01*
X1272962Y1368300D01*
X1271070Y1366408D01*
X1269732Y1364092D01*
X1269040Y1361508D01*
Y1358832D01*
X1269732Y1356248D01*
X1271070Y1353932D01*
X1272962Y1352040D01*
X1275278Y1350702D01*
X1277862Y1350010D01*
X1280538D01*
X1283122Y1350702D01*
X1285438Y1352040D01*
X1287330Y1353932D01*
X1288668Y1356248D01*
X1289360Y1358832D01*
Y1361508D01*
X1288668Y1364092D01*
X1287330Y1366408D01*
X1285438Y1368300D01*
X1283122Y1369638D01*
X1280538Y1370330D01*
D02*
G37*
G36*
X1255138D02*
X1252462D01*
X1249878Y1369638D01*
X1247562Y1368300D01*
X1245670Y1366408D01*
X1244332Y1364092D01*
X1243640Y1361508D01*
Y1358832D01*
X1244332Y1356248D01*
X1245670Y1353932D01*
X1247562Y1352040D01*
X1249878Y1350702D01*
X1252462Y1350010D01*
X1255138D01*
X1257722Y1350702D01*
X1260038Y1352040D01*
X1261930Y1353932D01*
X1263268Y1356248D01*
X1263960Y1358832D01*
Y1361508D01*
X1263268Y1364092D01*
X1261930Y1366408D01*
X1260038Y1368300D01*
X1257722Y1369638D01*
X1255138Y1370330D01*
D02*
G37*
G36*
X1229738D02*
X1227062D01*
X1224478Y1369638D01*
X1222162Y1368300D01*
X1220270Y1366408D01*
X1218932Y1364092D01*
X1218240Y1361508D01*
Y1358832D01*
X1218932Y1356248D01*
X1220270Y1353932D01*
X1222162Y1352040D01*
X1224478Y1350702D01*
X1227062Y1350010D01*
X1229738D01*
X1232322Y1350702D01*
X1234638Y1352040D01*
X1236530Y1353932D01*
X1237868Y1356248D01*
X1238560Y1358832D01*
Y1361508D01*
X1237868Y1364092D01*
X1236530Y1366408D01*
X1234638Y1368300D01*
X1232322Y1369638D01*
X1229738Y1370330D01*
D02*
G37*
G36*
X1204338D02*
X1201662D01*
X1199078Y1369638D01*
X1196762Y1368300D01*
X1194870Y1366408D01*
X1193532Y1364092D01*
X1192840Y1361508D01*
Y1358832D01*
X1193532Y1356248D01*
X1194870Y1353932D01*
X1196762Y1352040D01*
X1199078Y1350702D01*
X1201662Y1350010D01*
X1204338D01*
X1206922Y1350702D01*
X1209238Y1352040D01*
X1211130Y1353932D01*
X1212468Y1356248D01*
X1213160Y1358832D01*
Y1361508D01*
X1212468Y1364092D01*
X1211130Y1366408D01*
X1209238Y1368300D01*
X1206922Y1369638D01*
X1204338Y1370330D01*
D02*
G37*
G36*
X1178938D02*
X1176262D01*
X1173678Y1369638D01*
X1171362Y1368300D01*
X1169470Y1366408D01*
X1168132Y1364092D01*
X1167440Y1361508D01*
Y1358832D01*
X1168132Y1356248D01*
X1169470Y1353932D01*
X1171362Y1352040D01*
X1173678Y1350702D01*
X1176262Y1350010D01*
X1178938D01*
X1181522Y1350702D01*
X1183838Y1352040D01*
X1185730Y1353932D01*
X1187068Y1356248D01*
X1187760Y1358832D01*
Y1361508D01*
X1187068Y1364092D01*
X1185730Y1366408D01*
X1183838Y1368300D01*
X1181522Y1369638D01*
X1178938Y1370330D01*
D02*
G37*
G36*
X1560020Y1370960D02*
X1557180D01*
X1554435Y1370225D01*
X1551975Y1368804D01*
X1549966Y1366795D01*
X1548545Y1364335D01*
X1547810Y1361591D01*
Y1358750D01*
X1548545Y1356005D01*
X1549966Y1353545D01*
X1551975Y1351536D01*
X1554435Y1350115D01*
X1557180Y1349380D01*
X1560020D01*
X1562765Y1350115D01*
X1565225Y1351536D01*
X1567234Y1353545D01*
X1568655Y1356005D01*
X1569390Y1358750D01*
Y1361591D01*
X1568655Y1364335D01*
X1567234Y1366795D01*
X1565225Y1368804D01*
X1562765Y1370225D01*
X1560020Y1370960D01*
D02*
G37*
G36*
X1153621D02*
X1150779D01*
X1148035Y1370225D01*
X1145575Y1368804D01*
X1143566Y1366795D01*
X1142145Y1364335D01*
X1141410Y1361591D01*
Y1358750D01*
X1142145Y1356005D01*
X1143566Y1353545D01*
X1145575Y1351536D01*
X1148035Y1350115D01*
X1150779Y1349380D01*
X1153621D01*
X1156365Y1350115D01*
X1158825Y1351536D01*
X1160834Y1353545D01*
X1162255Y1356005D01*
X1162990Y1358750D01*
Y1361591D01*
X1162255Y1364335D01*
X1160834Y1366795D01*
X1158825Y1368804D01*
X1156365Y1370225D01*
X1153621Y1370960D01*
D02*
G37*
G36*
X1000828Y1357630D02*
X998152D01*
X995568Y1356938D01*
X993252Y1355600D01*
X991360Y1353708D01*
X990022Y1351392D01*
X989330Y1348808D01*
Y1346132D01*
X990022Y1343548D01*
X991360Y1341232D01*
X993252Y1339340D01*
X995568Y1338002D01*
X998152Y1337310D01*
X1000828D01*
X1003412Y1338002D01*
X1005728Y1339340D01*
X1007620Y1341232D01*
X1008958Y1343548D01*
X1009650Y1346132D01*
Y1348808D01*
X1008958Y1351392D01*
X1007620Y1353708D01*
X1005728Y1355600D01*
X1003412Y1356938D01*
X1000828Y1357630D01*
D02*
G37*
G36*
X1073293Y1336040D02*
X1070847D01*
X1068484Y1335407D01*
X1066366Y1334184D01*
X1064636Y1332454D01*
X1063413Y1330336D01*
X1062780Y1327973D01*
Y1325527D01*
X1063413Y1323164D01*
X1064636Y1321046D01*
X1066366Y1319316D01*
X1068484Y1318093D01*
X1070847Y1317460D01*
X1073293D01*
X1075656Y1318093D01*
X1077774Y1319316D01*
X1079504Y1321046D01*
X1080727Y1323164D01*
X1081360Y1325527D01*
Y1327973D01*
X1080727Y1330336D01*
X1079504Y1332454D01*
X1077774Y1334184D01*
X1075656Y1335407D01*
X1073293Y1336040D01*
D02*
G37*
G36*
X1075880Y1309877D02*
Y1305160D01*
X1080597D01*
X1079504Y1307054D01*
X1077774Y1308784D01*
X1075880Y1309877D01*
D02*
G37*
G36*
X1068260Y1309877D02*
X1066366Y1308784D01*
X1064636Y1307054D01*
X1063542Y1305160D01*
X1068260D01*
Y1309877D01*
D02*
G37*
G36*
X1080597Y1297540D02*
X1075880D01*
Y1292823D01*
X1077774Y1293916D01*
X1079504Y1295646D01*
X1080597Y1297540D01*
D02*
G37*
G36*
X1068260D02*
X1063542D01*
X1064636Y1295646D01*
X1066366Y1293916D01*
X1068260Y1292823D01*
Y1297540D01*
D02*
G37*
G36*
X1073293Y1285240D02*
X1070847D01*
X1068484Y1284607D01*
X1066366Y1283384D01*
X1064636Y1281654D01*
X1063413Y1279536D01*
X1062780Y1277173D01*
Y1274727D01*
X1063413Y1272364D01*
X1064636Y1270246D01*
X1066366Y1268516D01*
X1068484Y1267293D01*
X1070847Y1266660D01*
X1073293D01*
X1075656Y1267293D01*
X1077774Y1268516D01*
X1079504Y1270246D01*
X1080727Y1272364D01*
X1081360Y1274727D01*
Y1277173D01*
X1080727Y1279536D01*
X1079504Y1281654D01*
X1077774Y1283384D01*
X1075656Y1284607D01*
X1073293Y1285240D01*
D02*
G37*
G36*
X1081360Y1259840D02*
X1075880D01*
Y1254360D01*
X1081360D01*
Y1259840D01*
D02*
G37*
G36*
X1068260D02*
X1062780D01*
Y1254360D01*
X1068260D01*
Y1259840D01*
D02*
G37*
G36*
X1002030Y1252828D02*
Y1247140D01*
X1007718D01*
X1007688Y1247252D01*
X1006350Y1249568D01*
X1004458Y1251460D01*
X1002142Y1252798D01*
X1002030Y1252828D01*
D02*
G37*
G36*
X994410D02*
X994298Y1252798D01*
X991982Y1251460D01*
X990090Y1249568D01*
X988752Y1247252D01*
X988723Y1247140D01*
X994410D01*
Y1252828D01*
D02*
G37*
G36*
X1081360Y1246740D02*
X1075880D01*
Y1241260D01*
X1081360D01*
Y1246740D01*
D02*
G37*
G36*
X1068260D02*
X1062780D01*
Y1241260D01*
X1068260D01*
Y1246740D01*
D02*
G37*
G36*
X1007718Y1239520D02*
X1002030D01*
Y1233832D01*
X1002142Y1233862D01*
X1004458Y1235200D01*
X1006350Y1237092D01*
X1007688Y1239408D01*
X1007718Y1239520D01*
D02*
G37*
G36*
X994410D02*
X988723D01*
X988752Y1239408D01*
X990090Y1237092D01*
X991982Y1235200D01*
X994298Y1233862D01*
X994410Y1233832D01*
Y1239520D01*
D02*
G37*
G36*
X1511610Y1217268D02*
Y1211580D01*
X1517298D01*
X1517268Y1211692D01*
X1515930Y1214008D01*
X1514038Y1215900D01*
X1511722Y1217238D01*
X1511610Y1217268D01*
D02*
G37*
G36*
X1503990D02*
X1503878Y1217238D01*
X1501562Y1215900D01*
X1499670Y1214008D01*
X1498332Y1211692D01*
X1498302Y1211580D01*
X1503990D01*
Y1217268D01*
D02*
G37*
G36*
X1517298Y1203960D02*
X1511610D01*
Y1198272D01*
X1511722Y1198302D01*
X1514038Y1199640D01*
X1515930Y1201532D01*
X1517268Y1203848D01*
X1517298Y1203960D01*
D02*
G37*
G36*
X1503990D02*
X1498302D01*
X1498332Y1203848D01*
X1499670Y1201532D01*
X1501562Y1199640D01*
X1503878Y1198302D01*
X1503990Y1198272D01*
Y1203960D01*
D02*
G37*
G36*
X1534538Y1217930D02*
X1531862D01*
X1529278Y1217238D01*
X1526962Y1215900D01*
X1525070Y1214008D01*
X1523732Y1211692D01*
X1523040Y1209108D01*
Y1206432D01*
X1523732Y1203848D01*
X1525070Y1201532D01*
X1526962Y1199640D01*
X1529278Y1198302D01*
X1531862Y1197610D01*
X1534538D01*
X1537122Y1198302D01*
X1539438Y1199640D01*
X1541330Y1201532D01*
X1542668Y1203848D01*
X1543360Y1206432D01*
Y1209108D01*
X1542668Y1211692D01*
X1541330Y1214008D01*
X1539438Y1215900D01*
X1537122Y1217238D01*
X1534538Y1217930D01*
D02*
G37*
G36*
X1483738D02*
X1481062D01*
X1478478Y1217238D01*
X1476162Y1215900D01*
X1474270Y1214008D01*
X1472932Y1211692D01*
X1472240Y1209108D01*
Y1206432D01*
X1472932Y1203848D01*
X1474270Y1201532D01*
X1476162Y1199640D01*
X1478478Y1198302D01*
X1481062Y1197610D01*
X1483738D01*
X1486322Y1198302D01*
X1488638Y1199640D01*
X1490530Y1201532D01*
X1491868Y1203848D01*
X1492560Y1206432D01*
Y1209108D01*
X1491868Y1211692D01*
X1490530Y1214008D01*
X1488638Y1215900D01*
X1486322Y1217238D01*
X1483738Y1217930D01*
D02*
G37*
G36*
X1458338D02*
X1455662D01*
X1453078Y1217238D01*
X1450762Y1215900D01*
X1448870Y1214008D01*
X1447532Y1211692D01*
X1446840Y1209108D01*
Y1206432D01*
X1447532Y1203848D01*
X1448870Y1201532D01*
X1450762Y1199640D01*
X1453078Y1198302D01*
X1455662Y1197610D01*
X1458338D01*
X1460922Y1198302D01*
X1463238Y1199640D01*
X1465130Y1201532D01*
X1466468Y1203848D01*
X1467160Y1206432D01*
Y1209108D01*
X1466468Y1211692D01*
X1465130Y1214008D01*
X1463238Y1215900D01*
X1460922Y1217238D01*
X1458338Y1217930D01*
D02*
G37*
G36*
X1432938D02*
X1430262D01*
X1427678Y1217238D01*
X1425362Y1215900D01*
X1423470Y1214008D01*
X1422132Y1211692D01*
X1421440Y1209108D01*
Y1206432D01*
X1422132Y1203848D01*
X1423470Y1201532D01*
X1425362Y1199640D01*
X1427678Y1198302D01*
X1430262Y1197610D01*
X1432938D01*
X1435522Y1198302D01*
X1437838Y1199640D01*
X1439730Y1201532D01*
X1441068Y1203848D01*
X1441760Y1206432D01*
Y1209108D01*
X1441068Y1211692D01*
X1439730Y1214008D01*
X1437838Y1215900D01*
X1435522Y1217238D01*
X1432938Y1217930D01*
D02*
G37*
G36*
X1407538D02*
X1404862D01*
X1402278Y1217238D01*
X1399962Y1215900D01*
X1398070Y1214008D01*
X1396732Y1211692D01*
X1396040Y1209108D01*
Y1206432D01*
X1396732Y1203848D01*
X1398070Y1201532D01*
X1399962Y1199640D01*
X1402278Y1198302D01*
X1404862Y1197610D01*
X1407538D01*
X1410122Y1198302D01*
X1412438Y1199640D01*
X1414330Y1201532D01*
X1415668Y1203848D01*
X1416360Y1206432D01*
Y1209108D01*
X1415668Y1211692D01*
X1414330Y1214008D01*
X1412438Y1215900D01*
X1410122Y1217238D01*
X1407538Y1217930D01*
D02*
G37*
G36*
X1382138D02*
X1379462D01*
X1376878Y1217238D01*
X1374562Y1215900D01*
X1372670Y1214008D01*
X1371332Y1211692D01*
X1370640Y1209108D01*
Y1206432D01*
X1371332Y1203848D01*
X1372670Y1201532D01*
X1374562Y1199640D01*
X1376878Y1198302D01*
X1379462Y1197610D01*
X1382138D01*
X1384722Y1198302D01*
X1387038Y1199640D01*
X1388930Y1201532D01*
X1390268Y1203848D01*
X1390960Y1206432D01*
Y1209108D01*
X1390268Y1211692D01*
X1388930Y1214008D01*
X1387038Y1215900D01*
X1384722Y1217238D01*
X1382138Y1217930D01*
D02*
G37*
G36*
X1356738D02*
X1354062D01*
X1351478Y1217238D01*
X1349162Y1215900D01*
X1347270Y1214008D01*
X1345932Y1211692D01*
X1345240Y1209108D01*
Y1206432D01*
X1345932Y1203848D01*
X1347270Y1201532D01*
X1349162Y1199640D01*
X1351478Y1198302D01*
X1354062Y1197610D01*
X1356738D01*
X1359322Y1198302D01*
X1361638Y1199640D01*
X1363530Y1201532D01*
X1364868Y1203848D01*
X1365560Y1206432D01*
Y1209108D01*
X1364868Y1211692D01*
X1363530Y1214008D01*
X1361638Y1215900D01*
X1359322Y1217238D01*
X1356738Y1217930D01*
D02*
G37*
G36*
X1331338D02*
X1328662D01*
X1326078Y1217238D01*
X1323762Y1215900D01*
X1321870Y1214008D01*
X1320532Y1211692D01*
X1319840Y1209108D01*
Y1206432D01*
X1320532Y1203848D01*
X1321870Y1201532D01*
X1323762Y1199640D01*
X1326078Y1198302D01*
X1328662Y1197610D01*
X1331338D01*
X1333922Y1198302D01*
X1336238Y1199640D01*
X1338130Y1201532D01*
X1339468Y1203848D01*
X1340160Y1206432D01*
Y1209108D01*
X1339468Y1211692D01*
X1338130Y1214008D01*
X1336238Y1215900D01*
X1333922Y1217238D01*
X1331338Y1217930D01*
D02*
G37*
G36*
X1305938D02*
X1303262D01*
X1300678Y1217238D01*
X1298362Y1215900D01*
X1296470Y1214008D01*
X1295132Y1211692D01*
X1294440Y1209108D01*
Y1206432D01*
X1295132Y1203848D01*
X1296470Y1201532D01*
X1298362Y1199640D01*
X1300678Y1198302D01*
X1303262Y1197610D01*
X1305938D01*
X1308522Y1198302D01*
X1310838Y1199640D01*
X1312730Y1201532D01*
X1314068Y1203848D01*
X1314760Y1206432D01*
Y1209108D01*
X1314068Y1211692D01*
X1312730Y1214008D01*
X1310838Y1215900D01*
X1308522Y1217238D01*
X1305938Y1217930D01*
D02*
G37*
G36*
X1280538D02*
X1277862D01*
X1275278Y1217238D01*
X1272962Y1215900D01*
X1271070Y1214008D01*
X1269732Y1211692D01*
X1269040Y1209108D01*
Y1206432D01*
X1269732Y1203848D01*
X1271070Y1201532D01*
X1272962Y1199640D01*
X1275278Y1198302D01*
X1277862Y1197610D01*
X1280538D01*
X1283122Y1198302D01*
X1285438Y1199640D01*
X1287330Y1201532D01*
X1288668Y1203848D01*
X1289360Y1206432D01*
Y1209108D01*
X1288668Y1211692D01*
X1287330Y1214008D01*
X1285438Y1215900D01*
X1283122Y1217238D01*
X1280538Y1217930D01*
D02*
G37*
G36*
X1255138D02*
X1252462D01*
X1249878Y1217238D01*
X1247562Y1215900D01*
X1245670Y1214008D01*
X1244332Y1211692D01*
X1243640Y1209108D01*
Y1206432D01*
X1244332Y1203848D01*
X1245670Y1201532D01*
X1247562Y1199640D01*
X1249878Y1198302D01*
X1252462Y1197610D01*
X1255138D01*
X1257722Y1198302D01*
X1260038Y1199640D01*
X1261930Y1201532D01*
X1263268Y1203848D01*
X1263960Y1206432D01*
Y1209108D01*
X1263268Y1211692D01*
X1261930Y1214008D01*
X1260038Y1215900D01*
X1257722Y1217238D01*
X1255138Y1217930D01*
D02*
G37*
G36*
X1229738D02*
X1227062D01*
X1224478Y1217238D01*
X1222162Y1215900D01*
X1220270Y1214008D01*
X1218932Y1211692D01*
X1218240Y1209108D01*
Y1206432D01*
X1218932Y1203848D01*
X1220270Y1201532D01*
X1222162Y1199640D01*
X1224478Y1198302D01*
X1227062Y1197610D01*
X1229738D01*
X1232322Y1198302D01*
X1234638Y1199640D01*
X1236530Y1201532D01*
X1237868Y1203848D01*
X1238560Y1206432D01*
Y1209108D01*
X1237868Y1211692D01*
X1236530Y1214008D01*
X1234638Y1215900D01*
X1232322Y1217238D01*
X1229738Y1217930D01*
D02*
G37*
G36*
X1204338D02*
X1201662D01*
X1199078Y1217238D01*
X1196762Y1215900D01*
X1194870Y1214008D01*
X1193532Y1211692D01*
X1192840Y1209108D01*
Y1206432D01*
X1193532Y1203848D01*
X1194870Y1201532D01*
X1196762Y1199640D01*
X1199078Y1198302D01*
X1201662Y1197610D01*
X1204338D01*
X1206922Y1198302D01*
X1209238Y1199640D01*
X1211130Y1201532D01*
X1212468Y1203848D01*
X1213160Y1206432D01*
Y1209108D01*
X1212468Y1211692D01*
X1211130Y1214008D01*
X1209238Y1215900D01*
X1206922Y1217238D01*
X1204338Y1217930D01*
D02*
G37*
G36*
X1178938D02*
X1176262D01*
X1173678Y1217238D01*
X1171362Y1215900D01*
X1169470Y1214008D01*
X1168132Y1211692D01*
X1167440Y1209108D01*
Y1206432D01*
X1168132Y1203848D01*
X1169470Y1201532D01*
X1171362Y1199640D01*
X1173678Y1198302D01*
X1176262Y1197610D01*
X1178938D01*
X1181522Y1198302D01*
X1183838Y1199640D01*
X1185730Y1201532D01*
X1187068Y1203848D01*
X1187760Y1206432D01*
Y1209108D01*
X1187068Y1211692D01*
X1185730Y1214008D01*
X1183838Y1215900D01*
X1181522Y1217238D01*
X1178938Y1217930D01*
D02*
G37*
G36*
X1560020Y1218560D02*
X1557180D01*
X1554435Y1217825D01*
X1551975Y1216404D01*
X1549966Y1214395D01*
X1548545Y1211935D01*
X1547810Y1209191D01*
Y1206349D01*
X1548545Y1203605D01*
X1549966Y1201145D01*
X1551975Y1199136D01*
X1554435Y1197715D01*
X1557180Y1196980D01*
X1560020D01*
X1562765Y1197715D01*
X1565225Y1199136D01*
X1567234Y1201145D01*
X1568655Y1203605D01*
X1569390Y1206349D01*
Y1209191D01*
X1568655Y1211935D01*
X1567234Y1214395D01*
X1565225Y1216404D01*
X1562765Y1217825D01*
X1560020Y1218560D01*
D02*
G37*
G36*
X1153621D02*
X1150779D01*
X1148035Y1217825D01*
X1145575Y1216404D01*
X1143566Y1214395D01*
X1142145Y1211935D01*
X1141410Y1209191D01*
Y1206349D01*
X1142145Y1203605D01*
X1143566Y1201145D01*
X1145575Y1199136D01*
X1148035Y1197715D01*
X1150779Y1196980D01*
X1153621D01*
X1156365Y1197715D01*
X1158825Y1199136D01*
X1160834Y1201145D01*
X1162255Y1203605D01*
X1162990Y1206349D01*
Y1209191D01*
X1162255Y1211935D01*
X1160834Y1214395D01*
X1158825Y1216404D01*
X1156365Y1217825D01*
X1153621Y1218560D01*
D02*
G37*
G36*
X1433830Y1186663D02*
Y1181100D01*
X1439393D01*
X1439376Y1181165D01*
X1438054Y1183455D01*
X1436185Y1185324D01*
X1433895Y1186646D01*
X1433830Y1186663D01*
D02*
G37*
G36*
X1426210D02*
X1426145Y1186646D01*
X1423855Y1185324D01*
X1421986Y1183455D01*
X1420664Y1181165D01*
X1420647Y1181100D01*
X1426210D01*
Y1186663D01*
D02*
G37*
G36*
X1439393Y1173480D02*
X1433830D01*
Y1167917D01*
X1433895Y1167934D01*
X1436185Y1169256D01*
X1438054Y1171125D01*
X1439376Y1173415D01*
X1439393Y1173480D01*
D02*
G37*
G36*
X1426210D02*
X1420647D01*
X1420664Y1173415D01*
X1421986Y1171125D01*
X1423855Y1169256D01*
X1426145Y1167934D01*
X1426210Y1167917D01*
Y1173480D01*
D02*
G37*
G36*
X1405942Y1187330D02*
X1403298D01*
X1400745Y1186646D01*
X1398455Y1185324D01*
X1396586Y1183455D01*
X1395264Y1181165D01*
X1394580Y1178612D01*
Y1175968D01*
X1395264Y1173415D01*
X1396586Y1171125D01*
X1397376Y1170336D01*
X1396850Y1169301D01*
X1396737Y1169178D01*
X1394447D01*
X1392186Y1168573D01*
X1390159Y1167402D01*
X1388504Y1165747D01*
X1387333Y1163720D01*
X1386727Y1161459D01*
Y1159118D01*
X1387333Y1156857D01*
X1388504Y1154830D01*
X1390159Y1153175D01*
X1392186Y1152004D01*
X1394447Y1151398D01*
X1396788D01*
X1399049Y1152004D01*
X1401076Y1153175D01*
X1402731Y1154830D01*
X1403902Y1156857D01*
X1404507Y1159118D01*
Y1161459D01*
X1403902Y1163720D01*
X1402731Y1165747D01*
X1402267Y1166212D01*
X1402924Y1167350D01*
X1403298Y1167250D01*
X1405942D01*
X1408495Y1167934D01*
X1410785Y1169256D01*
X1412654Y1171125D01*
X1413976Y1173415D01*
X1414660Y1175968D01*
Y1178612D01*
X1413976Y1181165D01*
X1412654Y1183455D01*
X1410785Y1185324D01*
X1408495Y1186646D01*
X1405942Y1187330D01*
D02*
G37*
G36*
X1380542D02*
X1377898D01*
X1375345Y1186646D01*
X1373055Y1185324D01*
X1371186Y1183455D01*
X1369864Y1181165D01*
X1369180Y1178612D01*
Y1175968D01*
X1369864Y1173415D01*
X1371186Y1171125D01*
X1373055Y1169256D01*
X1375345Y1167934D01*
X1377898Y1167250D01*
X1380542D01*
X1383095Y1167934D01*
X1385385Y1169256D01*
X1387254Y1171125D01*
X1388576Y1173415D01*
X1389260Y1175968D01*
Y1178612D01*
X1388576Y1181165D01*
X1387254Y1183455D01*
X1385385Y1185324D01*
X1383095Y1186646D01*
X1380542Y1187330D01*
D02*
G37*
G36*
X1355142D02*
X1352498D01*
X1349945Y1186646D01*
X1347655Y1185324D01*
X1345786Y1183455D01*
X1344464Y1181165D01*
X1343780Y1178612D01*
Y1175968D01*
X1344464Y1173415D01*
X1345786Y1171125D01*
X1347655Y1169256D01*
X1349945Y1167934D01*
X1352498Y1167250D01*
X1355142D01*
X1357695Y1167934D01*
X1359985Y1169256D01*
X1361854Y1171125D01*
X1363176Y1173415D01*
X1363860Y1175968D01*
Y1178612D01*
X1363176Y1181165D01*
X1361854Y1183455D01*
X1359985Y1185324D01*
X1357695Y1186646D01*
X1355142Y1187330D01*
D02*
G37*
G36*
X1329742D02*
X1327098D01*
X1324545Y1186646D01*
X1322255Y1185324D01*
X1320386Y1183455D01*
X1319064Y1181165D01*
X1318380Y1178612D01*
Y1175968D01*
X1319064Y1173415D01*
X1320386Y1171125D01*
X1322255Y1169256D01*
X1324545Y1167934D01*
X1327098Y1167250D01*
X1329742D01*
X1332295Y1167934D01*
X1334585Y1169256D01*
X1336454Y1171125D01*
X1337776Y1173415D01*
X1338460Y1175968D01*
Y1178612D01*
X1337776Y1181165D01*
X1336454Y1183455D01*
X1334585Y1185324D01*
X1332295Y1186646D01*
X1329742Y1187330D01*
D02*
G37*
G36*
X1313060D02*
X1292980D01*
Y1167250D01*
X1313060D01*
Y1187330D01*
D02*
G37*
G36*
X1463040Y1170116D02*
Y1165860D01*
X1467296D01*
X1466344Y1167509D01*
X1464689Y1169164D01*
X1463040Y1170116D01*
D02*
G37*
G36*
X1455420D02*
X1453771Y1169164D01*
X1452116Y1167509D01*
X1451164Y1165860D01*
X1455420D01*
Y1170116D01*
D02*
G37*
G36*
X1467296Y1158240D02*
X1463040D01*
Y1153984D01*
X1464689Y1154936D01*
X1466344Y1156591D01*
X1467296Y1158240D01*
D02*
G37*
G36*
X1455420D02*
X1451164D01*
X1452116Y1156591D01*
X1453771Y1154936D01*
X1455420Y1153984D01*
Y1158240D01*
D02*
G37*
G36*
X1338480Y1167130D02*
X1336140D01*
X1333879Y1166524D01*
X1331851Y1165354D01*
X1330196Y1163699D01*
X1329026Y1161671D01*
X1328420Y1159410D01*
Y1157070D01*
X1329026Y1154809D01*
X1330196Y1152781D01*
X1331851Y1151126D01*
X1333879Y1149956D01*
X1336140Y1149350D01*
X1338480D01*
X1340741Y1149956D01*
X1342769Y1151126D01*
X1344424Y1152781D01*
X1345594Y1154809D01*
X1346200Y1157070D01*
Y1159410D01*
X1345594Y1161671D01*
X1344424Y1163699D01*
X1342769Y1165354D01*
X1340741Y1166524D01*
X1338480Y1167130D01*
D02*
G37*
G36*
X1235070Y1163950D02*
X1213490D01*
Y1142370D01*
X1235070D01*
Y1163950D01*
D02*
G37*
G36*
X1025701D02*
X1022859D01*
X1020115Y1163215D01*
X1017655Y1161794D01*
X1015646Y1159785D01*
X1014225Y1157325D01*
X1013490Y1154581D01*
Y1151740D01*
X1014225Y1148995D01*
X1015646Y1146535D01*
X1017655Y1144526D01*
X1020115Y1143105D01*
X1022859Y1142370D01*
X1025701D01*
X1028445Y1143105D01*
X1030905Y1144526D01*
X1032914Y1146535D01*
X1034335Y1148995D01*
X1035070Y1151740D01*
Y1154581D01*
X1034335Y1157325D01*
X1032914Y1159785D01*
X1030905Y1161794D01*
X1028445Y1163215D01*
X1025701Y1163950D01*
D02*
G37*
G36*
X1403350Y1123126D02*
Y1118870D01*
X1407606D01*
X1406654Y1120519D01*
X1404999Y1122174D01*
X1403350Y1123126D01*
D02*
G37*
G36*
X1395730D02*
X1394081Y1122174D01*
X1392426Y1120519D01*
X1391474Y1118870D01*
X1395730D01*
Y1123126D01*
D02*
G37*
G36*
X1407606Y1111250D02*
X1403350D01*
Y1106994D01*
X1404999Y1107946D01*
X1406654Y1109601D01*
X1407606Y1111250D01*
D02*
G37*
G36*
X1395730D02*
X1391474D01*
X1392426Y1109601D01*
X1394081Y1107946D01*
X1395730Y1106994D01*
Y1111250D01*
D02*
G37*
G36*
X1339350Y1108834D02*
X1336872Y1108342D01*
X1334772Y1106938D01*
X1333368Y1104838D01*
X1332876Y1102360D01*
Y1094740D01*
X1333149Y1093363D01*
X1332063Y1092313D01*
X1332015Y1092325D01*
X1332002Y1092328D01*
X1331724Y1092579D01*
X1331671Y1092632D01*
X1330069Y1094234D01*
X1328420Y1095186D01*
Y1090930D01*
X1333269D01*
X1334039Y1091258D01*
X1334772Y1090162D01*
X1336872Y1088758D01*
X1339350Y1088266D01*
X1341828Y1088758D01*
X1343928Y1090162D01*
X1345331Y1092262D01*
X1345824Y1094740D01*
Y1102360D01*
X1345331Y1104838D01*
X1343928Y1106938D01*
X1341828Y1108342D01*
X1339350Y1108834D01*
D02*
G37*
G36*
X1320800Y1095186D02*
X1319151Y1094234D01*
X1317496Y1092579D01*
X1316544Y1090930D01*
X1320800D01*
Y1095186D01*
D02*
G37*
G36*
X1467350Y1108834D02*
X1464872Y1108342D01*
X1462772Y1106938D01*
X1461369Y1104838D01*
X1460876Y1102360D01*
Y1094740D01*
X1461369Y1092262D01*
X1462772Y1090162D01*
X1464872Y1088758D01*
X1467350Y1088266D01*
X1469828Y1088758D01*
X1471928Y1090162D01*
X1473332Y1092262D01*
X1473824Y1094740D01*
Y1102360D01*
X1473332Y1104838D01*
X1471928Y1106938D01*
X1469828Y1108342D01*
X1467350Y1108834D01*
D02*
G37*
G36*
X1332676Y1083310D02*
X1328420D01*
Y1079054D01*
X1330069Y1080006D01*
X1331724Y1081661D01*
X1332676Y1083310D01*
D02*
G37*
G36*
X1320800D02*
X1316544D01*
X1317496Y1081661D01*
X1319151Y1080006D01*
X1320800Y1079054D01*
Y1083310D01*
D02*
G37*
G36*
X1332130Y1052830D02*
X1329790D01*
X1327529Y1052224D01*
X1325501Y1051054D01*
X1323846Y1049399D01*
X1322676Y1047371D01*
X1322070Y1045110D01*
Y1042770D01*
X1322676Y1040509D01*
X1323846Y1038481D01*
X1325501Y1036826D01*
X1327529Y1035656D01*
X1329790Y1035050D01*
X1332130D01*
X1334391Y1035656D01*
X1336419Y1036826D01*
X1338074Y1038481D01*
X1339244Y1040509D01*
X1339850Y1042770D01*
Y1045110D01*
X1339244Y1047371D01*
X1338074Y1049399D01*
X1336419Y1051054D01*
X1334391Y1052224D01*
X1332130Y1052830D01*
D02*
G37*
G36*
X1478280Y1034388D02*
Y1028700D01*
X1483967D01*
X1483938Y1028812D01*
X1482600Y1031128D01*
X1480708Y1033020D01*
X1478392Y1034358D01*
X1478280Y1034388D01*
D02*
G37*
G36*
X1470660D02*
X1470548Y1034358D01*
X1468232Y1033020D01*
X1466340Y1031128D01*
X1465002Y1028812D01*
X1464973Y1028700D01*
X1470660D01*
Y1034388D01*
D02*
G37*
G36*
X1374040Y1036320D02*
X1371700D01*
X1369439Y1035714D01*
X1367411Y1034544D01*
X1365756Y1032889D01*
X1364586Y1030861D01*
X1363980Y1028600D01*
Y1026260D01*
X1364586Y1023999D01*
X1365756Y1021971D01*
X1367411Y1020316D01*
X1369439Y1019146D01*
X1371700Y1018540D01*
X1374040D01*
X1376301Y1019146D01*
X1378329Y1020316D01*
X1379984Y1021971D01*
X1381154Y1023999D01*
X1381760Y1026260D01*
Y1028600D01*
X1381154Y1030861D01*
X1379984Y1032889D01*
X1378329Y1034544D01*
X1376301Y1035714D01*
X1374040Y1036320D01*
D02*
G37*
G36*
X1483967Y1021080D02*
X1478280D01*
Y1015393D01*
X1478392Y1015422D01*
X1480708Y1016760D01*
X1482600Y1018652D01*
X1483938Y1020968D01*
X1483967Y1021080D01*
D02*
G37*
G36*
X1470660D02*
X1464973D01*
X1465002Y1020968D01*
X1466340Y1018652D01*
X1468232Y1016760D01*
X1470548Y1015422D01*
X1470660Y1015393D01*
Y1021080D01*
D02*
G37*
G36*
X1354220Y974960D02*
X1348740D01*
Y969480D01*
X1354220D01*
Y974960D01*
D02*
G37*
G36*
X1341120D02*
X1335640D01*
Y969480D01*
X1341120D01*
Y974960D01*
D02*
G37*
G36*
X1551651Y1013460D02*
X1547148D01*
X1542732Y1012581D01*
X1538572Y1010858D01*
X1534828Y1008356D01*
X1531644Y1005172D01*
X1529142Y1001428D01*
X1527419Y997268D01*
X1526540Y992851D01*
Y988348D01*
X1527419Y983932D01*
X1529142Y979772D01*
X1531644Y976028D01*
X1534828Y972843D01*
X1538572Y970342D01*
X1542732Y968618D01*
X1547148Y967740D01*
X1551651D01*
X1556068Y968618D01*
X1560228Y970342D01*
X1563972Y972843D01*
X1567157Y976028D01*
X1569658Y979772D01*
X1571382Y983932D01*
X1572260Y988348D01*
Y992851D01*
X1571382Y997268D01*
X1569658Y1001428D01*
X1567157Y1005172D01*
X1563972Y1008356D01*
X1560228Y1010858D01*
X1556068Y1012581D01*
X1551651Y1013460D01*
D02*
G37*
G36*
X1463108Y977900D02*
X1460432D01*
X1457848Y977208D01*
X1455532Y975870D01*
X1453640Y973978D01*
X1452302Y971662D01*
X1451610Y969078D01*
Y966402D01*
X1452302Y963818D01*
X1453640Y961502D01*
X1455532Y959610D01*
X1457848Y958272D01*
X1460432Y957580D01*
X1463108D01*
X1465692Y958272D01*
X1468008Y959610D01*
X1469900Y961502D01*
X1471238Y963818D01*
X1471930Y966402D01*
Y969078D01*
X1471238Y971662D01*
X1469900Y973978D01*
X1468008Y975870D01*
X1465692Y977208D01*
X1463108Y977900D01*
D02*
G37*
G36*
X1178090Y963310D02*
Y956970D01*
X1184430D01*
X1184335Y957325D01*
X1182914Y959785D01*
X1180905Y961794D01*
X1178445Y963215D01*
X1178090Y963310D01*
D02*
G37*
G36*
X1170470D02*
X1170115Y963215D01*
X1167655Y961794D01*
X1165646Y959785D01*
X1164225Y957325D01*
X1164130Y956970D01*
X1170470D01*
Y963310D01*
D02*
G37*
G36*
X1422353Y974960D02*
X1419907D01*
X1417544Y974327D01*
X1415426Y973104D01*
X1413696Y971374D01*
X1412473Y969256D01*
X1411840Y966893D01*
Y964447D01*
X1412473Y962084D01*
X1413696Y959966D01*
X1415426Y958236D01*
X1417544Y957013D01*
X1419907Y956380D01*
X1422353D01*
X1424716Y957013D01*
X1426834Y958236D01*
X1428564Y959966D01*
X1429787Y962084D01*
X1430420Y964447D01*
Y966893D01*
X1429787Y969256D01*
X1428564Y971374D01*
X1426834Y973104D01*
X1424716Y974327D01*
X1422353Y974960D01*
D02*
G37*
G36*
X1396953D02*
X1394507D01*
X1392144Y974327D01*
X1390026Y973104D01*
X1388296Y971374D01*
X1387073Y969256D01*
X1386440Y966893D01*
Y964447D01*
X1387073Y962084D01*
X1388296Y959966D01*
X1390026Y958236D01*
X1392144Y957013D01*
X1394507Y956380D01*
X1396953D01*
X1399316Y957013D01*
X1401434Y958236D01*
X1403164Y959966D01*
X1404387Y962084D01*
X1405020Y964447D01*
Y966893D01*
X1404387Y969256D01*
X1403164Y971374D01*
X1401434Y973104D01*
X1399316Y974327D01*
X1396953Y974960D01*
D02*
G37*
G36*
X1371553D02*
X1369107D01*
X1366744Y974327D01*
X1364626Y973104D01*
X1362896Y971374D01*
X1361673Y969256D01*
X1361040Y966893D01*
Y964447D01*
X1361673Y962084D01*
X1362896Y959966D01*
X1364626Y958236D01*
X1366744Y957013D01*
X1369107Y956380D01*
X1371553D01*
X1373916Y957013D01*
X1376034Y958236D01*
X1377764Y959966D01*
X1378987Y962084D01*
X1379620Y964447D01*
Y966893D01*
X1378987Y969256D01*
X1377764Y971374D01*
X1376034Y973104D01*
X1373916Y974327D01*
X1371553Y974960D01*
D02*
G37*
G36*
X1354220Y961860D02*
X1348740D01*
Y956380D01*
X1354220D01*
Y961860D01*
D02*
G37*
G36*
X1341120D02*
X1335640D01*
Y956380D01*
X1341120D01*
Y961860D01*
D02*
G37*
G36*
X1184430Y949350D02*
X1178090D01*
Y943010D01*
X1178445Y943105D01*
X1180905Y944526D01*
X1182914Y946535D01*
X1184335Y948995D01*
X1184430Y949350D01*
D02*
G37*
G36*
X1170470D02*
X1164130D01*
X1164225Y948995D01*
X1165646Y946535D01*
X1167655Y944526D01*
X1170115Y943105D01*
X1170470Y943010D01*
Y949350D01*
D02*
G37*
G36*
X1075701Y963950D02*
X1072859D01*
X1070115Y963215D01*
X1067655Y961794D01*
X1065646Y959785D01*
X1064225Y957325D01*
X1063490Y954581D01*
Y951740D01*
X1064225Y948995D01*
X1065646Y946535D01*
X1067655Y944526D01*
X1070115Y943105D01*
X1072859Y942370D01*
X1075701D01*
X1078445Y943105D01*
X1080905Y944526D01*
X1082914Y946535D01*
X1084335Y948995D01*
X1085070Y951740D01*
Y954581D01*
X1084335Y957325D01*
X1082914Y959785D01*
X1080905Y961794D01*
X1078445Y963215D01*
X1075701Y963950D01*
D02*
G37*
G36*
X1386908Y947420D02*
X1384232D01*
X1381648Y946728D01*
X1379332Y945390D01*
X1377440Y943498D01*
X1376102Y941182D01*
X1375410Y938598D01*
Y935922D01*
X1376102Y933338D01*
X1377440Y931022D01*
X1379332Y929130D01*
X1381648Y927792D01*
X1384232Y927100D01*
X1386908D01*
X1389492Y927792D01*
X1391808Y929130D01*
X1393700Y931022D01*
X1395038Y933338D01*
X1395730Y935922D01*
Y938598D01*
X1395038Y941182D01*
X1393700Y943498D01*
X1391808Y945390D01*
X1389492Y946728D01*
X1386908Y947420D01*
D02*
G37*
%LPD*%
D30*
X1008380Y1459230D02*
D03*
Y1826260D02*
D03*
X1516380Y1965960D02*
D03*
X1008380Y1967230D02*
D03*
X1502410Y1826260D02*
D03*
X1503680Y1460500D02*
D03*
D31*
X1155700Y1672590D02*
D03*
X1181100Y1596390D02*
D03*
X1206500D02*
D03*
X1155700D02*
D03*
X1181100Y1672590D02*
D03*
X1072070Y1301350D02*
D03*
X1245870Y1889760D02*
D03*
X1072070Y1326750D02*
D03*
X1395730Y965670D02*
D03*
X1370330D02*
D03*
X1072070Y1275950D02*
D03*
X1421130Y965670D02*
D03*
X1220470Y1813560D02*
D03*
X1271270D02*
D03*
X1220470Y1889760D02*
D03*
X1245870Y1813560D02*
D03*
D32*
X1206500Y1672590D02*
D03*
X1072070Y1250550D02*
D03*
X1271270Y1889760D02*
D03*
D34*
X1344930Y965670D02*
D03*
D43*
X1211580Y1515110D02*
D03*
X1248410Y1536700D02*
D03*
X1101090Y1619250D02*
D03*
X1549400Y990600D02*
D03*
X1422400Y2006600D02*
D03*
X1104900D02*
D03*
X999490Y1347470D02*
D03*
X1060450Y1383030D02*
D03*
X1203000Y1207770D02*
D03*
X1228400D02*
D03*
X1330000D02*
D03*
X1406200D02*
D03*
X1431600D02*
D03*
X1457000D02*
D03*
X1482400D02*
D03*
X1533200Y1360170D02*
D03*
X1507800D02*
D03*
X1482400D02*
D03*
X1380800D02*
D03*
X1355400D02*
D03*
X1330000D02*
D03*
X1279200D02*
D03*
X1177600D02*
D03*
X1203000D02*
D03*
X1431600D02*
D03*
X1406200D02*
D03*
X1177600Y1207770D02*
D03*
X1228400Y1360170D02*
D03*
X1253800D02*
D03*
X1304600D02*
D03*
X1253800Y1207770D02*
D03*
X1279200D02*
D03*
X1355400D02*
D03*
X1380800D02*
D03*
X1304600D02*
D03*
X1533200D02*
D03*
X1507800D02*
D03*
X1457000Y1360170D02*
D03*
X1169670Y1512570D02*
D03*
X1385570Y937260D02*
D03*
X1243330Y1499870D02*
D03*
X1474470Y1024890D02*
D03*
X1118870Y1915160D02*
D03*
X1202690Y1619250D02*
D03*
X1424940Y1442720D02*
D03*
X998220Y1243330D02*
D03*
X1146810Y1905000D02*
D03*
X1238250Y1743710D02*
D03*
X1198880Y1883410D02*
D03*
X1461770Y967740D02*
D03*
X1384300Y1958340D02*
D03*
X1350010Y1648460D02*
D03*
X1470660Y1664970D02*
D03*
X1412240Y1484630D02*
D03*
X1268730Y1718310D02*
D03*
X1084580Y1844040D02*
D03*
X1418590Y1818640D02*
D03*
X1431975Y1529080D02*
D03*
X1271270Y1912620D02*
D03*
X1106170Y1403350D02*
D03*
X1266190Y1784350D02*
D03*
X1229360Y1692910D02*
D03*
D44*
X985520Y1719580D02*
D03*
Y1567180D02*
D03*
Y1668780D02*
D03*
Y1617980D02*
D03*
X1524000D02*
D03*
Y1668780D02*
D03*
Y1719580D02*
D03*
Y1567180D02*
D03*
D45*
X1152200Y1207770D02*
D03*
Y1360170D02*
D03*
X1558600D02*
D03*
Y1207770D02*
D03*
X1174280Y953160D02*
D03*
X1024280Y1153160D02*
D03*
X1074280Y953160D02*
D03*
D47*
X1467350Y1098550D02*
D03*
X1339350D02*
D03*
D48*
X1178560Y1389380D02*
D03*
X1430020Y1177290D02*
D03*
X1404620D02*
D03*
X1153160Y1389380D02*
D03*
X1379220Y1177290D02*
D03*
X1353820D02*
D03*
X1229360Y1389380D02*
D03*
X1254760D02*
D03*
X1203960D02*
D03*
X1328420Y1177290D02*
D03*
D49*
X1308100Y1744980D02*
D03*
X1310640Y1531620D02*
D03*
X1308100Y1770380D02*
D03*
X1310640Y1557020D02*
D03*
D50*
X1224280Y1153160D02*
D03*
D51*
X1308100Y1719580D02*
D03*
X1310640Y1506220D02*
D03*
D52*
X1280160Y1389380D02*
D03*
X1303020Y1177290D02*
D03*
D53*
X1073150Y1584960D02*
D03*
X1352640Y1401990D02*
D03*
X1457960Y1386840D02*
D03*
X1102360Y1592580D02*
D03*
X1399540Y1115060D02*
D03*
X1309370Y1866900D02*
D03*
X1010920Y1537970D02*
D03*
X1131570Y1427480D02*
D03*
X1135380Y1478280D02*
D03*
X1358900Y1605280D02*
D03*
X1135088Y1640151D02*
D03*
X1087120Y1470660D02*
D03*
X1459230Y1162050D02*
D03*
X1372870Y1027430D02*
D03*
X1324610Y1087120D02*
D03*
X1398270Y1794510D02*
D03*
X1263923Y1626597D02*
D03*
X1357630Y1583690D02*
D03*
X1402080Y1558290D02*
D03*
X1330960Y1043940D02*
D03*
X1099820Y1861820D02*
D03*
X1135380Y1842770D02*
D03*
X1137920Y1865630D02*
D03*
X1153160Y1878330D02*
D03*
X1043940Y1582420D02*
D03*
X1252220Y1606550D02*
D03*
X1082040Y1424752D02*
D03*
X1337310Y1158240D02*
D03*
X1395617Y1160288D02*
D03*
X1391724Y1753401D02*
D03*
X1357630Y1871980D02*
D03*
X1306830Y1819910D02*
D03*
X1361440Y1529080D02*
D03*
D54*
X1332230Y1785620D02*
D03*
M02*
