%TF.GenerationSoftware,Altium Limited,Altium Designer,23.4.1 (23)*%
G04 Layer_Physical_Order=3*
G04 Layer_Color=16440176*
%FSLAX26Y26*%
%MOIN*%
%TF.SameCoordinates,99C6BA0F-0D9B-4297-A223-D59900673BD4*%
%TF.FilePolarity,Positive*%
%TF.FileFunction,Copper,L3,Inr,Signal*%
%TF.Part,Single*%
G01*
G75*
%TA.AperFunction,ComponentPad*%
%ADD19C,0.060000*%
%ADD20C,0.078740*%
%TA.AperFunction,ViaPad*%
%ADD21C,0.060000*%
%TA.AperFunction,ComponentPad*%
%ADD22C,0.064961*%
%ADD24C,0.389764*%
%ADD25C,0.053150*%
%ADD26R,0.053150X0.053150*%
%ADD27O,0.030000X0.060000*%
%ADD28R,0.053150X0.053150*%
%ADD29C,0.059055*%
%ADD30C,0.062992*%
%ADD31R,0.064961X0.064961*%
%ADD32R,0.062992X0.062992*%
%ADD33R,0.059055X0.059055*%
%TA.AperFunction,ViaPad*%
%ADD34C,0.050000*%
%ADD35C,0.030000*%
%TA.AperFunction,Conductor*%
%ADD36C,0.030000*%
G36*
X6275000Y3590000D02*
X3615000D01*
Y8095000D01*
X6275000D01*
Y3590000D01*
D02*
G37*
%LPC*%
G36*
X5608864Y7990000D02*
X5591136D01*
X5573748Y7986541D01*
X5557369Y7979757D01*
X5542628Y7969908D01*
X5530092Y7957372D01*
X5520243Y7942631D01*
X5513459Y7926252D01*
X5510000Y7908864D01*
Y7891136D01*
X5513459Y7873748D01*
X5520243Y7857369D01*
X5530092Y7842628D01*
X5542628Y7830092D01*
X5557369Y7820243D01*
X5573748Y7813459D01*
X5591136Y7810000D01*
X5608864D01*
X5626252Y7813459D01*
X5642631Y7820243D01*
X5657372Y7830092D01*
X5669908Y7842628D01*
X5679757Y7857369D01*
X5686541Y7873748D01*
X5690000Y7891136D01*
Y7908864D01*
X5686541Y7926252D01*
X5679757Y7942631D01*
X5669908Y7957372D01*
X5657372Y7969908D01*
X5642631Y7979757D01*
X5626252Y7986541D01*
X5608864Y7990000D01*
D02*
G37*
G36*
X4358864D02*
X4341136D01*
X4323748Y7986541D01*
X4307369Y7979757D01*
X4292628Y7969908D01*
X4280092Y7957372D01*
X4270243Y7942631D01*
X4263459Y7926252D01*
X4260000Y7908864D01*
Y7891136D01*
X4263459Y7873748D01*
X4270243Y7857369D01*
X4280092Y7842628D01*
X4292628Y7830092D01*
X4307369Y7820243D01*
X4323748Y7813459D01*
X4341136Y7810000D01*
X4358864D01*
X4376252Y7813459D01*
X4392631Y7820243D01*
X4407372Y7830092D01*
X4419908Y7842628D01*
X4429757Y7857369D01*
X4436541Y7873748D01*
X4440000Y7891136D01*
Y7908864D01*
X4436541Y7926252D01*
X4429757Y7942631D01*
X4419908Y7957372D01*
X4407372Y7969908D01*
X4392631Y7979757D01*
X4376252Y7986541D01*
X4358864Y7990000D01*
D02*
G37*
G36*
X3985000Y7949675D02*
Y7760000D01*
X4174675D01*
X4171376Y7785056D01*
X4164425Y7810998D01*
X4154147Y7835811D01*
X4140719Y7859070D01*
X4124369Y7880378D01*
X4105378Y7899369D01*
X4084070Y7915719D01*
X4060811Y7929147D01*
X4035998Y7939425D01*
X4010056Y7946376D01*
X3985000Y7949675D01*
D02*
G37*
G36*
X3955000D02*
X3929944Y7946376D01*
X3904002Y7939425D01*
X3879189Y7929147D01*
X3855930Y7915719D01*
X3834622Y7899369D01*
X3815631Y7880378D01*
X3799281Y7859070D01*
X3785853Y7835811D01*
X3775575Y7810998D01*
X3768624Y7785056D01*
X3765325Y7760000D01*
X3955000D01*
Y7949675D01*
D02*
G37*
G36*
X5985000Y7944675D02*
Y7755000D01*
X6174675D01*
X6171376Y7780056D01*
X6164425Y7805998D01*
X6154147Y7830811D01*
X6140719Y7854070D01*
X6124369Y7875378D01*
X6105378Y7894369D01*
X6084070Y7910719D01*
X6060811Y7924147D01*
X6035998Y7934425D01*
X6010056Y7941376D01*
X5985000Y7944675D01*
D02*
G37*
G36*
X5955000D02*
X5929944Y7941376D01*
X5904002Y7934425D01*
X5879189Y7924147D01*
X5855930Y7910719D01*
X5834622Y7894369D01*
X5815631Y7875378D01*
X5799281Y7854070D01*
X5785853Y7830811D01*
X5775575Y7805998D01*
X5768624Y7780056D01*
X5765325Y7755000D01*
X5955000D01*
Y7944675D01*
D02*
G37*
G36*
X5455266Y7750000D02*
X5444734D01*
X5434561Y7747274D01*
X5425439Y7742008D01*
X5417992Y7734561D01*
X5412726Y7725439D01*
X5410000Y7715266D01*
Y7704734D01*
X5412726Y7694561D01*
X5417992Y7685439D01*
X5425439Y7677992D01*
X5434561Y7672726D01*
X5444734Y7670000D01*
X5455266D01*
X5465439Y7672726D01*
X5474561Y7677992D01*
X5482008Y7685439D01*
X5487274Y7694561D01*
X5490000Y7704734D01*
Y7715266D01*
X5487274Y7725439D01*
X5482008Y7734561D01*
X5474561Y7742008D01*
X5465439Y7747274D01*
X5455266Y7750000D01*
D02*
G37*
G36*
X4174675Y7730000D02*
X3985000D01*
Y7540325D01*
X4010056Y7543624D01*
X4035998Y7550575D01*
X4060811Y7560853D01*
X4084070Y7574281D01*
X4105378Y7590631D01*
X4124369Y7609622D01*
X4140719Y7630930D01*
X4154147Y7654189D01*
X4164425Y7679002D01*
X4171376Y7704944D01*
X4174675Y7730000D01*
D02*
G37*
G36*
X3955000D02*
X3765325D01*
X3768624Y7704944D01*
X3775575Y7679002D01*
X3785853Y7654189D01*
X3799281Y7630930D01*
X3815631Y7609622D01*
X3834622Y7590631D01*
X3855930Y7574281D01*
X3879189Y7560853D01*
X3904002Y7550575D01*
X3929944Y7543624D01*
X3955000Y7540325D01*
Y7730000D01*
D02*
G37*
G36*
X6174675Y7725000D02*
X5985000D01*
Y7535325D01*
X6010056Y7538624D01*
X6035998Y7545575D01*
X6060811Y7555853D01*
X6084070Y7569281D01*
X6105378Y7585631D01*
X6124369Y7604622D01*
X6140719Y7625930D01*
X6154147Y7649189D01*
X6164425Y7674002D01*
X6171376Y7699944D01*
X6174675Y7725000D01*
D02*
G37*
G36*
X5955000D02*
X5765325D01*
X5768624Y7699944D01*
X5775575Y7674002D01*
X5785853Y7649189D01*
X5799281Y7625930D01*
X5815631Y7604622D01*
X5834622Y7585631D01*
X5855930Y7569281D01*
X5879189Y7555853D01*
X5904002Y7545575D01*
X5929944Y7538624D01*
X5955000Y7535325D01*
Y7725000D01*
D02*
G37*
G36*
X4410266Y7580000D02*
X4399734D01*
X4389561Y7577274D01*
X4380439Y7572008D01*
X4372992Y7564561D01*
X4367726Y7555439D01*
X4365000Y7545266D01*
Y7534734D01*
X4367726Y7524561D01*
X4372992Y7515439D01*
X4380439Y7507992D01*
X4389561Y7502726D01*
X4399734Y7500000D01*
X4410266D01*
X4420439Y7502726D01*
X4429561Y7507992D01*
X4437008Y7515439D01*
X4442274Y7524561D01*
X4445000Y7534734D01*
Y7545266D01*
X4442274Y7555439D01*
X4437008Y7564561D01*
X4429561Y7572008D01*
X4420439Y7577274D01*
X4410266Y7580000D01*
D02*
G37*
G36*
X5010266Y7570000D02*
X4999734D01*
X4989561Y7567274D01*
X4980439Y7562008D01*
X4972992Y7554561D01*
X4967726Y7545439D01*
X4965000Y7535266D01*
Y7524734D01*
X4967726Y7514561D01*
X4972992Y7505439D01*
X4980439Y7497992D01*
X4989561Y7492726D01*
X4999734Y7490000D01*
X5010266D01*
X5020439Y7492726D01*
X5029561Y7497992D01*
X5037008Y7505439D01*
X5042274Y7514561D01*
X5045000Y7524734D01*
Y7535266D01*
X5042274Y7545439D01*
X5037008Y7554561D01*
X5029561Y7562008D01*
X5020439Y7567274D01*
X5010266Y7570000D01*
D02*
G37*
G36*
X4520266Y7540000D02*
X4509734D01*
X4499561Y7537274D01*
X4490439Y7532008D01*
X4482992Y7524561D01*
X4477726Y7515439D01*
X4475000Y7505266D01*
Y7494734D01*
X4477726Y7484561D01*
X4482992Y7475439D01*
X4490439Y7467992D01*
X4499561Y7462726D01*
X4509734Y7460000D01*
X4520266D01*
X4530439Y7462726D01*
X4539561Y7467992D01*
X4547008Y7475439D01*
X4552274Y7484561D01*
X4555000Y7494734D01*
Y7505266D01*
X4552274Y7515439D01*
X4547008Y7524561D01*
X4539561Y7532008D01*
X4530439Y7537274D01*
X4520266Y7540000D01*
D02*
G37*
G36*
X5041575Y7476575D02*
X4968425D01*
Y7403425D01*
X5041575D01*
Y7476575D01*
D02*
G37*
G36*
X4909815D02*
X4900185D01*
X4890883Y7474082D01*
X4882542Y7469267D01*
X4875733Y7462458D01*
X4870918Y7454117D01*
X4868425Y7444815D01*
Y7435185D01*
X4870918Y7425883D01*
X4875733Y7417542D01*
X4882542Y7410733D01*
X4890883Y7405918D01*
X4900185Y7403425D01*
X4909815D01*
X4919117Y7405918D01*
X4927458Y7410733D01*
X4934267Y7417542D01*
X4939082Y7425883D01*
X4941575Y7435185D01*
Y7444815D01*
X4939082Y7454117D01*
X4934267Y7462458D01*
X4927458Y7469267D01*
X4919117Y7474082D01*
X4909815Y7476575D01*
D02*
G37*
G36*
X4809815D02*
X4800185D01*
X4790883Y7474082D01*
X4782542Y7469267D01*
X4775733Y7462458D01*
X4770918Y7454117D01*
X4768425Y7444815D01*
Y7435185D01*
X4770918Y7425883D01*
X4775733Y7417542D01*
X4782542Y7410733D01*
X4790883Y7405918D01*
X4800185Y7403425D01*
X4809815D01*
X4819117Y7405918D01*
X4827458Y7410733D01*
X4834267Y7417542D01*
X4839082Y7425883D01*
X4841575Y7435185D01*
Y7444815D01*
X4839082Y7454117D01*
X4834267Y7462458D01*
X4827458Y7469267D01*
X4819117Y7474082D01*
X4809815Y7476575D01*
D02*
G37*
G36*
X4725266Y7455000D02*
X4714734D01*
X4704561Y7452274D01*
X4695439Y7447008D01*
X4687992Y7439561D01*
X4682726Y7430439D01*
X4680000Y7420266D01*
Y7409734D01*
X4682726Y7399561D01*
X4687992Y7390439D01*
X4695439Y7382992D01*
X4704561Y7377726D01*
X4714734Y7375000D01*
X4725266D01*
X4735439Y7377726D01*
X4744561Y7382992D01*
X4752008Y7390439D01*
X4757274Y7399561D01*
X4760000Y7409734D01*
Y7420266D01*
X4757274Y7430439D01*
X4752008Y7439561D01*
X4744561Y7447008D01*
X4735439Y7452274D01*
X4725266Y7455000D01*
D02*
G37*
G36*
X4544608Y7430000D02*
X4535392D01*
X4526490Y7427615D01*
X4518510Y7423007D01*
X4511993Y7416490D01*
X4507385Y7408510D01*
X4505000Y7399608D01*
Y7390392D01*
X4507385Y7381490D01*
X4511993Y7373510D01*
X4518510Y7366993D01*
X4526490Y7362385D01*
X4535392Y7360000D01*
X4544608D01*
X4553510Y7362385D01*
X4561490Y7366993D01*
X4568007Y7373510D01*
X4572615Y7381490D01*
X4575000Y7390392D01*
Y7399608D01*
X4572615Y7408510D01*
X4568007Y7416490D01*
X4561490Y7423007D01*
X4553510Y7427615D01*
X4544608Y7430000D01*
D02*
G37*
G36*
X5349608Y7405000D02*
X5340392D01*
X5331490Y7402615D01*
X5323510Y7398007D01*
X5316993Y7391490D01*
X5312385Y7383510D01*
X5310000Y7374608D01*
Y7365392D01*
X5312385Y7356490D01*
X5316993Y7348510D01*
X5323510Y7341993D01*
X5331490Y7337385D01*
X5340392Y7335000D01*
X5349608D01*
X5358510Y7337385D01*
X5366490Y7341993D01*
X5373007Y7348510D01*
X5377615Y7356490D01*
X5380000Y7365392D01*
Y7374608D01*
X5377615Y7383510D01*
X5373007Y7391490D01*
X5366490Y7398007D01*
X5358510Y7402615D01*
X5349608Y7405000D01*
D02*
G37*
G36*
X5159608Y7385000D02*
X5150392D01*
X5141490Y7382615D01*
X5133510Y7378007D01*
X5126993Y7371490D01*
X5122385Y7363510D01*
X5120000Y7354608D01*
Y7345392D01*
X5122385Y7336490D01*
X5126993Y7328510D01*
X5133510Y7321993D01*
X5141490Y7317385D01*
X5150392Y7315000D01*
X5159608D01*
X5168510Y7317385D01*
X5176490Y7321993D01*
X5183007Y7328510D01*
X5187615Y7336490D01*
X5190000Y7345392D01*
Y7354608D01*
X5187615Y7363510D01*
X5183007Y7371490D01*
X5176490Y7378007D01*
X5168510Y7382615D01*
X5159608Y7385000D01*
D02*
G37*
G36*
X4484608Y7380000D02*
X4475392D01*
X4466490Y7377615D01*
X4458510Y7373007D01*
X4451993Y7366490D01*
X4447385Y7358510D01*
X4445000Y7349608D01*
Y7340392D01*
X4447385Y7331490D01*
X4451993Y7323510D01*
X4458510Y7316993D01*
X4466490Y7312385D01*
X4475392Y7310000D01*
X4484608D01*
X4493510Y7312385D01*
X4501490Y7316993D01*
X4508007Y7323510D01*
X4512615Y7331490D01*
X4515000Y7340392D01*
Y7349608D01*
X4512615Y7358510D01*
X4508007Y7366490D01*
X4501490Y7373007D01*
X4493510Y7377615D01*
X4484608Y7380000D01*
D02*
G37*
G36*
X4334608Y7365000D02*
X4325392D01*
X4316490Y7362615D01*
X4308510Y7358007D01*
X4301993Y7351490D01*
X4297385Y7343510D01*
X4295000Y7334608D01*
Y7325392D01*
X4297385Y7316490D01*
X4301993Y7308510D01*
X4308510Y7301993D01*
X4316490Y7297385D01*
X4325392Y7295000D01*
X4334608D01*
X4343510Y7297385D01*
X4351490Y7301993D01*
X4358007Y7308510D01*
X4362615Y7316490D01*
X4365000Y7325392D01*
Y7334608D01*
X4362615Y7343510D01*
X4358007Y7351490D01*
X4351490Y7358007D01*
X4343510Y7362615D01*
X4334608Y7365000D01*
D02*
G37*
G36*
X4474608Y7290000D02*
X4465392D01*
X4456490Y7287615D01*
X4448510Y7283007D01*
X4441993Y7276490D01*
X4437385Y7268510D01*
X4435000Y7259608D01*
Y7250392D01*
X4437385Y7241490D01*
X4441993Y7233510D01*
X4448510Y7226993D01*
X4456490Y7222385D01*
X4465392Y7220000D01*
X4474608D01*
X4483510Y7222385D01*
X4491490Y7226993D01*
X4498007Y7233510D01*
X4502615Y7241490D01*
X4505000Y7250392D01*
Y7259608D01*
X4502615Y7268510D01*
X4498007Y7276490D01*
X4491490Y7283007D01*
X4483510Y7287615D01*
X4474608Y7290000D01*
D02*
G37*
G36*
X4275266Y7300000D02*
X4264734D01*
X4254561Y7297274D01*
X4245439Y7292008D01*
X4237992Y7284561D01*
X4232726Y7275439D01*
X4230000Y7265266D01*
Y7254734D01*
X4232726Y7244561D01*
X4237992Y7235439D01*
X4245439Y7227992D01*
X4254561Y7222726D01*
X4264734Y7220000D01*
X4275266D01*
X4285439Y7222726D01*
X4294561Y7227992D01*
X4302008Y7235439D01*
X4307274Y7244561D01*
X4310000Y7254734D01*
Y7265266D01*
X4307274Y7275439D01*
X4302008Y7284561D01*
X4294561Y7292008D01*
X4285439Y7297274D01*
X4275266Y7300000D01*
D02*
G37*
G36*
X5149608Y7200000D02*
X5140392D01*
X5131490Y7197615D01*
X5123510Y7193007D01*
X5116993Y7186490D01*
X5112385Y7178510D01*
X5110000Y7169608D01*
Y7160392D01*
X5112385Y7151490D01*
X5116993Y7143510D01*
X5123510Y7136993D01*
X5131490Y7132385D01*
X5140392Y7130000D01*
X5149608D01*
X5158510Y7132385D01*
X5166490Y7136993D01*
X5173007Y7143510D01*
X5177615Y7151490D01*
X5180000Y7160392D01*
Y7169608D01*
X5177615Y7178510D01*
X5173007Y7186490D01*
X5166490Y7193007D01*
X5158510Y7197615D01*
X5149608Y7200000D01*
D02*
G37*
G36*
X5590266D02*
X5579734D01*
X5569561Y7197274D01*
X5560439Y7192008D01*
X5552992Y7184561D01*
X5547726Y7175439D01*
X5545000Y7165266D01*
Y7154734D01*
X5547726Y7144561D01*
X5552992Y7135439D01*
X5560439Y7127992D01*
X5569561Y7122726D01*
X5579734Y7120000D01*
X5590266D01*
X5600439Y7122726D01*
X5609561Y7127992D01*
X5617008Y7135439D01*
X5622274Y7144561D01*
X5625000Y7154734D01*
Y7165266D01*
X5622274Y7175439D01*
X5617008Y7184561D01*
X5609561Y7192008D01*
X5600439Y7197274D01*
X5590266Y7200000D01*
D02*
G37*
G36*
X5009815Y7176575D02*
X5000185D01*
X4990883Y7174082D01*
X4982542Y7169267D01*
X4975733Y7162458D01*
X4970918Y7154117D01*
X4968425Y7144815D01*
Y7135185D01*
X4970918Y7125883D01*
X4975733Y7117542D01*
X4982542Y7110733D01*
X4990883Y7105918D01*
X5000185Y7103425D01*
X5009815D01*
X5019117Y7105918D01*
X5027458Y7110733D01*
X5034267Y7117542D01*
X5039082Y7125883D01*
X5041575Y7135185D01*
Y7144815D01*
X5039082Y7154117D01*
X5034267Y7162458D01*
X5027458Y7169267D01*
X5019117Y7174082D01*
X5009815Y7176575D01*
D02*
G37*
G36*
X4909815D02*
X4900185D01*
X4890883Y7174082D01*
X4882542Y7169267D01*
X4875733Y7162458D01*
X4870918Y7154117D01*
X4868425Y7144815D01*
Y7135185D01*
X4870918Y7125883D01*
X4875733Y7117542D01*
X4882542Y7110733D01*
X4890883Y7105918D01*
X4900185Y7103425D01*
X4909815D01*
X4919117Y7105918D01*
X4927458Y7110733D01*
X4934267Y7117542D01*
X4939082Y7125883D01*
X4941575Y7135185D01*
Y7144815D01*
X4939082Y7154117D01*
X4934267Y7162458D01*
X4927458Y7169267D01*
X4919117Y7174082D01*
X4909815Y7176575D01*
D02*
G37*
G36*
X4809815D02*
X4800185D01*
X4790883Y7174082D01*
X4782542Y7169267D01*
X4775733Y7162458D01*
X4770918Y7154117D01*
X4768425Y7144815D01*
Y7135185D01*
X4770918Y7125883D01*
X4775733Y7117542D01*
X4782542Y7110733D01*
X4790883Y7105918D01*
X4800185Y7103425D01*
X4809815D01*
X4819117Y7105918D01*
X4827458Y7110733D01*
X4834267Y7117542D01*
X4839082Y7125883D01*
X4841575Y7135185D01*
Y7144815D01*
X4839082Y7154117D01*
X4834267Y7162458D01*
X4827458Y7169267D01*
X4819117Y7174082D01*
X4809815Y7176575D01*
D02*
G37*
G36*
X5509608Y7100000D02*
X5500392D01*
X5491490Y7097615D01*
X5483510Y7093007D01*
X5476993Y7086490D01*
X5472385Y7078510D01*
X5470000Y7069608D01*
Y7060392D01*
X5472385Y7051490D01*
X5476993Y7043510D01*
X5483510Y7036993D01*
X5491490Y7032385D01*
X5500392Y7030000D01*
X5509608D01*
X5518510Y7032385D01*
X5526490Y7036993D01*
X5533007Y7043510D01*
X5537615Y7051490D01*
X5540000Y7060392D01*
Y7069608D01*
X5537615Y7078510D01*
X5533007Y7086490D01*
X5526490Y7093007D01*
X5518510Y7097615D01*
X5509608Y7100000D01*
D02*
G37*
G36*
X5249973Y7055000D02*
X5240027D01*
X5230839Y7051194D01*
X5223806Y7044161D01*
X5220000Y7034973D01*
Y7025027D01*
X5223806Y7015839D01*
X5230839Y7008806D01*
X5240027Y7005000D01*
X5249973D01*
X5259161Y7008806D01*
X5266194Y7015839D01*
X5270000Y7025027D01*
Y7034973D01*
X5266194Y7044161D01*
X5259161Y7051194D01*
X5249973Y7055000D01*
D02*
G37*
G36*
X5928429Y7394882D02*
X5901571D01*
X5874944Y7391376D01*
X5849002Y7384425D01*
X5824189Y7374147D01*
X5800930Y7360719D01*
X5779622Y7344369D01*
X5760631Y7325378D01*
X5744281Y7304070D01*
X5730853Y7280811D01*
X5720575Y7255998D01*
X5713624Y7230056D01*
X5710118Y7203429D01*
Y7176571D01*
X5713624Y7149944D01*
X5720575Y7124002D01*
X5730853Y7099189D01*
X5744281Y7075930D01*
X5760631Y7054622D01*
X5779622Y7035631D01*
X5800930Y7019281D01*
X5824189Y7005853D01*
X5849002Y6995575D01*
X5874944Y6988624D01*
X5901571Y6985118D01*
X5928429D01*
X5955056Y6988624D01*
X5980998Y6995575D01*
X6005811Y7005853D01*
X6029070Y7019281D01*
X6050378Y7035631D01*
X6069369Y7054622D01*
X6085719Y7075930D01*
X6099147Y7099189D01*
X6109425Y7124002D01*
X6116376Y7149944D01*
X6119882Y7176571D01*
Y7203429D01*
X6116376Y7230056D01*
X6109425Y7255998D01*
X6099147Y7280811D01*
X6085719Y7304070D01*
X6069369Y7325378D01*
X6050378Y7344369D01*
X6029070Y7360719D01*
X6005811Y7374147D01*
X5980998Y7384425D01*
X5955056Y7391376D01*
X5928429Y7394882D01*
D02*
G37*
G36*
X3983429D02*
X3956571D01*
X3929944Y7391376D01*
X3904002Y7384425D01*
X3879189Y7374147D01*
X3855930Y7360719D01*
X3834622Y7344369D01*
X3815631Y7325378D01*
X3799281Y7304070D01*
X3785853Y7280811D01*
X3775575Y7255998D01*
X3768624Y7230056D01*
X3765118Y7203429D01*
Y7176571D01*
X3768624Y7149944D01*
X3775575Y7124002D01*
X3785853Y7099189D01*
X3799281Y7075930D01*
X3815631Y7054622D01*
X3834622Y7035631D01*
X3855930Y7019281D01*
X3879189Y7005853D01*
X3904002Y6995575D01*
X3929944Y6988624D01*
X3956571Y6985118D01*
X3983429D01*
X4010056Y6988624D01*
X4035998Y6995575D01*
X4060811Y7005853D01*
X4084070Y7019281D01*
X4105378Y7035631D01*
X4124369Y7054622D01*
X4140719Y7075930D01*
X4154147Y7099189D01*
X4164425Y7124002D01*
X4171376Y7149944D01*
X4174882Y7176571D01*
Y7203429D01*
X4171376Y7230056D01*
X4164425Y7255998D01*
X4154147Y7280811D01*
X4140719Y7304070D01*
X4124369Y7325378D01*
X4105378Y7344369D01*
X4084070Y7360719D01*
X4060811Y7374147D01*
X4035998Y7384425D01*
X4010056Y7391376D01*
X3983429Y7394882D01*
D02*
G37*
G36*
X4990266Y7065000D02*
X4979734D01*
X4969561Y7062274D01*
X4960439Y7057008D01*
X4952992Y7049561D01*
X4947726Y7040439D01*
X4945000Y7030266D01*
Y7019734D01*
X4947726Y7009561D01*
X4952992Y7000439D01*
X4960439Y6992992D01*
X4969561Y6987726D01*
X4979734Y6985000D01*
X4990266D01*
X5000439Y6987726D01*
X5009561Y6992992D01*
X5017008Y7000439D01*
X5022274Y7009561D01*
X5025000Y7019734D01*
Y7030266D01*
X5022274Y7040439D01*
X5017008Y7049561D01*
X5009561Y7057008D01*
X5000439Y7062274D01*
X4990266Y7065000D01*
D02*
G37*
G36*
X5155463Y7011496D02*
X5144537D01*
X5133983Y7008668D01*
X5124521Y7003205D01*
X5116795Y6995479D01*
X5111332Y6986017D01*
X5108504Y6975463D01*
Y6964537D01*
X5111332Y6953983D01*
X5116795Y6944521D01*
X5124521Y6936795D01*
X5133983Y6931332D01*
X5144537Y6928504D01*
X5155463D01*
X5166017Y6931332D01*
X5175479Y6936795D01*
X5183205Y6944521D01*
X5188668Y6953983D01*
X5191496Y6964537D01*
Y6975463D01*
X5188668Y6986017D01*
X5183205Y6995479D01*
X5175479Y7003205D01*
X5166017Y7008668D01*
X5155463Y7011496D01*
D02*
G37*
G36*
X5483835Y6938154D02*
X5474619D01*
X5465717Y6935769D01*
X5457736Y6931162D01*
X5451220Y6924645D01*
X5446612Y6916664D01*
X5444227Y6907762D01*
Y6898547D01*
X5446612Y6889645D01*
X5451220Y6881664D01*
X5457736Y6875148D01*
X5465717Y6870540D01*
X5474619Y6868154D01*
X5483835D01*
X5492736Y6870540D01*
X5500717Y6875148D01*
X5507234Y6881664D01*
X5511842Y6889645D01*
X5514227Y6898547D01*
Y6907762D01*
X5511842Y6916664D01*
X5507234Y6924645D01*
X5500717Y6931162D01*
X5492736Y6935769D01*
X5483835Y6938154D01*
D02*
G37*
G36*
X5155463Y6911496D02*
X5144537D01*
X5133983Y6908668D01*
X5124521Y6903205D01*
X5116795Y6895479D01*
X5111332Y6886017D01*
X5108504Y6875463D01*
Y6864537D01*
X5111332Y6853983D01*
X5116795Y6844521D01*
X5124521Y6836795D01*
X5133983Y6831332D01*
X5144537Y6828504D01*
X5155463D01*
X5166017Y6831332D01*
X5175479Y6836795D01*
X5183205Y6844521D01*
X5188668Y6853983D01*
X5191496Y6864537D01*
Y6875463D01*
X5188668Y6886017D01*
X5183205Y6895479D01*
X5175479Y6903205D01*
X5166017Y6908668D01*
X5155463Y6911496D01*
D02*
G37*
G36*
X5191496Y6811496D02*
X5108504D01*
Y6728504D01*
X5191496D01*
Y6811496D01*
D02*
G37*
G36*
X6006500Y6819370D02*
X5993500D01*
X5980944Y6816006D01*
X5969686Y6809506D01*
X5960494Y6800314D01*
X5953994Y6789056D01*
X5950630Y6776500D01*
Y6763500D01*
X5953994Y6750944D01*
X5960494Y6739686D01*
X5969686Y6730494D01*
X5980944Y6723994D01*
X5993500Y6720630D01*
X6006500D01*
X6019056Y6723994D01*
X6030314Y6730494D01*
X6039506Y6739686D01*
X6046006Y6750944D01*
X6049370Y6763500D01*
Y6776500D01*
X6046006Y6789056D01*
X6039506Y6800314D01*
X6030314Y6809506D01*
X6019056Y6816006D01*
X6006500Y6819370D01*
D02*
G37*
G36*
X3886500D02*
X3873500D01*
X3860944Y6816006D01*
X3849686Y6809506D01*
X3840494Y6800314D01*
X3833994Y6789056D01*
X3830630Y6776500D01*
Y6763500D01*
X3833994Y6750944D01*
X3840494Y6739686D01*
X3849686Y6730494D01*
X3860944Y6723994D01*
X3873500Y6720630D01*
X3886500D01*
X3899056Y6723994D01*
X3910314Y6730494D01*
X3919506Y6739686D01*
X3926006Y6750944D01*
X3929370Y6763500D01*
Y6776500D01*
X3926006Y6789056D01*
X3919506Y6800314D01*
X3910314Y6809506D01*
X3899056Y6816006D01*
X3886500Y6819370D01*
D02*
G37*
G36*
X6015000Y6617092D02*
Y6585000D01*
X6047092D01*
X6046006Y6589056D01*
X6039506Y6600314D01*
X6030314Y6609506D01*
X6019056Y6616006D01*
X6015000Y6617092D01*
D02*
G37*
G36*
X5985000D02*
X5980944Y6616006D01*
X5969686Y6609506D01*
X5960494Y6600314D01*
X5953994Y6589056D01*
X5952908Y6585000D01*
X5985000D01*
Y6617092D01*
D02*
G37*
G36*
X3895000D02*
Y6585000D01*
X3927092D01*
X3926006Y6589056D01*
X3919506Y6600314D01*
X3910314Y6609506D01*
X3899056Y6616006D01*
X3895000Y6617092D01*
D02*
G37*
G36*
X3865000D02*
X3860944Y6616006D01*
X3849686Y6609506D01*
X3840494Y6600314D01*
X3833994Y6589056D01*
X3832908Y6585000D01*
X3865000D01*
Y6617092D01*
D02*
G37*
G36*
X4654815Y6621575D02*
X4645185D01*
X4635883Y6619082D01*
X4627542Y6614267D01*
X4620733Y6607458D01*
X4615918Y6599117D01*
X4613425Y6589815D01*
Y6580185D01*
X4615918Y6570883D01*
X4620733Y6562542D01*
X4627542Y6555733D01*
X4635883Y6550918D01*
X4645185Y6548425D01*
X4654815D01*
X4664117Y6550918D01*
X4672458Y6555733D01*
X4679267Y6562542D01*
X4684082Y6570883D01*
X4686575Y6580185D01*
Y6589815D01*
X4684082Y6599117D01*
X4679267Y6607458D01*
X4672458Y6614267D01*
X4664117Y6619082D01*
X4654815Y6621575D01*
D02*
G37*
G36*
X4554815D02*
X4545185D01*
X4535883Y6619082D01*
X4527542Y6614267D01*
X4520733Y6607458D01*
X4515918Y6599117D01*
X4513425Y6589815D01*
Y6580185D01*
X4515918Y6570883D01*
X4520733Y6562542D01*
X4527542Y6555733D01*
X4535883Y6550918D01*
X4545185Y6548425D01*
X4554815D01*
X4564117Y6550918D01*
X4572458Y6555733D01*
X4579267Y6562542D01*
X4584082Y6570883D01*
X4586575Y6580185D01*
Y6589815D01*
X4584082Y6599117D01*
X4579267Y6607458D01*
X4572458Y6614267D01*
X4564117Y6619082D01*
X4554815Y6621575D01*
D02*
G37*
G36*
X6047092Y6555000D02*
X6015000D01*
Y6522908D01*
X6019056Y6523994D01*
X6030314Y6530494D01*
X6039506Y6539686D01*
X6046006Y6550944D01*
X6047092Y6555000D01*
D02*
G37*
G36*
X5985000D02*
X5952908D01*
X5953994Y6550944D01*
X5960494Y6539686D01*
X5969686Y6530494D01*
X5980944Y6523994D01*
X5985000Y6522908D01*
Y6555000D01*
D02*
G37*
G36*
X3927092D02*
X3895000D01*
Y6522908D01*
X3899056Y6523994D01*
X3910314Y6530494D01*
X3919506Y6539686D01*
X3926006Y6550944D01*
X3927092Y6555000D01*
D02*
G37*
G36*
X3865000D02*
X3832908D01*
X3833994Y6550944D01*
X3840494Y6539686D01*
X3849686Y6530494D01*
X3860944Y6523994D01*
X3865000Y6522908D01*
Y6555000D01*
D02*
G37*
G36*
X5795266Y6595000D02*
X5784734D01*
X5774561Y6592274D01*
X5765439Y6587008D01*
X5757992Y6579561D01*
X5752726Y6570439D01*
X5750000Y6560266D01*
Y6549734D01*
X5752726Y6539561D01*
X5757992Y6530439D01*
X5765439Y6522992D01*
X5774561Y6517726D01*
X5784734Y6515000D01*
X5795266D01*
X5805439Y6517726D01*
X5814561Y6522992D01*
X5822008Y6530439D01*
X5827274Y6539561D01*
X5830000Y6549734D01*
Y6560266D01*
X5827274Y6570439D01*
X5822008Y6579561D01*
X5814561Y6587008D01*
X5805439Y6592274D01*
X5795266Y6595000D01*
D02*
G37*
G36*
X5320266Y6530000D02*
X5309734D01*
X5299561Y6527274D01*
X5290439Y6522008D01*
X5282992Y6514561D01*
X5277726Y6505439D01*
X5275000Y6495266D01*
Y6484734D01*
X5277726Y6474561D01*
X5282992Y6465439D01*
X5290439Y6457992D01*
X5299561Y6452726D01*
X5309734Y6450000D01*
X5320266D01*
X5330439Y6452726D01*
X5339561Y6457992D01*
X5347008Y6465439D01*
X5352274Y6474561D01*
X5355000Y6484734D01*
Y6495266D01*
X5352274Y6505439D01*
X5347008Y6514561D01*
X5339561Y6522008D01*
X5330439Y6527274D01*
X5320266Y6530000D01*
D02*
G37*
G36*
X4473457Y6492288D02*
X4464241D01*
X4455340Y6489903D01*
X4447359Y6485295D01*
X4440842Y6478778D01*
X4436234Y6470797D01*
X4433849Y6461896D01*
Y6452680D01*
X4436234Y6443778D01*
X4440842Y6435797D01*
X4447359Y6429281D01*
X4455340Y6424673D01*
X4464241Y6422288D01*
X4473457D01*
X4482359Y6424673D01*
X4490340Y6429281D01*
X4496856Y6435797D01*
X4501464Y6443778D01*
X4503849Y6452680D01*
Y6461896D01*
X4501464Y6470797D01*
X4496856Y6478778D01*
X4490340Y6485295D01*
X4482359Y6489903D01*
X4473457Y6492288D01*
D02*
G37*
G36*
X6015000Y6417092D02*
Y6385000D01*
X6047092D01*
X6046006Y6389056D01*
X6039506Y6400314D01*
X6030314Y6409506D01*
X6019056Y6416006D01*
X6015000Y6417092D01*
D02*
G37*
G36*
X5985000D02*
X5980944Y6416006D01*
X5969686Y6409506D01*
X5960494Y6400314D01*
X5953994Y6389056D01*
X5952908Y6385000D01*
X5985000D01*
Y6417092D01*
D02*
G37*
G36*
X3895000D02*
Y6385000D01*
X3927092D01*
X3926006Y6389056D01*
X3919506Y6400314D01*
X3910314Y6409506D01*
X3899056Y6416006D01*
X3895000Y6417092D01*
D02*
G37*
G36*
X3865000D02*
X3860944Y6416006D01*
X3849686Y6409506D01*
X3840494Y6400314D01*
X3833994Y6389056D01*
X3832908Y6385000D01*
X3865000D01*
Y6417092D01*
D02*
G37*
G36*
X4340266Y6415000D02*
X4329734D01*
X4319561Y6412274D01*
X4310439Y6407008D01*
X4302992Y6399561D01*
X4297726Y6390439D01*
X4295000Y6380266D01*
Y6369734D01*
X4297726Y6359561D01*
X4302992Y6350439D01*
X4310439Y6342992D01*
X4319561Y6337726D01*
X4329734Y6335000D01*
X4340266D01*
X4350439Y6337726D01*
X4359561Y6342992D01*
X4367008Y6350439D01*
X4372274Y6359561D01*
X4375000Y6369734D01*
Y6380266D01*
X4372274Y6390439D01*
X4367008Y6399561D01*
X4359561Y6407008D01*
X4350439Y6412274D01*
X4340266Y6415000D01*
D02*
G37*
G36*
X6047092Y6355000D02*
X6015000D01*
Y6322908D01*
X6019056Y6323994D01*
X6030314Y6330494D01*
X6039506Y6339686D01*
X6046006Y6350944D01*
X6047092Y6355000D01*
D02*
G37*
G36*
X5985000D02*
X5952908D01*
X5953994Y6350944D01*
X5960494Y6339686D01*
X5969686Y6330494D01*
X5980944Y6323994D01*
X5985000Y6322908D01*
Y6355000D01*
D02*
G37*
G36*
X3927092D02*
X3895000D01*
Y6322908D01*
X3899056Y6323994D01*
X3910314Y6330494D01*
X3919506Y6339686D01*
X3926006Y6350944D01*
X3927092Y6355000D01*
D02*
G37*
G36*
X3865000D02*
X3832908D01*
X3833994Y6350944D01*
X3840494Y6339686D01*
X3849686Y6330494D01*
X3860944Y6323994D01*
X3865000Y6322908D01*
Y6355000D01*
D02*
G37*
G36*
X5354608D02*
X5345392D01*
X5336490Y6352615D01*
X5328510Y6348007D01*
X5321993Y6341490D01*
X5317385Y6333510D01*
X5315000Y6324608D01*
Y6315392D01*
X5317385Y6306490D01*
X5321993Y6298510D01*
X5328510Y6291993D01*
X5336490Y6287385D01*
X5345392Y6285000D01*
X5354608D01*
X5363510Y6287385D01*
X5371490Y6291993D01*
X5378007Y6298510D01*
X5382615Y6306490D01*
X5385000Y6315392D01*
Y6324608D01*
X5382615Y6333510D01*
X5378007Y6341490D01*
X5371490Y6348007D01*
X5363510Y6352615D01*
X5354608Y6355000D01*
D02*
G37*
G36*
X4654815Y6321575D02*
X4645185D01*
X4635883Y6319082D01*
X4627542Y6314267D01*
X4620733Y6307458D01*
X4615918Y6299117D01*
X4613425Y6289815D01*
Y6280185D01*
X4615918Y6270883D01*
X4620733Y6262542D01*
X4627542Y6255733D01*
X4635883Y6250918D01*
X4645185Y6248425D01*
X4654815D01*
X4664117Y6250918D01*
X4672458Y6255733D01*
X4679267Y6262542D01*
X4684082Y6270883D01*
X4686575Y6280185D01*
Y6289815D01*
X4684082Y6299117D01*
X4679267Y6307458D01*
X4672458Y6314267D01*
X4664117Y6319082D01*
X4654815Y6321575D01*
D02*
G37*
G36*
X4554815D02*
X4545185D01*
X4535883Y6319082D01*
X4527542Y6314267D01*
X4520733Y6307458D01*
X4515918Y6299117D01*
X4513425Y6289815D01*
Y6280185D01*
X4515918Y6270883D01*
X4520733Y6262542D01*
X4527542Y6255733D01*
X4535883Y6250918D01*
X4545185Y6248425D01*
X4554815D01*
X4564117Y6250918D01*
X4572458Y6255733D01*
X4579267Y6262542D01*
X4584082Y6270883D01*
X4586575Y6280185D01*
Y6289815D01*
X4584082Y6299117D01*
X4579267Y6307458D01*
X4572458Y6314267D01*
X4564117Y6319082D01*
X4554815Y6321575D01*
D02*
G37*
G36*
X4344608Y6305000D02*
X4335392D01*
X4326490Y6302615D01*
X4318510Y6298007D01*
X4311993Y6291490D01*
X4307385Y6283510D01*
X4305000Y6274608D01*
Y6265392D01*
X4307385Y6256490D01*
X4311993Y6248510D01*
X4318510Y6241993D01*
X4326490Y6237385D01*
X4335392Y6235000D01*
X4344608D01*
X4353510Y6237385D01*
X4361490Y6241993D01*
X4368007Y6248510D01*
X4372615Y6256490D01*
X4375000Y6265392D01*
Y6274608D01*
X4372615Y6283510D01*
X4368007Y6291490D01*
X4361490Y6298007D01*
X4353510Y6302615D01*
X4344608Y6305000D01*
D02*
G37*
G36*
X4229608Y6275000D02*
X4220392D01*
X4211490Y6272615D01*
X4203510Y6268007D01*
X4196993Y6261490D01*
X4192385Y6253510D01*
X4190000Y6244608D01*
Y6235392D01*
X4192385Y6226490D01*
X4196993Y6218510D01*
X4203510Y6211993D01*
X4211490Y6207385D01*
X4220392Y6205000D01*
X4229608D01*
X4238510Y6207385D01*
X4246490Y6211993D01*
X4253007Y6218510D01*
X4257615Y6226490D01*
X4260000Y6235392D01*
Y6244608D01*
X4257615Y6253510D01*
X4253007Y6261490D01*
X4246490Y6268007D01*
X4238510Y6272615D01*
X4229608Y6275000D01*
D02*
G37*
G36*
X5349608Y6270000D02*
X5340392D01*
X5331490Y6267615D01*
X5323510Y6263007D01*
X5316993Y6256490D01*
X5312385Y6248510D01*
X5310000Y6239608D01*
Y6230392D01*
X5312385Y6221490D01*
X5316993Y6213510D01*
X5323510Y6206993D01*
X5331490Y6202385D01*
X5340392Y6200000D01*
X5349608D01*
X5358510Y6202385D01*
X5366490Y6206993D01*
X5373007Y6213510D01*
X5377615Y6221490D01*
X5380000Y6230392D01*
Y6239608D01*
X5377615Y6248510D01*
X5373007Y6256490D01*
X5366490Y6263007D01*
X5358510Y6267615D01*
X5349608Y6270000D01*
D02*
G37*
G36*
X4114608Y6265000D02*
X4105392D01*
X4096490Y6262615D01*
X4088510Y6258007D01*
X4081993Y6251490D01*
X4077385Y6243510D01*
X4075000Y6234608D01*
Y6225392D01*
X4077385Y6216490D01*
X4081993Y6208510D01*
X4088510Y6201993D01*
X4096490Y6197385D01*
X4105392Y6195000D01*
X4114608D01*
X4123510Y6197385D01*
X4131490Y6201993D01*
X4138007Y6208510D01*
X4142615Y6216490D01*
X4145000Y6225392D01*
Y6234608D01*
X4142615Y6243510D01*
X4138007Y6251490D01*
X4131490Y6258007D01*
X4123510Y6262615D01*
X4114608Y6265000D01*
D02*
G37*
G36*
X6006500Y6219370D02*
X5993500D01*
X5980944Y6216006D01*
X5969686Y6209506D01*
X5960494Y6200314D01*
X5953994Y6189056D01*
X5950630Y6176500D01*
Y6163500D01*
X5953994Y6150944D01*
X5960494Y6139686D01*
X5969686Y6130494D01*
X5980944Y6123994D01*
X5993500Y6120630D01*
X6006500D01*
X6019056Y6123994D01*
X6030314Y6130494D01*
X6039506Y6139686D01*
X6046006Y6150944D01*
X6049370Y6163500D01*
Y6176500D01*
X6046006Y6189056D01*
X6039506Y6200314D01*
X6030314Y6209506D01*
X6019056Y6216006D01*
X6006500Y6219370D01*
D02*
G37*
G36*
X3886500D02*
X3873500D01*
X3860944Y6216006D01*
X3849686Y6209506D01*
X3840494Y6200314D01*
X3833994Y6189056D01*
X3830630Y6176500D01*
Y6163500D01*
X3833994Y6150944D01*
X3840494Y6139686D01*
X3849686Y6130494D01*
X3860944Y6123994D01*
X3873500Y6120630D01*
X3886500D01*
X3899056Y6123994D01*
X3910314Y6130494D01*
X3919506Y6139686D01*
X3926006Y6150944D01*
X3929370Y6163500D01*
Y6176500D01*
X3926006Y6189056D01*
X3919506Y6200314D01*
X3910314Y6209506D01*
X3899056Y6216006D01*
X3886500Y6219370D01*
D02*
G37*
G36*
X5524608Y6170000D02*
X5515392D01*
X5506490Y6167615D01*
X5498510Y6163007D01*
X5491993Y6156490D01*
X5487385Y6148510D01*
X5485000Y6139608D01*
Y6130392D01*
X5487385Y6121490D01*
X5491993Y6113510D01*
X5498510Y6106993D01*
X5506490Y6102385D01*
X5515392Y6100000D01*
X5524608D01*
X5533510Y6102385D01*
X5541490Y6106993D01*
X5548007Y6113510D01*
X5552615Y6121490D01*
X5555000Y6130392D01*
Y6139608D01*
X5552615Y6148510D01*
X5548007Y6156490D01*
X5541490Y6163007D01*
X5533510Y6167615D01*
X5524608Y6170000D01*
D02*
G37*
G36*
X5165463Y6171496D02*
X5154537D01*
X5143983Y6168668D01*
X5134521Y6163205D01*
X5126795Y6155479D01*
X5121332Y6146017D01*
X5118504Y6135463D01*
Y6124537D01*
X5121332Y6113983D01*
X5126795Y6104521D01*
X5134521Y6096795D01*
X5143983Y6091332D01*
X5154537Y6088504D01*
X5165463D01*
X5176017Y6091332D01*
X5185479Y6096795D01*
X5193205Y6104521D01*
X5198668Y6113983D01*
X5201496Y6124537D01*
Y6135463D01*
X5198668Y6146017D01*
X5193205Y6155479D01*
X5185479Y6163205D01*
X5176017Y6168668D01*
X5165463Y6171496D01*
D02*
G37*
G36*
X3984608Y6090000D02*
X3975392D01*
X3966490Y6087615D01*
X3958510Y6083007D01*
X3951993Y6076490D01*
X3947385Y6068510D01*
X3945000Y6059608D01*
Y6050392D01*
X3947385Y6041490D01*
X3951993Y6033510D01*
X3958510Y6026993D01*
X3966490Y6022385D01*
X3975392Y6020000D01*
X3984608D01*
X3993510Y6022385D01*
X4001490Y6026993D01*
X4008007Y6033510D01*
X4012615Y6041490D01*
X4015000Y6050392D01*
Y6059608D01*
X4012615Y6068510D01*
X4008007Y6076490D01*
X4001490Y6083007D01*
X3993510Y6087615D01*
X3984608Y6090000D01*
D02*
G37*
G36*
X5165463Y6071496D02*
X5154537D01*
X5143983Y6068668D01*
X5134521Y6063205D01*
X5126795Y6055479D01*
X5121332Y6046017D01*
X5118504Y6035463D01*
Y6024537D01*
X5121332Y6013983D01*
X5126795Y6004521D01*
X5134521Y5996795D01*
X5143983Y5991332D01*
X5154537Y5988504D01*
X5165463D01*
X5176017Y5991332D01*
X5185479Y5996795D01*
X5193205Y6004521D01*
X5198668Y6013983D01*
X5201496Y6024537D01*
Y6035463D01*
X5198668Y6046017D01*
X5193205Y6055479D01*
X5185479Y6063205D01*
X5176017Y6068668D01*
X5165463Y6071496D01*
D02*
G37*
G36*
X5364608Y6055000D02*
X5355392D01*
X5346490Y6052615D01*
X5338510Y6048007D01*
X5331993Y6041490D01*
X5327385Y6033510D01*
X5325000Y6024608D01*
Y6015392D01*
X5327385Y6006490D01*
X5331993Y5998510D01*
X5338510Y5991993D01*
X5346490Y5987385D01*
X5355392Y5985000D01*
X5364608D01*
X5373510Y5987385D01*
X5381490Y5991993D01*
X5388007Y5998510D01*
X5392615Y6006490D01*
X5395000Y6015392D01*
Y6024608D01*
X5392615Y6033510D01*
X5388007Y6041490D01*
X5381490Y6048007D01*
X5373510Y6052615D01*
X5364608Y6055000D01*
D02*
G37*
G36*
X5642961Y6060000D02*
X5632429D01*
X5622256Y6057274D01*
X5613135Y6052008D01*
X5605687Y6044561D01*
X5600421Y6035439D01*
X5597695Y6025266D01*
Y6014734D01*
X5600421Y6004561D01*
X5605687Y5995439D01*
X5613135Y5987992D01*
X5622256Y5982726D01*
X5632429Y5980000D01*
X5642961D01*
X5653135Y5982726D01*
X5662256Y5987992D01*
X5669703Y5995439D01*
X5674969Y6004561D01*
X5677695Y6014734D01*
Y6025266D01*
X5674969Y6035439D01*
X5669703Y6044561D01*
X5662256Y6052008D01*
X5653135Y6057274D01*
X5642961Y6060000D01*
D02*
G37*
G36*
X4610266Y5995000D02*
X4599734D01*
X4589561Y5992274D01*
X4580439Y5987008D01*
X4572992Y5979561D01*
X4567726Y5970439D01*
X4565000Y5960266D01*
Y5949734D01*
X4567726Y5939561D01*
X4572992Y5930439D01*
X4580439Y5922992D01*
X4589561Y5917726D01*
X4599734Y5915000D01*
X4610266D01*
X4620439Y5917726D01*
X4629561Y5922992D01*
X4637008Y5930439D01*
X4642274Y5939561D01*
X4645000Y5949734D01*
Y5960266D01*
X4642274Y5970439D01*
X4637008Y5979561D01*
X4629561Y5987008D01*
X4620439Y5992274D01*
X4610266Y5995000D01*
D02*
G37*
G36*
X5201496Y5971496D02*
X5118504D01*
Y5888504D01*
X5201496D01*
Y5971496D01*
D02*
G37*
G36*
X5565266Y5885000D02*
X5554734D01*
X5544561Y5882274D01*
X5535439Y5877008D01*
X5527992Y5869561D01*
X5522726Y5860439D01*
X5520000Y5850266D01*
Y5839734D01*
X5522726Y5829561D01*
X5527992Y5820439D01*
X5535439Y5812992D01*
X5544561Y5807726D01*
X5554734Y5805000D01*
X5565266D01*
X5575439Y5807726D01*
X5584561Y5812992D01*
X5592008Y5820439D01*
X5597274Y5829561D01*
X5600000Y5839734D01*
Y5850266D01*
X5597274Y5860439D01*
X5592008Y5869561D01*
X5584561Y5877008D01*
X5575439Y5882274D01*
X5565266Y5885000D01*
D02*
G37*
G36*
X4474608Y5855000D02*
X4465392D01*
X4456490Y5852615D01*
X4448510Y5848007D01*
X4441993Y5841490D01*
X4437385Y5833510D01*
X4435000Y5824608D01*
Y5815392D01*
X4437385Y5806490D01*
X4441993Y5798510D01*
X4448510Y5791993D01*
X4456490Y5787385D01*
X4465392Y5785000D01*
X4474608D01*
X4483510Y5787385D01*
X4491490Y5791993D01*
X4498007Y5798510D01*
X4502615Y5806490D01*
X4505000Y5815392D01*
Y5824608D01*
X4502615Y5833510D01*
X4498007Y5841490D01*
X4491490Y5848007D01*
X4483510Y5852615D01*
X4474608Y5855000D01*
D02*
G37*
G36*
X4284608Y5825000D02*
X4275392D01*
X4266490Y5822615D01*
X4258510Y5818007D01*
X4251993Y5811490D01*
X4247385Y5803510D01*
X4245000Y5794608D01*
Y5785392D01*
X4247385Y5776490D01*
X4251993Y5768510D01*
X4258510Y5761993D01*
X4266490Y5757385D01*
X4275392Y5755000D01*
X4284608D01*
X4293510Y5757385D01*
X4301490Y5761993D01*
X4308007Y5768510D01*
X4312615Y5776490D01*
X4315000Y5785392D01*
Y5794608D01*
X4312615Y5803510D01*
X4308007Y5811490D01*
X4301490Y5818007D01*
X4293510Y5822615D01*
X4284608Y5825000D01*
D02*
G37*
G36*
X5615266Y5720000D02*
X5604734D01*
X5594561Y5717274D01*
X5585439Y5712008D01*
X5577992Y5704561D01*
X5572726Y5695439D01*
X5570000Y5685266D01*
Y5674734D01*
X5572726Y5664561D01*
X5577992Y5655439D01*
X5585439Y5647992D01*
X5594561Y5642726D01*
X5604734Y5640000D01*
X5615266D01*
X5625439Y5642726D01*
X5634561Y5647992D01*
X5642008Y5655439D01*
X5647274Y5664561D01*
X5650000Y5674734D01*
Y5685266D01*
X5647274Y5695439D01*
X5642008Y5704561D01*
X5634561Y5712008D01*
X5625439Y5717274D01*
X5615266Y5720000D01*
D02*
G37*
G36*
X4459608Y5655000D02*
X4450392D01*
X4441490Y5652615D01*
X4433510Y5648007D01*
X4426993Y5641490D01*
X4422385Y5633510D01*
X4420000Y5624608D01*
Y5615392D01*
X4422385Y5606490D01*
X4426993Y5598510D01*
X4433510Y5591993D01*
X4441490Y5587385D01*
X4450392Y5585000D01*
X4459608D01*
X4468510Y5587385D01*
X4476490Y5591993D01*
X4483007Y5598510D01*
X4487615Y5606490D01*
X4490000Y5615392D01*
Y5624608D01*
X4487615Y5633510D01*
X4483007Y5641490D01*
X4476490Y5648007D01*
X4468510Y5652615D01*
X4459608Y5655000D01*
D02*
G37*
G36*
X4264608Y5644261D02*
X4255392D01*
X4246490Y5641876D01*
X4238510Y5637268D01*
X4231993Y5630752D01*
X4227385Y5622771D01*
X4225000Y5613869D01*
Y5604654D01*
X4227385Y5595752D01*
X4231993Y5587771D01*
X4238510Y5581254D01*
X4246490Y5576646D01*
X4255392Y5574261D01*
X4264608D01*
X4273510Y5576646D01*
X4281490Y5581254D01*
X4288007Y5587771D01*
X4292615Y5595752D01*
X4295000Y5604654D01*
Y5613869D01*
X4292615Y5622771D01*
X4288007Y5630752D01*
X4281490Y5637268D01*
X4273510Y5641876D01*
X4264608Y5644261D01*
D02*
G37*
G36*
X5933429Y5954882D02*
X5906571D01*
X5879944Y5951376D01*
X5854002Y5944425D01*
X5829189Y5934147D01*
X5805930Y5920719D01*
X5784622Y5904369D01*
X5765631Y5885378D01*
X5749281Y5864070D01*
X5735853Y5840811D01*
X5725575Y5815998D01*
X5718624Y5790056D01*
X5715118Y5763429D01*
Y5736571D01*
X5718624Y5709944D01*
X5725575Y5684002D01*
X5735853Y5659189D01*
X5749281Y5635930D01*
X5765631Y5614622D01*
X5784622Y5595631D01*
X5805930Y5579281D01*
X5829189Y5565853D01*
X5854002Y5555575D01*
X5879944Y5548624D01*
X5906571Y5545118D01*
X5933429D01*
X5960056Y5548624D01*
X5985998Y5555575D01*
X6010811Y5565853D01*
X6034070Y5579281D01*
X6055378Y5595631D01*
X6074369Y5614622D01*
X6090719Y5635930D01*
X6104147Y5659189D01*
X6114425Y5684002D01*
X6121376Y5709944D01*
X6124882Y5736571D01*
Y5763429D01*
X6121376Y5790056D01*
X6114425Y5815998D01*
X6104147Y5840811D01*
X6090719Y5864070D01*
X6074369Y5885378D01*
X6055378Y5904369D01*
X6034070Y5920719D01*
X6010811Y5934147D01*
X5985998Y5944425D01*
X5960056Y5951376D01*
X5933429Y5954882D01*
D02*
G37*
G36*
X3983429Y5949882D02*
X3956571D01*
X3929944Y5946376D01*
X3904002Y5939425D01*
X3879189Y5929147D01*
X3855930Y5915719D01*
X3834622Y5899369D01*
X3815631Y5880378D01*
X3799281Y5859070D01*
X3785853Y5835811D01*
X3775575Y5810998D01*
X3768624Y5785056D01*
X3765118Y5758429D01*
Y5731571D01*
X3768624Y5704944D01*
X3775575Y5679002D01*
X3785853Y5654189D01*
X3799281Y5630930D01*
X3815631Y5609622D01*
X3834622Y5590631D01*
X3855930Y5574281D01*
X3879189Y5560853D01*
X3904002Y5550575D01*
X3929944Y5543624D01*
X3956571Y5540118D01*
X3983429D01*
X4010056Y5543624D01*
X4035998Y5550575D01*
X4060811Y5560853D01*
X4084070Y5574281D01*
X4105378Y5590631D01*
X4124369Y5609622D01*
X4140719Y5630930D01*
X4154147Y5654189D01*
X4164425Y5679002D01*
X4171376Y5704944D01*
X4174882Y5731571D01*
Y5758429D01*
X4171376Y5785056D01*
X4164425Y5810998D01*
X4154147Y5835811D01*
X4140719Y5859070D01*
X4124369Y5880378D01*
X4105378Y5899369D01*
X4084070Y5915719D01*
X4060811Y5929147D01*
X4035998Y5939425D01*
X4010056Y5946376D01*
X3983429Y5949882D01*
D02*
G37*
G36*
X4360266Y5565000D02*
X4349734D01*
X4339561Y5562274D01*
X4330439Y5557008D01*
X4322992Y5549561D01*
X4317726Y5540439D01*
X4315000Y5530266D01*
Y5519734D01*
X4317726Y5509561D01*
X4322992Y5500439D01*
X4330439Y5492992D01*
X4339561Y5487726D01*
X4349734Y5485000D01*
X4360266D01*
X4370439Y5487726D01*
X4379561Y5492992D01*
X4387008Y5500439D01*
X4392274Y5509561D01*
X4395000Y5519734D01*
Y5530266D01*
X4392274Y5540439D01*
X4387008Y5549561D01*
X4379561Y5557008D01*
X4370439Y5562274D01*
X4360266Y5565000D01*
D02*
G37*
G36*
X5329963Y5554645D02*
X5320748D01*
X5311846Y5552260D01*
X5303865Y5547652D01*
X5297348Y5541135D01*
X5292740Y5533154D01*
X5290355Y5524252D01*
Y5515037D01*
X5292740Y5506135D01*
X5297348Y5498154D01*
X5303865Y5491638D01*
X5311846Y5487030D01*
X5320748Y5484645D01*
X5329963D01*
X5338865Y5487030D01*
X5346846Y5491638D01*
X5353362Y5498154D01*
X5357970Y5506135D01*
X5360355Y5515037D01*
Y5524252D01*
X5357970Y5533154D01*
X5353362Y5541135D01*
X5346846Y5547652D01*
X5338865Y5552260D01*
X5329963Y5554645D01*
D02*
G37*
G36*
X4645204Y5509528D02*
X4634796D01*
X4624743Y5506834D01*
X4615730Y5501630D01*
X4608370Y5494270D01*
X4603166Y5485257D01*
X4600472Y5475204D01*
Y5464796D01*
X4603166Y5454743D01*
X4608370Y5445730D01*
X4615730Y5438370D01*
X4624743Y5433166D01*
X4634796Y5430472D01*
X4645204D01*
X4655257Y5433166D01*
X4664270Y5438370D01*
X4671630Y5445730D01*
X4676834Y5454743D01*
X4679528Y5464796D01*
Y5475204D01*
X4676834Y5485257D01*
X4671630Y5494270D01*
X4664270Y5501630D01*
X4655257Y5506834D01*
X4645204Y5509528D01*
D02*
G37*
G36*
X4545204D02*
X4534796D01*
X4524743Y5506834D01*
X4515730Y5501630D01*
X4508370Y5494270D01*
X4503166Y5485257D01*
X4500472Y5475204D01*
Y5464796D01*
X4503166Y5454743D01*
X4508370Y5445730D01*
X4515730Y5438370D01*
X4524743Y5433166D01*
X4534796Y5430472D01*
X4545204D01*
X4555257Y5433166D01*
X4564270Y5438370D01*
X4571630Y5445730D01*
X4576834Y5454743D01*
X4579528Y5464796D01*
Y5475204D01*
X4576834Y5485257D01*
X4571630Y5494270D01*
X4564270Y5501630D01*
X4555257Y5506834D01*
X4545204Y5509528D01*
D02*
G37*
G36*
X5744608Y5495000D02*
X5735392D01*
X5726490Y5492615D01*
X5718510Y5488007D01*
X5711993Y5481490D01*
X5707385Y5473510D01*
X5705000Y5464608D01*
Y5455392D01*
X5707385Y5446490D01*
X5711993Y5438510D01*
X5718510Y5431993D01*
X5726490Y5427385D01*
X5735392Y5425000D01*
X5744608D01*
X5753510Y5427385D01*
X5761490Y5431993D01*
X5768007Y5438510D01*
X5772615Y5446490D01*
X5775000Y5455392D01*
Y5464608D01*
X5772615Y5473510D01*
X5768007Y5481490D01*
X5761490Y5488007D01*
X5753510Y5492615D01*
X5744608Y5495000D01*
D02*
G37*
G36*
X4180266Y5485000D02*
X4169734D01*
X4159561Y5482274D01*
X4150439Y5477008D01*
X4142992Y5469561D01*
X4137726Y5460439D01*
X4135000Y5450266D01*
Y5439734D01*
X4137726Y5429561D01*
X4142992Y5420439D01*
X4150439Y5412992D01*
X4159561Y5407726D01*
X4169734Y5405000D01*
X4180266D01*
X4190439Y5407726D01*
X4199561Y5412992D01*
X4207008Y5420439D01*
X4212274Y5429561D01*
X4215000Y5439734D01*
Y5450266D01*
X4212274Y5460439D01*
X4207008Y5469561D01*
X4199561Y5477008D01*
X4190439Y5482274D01*
X4180266Y5485000D01*
D02*
G37*
G36*
X6041487Y5395000D02*
X6030954D01*
X6020781Y5392274D01*
X6011660Y5387008D01*
X6004212Y5379561D01*
X5998946Y5370440D01*
X5996221Y5360266D01*
Y5349734D01*
X5998946Y5339561D01*
X6004212Y5330440D01*
X6011660Y5322992D01*
X6020781Y5317726D01*
X6030954Y5315000D01*
X6041487D01*
X6051660Y5317726D01*
X6060781Y5322992D01*
X6068229Y5330440D01*
X6073495Y5339561D01*
X6076221Y5349734D01*
Y5360266D01*
X6073495Y5370440D01*
X6068229Y5379561D01*
X6060781Y5387008D01*
X6051660Y5392274D01*
X6041487Y5395000D01*
D02*
G37*
G36*
X5941487D02*
X5930954D01*
X5920781Y5392274D01*
X5911660Y5387008D01*
X5904212Y5379561D01*
X5898946Y5370440D01*
X5896221Y5360266D01*
Y5349734D01*
X5898946Y5339561D01*
X5904212Y5330440D01*
X5911660Y5322992D01*
X5920781Y5317726D01*
X5930954Y5315000D01*
X5941487D01*
X5951660Y5317726D01*
X5960781Y5322992D01*
X5968229Y5330440D01*
X5973495Y5339561D01*
X5976221Y5349734D01*
Y5360266D01*
X5973495Y5370440D01*
X5968229Y5379561D01*
X5960781Y5387008D01*
X5951660Y5392274D01*
X5941487Y5395000D01*
D02*
G37*
G36*
X5841487D02*
X5830954D01*
X5820781Y5392274D01*
X5811660Y5387008D01*
X5804212Y5379561D01*
X5798946Y5370440D01*
X5796221Y5360266D01*
Y5349734D01*
X5798946Y5339561D01*
X5804212Y5330440D01*
X5811660Y5322992D01*
X5820781Y5317726D01*
X5830954Y5315000D01*
X5841487D01*
X5851660Y5317726D01*
X5860781Y5322992D01*
X5868229Y5330440D01*
X5873495Y5339561D01*
X5876221Y5349734D01*
Y5360266D01*
X5873495Y5370440D01*
X5868229Y5379561D01*
X5860781Y5387008D01*
X5851660Y5392274D01*
X5841487Y5395000D01*
D02*
G37*
G36*
X5741487D02*
X5730954D01*
X5720781Y5392274D01*
X5711660Y5387008D01*
X5704212Y5379561D01*
X5698946Y5370440D01*
X5696221Y5360266D01*
Y5349734D01*
X5698946Y5339561D01*
X5704212Y5330440D01*
X5711660Y5322992D01*
X5720781Y5317726D01*
X5730954Y5315000D01*
X5741487D01*
X5751660Y5317726D01*
X5760781Y5322992D01*
X5768229Y5330440D01*
X5773495Y5339561D01*
X5776221Y5349734D01*
Y5360266D01*
X5773495Y5370440D01*
X5768229Y5379561D01*
X5760781Y5387008D01*
X5751660Y5392274D01*
X5741487Y5395000D01*
D02*
G37*
G36*
X5641487D02*
X5630954D01*
X5620781Y5392274D01*
X5611660Y5387008D01*
X5604212Y5379561D01*
X5598946Y5370440D01*
X5596221Y5360266D01*
Y5349734D01*
X5598946Y5339561D01*
X5604212Y5330440D01*
X5611660Y5322992D01*
X5620781Y5317726D01*
X5630954Y5315000D01*
X5641487D01*
X5651660Y5317726D01*
X5660781Y5322992D01*
X5668229Y5330440D01*
X5673495Y5339561D01*
X5676221Y5349734D01*
Y5360266D01*
X5673495Y5370440D01*
X5668229Y5379561D01*
X5660781Y5387008D01*
X5651660Y5392274D01*
X5641487Y5395000D01*
D02*
G37*
G36*
X5541487D02*
X5530954D01*
X5520781Y5392274D01*
X5511660Y5387008D01*
X5504212Y5379561D01*
X5498946Y5370440D01*
X5496221Y5360266D01*
Y5349734D01*
X5498946Y5339561D01*
X5504212Y5330440D01*
X5511660Y5322992D01*
X5520781Y5317726D01*
X5530954Y5315000D01*
X5541487D01*
X5551660Y5317726D01*
X5560781Y5322992D01*
X5568229Y5330440D01*
X5573495Y5339561D01*
X5576221Y5349734D01*
Y5360266D01*
X5573495Y5370440D01*
X5568229Y5379561D01*
X5560781Y5387008D01*
X5551660Y5392274D01*
X5541487Y5395000D01*
D02*
G37*
G36*
X5441487D02*
X5430954D01*
X5420781Y5392274D01*
X5411660Y5387008D01*
X5404212Y5379561D01*
X5398946Y5370440D01*
X5396221Y5360266D01*
Y5349734D01*
X5398946Y5339561D01*
X5404212Y5330440D01*
X5411660Y5322992D01*
X5420781Y5317726D01*
X5430954Y5315000D01*
X5441487D01*
X5451660Y5317726D01*
X5460781Y5322992D01*
X5468229Y5330440D01*
X5473495Y5339561D01*
X5476221Y5349734D01*
Y5360266D01*
X5473495Y5370440D01*
X5468229Y5379561D01*
X5460781Y5387008D01*
X5451660Y5392274D01*
X5441487Y5395000D01*
D02*
G37*
G36*
X5341487D02*
X5330954D01*
X5320781Y5392274D01*
X5311660Y5387008D01*
X5304212Y5379561D01*
X5298946Y5370440D01*
X5296221Y5360266D01*
Y5349734D01*
X5298946Y5339561D01*
X5304212Y5330440D01*
X5311660Y5322992D01*
X5320781Y5317726D01*
X5330954Y5315000D01*
X5341487D01*
X5351660Y5317726D01*
X5360781Y5322992D01*
X5368229Y5330440D01*
X5373495Y5339561D01*
X5376221Y5349734D01*
Y5360266D01*
X5373495Y5370440D01*
X5368229Y5379561D01*
X5360781Y5387008D01*
X5351660Y5392274D01*
X5341487Y5395000D01*
D02*
G37*
G36*
X5241487D02*
X5230954D01*
X5220781Y5392274D01*
X5211660Y5387008D01*
X5204212Y5379561D01*
X5198946Y5370440D01*
X5196221Y5360266D01*
Y5349734D01*
X5198946Y5339561D01*
X5204212Y5330440D01*
X5211660Y5322992D01*
X5220781Y5317726D01*
X5230954Y5315000D01*
X5241487D01*
X5251660Y5317726D01*
X5260781Y5322992D01*
X5268229Y5330440D01*
X5273495Y5339561D01*
X5276221Y5349734D01*
Y5360266D01*
X5273495Y5370440D01*
X5268229Y5379561D01*
X5260781Y5387008D01*
X5251660Y5392274D01*
X5241487Y5395000D01*
D02*
G37*
G36*
X5141487D02*
X5130954D01*
X5120781Y5392274D01*
X5111660Y5387008D01*
X5104212Y5379561D01*
X5098946Y5370440D01*
X5096221Y5360266D01*
Y5349734D01*
X5098946Y5339561D01*
X5104212Y5330440D01*
X5111660Y5322992D01*
X5120781Y5317726D01*
X5130954Y5315000D01*
X5141487D01*
X5151660Y5317726D01*
X5160781Y5322992D01*
X5168229Y5330440D01*
X5173495Y5339561D01*
X5176221Y5349734D01*
Y5360266D01*
X5173495Y5370440D01*
X5168229Y5379561D01*
X5160781Y5387008D01*
X5151660Y5392274D01*
X5141487Y5395000D01*
D02*
G37*
G36*
X4995000Y6951748D02*
X4710000D01*
X4706098Y6950971D01*
X4702790Y6948761D01*
X4700580Y6945453D01*
X4699804Y6941552D01*
Y6625156D01*
X4700170Y6623315D01*
X4700496Y6621465D01*
X4700558Y6621368D01*
X4700580Y6621254D01*
X4701623Y6619693D01*
X4702632Y6618109D01*
X4706057Y6614528D01*
X4706151Y6614462D01*
X4706215Y6614366D01*
X4707778Y6613321D01*
X4709315Y6612244D01*
X4709427Y6612219D01*
X4709523Y6612155D01*
X4711365Y6611789D01*
X4713198Y6611382D01*
X4713425Y6606599D01*
Y6563401D01*
X4713198Y6558618D01*
X4711365Y6558211D01*
X4709523Y6557845D01*
X4709427Y6557781D01*
X4709315Y6557756D01*
X4707778Y6556679D01*
X4706215Y6555634D01*
X4706151Y6555538D01*
X4706057Y6555472D01*
X4702632Y6551891D01*
X4701623Y6550307D01*
X4700580Y6548746D01*
X4700558Y6548632D01*
X4700496Y6548535D01*
X4700170Y6546685D01*
X4699804Y6544844D01*
Y6412528D01*
X4700064Y6411220D01*
X4700151Y6409889D01*
X4700449Y6409286D01*
X4700580Y6408626D01*
X4701321Y6407517D01*
X4701911Y6406321D01*
X4702321Y6405961D01*
X4702441Y6405842D01*
X4702790Y6405318D01*
X4703270Y6401097D01*
X4702992Y6399560D01*
X4697726Y6390439D01*
X4695000Y6380266D01*
Y6369734D01*
X4697726Y6359561D01*
X4702992Y6350440D01*
X4703270Y6348902D01*
X4702790Y6344682D01*
X4702441Y6344158D01*
X4702321Y6344039D01*
X4701911Y6343679D01*
X4701321Y6342483D01*
X4700580Y6341374D01*
X4700449Y6340714D01*
X4700151Y6340111D01*
X4700064Y6338780D01*
X4699804Y6337472D01*
Y6296351D01*
X4700064Y6295042D01*
X4700152Y6293712D01*
X4700449Y6293109D01*
X4700580Y6292449D01*
X4701322Y6291340D01*
X4701911Y6290144D01*
X4702417Y6289700D01*
X4702790Y6289141D01*
X4703900Y6288400D01*
X4704705Y6287694D01*
X4704990Y6286746D01*
X4705227Y6285000D01*
X4704990Y6283254D01*
X4704705Y6282306D01*
X4703899Y6281600D01*
X4702790Y6280859D01*
X4702417Y6280300D01*
X4701911Y6279856D01*
X4701321Y6278660D01*
X4700580Y6277551D01*
X4700449Y6276892D01*
X4700151Y6276288D01*
X4700064Y6274957D01*
X4699804Y6273649D01*
Y5502433D01*
X4700580Y5498532D01*
X4702790Y5495224D01*
X4706098Y5493014D01*
X4704899Y5488259D01*
X4703166Y5485257D01*
X4700472Y5475204D01*
Y5464796D01*
X4703166Y5454743D01*
X4704899Y5451741D01*
X4706098Y5446986D01*
X4702790Y5444776D01*
X4700580Y5441468D01*
X4699804Y5437567D01*
Y5391823D01*
X4700064Y5390515D01*
X4700151Y5389184D01*
X4700449Y5388581D01*
X4700580Y5387922D01*
X4701321Y5386812D01*
X4701911Y5385616D01*
X4702417Y5385173D01*
X4702790Y5384614D01*
X4704212Y5379561D01*
X4698946Y5370440D01*
X4696221Y5360266D01*
Y5349734D01*
X4698946Y5339561D01*
X4704212Y5330440D01*
X4702790Y5325386D01*
X4702417Y5324827D01*
X4701911Y5324384D01*
X4701321Y5323188D01*
X4700580Y5322079D01*
X4700449Y5321419D01*
X4700151Y5320816D01*
X4700064Y5319485D01*
X4699804Y5318177D01*
Y4791823D01*
X4700064Y4790515D01*
X4700151Y4789184D01*
X4700449Y4788581D01*
X4700580Y4787922D01*
X4701321Y4786812D01*
X4701911Y4785616D01*
X4702417Y4785173D01*
X4702790Y4784614D01*
X4704212Y4779561D01*
X4698946Y4770440D01*
X4696221Y4760266D01*
Y4749734D01*
X4698946Y4739561D01*
X4704212Y4730440D01*
X4702790Y4725386D01*
X4702417Y4724827D01*
X4701911Y4724384D01*
X4701321Y4723188D01*
X4700580Y4722079D01*
X4700449Y4721419D01*
X4700151Y4720816D01*
X4700064Y4719485D01*
X4699804Y4718177D01*
Y4437825D01*
X4700580Y4433923D01*
X4702790Y4430616D01*
X4706098Y4428405D01*
X4710000Y4427629D01*
X4859594D01*
X4863496Y4428405D01*
X4866803Y4430616D01*
X4873025Y4430927D01*
X5137849Y4166104D01*
Y4106662D01*
X5139789Y4096907D01*
X5145314Y4088638D01*
X5390971Y3842981D01*
X5388821Y3838060D01*
X5380883Y3835933D01*
X5372542Y3831117D01*
X5365733Y3824308D01*
X5360918Y3815968D01*
X5358425Y3806666D01*
Y3797035D01*
X5360918Y3787733D01*
X5365733Y3779393D01*
X5372542Y3772583D01*
X5380883Y3767768D01*
X5390185Y3765276D01*
X5399815D01*
X5409117Y3767768D01*
X5417458Y3772583D01*
X5424267Y3779393D01*
X5429082Y3787733D01*
X5431209Y3795671D01*
X5436131Y3797822D01*
X5445696Y3788256D01*
X5453966Y3782730D01*
X5463720Y3780790D01*
X5464926D01*
X5465733Y3779393D01*
X5472542Y3772583D01*
X5480883Y3767768D01*
X5490185Y3765276D01*
X5499815D01*
X5509117Y3767768D01*
X5517458Y3772583D01*
X5524267Y3779393D01*
X5529082Y3787733D01*
X5531575Y3797035D01*
Y3806666D01*
X5529082Y3815968D01*
X5524267Y3824308D01*
X5517458Y3831117D01*
X5509117Y3835933D01*
X5499815Y3838425D01*
X5490185D01*
X5480883Y3835933D01*
X5474057Y3831992D01*
X5236048Y4070000D01*
X5238119Y4075000D01*
X5244608D01*
X5253510Y4077385D01*
X5261490Y4081993D01*
X5268007Y4088510D01*
X5272615Y4096490D01*
X5275000Y4105392D01*
Y4114608D01*
X5272615Y4123510D01*
X5268007Y4131490D01*
X5261490Y4138007D01*
X5253510Y4142615D01*
X5244608Y4145000D01*
X5235392D01*
X5226490Y4142615D01*
X5218510Y4138007D01*
X5211993Y4131490D01*
X5207385Y4123510D01*
X5205000Y4114608D01*
Y4108119D01*
X5200000Y4106048D01*
X5188828Y4117220D01*
Y4176662D01*
X5186888Y4186416D01*
X5181362Y4194686D01*
X4953038Y4423010D01*
X4954952Y4427629D01*
X4995000D01*
X4998902Y4428405D01*
X5002210Y4430616D01*
X5004420Y4433923D01*
X5005196Y4437825D01*
Y4722923D01*
X5009815Y4724837D01*
X5011660Y4722992D01*
X5020781Y4717726D01*
X5030954Y4715000D01*
X5041487D01*
X5051660Y4717726D01*
X5060781Y4722992D01*
X5068229Y4730440D01*
X5073495Y4739561D01*
X5076221Y4749734D01*
Y4760266D01*
X5073495Y4770440D01*
X5068229Y4779561D01*
X5060781Y4787008D01*
X5051660Y4792274D01*
X5041487Y4795000D01*
X5030954D01*
X5020781Y4792274D01*
X5011660Y4787008D01*
X5009815Y4785163D01*
X5005196Y4787077D01*
Y5322923D01*
X5009815Y5324837D01*
X5011660Y5322992D01*
X5020781Y5317726D01*
X5030954Y5315000D01*
X5041487D01*
X5051660Y5317726D01*
X5060781Y5322992D01*
X5068229Y5330440D01*
X5073495Y5339561D01*
X5076221Y5349734D01*
Y5360266D01*
X5073495Y5370440D01*
X5068229Y5379561D01*
X5060781Y5387008D01*
X5051660Y5392274D01*
X5041487Y5395000D01*
X5030954D01*
X5020781Y5392274D01*
X5011660Y5387008D01*
X5009815Y5385163D01*
X5005196Y5387077D01*
Y5430472D01*
X5079528D01*
Y5509528D01*
X5005196D01*
Y6369437D01*
X5004936Y6370745D01*
X5004849Y6372076D01*
X5004551Y6372679D01*
X5004420Y6373339D01*
X5003679Y6374448D01*
X5003089Y6375644D01*
X5002766Y6379191D01*
X5003232Y6381322D01*
X5003543Y6381896D01*
X5004082Y6382435D01*
X5008690Y6390416D01*
X5011075Y6399317D01*
Y6408533D01*
X5008690Y6417435D01*
X5004082Y6425416D01*
X5003543Y6425954D01*
X5003232Y6426528D01*
X5002766Y6428659D01*
X5003089Y6432207D01*
X5003679Y6433402D01*
X5004420Y6434511D01*
X5004551Y6435171D01*
X5004849Y6435774D01*
X5004936Y6437105D01*
X5005196Y6438413D01*
Y6725000D01*
X5004947Y6726254D01*
X5010439Y6727726D01*
X5019561Y6732992D01*
X5027008Y6740439D01*
X5032274Y6749561D01*
X5035000Y6759734D01*
Y6770266D01*
X5032274Y6780439D01*
X5027008Y6789561D01*
X5019561Y6797008D01*
X5010439Y6802274D01*
X5004947Y6803746D01*
X5005196Y6805000D01*
Y6941552D01*
X5004420Y6945453D01*
X5002210Y6948761D01*
X4998902Y6950971D01*
X4995000Y6951748D01*
D02*
G37*
G36*
X4641487Y5395000D02*
X4630954D01*
X4620781Y5392274D01*
X4611660Y5387008D01*
X4604212Y5379561D01*
X4598946Y5370440D01*
X4596221Y5360266D01*
Y5349734D01*
X4598946Y5339561D01*
X4604212Y5330440D01*
X4611660Y5322992D01*
X4620781Y5317726D01*
X4630954Y5315000D01*
X4641487D01*
X4651660Y5317726D01*
X4660781Y5322992D01*
X4668229Y5330440D01*
X4673495Y5339561D01*
X4676221Y5349734D01*
Y5360266D01*
X4673495Y5370440D01*
X4668229Y5379561D01*
X4660781Y5387008D01*
X4651660Y5392274D01*
X4641487Y5395000D01*
D02*
G37*
G36*
X6141813Y5397480D02*
X6130628D01*
X6119824Y5394586D01*
X6110137Y5388993D01*
X6102228Y5381084D01*
X6096635Y5371397D01*
X6093740Y5360593D01*
Y5349408D01*
X6096635Y5338603D01*
X6102228Y5328917D01*
X6110137Y5321007D01*
X6119824Y5315415D01*
X6130628Y5312520D01*
X6141813D01*
X6152617Y5315415D01*
X6162304Y5321007D01*
X6170213Y5328917D01*
X6175806Y5338603D01*
X6178701Y5349408D01*
Y5360593D01*
X6175806Y5371397D01*
X6170213Y5381084D01*
X6162304Y5388993D01*
X6152617Y5394586D01*
X6141813Y5397480D01*
D02*
G37*
G36*
X4541813D02*
X4530628D01*
X4519824Y5394586D01*
X4510137Y5388993D01*
X4502228Y5381084D01*
X4496635Y5371397D01*
X4493740Y5360593D01*
Y5349408D01*
X4496635Y5338603D01*
X4502228Y5328917D01*
X4510137Y5321007D01*
X4519824Y5315415D01*
X4530628Y5312520D01*
X4541813D01*
X4552617Y5315415D01*
X4562304Y5321007D01*
X4570213Y5328917D01*
X4575806Y5338603D01*
X4578701Y5349408D01*
Y5360593D01*
X4575806Y5371397D01*
X4570213Y5381084D01*
X4562304Y5388993D01*
X4552617Y5394586D01*
X4541813Y5397480D01*
D02*
G37*
G36*
X3940266Y5345000D02*
X3929734D01*
X3919561Y5342274D01*
X3910439Y5337008D01*
X3902992Y5329561D01*
X3897726Y5320439D01*
X3895000Y5310266D01*
Y5299734D01*
X3897726Y5289561D01*
X3902992Y5280439D01*
X3910439Y5272992D01*
X3919561Y5267726D01*
X3929734Y5265000D01*
X3940266D01*
X3950439Y5267726D01*
X3959561Y5272992D01*
X3967008Y5280439D01*
X3972274Y5289561D01*
X3975000Y5299734D01*
Y5310266D01*
X3972274Y5320439D01*
X3967008Y5329561D01*
X3959561Y5337008D01*
X3950439Y5342274D01*
X3940266Y5345000D01*
D02*
G37*
G36*
X4225563Y5260000D02*
X4215933D01*
X4206631Y5257507D01*
X4198290Y5252692D01*
X4191481Y5245883D01*
X4186666Y5237542D01*
X4184173Y5228240D01*
Y5218610D01*
X4186666Y5209308D01*
X4191481Y5200968D01*
X4198290Y5194158D01*
X4206631Y5189343D01*
X4215933Y5186850D01*
X4225563D01*
X4234865Y5189343D01*
X4243205Y5194158D01*
X4250015Y5200968D01*
X4254830Y5209308D01*
X4257323Y5218610D01*
Y5228240D01*
X4254830Y5237542D01*
X4250015Y5245883D01*
X4243205Y5252692D01*
X4234865Y5257507D01*
X4225563Y5260000D01*
D02*
G37*
G36*
Y5160000D02*
X4215933D01*
X4206631Y5157507D01*
X4198290Y5152692D01*
X4191481Y5145883D01*
X4186666Y5137542D01*
X4184173Y5128240D01*
Y5118610D01*
X4186666Y5109308D01*
X4191481Y5100968D01*
X4198290Y5094158D01*
X4206631Y5089343D01*
X4215933Y5086850D01*
X4225563D01*
X4234865Y5089343D01*
X4243205Y5094158D01*
X4250015Y5100968D01*
X4254830Y5109308D01*
X4257323Y5118610D01*
Y5128240D01*
X4254830Y5137542D01*
X4250015Y5145883D01*
X4243205Y5152692D01*
X4234865Y5157507D01*
X4225563Y5160000D01*
D02*
G37*
G36*
Y5060000D02*
X4215933D01*
X4206631Y5057507D01*
X4198290Y5052692D01*
X4191481Y5045883D01*
X4186666Y5037542D01*
X4184173Y5028240D01*
Y5018610D01*
X4186666Y5009308D01*
X4191481Y5000968D01*
X4198290Y4994158D01*
X4206631Y4989343D01*
X4215933Y4986850D01*
X4225563D01*
X4234865Y4989343D01*
X4243205Y4994158D01*
X4250015Y5000968D01*
X4254830Y5009308D01*
X4257323Y5018610D01*
Y5028240D01*
X4254830Y5037542D01*
X4250015Y5045883D01*
X4243205Y5052692D01*
X4234865Y5057507D01*
X4225563Y5060000D01*
D02*
G37*
G36*
X4257323Y4960000D02*
X4184173D01*
Y4886850D01*
X4257323D01*
Y4960000D01*
D02*
G37*
G36*
X3935266Y4935000D02*
X3924734D01*
X3914561Y4932274D01*
X3905439Y4927008D01*
X3897992Y4919561D01*
X3892726Y4910439D01*
X3890000Y4900266D01*
Y4889734D01*
X3892726Y4879561D01*
X3897992Y4870439D01*
X3905439Y4862992D01*
X3914561Y4857726D01*
X3924734Y4855000D01*
X3935266D01*
X3945439Y4857726D01*
X3954561Y4862992D01*
X3962008Y4870439D01*
X3967274Y4879561D01*
X3970000Y4889734D01*
Y4900266D01*
X3967274Y4910439D01*
X3962008Y4919561D01*
X3954561Y4927008D01*
X3945439Y4932274D01*
X3935266Y4935000D01*
D02*
G37*
G36*
X6041487Y4795000D02*
X6030954D01*
X6020781Y4792274D01*
X6011660Y4787008D01*
X6004212Y4779561D01*
X5998946Y4770440D01*
X5996221Y4760266D01*
Y4749734D01*
X5998946Y4739561D01*
X6004212Y4730440D01*
X6011660Y4722992D01*
X6020781Y4717726D01*
X6030954Y4715000D01*
X6041487D01*
X6051660Y4717726D01*
X6060781Y4722992D01*
X6068229Y4730440D01*
X6073495Y4739561D01*
X6076221Y4749734D01*
Y4760266D01*
X6073495Y4770440D01*
X6068229Y4779561D01*
X6060781Y4787008D01*
X6051660Y4792274D01*
X6041487Y4795000D01*
D02*
G37*
G36*
X5941487D02*
X5930954D01*
X5920781Y4792274D01*
X5911660Y4787008D01*
X5904212Y4779561D01*
X5898946Y4770440D01*
X5896221Y4760266D01*
Y4749734D01*
X5898946Y4739561D01*
X5904212Y4730440D01*
X5911660Y4722992D01*
X5920781Y4717726D01*
X5930954Y4715000D01*
X5941487D01*
X5951660Y4717726D01*
X5960781Y4722992D01*
X5968229Y4730440D01*
X5973495Y4739561D01*
X5976221Y4749734D01*
Y4760266D01*
X5973495Y4770440D01*
X5968229Y4779561D01*
X5960781Y4787008D01*
X5951660Y4792274D01*
X5941487Y4795000D01*
D02*
G37*
G36*
X5841487D02*
X5830954D01*
X5820781Y4792274D01*
X5811660Y4787008D01*
X5804212Y4779561D01*
X5798946Y4770440D01*
X5796221Y4760266D01*
Y4749734D01*
X5798946Y4739561D01*
X5804212Y4730440D01*
X5811660Y4722992D01*
X5820781Y4717726D01*
X5830954Y4715000D01*
X5841487D01*
X5851660Y4717726D01*
X5860781Y4722992D01*
X5868229Y4730440D01*
X5873495Y4739561D01*
X5876221Y4749734D01*
Y4760266D01*
X5873495Y4770440D01*
X5868229Y4779561D01*
X5860781Y4787008D01*
X5851660Y4792274D01*
X5841487Y4795000D01*
D02*
G37*
G36*
X5741487D02*
X5730954D01*
X5720781Y4792274D01*
X5711660Y4787008D01*
X5704212Y4779561D01*
X5698946Y4770440D01*
X5696221Y4760266D01*
Y4749734D01*
X5698946Y4739561D01*
X5704212Y4730440D01*
X5711660Y4722992D01*
X5720781Y4717726D01*
X5730954Y4715000D01*
X5741487D01*
X5751660Y4717726D01*
X5760781Y4722992D01*
X5768229Y4730440D01*
X5773495Y4739561D01*
X5776221Y4749734D01*
Y4760266D01*
X5773495Y4770440D01*
X5768229Y4779561D01*
X5760781Y4787008D01*
X5751660Y4792274D01*
X5741487Y4795000D01*
D02*
G37*
G36*
X5641487D02*
X5630954D01*
X5620781Y4792274D01*
X5611660Y4787008D01*
X5604212Y4779561D01*
X5598946Y4770440D01*
X5596221Y4760266D01*
Y4749734D01*
X5598946Y4739561D01*
X5604212Y4730440D01*
X5611660Y4722992D01*
X5620781Y4717726D01*
X5630954Y4715000D01*
X5641487D01*
X5651660Y4717726D01*
X5660781Y4722992D01*
X5668229Y4730440D01*
X5673495Y4739561D01*
X5676221Y4749734D01*
Y4760266D01*
X5673495Y4770440D01*
X5668229Y4779561D01*
X5660781Y4787008D01*
X5651660Y4792274D01*
X5641487Y4795000D01*
D02*
G37*
G36*
X5541487D02*
X5530954D01*
X5520781Y4792274D01*
X5511660Y4787008D01*
X5504212Y4779561D01*
X5498946Y4770440D01*
X5496221Y4760266D01*
Y4749734D01*
X5498946Y4739561D01*
X5504212Y4730440D01*
X5511660Y4722992D01*
X5520781Y4717726D01*
X5530954Y4715000D01*
X5541487D01*
X5551660Y4717726D01*
X5560781Y4722992D01*
X5568229Y4730440D01*
X5573495Y4739561D01*
X5576221Y4749734D01*
Y4760266D01*
X5573495Y4770440D01*
X5568229Y4779561D01*
X5560781Y4787008D01*
X5551660Y4792274D01*
X5541487Y4795000D01*
D02*
G37*
G36*
X5441487D02*
X5430954D01*
X5420781Y4792274D01*
X5411660Y4787008D01*
X5404212Y4779561D01*
X5398946Y4770440D01*
X5396221Y4760266D01*
Y4749734D01*
X5398946Y4739561D01*
X5404212Y4730440D01*
X5411660Y4722992D01*
X5420781Y4717726D01*
X5430954Y4715000D01*
X5441487D01*
X5451660Y4717726D01*
X5460781Y4722992D01*
X5468229Y4730440D01*
X5473495Y4739561D01*
X5476221Y4749734D01*
Y4760266D01*
X5473495Y4770440D01*
X5468229Y4779561D01*
X5460781Y4787008D01*
X5451660Y4792274D01*
X5441487Y4795000D01*
D02*
G37*
G36*
X5341487D02*
X5330954D01*
X5320781Y4792274D01*
X5311660Y4787008D01*
X5304212Y4779561D01*
X5298946Y4770440D01*
X5296221Y4760266D01*
Y4749734D01*
X5298946Y4739561D01*
X5304212Y4730440D01*
X5311660Y4722992D01*
X5320781Y4717726D01*
X5330954Y4715000D01*
X5341487D01*
X5351660Y4717726D01*
X5360781Y4722992D01*
X5368229Y4730440D01*
X5373495Y4739561D01*
X5376221Y4749734D01*
Y4760266D01*
X5373495Y4770440D01*
X5368229Y4779561D01*
X5360781Y4787008D01*
X5351660Y4792274D01*
X5341487Y4795000D01*
D02*
G37*
G36*
X5241487D02*
X5230954D01*
X5220781Y4792274D01*
X5211660Y4787008D01*
X5204212Y4779561D01*
X5198946Y4770440D01*
X5196221Y4760266D01*
Y4749734D01*
X5198946Y4739561D01*
X5204212Y4730440D01*
X5211660Y4722992D01*
X5220781Y4717726D01*
X5230954Y4715000D01*
X5241487D01*
X5251660Y4717726D01*
X5260781Y4722992D01*
X5268229Y4730440D01*
X5273495Y4739561D01*
X5276221Y4749734D01*
Y4760266D01*
X5273495Y4770440D01*
X5268229Y4779561D01*
X5260781Y4787008D01*
X5251660Y4792274D01*
X5241487Y4795000D01*
D02*
G37*
G36*
X5141487D02*
X5130954D01*
X5120781Y4792274D01*
X5111660Y4787008D01*
X5104212Y4779561D01*
X5098946Y4770440D01*
X5096221Y4760266D01*
Y4749734D01*
X5098946Y4739561D01*
X5104212Y4730440D01*
X5111660Y4722992D01*
X5120781Y4717726D01*
X5130954Y4715000D01*
X5141487D01*
X5151660Y4717726D01*
X5160781Y4722992D01*
X5168229Y4730440D01*
X5173495Y4739561D01*
X5176221Y4749734D01*
Y4760266D01*
X5173495Y4770440D01*
X5168229Y4779561D01*
X5160781Y4787008D01*
X5151660Y4792274D01*
X5141487Y4795000D01*
D02*
G37*
G36*
X4641487D02*
X4630954D01*
X4620781Y4792274D01*
X4611660Y4787008D01*
X4604212Y4779561D01*
X4598946Y4770440D01*
X4596221Y4760266D01*
Y4749734D01*
X4598946Y4739561D01*
X4604212Y4730440D01*
X4611660Y4722992D01*
X4620781Y4717726D01*
X4630954Y4715000D01*
X4641487D01*
X4651660Y4717726D01*
X4660781Y4722992D01*
X4668229Y4730440D01*
X4673495Y4739561D01*
X4676221Y4749734D01*
Y4760266D01*
X4673495Y4770440D01*
X4668229Y4779561D01*
X4660781Y4787008D01*
X4651660Y4792274D01*
X4641487Y4795000D01*
D02*
G37*
G36*
X6141813Y4797480D02*
X6130628D01*
X6119824Y4794586D01*
X6110137Y4788993D01*
X6102228Y4781084D01*
X6096635Y4771397D01*
X6093740Y4760593D01*
Y4749408D01*
X6096635Y4738603D01*
X6102228Y4728917D01*
X6110137Y4721007D01*
X6119824Y4715415D01*
X6130628Y4712520D01*
X6141813D01*
X6152617Y4715415D01*
X6162304Y4721007D01*
X6170213Y4728917D01*
X6175806Y4738603D01*
X6178701Y4749408D01*
Y4760593D01*
X6175806Y4771397D01*
X6170213Y4781084D01*
X6162304Y4788993D01*
X6152617Y4794586D01*
X6141813Y4797480D01*
D02*
G37*
G36*
X4541813D02*
X4530628D01*
X4519824Y4794586D01*
X4510137Y4788993D01*
X4502228Y4781084D01*
X4496635Y4771397D01*
X4493740Y4760593D01*
Y4749408D01*
X4496635Y4738603D01*
X4502228Y4728917D01*
X4510137Y4721007D01*
X4519824Y4715415D01*
X4530628Y4712520D01*
X4541813D01*
X4552617Y4715415D01*
X4562304Y4721007D01*
X4570213Y4728917D01*
X4575806Y4738603D01*
X4578701Y4749408D01*
Y4760593D01*
X4575806Y4771397D01*
X4570213Y4781084D01*
X4562304Y4788993D01*
X4552617Y4794586D01*
X4541813Y4797480D01*
D02*
G37*
G36*
X5635204Y4674528D02*
X5624796D01*
X5614743Y4671834D01*
X5605730Y4666630D01*
X5598370Y4659270D01*
X5593166Y4650257D01*
X5590472Y4640204D01*
Y4629796D01*
X5593166Y4619743D01*
X5598370Y4610730D01*
X5605730Y4603370D01*
X5614743Y4598166D01*
X5624796Y4595472D01*
X5635204D01*
X5645257Y4598166D01*
X5654270Y4603370D01*
X5661630Y4610730D01*
X5666834Y4619743D01*
X5669528Y4629796D01*
Y4640204D01*
X5666834Y4650257D01*
X5661630Y4659270D01*
X5654270Y4666630D01*
X5645257Y4671834D01*
X5635204Y4674528D01*
D02*
G37*
G36*
X5535204D02*
X5524796D01*
X5514743Y4671834D01*
X5505730Y4666630D01*
X5498370Y4659270D01*
X5493166Y4650257D01*
X5490472Y4640204D01*
Y4629796D01*
X5493166Y4619743D01*
X5498370Y4610730D01*
X5501479Y4607621D01*
X5499410Y4603548D01*
X5498964Y4603065D01*
X5489949D01*
X5481047Y4600679D01*
X5473066Y4596072D01*
X5466550Y4589555D01*
X5461942Y4581574D01*
X5459557Y4572672D01*
Y4563457D01*
X5461942Y4554555D01*
X5466550Y4546574D01*
X5473066Y4540058D01*
X5481047Y4535450D01*
X5489949Y4533065D01*
X5499164D01*
X5508066Y4535450D01*
X5516047Y4540058D01*
X5522564Y4546574D01*
X5527172Y4554555D01*
X5529557Y4563457D01*
Y4572672D01*
X5527172Y4581574D01*
X5522564Y4589555D01*
X5520734Y4591384D01*
X5523323Y4595867D01*
X5524796Y4595472D01*
X5535204D01*
X5545257Y4598166D01*
X5554270Y4603370D01*
X5561630Y4610730D01*
X5566834Y4619743D01*
X5569528Y4629796D01*
Y4640204D01*
X5566834Y4650257D01*
X5561630Y4659270D01*
X5554270Y4666630D01*
X5545257Y4671834D01*
X5535204Y4674528D01*
D02*
G37*
G36*
X5435204D02*
X5424796D01*
X5414743Y4671834D01*
X5405730Y4666630D01*
X5398370Y4659270D01*
X5393166Y4650257D01*
X5390472Y4640204D01*
Y4629796D01*
X5393166Y4619743D01*
X5398370Y4610730D01*
X5405730Y4603370D01*
X5414743Y4598166D01*
X5424796Y4595472D01*
X5435204D01*
X5445257Y4598166D01*
X5454270Y4603370D01*
X5461630Y4610730D01*
X5466834Y4619743D01*
X5469528Y4629796D01*
Y4640204D01*
X5466834Y4650257D01*
X5461630Y4659270D01*
X5454270Y4666630D01*
X5445257Y4671834D01*
X5435204Y4674528D01*
D02*
G37*
G36*
X5335204D02*
X5324796D01*
X5314743Y4671834D01*
X5305730Y4666630D01*
X5298370Y4659270D01*
X5293166Y4650257D01*
X5290472Y4640204D01*
Y4629796D01*
X5293166Y4619743D01*
X5298370Y4610730D01*
X5305730Y4603370D01*
X5314743Y4598166D01*
X5324796Y4595472D01*
X5335204D01*
X5345257Y4598166D01*
X5354270Y4603370D01*
X5361630Y4610730D01*
X5366834Y4619743D01*
X5369528Y4629796D01*
Y4640204D01*
X5366834Y4650257D01*
X5361630Y4659270D01*
X5354270Y4666630D01*
X5345257Y4671834D01*
X5335204Y4674528D01*
D02*
G37*
G36*
X5235204D02*
X5224796D01*
X5214743Y4671834D01*
X5205730Y4666630D01*
X5198370Y4659270D01*
X5193166Y4650257D01*
X5190472Y4640204D01*
Y4629796D01*
X5193166Y4619743D01*
X5198370Y4610730D01*
X5205730Y4603370D01*
X5214743Y4598166D01*
X5224796Y4595472D01*
X5235204D01*
X5245257Y4598166D01*
X5254270Y4603370D01*
X5261630Y4610730D01*
X5266834Y4619743D01*
X5269528Y4629796D01*
Y4640204D01*
X5266834Y4650257D01*
X5261630Y4659270D01*
X5254270Y4666630D01*
X5245257Y4671834D01*
X5235204Y4674528D01*
D02*
G37*
G36*
X5169528D02*
X5090472D01*
Y4595472D01*
X5169528D01*
Y4674528D01*
D02*
G37*
G36*
X5749608Y4610000D02*
X5740392D01*
X5731490Y4607615D01*
X5723510Y4603007D01*
X5716993Y4596490D01*
X5712385Y4588510D01*
X5710000Y4579608D01*
Y4570392D01*
X5712385Y4561490D01*
X5716993Y4553510D01*
X5723510Y4546993D01*
X5731490Y4542385D01*
X5740392Y4540000D01*
X5749608D01*
X5758510Y4542385D01*
X5766490Y4546993D01*
X5773007Y4553510D01*
X5777615Y4561490D01*
X5780000Y4570392D01*
Y4579608D01*
X5777615Y4588510D01*
X5773007Y4596490D01*
X5766490Y4603007D01*
X5758510Y4607615D01*
X5749608Y4610000D01*
D02*
G37*
G36*
X5269608Y4595000D02*
X5260392D01*
X5251490Y4592615D01*
X5243510Y4588007D01*
X5236993Y4581490D01*
X5232385Y4573510D01*
X5230000Y4564608D01*
Y4555392D01*
X5232385Y4546490D01*
X5236993Y4538510D01*
X5243510Y4531993D01*
X5251490Y4527385D01*
X5260392Y4525000D01*
X5269608D01*
X5278510Y4527385D01*
X5286490Y4531993D01*
X5293007Y4538510D01*
X5297615Y4546490D01*
X5300000Y4555392D01*
Y4564608D01*
X5297615Y4573510D01*
X5293007Y4581490D01*
X5286490Y4588007D01*
X5278510Y4592615D01*
X5269608Y4595000D01*
D02*
G37*
G36*
X4038191Y4582480D02*
X4027006D01*
X4016202Y4579585D01*
X4006515Y4573993D01*
X3998606Y4566083D01*
X3993013Y4556397D01*
X3990118Y4545593D01*
Y4534407D01*
X3993013Y4523603D01*
X3998606Y4513917D01*
X4006515Y4506007D01*
X4016202Y4500415D01*
X4027006Y4497520D01*
X4038191D01*
X4048995Y4500415D01*
X4058682Y4506007D01*
X4066591Y4513917D01*
X4072184Y4523603D01*
X4075079Y4534407D01*
Y4545593D01*
X4072184Y4556397D01*
X4066591Y4566083D01*
X4058682Y4573993D01*
X4048995Y4579585D01*
X4038191Y4582480D01*
D02*
G37*
G36*
X5514608Y4425000D02*
X5505392D01*
X5496490Y4422615D01*
X5488510Y4418007D01*
X5481993Y4411490D01*
X5477385Y4403510D01*
X5475000Y4394608D01*
Y4385392D01*
X5477385Y4376490D01*
X5481993Y4368510D01*
X5488510Y4361993D01*
X5496490Y4357385D01*
X5505392Y4355000D01*
X5514608D01*
X5523510Y4357385D01*
X5531490Y4361993D01*
X5538007Y4368510D01*
X5542615Y4376490D01*
X5545000Y4385392D01*
Y4394608D01*
X5542615Y4403510D01*
X5538007Y4411490D01*
X5531490Y4418007D01*
X5523510Y4422615D01*
X5514608Y4425000D01*
D02*
G37*
G36*
X5273031Y4365490D02*
X5263276Y4363550D01*
X5255007Y4358024D01*
X5249481Y4349755D01*
X5247541Y4340000D01*
Y4310000D01*
X5248620Y4304578D01*
X5244344Y4300446D01*
X5244155Y4300490D01*
X5244101Y4300503D01*
X5243007Y4301491D01*
X5242798Y4301700D01*
X5236490Y4308007D01*
X5228510Y4312615D01*
X5219608Y4315000D01*
X5210392D01*
X5201490Y4312615D01*
X5193510Y4308007D01*
X5186993Y4301490D01*
X5182385Y4293510D01*
X5180000Y4284608D01*
Y4275392D01*
X5182385Y4266490D01*
X5186993Y4258510D01*
X5193510Y4251993D01*
X5201490Y4247385D01*
X5210392Y4245000D01*
X5219608D01*
X5228510Y4247385D01*
X5236490Y4251993D01*
X5243007Y4258510D01*
X5247615Y4266490D01*
X5250000Y4275392D01*
Y4284608D01*
X5247687Y4293239D01*
X5247615Y4293510D01*
X5247442Y4294298D01*
X5252124Y4296290D01*
X5255007Y4291976D01*
X5263276Y4286450D01*
X5273031Y4284510D01*
X5282785Y4286450D01*
X5291055Y4291976D01*
X5296581Y4300245D01*
X5298521Y4310000D01*
Y4340000D01*
X5296581Y4349755D01*
X5291055Y4358024D01*
X5282785Y4363550D01*
X5273031Y4365490D01*
D02*
G37*
G36*
X5776969D02*
X5767215Y4363550D01*
X5758945Y4358024D01*
X5753419Y4349755D01*
X5751479Y4340000D01*
Y4310000D01*
X5753419Y4300245D01*
X5758945Y4291976D01*
X5767215Y4286450D01*
X5776969Y4284510D01*
X5786724Y4286450D01*
X5794993Y4291976D01*
X5800519Y4300245D01*
X5802459Y4310000D01*
Y4340000D01*
X5800519Y4349755D01*
X5794993Y4358024D01*
X5786724Y4363550D01*
X5776969Y4365490D01*
D02*
G37*
G36*
X5409608Y4080000D02*
X5400392D01*
X5391490Y4077615D01*
X5383510Y4073007D01*
X5376993Y4066490D01*
X5372385Y4058510D01*
X5370000Y4049608D01*
Y4040392D01*
X5372385Y4031490D01*
X5376993Y4023510D01*
X5383510Y4016993D01*
X5391490Y4012385D01*
X5400392Y4010000D01*
X5409608D01*
X5418510Y4012385D01*
X5426490Y4016993D01*
X5433007Y4023510D01*
X5437615Y4031490D01*
X5440000Y4040392D01*
Y4049608D01*
X5437615Y4058510D01*
X5433007Y4066490D01*
X5426490Y4073007D01*
X5418510Y4077615D01*
X5409608Y4080000D01*
D02*
G37*
G36*
X5810266Y4075000D02*
X5799734D01*
X5789561Y4072274D01*
X5780439Y4067008D01*
X5772992Y4059561D01*
X5767726Y4050439D01*
X5765000Y4040266D01*
Y4029734D01*
X5767726Y4019561D01*
X5772992Y4010439D01*
X5780439Y4002992D01*
X5789561Y3997726D01*
X5799734Y3995000D01*
X5810266D01*
X5820439Y3997726D01*
X5829561Y4002992D01*
X5837008Y4010439D01*
X5842274Y4019561D01*
X5845000Y4029734D01*
Y4040266D01*
X5842274Y4050439D01*
X5837008Y4059561D01*
X5829561Y4067008D01*
X5820439Y4072274D01*
X5810266Y4075000D01*
D02*
G37*
G36*
X6108864Y3990000D02*
X6091136D01*
X6073748Y3986541D01*
X6057369Y3979757D01*
X6042628Y3969908D01*
X6030092Y3957372D01*
X6020243Y3942631D01*
X6013459Y3926252D01*
X6010000Y3908864D01*
Y3891136D01*
X6013459Y3873748D01*
X6020243Y3857369D01*
X6030092Y3842628D01*
X6042628Y3830092D01*
X6057369Y3820243D01*
X6073748Y3813459D01*
X6091136Y3810000D01*
X6108864D01*
X6126252Y3813459D01*
X6142631Y3820243D01*
X6157372Y3830092D01*
X6169908Y3842628D01*
X6179757Y3857369D01*
X6186541Y3873748D01*
X6190000Y3891136D01*
Y3908864D01*
X6186541Y3926252D01*
X6179757Y3942631D01*
X6169908Y3957372D01*
X6157372Y3969908D01*
X6142631Y3979757D01*
X6126252Y3986541D01*
X6108864Y3990000D01*
D02*
G37*
G36*
X5760266Y3850000D02*
X5749734D01*
X5739561Y3847274D01*
X5730439Y3842008D01*
X5722992Y3834561D01*
X5717726Y3825439D01*
X5715000Y3815266D01*
Y3804734D01*
X5717726Y3794561D01*
X5722992Y3785439D01*
X5730439Y3777992D01*
X5739561Y3772726D01*
X5749734Y3770000D01*
X5760266D01*
X5770439Y3772726D01*
X5779561Y3777992D01*
X5787008Y3785439D01*
X5792274Y3794561D01*
X5795000Y3804734D01*
Y3815266D01*
X5792274Y3825439D01*
X5787008Y3834561D01*
X5779561Y3842008D01*
X5770439Y3847274D01*
X5760266Y3850000D01*
D02*
G37*
G36*
X5599815Y3838425D02*
X5590185D01*
X5580883Y3835933D01*
X5572542Y3831117D01*
X5565733Y3824308D01*
X5560918Y3815968D01*
X5558425Y3806666D01*
Y3797035D01*
X5560918Y3787733D01*
X5565733Y3779393D01*
X5572542Y3772583D01*
X5580883Y3767768D01*
X5590185Y3765276D01*
X5599815D01*
X5609117Y3767768D01*
X5617458Y3772583D01*
X5624267Y3779393D01*
X5629082Y3787733D01*
X5631575Y3797035D01*
Y3806666D01*
X5629082Y3815968D01*
X5624267Y3824308D01*
X5617458Y3831117D01*
X5609117Y3835933D01*
X5599815Y3838425D01*
D02*
G37*
G36*
X5331575D02*
X5258425D01*
Y3765276D01*
X5331575D01*
Y3838425D01*
D02*
G37*
G36*
X4628742Y3795079D02*
X4617557D01*
X4606753Y3792184D01*
X4597066Y3786591D01*
X4589157Y3778682D01*
X4583564Y3768995D01*
X4580669Y3758191D01*
Y3747006D01*
X4583564Y3736202D01*
X4589157Y3726515D01*
X4597066Y3718606D01*
X4606753Y3713013D01*
X4617557Y3710118D01*
X4628742D01*
X4639546Y3713013D01*
X4649233Y3718606D01*
X4657142Y3726515D01*
X4662735Y3736202D01*
X4665630Y3747006D01*
Y3758191D01*
X4662735Y3768995D01*
X4657142Y3778682D01*
X4649233Y3786591D01*
X4639546Y3792184D01*
X4628742Y3795079D01*
D02*
G37*
G36*
X4235041D02*
X4223856D01*
X4213052Y3792184D01*
X4203365Y3786591D01*
X4195456Y3778682D01*
X4189863Y3768995D01*
X4186968Y3758191D01*
Y3747006D01*
X4189863Y3736202D01*
X4195456Y3726515D01*
X4203365Y3718606D01*
X4213052Y3713013D01*
X4223856Y3710118D01*
X4235041D01*
X4245846Y3713013D01*
X4255532Y3718606D01*
X4263441Y3726515D01*
X4269034Y3736202D01*
X4271929Y3747006D01*
Y3758191D01*
X4269034Y3768995D01*
X4263441Y3778682D01*
X4255532Y3786591D01*
X4245846Y3792184D01*
X4235041Y3795079D01*
D02*
G37*
G36*
X5460266Y3730000D02*
X5449734D01*
X5439561Y3727274D01*
X5430439Y3722008D01*
X5422992Y3714561D01*
X5417726Y3705439D01*
X5415000Y3695266D01*
Y3684734D01*
X5417726Y3674561D01*
X5422992Y3665439D01*
X5430439Y3657992D01*
X5439561Y3652726D01*
X5449734Y3650000D01*
X5460266D01*
X5470439Y3652726D01*
X5479561Y3657992D01*
X5487008Y3665439D01*
X5492274Y3674561D01*
X5495000Y3684734D01*
Y3695266D01*
X5492274Y3705439D01*
X5487008Y3714561D01*
X5479561Y3722008D01*
X5470439Y3727274D01*
X5460266Y3730000D01*
D02*
G37*
%LPD*%
G36*
X4995000Y6805000D02*
X4989734D01*
X4979561Y6802274D01*
X4970439Y6797008D01*
X4962992Y6789561D01*
X4957726Y6780439D01*
X4955000Y6770266D01*
Y6759734D01*
X4957726Y6749561D01*
X4962992Y6740439D01*
X4970439Y6732992D01*
X4979561Y6727726D01*
X4989734Y6725000D01*
X4995000D01*
Y6438413D01*
X4990670Y6435913D01*
X4989584Y6436540D01*
X4980683Y6438925D01*
X4971467D01*
X4962565Y6436540D01*
X4954584Y6431932D01*
X4948068Y6425416D01*
X4943460Y6417435D01*
X4941075Y6408533D01*
Y6399317D01*
X4943460Y6390416D01*
X4948068Y6382435D01*
X4954584Y6375918D01*
X4962565Y6371310D01*
X4971467Y6368925D01*
X4980683D01*
X4989584Y6371310D01*
X4990670Y6371937D01*
X4995000Y6369437D01*
Y4437825D01*
X4938223D01*
X4862970Y4513078D01*
Y4522520D01*
X4862480Y4524982D01*
Y4525000D01*
X4820000D01*
X4777520D01*
Y4497520D01*
X4812985D01*
X4813931Y4492765D01*
X4819456Y4484496D01*
X4861507Y4442445D01*
X4859594Y4437825D01*
X4710000D01*
Y4718177D01*
X4715000Y4721064D01*
X4720781Y4717726D01*
X4730954Y4715000D01*
X4741487D01*
X4751660Y4717726D01*
X4760781Y4722992D01*
X4768229Y4730440D01*
X4773495Y4739561D01*
X4776221Y4749734D01*
Y4760266D01*
X4773495Y4770440D01*
X4768229Y4779561D01*
X4760781Y4787008D01*
X4751660Y4792274D01*
X4741487Y4795000D01*
X4730954D01*
X4720781Y4792274D01*
X4715000Y4788936D01*
X4710000Y4791823D01*
Y5318177D01*
X4715000Y5321064D01*
X4720781Y5317726D01*
X4730954Y5315000D01*
X4741487D01*
X4751660Y5317726D01*
X4760781Y5322992D01*
X4768229Y5330440D01*
X4773495Y5339561D01*
X4776221Y5349734D01*
Y5360266D01*
X4773495Y5370440D01*
X4768229Y5379561D01*
X4760781Y5387008D01*
X4751660Y5392274D01*
X4741487Y5395000D01*
X4730954D01*
X4720781Y5392274D01*
X4715000Y5388936D01*
X4710000Y5391823D01*
Y5437567D01*
X4714619Y5439480D01*
X4715730Y5438370D01*
X4724743Y5433166D01*
X4734796Y5430472D01*
X4745204D01*
X4755257Y5433166D01*
X4764270Y5438370D01*
X4771630Y5445730D01*
X4776834Y5454743D01*
X4779528Y5464796D01*
Y5475204D01*
X4776834Y5485257D01*
X4771630Y5494270D01*
X4764270Y5501630D01*
X4755257Y5506834D01*
X4745204Y5509528D01*
X4734796D01*
X4724743Y5506834D01*
X4715730Y5501630D01*
X4714619Y5500520D01*
X4710000Y5502433D01*
Y6273649D01*
X4715000Y6274307D01*
X4715918Y6270883D01*
X4720733Y6262542D01*
X4727542Y6255733D01*
X4735883Y6250918D01*
X4745185Y6248425D01*
X4754815D01*
X4764117Y6250918D01*
X4772458Y6255733D01*
X4779267Y6262542D01*
X4784082Y6270883D01*
X4786575Y6280185D01*
Y6289815D01*
X4784082Y6299117D01*
X4779267Y6307458D01*
X4772458Y6314267D01*
X4764117Y6319082D01*
X4754815Y6321575D01*
X4745185D01*
X4735883Y6319082D01*
X4727542Y6314267D01*
X4720733Y6307458D01*
X4715918Y6299117D01*
X4715000Y6295693D01*
X4710000Y6296351D01*
Y6337472D01*
X4715000Y6340359D01*
X4719561Y6337726D01*
X4729734Y6335000D01*
X4740266D01*
X4750439Y6337726D01*
X4759561Y6342992D01*
X4767008Y6350439D01*
X4772274Y6359561D01*
X4775000Y6369734D01*
Y6380266D01*
X4772274Y6390439D01*
X4767008Y6399561D01*
X4759561Y6407008D01*
X4750439Y6412274D01*
X4740266Y6415000D01*
X4729734D01*
X4719561Y6412274D01*
X4715000Y6409641D01*
X4710000Y6412528D01*
Y6544844D01*
X4713425Y6548425D01*
X4715000Y6548425D01*
X4786575D01*
Y6621575D01*
X4715000D01*
X4713425Y6621575D01*
X4710000Y6625156D01*
Y6941552D01*
X4995000D01*
Y6805000D01*
D02*
G37*
%LPC*%
G36*
X4890000Y6902392D02*
Y6880000D01*
X4912392D01*
X4912274Y6880439D01*
X4907008Y6889561D01*
X4899561Y6897008D01*
X4890439Y6902274D01*
X4890000Y6902392D01*
D02*
G37*
G36*
X4860000D02*
X4859561Y6902274D01*
X4850439Y6897008D01*
X4842992Y6889561D01*
X4837726Y6880439D01*
X4837608Y6880000D01*
X4860000D01*
Y6902392D01*
D02*
G37*
G36*
X4912392Y6850000D02*
X4890000D01*
Y6827608D01*
X4890439Y6827726D01*
X4899561Y6832992D01*
X4907008Y6840439D01*
X4912274Y6849561D01*
X4912392Y6850000D01*
D02*
G37*
G36*
X4860000D02*
X4837608D01*
X4837726Y6849561D01*
X4842992Y6840439D01*
X4850439Y6832992D01*
X4859561Y6827726D01*
X4860000Y6827608D01*
Y6850000D01*
D02*
G37*
G36*
X4845266Y6705000D02*
X4834734D01*
X4824561Y6702274D01*
X4815439Y6697008D01*
X4807992Y6689561D01*
X4802726Y6680439D01*
X4800000Y6670266D01*
Y6659734D01*
X4802726Y6649561D01*
X4807992Y6640439D01*
X4815439Y6632992D01*
X4824561Y6627726D01*
X4834734Y6625000D01*
X4845266D01*
X4855439Y6627726D01*
X4864561Y6632992D01*
X4872008Y6640439D01*
X4877274Y6649561D01*
X4880000Y6659734D01*
Y6670266D01*
X4877274Y6680439D01*
X4872008Y6689561D01*
X4864561Y6697008D01*
X4855439Y6702274D01*
X4845266Y6705000D01*
D02*
G37*
G36*
X4934608Y6360000D02*
X4925392D01*
X4916490Y6357615D01*
X4908510Y6353007D01*
X4901993Y6346490D01*
X4897385Y6338510D01*
X4895000Y6329608D01*
Y6320392D01*
X4897385Y6311490D01*
X4901993Y6303510D01*
X4908510Y6296993D01*
X4916490Y6292385D01*
X4925392Y6290000D01*
X4934608D01*
X4943510Y6292385D01*
X4951490Y6296993D01*
X4958007Y6303510D01*
X4962615Y6311490D01*
X4965000Y6320392D01*
Y6329608D01*
X4962615Y6338510D01*
X4958007Y6346490D01*
X4951490Y6353007D01*
X4943510Y6357615D01*
X4934608Y6360000D01*
D02*
G37*
G36*
X4920266Y6090000D02*
X4909734D01*
X4899561Y6087274D01*
X4890439Y6082008D01*
X4882992Y6074561D01*
X4877726Y6065439D01*
X4875000Y6055266D01*
Y6044734D01*
X4877726Y6034561D01*
X4882992Y6025439D01*
X4890439Y6017992D01*
X4899561Y6012726D01*
X4909734Y6010000D01*
X4920266D01*
X4930439Y6012726D01*
X4939561Y6017992D01*
X4947008Y6025439D01*
X4952274Y6034561D01*
X4955000Y6044734D01*
Y6055266D01*
X4952274Y6065439D01*
X4947008Y6074561D01*
X4939561Y6082008D01*
X4930439Y6087274D01*
X4920266Y6090000D01*
D02*
G37*
G36*
X4775266Y6005000D02*
X4764734D01*
X4754561Y6002274D01*
X4745439Y5997008D01*
X4737992Y5989561D01*
X4732726Y5980439D01*
X4730000Y5970266D01*
Y5959734D01*
X4732726Y5949561D01*
X4737992Y5940439D01*
X4745439Y5932992D01*
X4754561Y5927726D01*
X4764734Y5925000D01*
X4775266D01*
X4785439Y5927726D01*
X4794561Y5932992D01*
X4802008Y5940439D01*
X4807274Y5949561D01*
X4810000Y5959734D01*
Y5970266D01*
X4807274Y5980439D01*
X4802008Y5989561D01*
X4794561Y5997008D01*
X4785439Y6002274D01*
X4775266Y6005000D01*
D02*
G37*
G36*
X4900266Y5945000D02*
X4889734D01*
X4879561Y5942274D01*
X4870439Y5937008D01*
X4862992Y5929561D01*
X4857726Y5920439D01*
X4855000Y5910266D01*
Y5899734D01*
X4857726Y5889561D01*
X4862992Y5880439D01*
X4870439Y5872992D01*
X4879561Y5867726D01*
X4889734Y5865000D01*
X4900266D01*
X4910439Y5867726D01*
X4919561Y5872992D01*
X4927008Y5880439D01*
X4932274Y5889561D01*
X4935000Y5899734D01*
Y5910266D01*
X4932274Y5920439D01*
X4927008Y5929561D01*
X4919561Y5937008D01*
X4910439Y5942274D01*
X4900266Y5945000D01*
D02*
G37*
G36*
X4945204Y5509528D02*
X4934796D01*
X4924743Y5506834D01*
X4915730Y5501630D01*
X4908370Y5494270D01*
X4903166Y5485257D01*
X4900472Y5475204D01*
Y5464796D01*
X4903166Y5454743D01*
X4908370Y5445730D01*
X4915730Y5438370D01*
X4924743Y5433166D01*
X4934796Y5430472D01*
X4945204D01*
X4955257Y5433166D01*
X4964270Y5438370D01*
X4971630Y5445730D01*
X4976834Y5454743D01*
X4979528Y5464796D01*
Y5475204D01*
X4976834Y5485257D01*
X4971630Y5494270D01*
X4964270Y5501630D01*
X4955257Y5506834D01*
X4945204Y5509528D01*
D02*
G37*
G36*
X4845204D02*
X4834796D01*
X4824743Y5506834D01*
X4815730Y5501630D01*
X4808370Y5494270D01*
X4803166Y5485257D01*
X4800472Y5475204D01*
Y5464796D01*
X4803166Y5454743D01*
X4808370Y5445730D01*
X4815730Y5438370D01*
X4824743Y5433166D01*
X4834796Y5430472D01*
X4845204D01*
X4855257Y5433166D01*
X4864270Y5438370D01*
X4871630Y5445730D01*
X4876834Y5454743D01*
X4879528Y5464796D01*
Y5475204D01*
X4876834Y5485257D01*
X4871630Y5494270D01*
X4864270Y5501630D01*
X4855257Y5506834D01*
X4845204Y5509528D01*
D02*
G37*
G36*
X4941487Y5395000D02*
X4930954D01*
X4920781Y5392274D01*
X4911660Y5387008D01*
X4904212Y5379561D01*
X4898946Y5370440D01*
X4896221Y5360266D01*
Y5349734D01*
X4898946Y5339561D01*
X4904212Y5330440D01*
X4911660Y5322992D01*
X4920781Y5317726D01*
X4930954Y5315000D01*
X4941487D01*
X4951660Y5317726D01*
X4960781Y5322992D01*
X4968229Y5330440D01*
X4973495Y5339561D01*
X4976221Y5349734D01*
Y5360266D01*
X4973495Y5370440D01*
X4968229Y5379561D01*
X4960781Y5387008D01*
X4951660Y5392274D01*
X4941487Y5395000D01*
D02*
G37*
G36*
X4841487D02*
X4830954D01*
X4820781Y5392274D01*
X4811660Y5387008D01*
X4804212Y5379561D01*
X4798946Y5370440D01*
X4796221Y5360266D01*
Y5349734D01*
X4798946Y5339561D01*
X4804212Y5330440D01*
X4811660Y5322992D01*
X4820781Y5317726D01*
X4830954Y5315000D01*
X4841487D01*
X4851660Y5317726D01*
X4860781Y5322992D01*
X4868229Y5330440D01*
X4873495Y5339561D01*
X4876221Y5349734D01*
Y5360266D01*
X4873495Y5370440D01*
X4868229Y5379561D01*
X4860781Y5387008D01*
X4851660Y5392274D01*
X4841487Y5395000D01*
D02*
G37*
G36*
X4941487Y4795000D02*
X4930954D01*
X4920781Y4792274D01*
X4911660Y4787008D01*
X4904212Y4779561D01*
X4898946Y4770440D01*
X4896221Y4760266D01*
Y4749734D01*
X4898946Y4739561D01*
X4904212Y4730440D01*
X4911660Y4722992D01*
X4920781Y4717726D01*
X4930954Y4715000D01*
X4941487D01*
X4951660Y4717726D01*
X4960781Y4722992D01*
X4968229Y4730440D01*
X4973495Y4739561D01*
X4976221Y4749734D01*
Y4760266D01*
X4973495Y4770440D01*
X4968229Y4779561D01*
X4960781Y4787008D01*
X4951660Y4792274D01*
X4941487Y4795000D01*
D02*
G37*
G36*
X4841487D02*
X4830954D01*
X4820781Y4792274D01*
X4811660Y4787008D01*
X4804212Y4779561D01*
X4798946Y4770440D01*
X4796221Y4760266D01*
Y4749734D01*
X4798946Y4739561D01*
X4804212Y4730440D01*
X4811660Y4722992D01*
X4820781Y4717726D01*
X4830954Y4715000D01*
X4841487D01*
X4851660Y4717726D01*
X4860781Y4722992D01*
X4868229Y4730440D01*
X4873495Y4739561D01*
X4876221Y4749734D01*
Y4760266D01*
X4873495Y4770440D01*
X4868229Y4779561D01*
X4860781Y4787008D01*
X4851660Y4792274D01*
X4841487Y4795000D01*
D02*
G37*
G36*
X4862480Y4582480D02*
X4835000D01*
Y4555000D01*
X4862480D01*
Y4582480D01*
D02*
G37*
G36*
X4805000D02*
X4777520D01*
Y4555000D01*
X4805000D01*
Y4582480D01*
D02*
G37*
%LPD*%
D19*
X4770000Y5965000D02*
D03*
X4915000Y6050000D02*
D03*
X4335000Y6375000D02*
D03*
X3935000Y5305000D02*
D03*
X4175000Y5445000D02*
D03*
X4736221Y4755000D02*
D03*
X4836221D02*
D03*
X5236221D02*
D03*
X5536221D02*
D03*
X5636221D02*
D03*
X5736221D02*
D03*
X5836221D02*
D03*
X6036221Y5355000D02*
D03*
X5936221D02*
D03*
X5836221D02*
D03*
X5436221D02*
D03*
X5336221D02*
D03*
X5236221D02*
D03*
X5036221D02*
D03*
X4636221D02*
D03*
X4736221D02*
D03*
X5636221D02*
D03*
X5536221D02*
D03*
X4636221Y4755000D02*
D03*
X4836221Y5355000D02*
D03*
X4936221D02*
D03*
X5136221D02*
D03*
X4936221Y4755000D02*
D03*
X5036221D02*
D03*
X5336221D02*
D03*
X5436221D02*
D03*
X5136221D02*
D03*
X6036221D02*
D03*
X5936221D02*
D03*
X5736221Y5355000D02*
D03*
X4605000Y5955000D02*
D03*
X5455000Y3690000D02*
D03*
X4895000Y5905000D02*
D03*
X5805000Y4035000D02*
D03*
X4405000Y7540000D02*
D03*
X4735000Y6375000D02*
D03*
X5610000Y5680000D02*
D03*
X3930000Y4895000D02*
D03*
X4515000Y7500000D02*
D03*
X4875000Y6865000D02*
D03*
X4720000Y7415000D02*
D03*
X5755000Y3810000D02*
D03*
X5450000Y7710000D02*
D03*
X5315000Y6490000D02*
D03*
X5790000Y6555000D02*
D03*
X5560000Y5845000D02*
D03*
X4995000Y6765000D02*
D03*
X4270000Y7260000D02*
D03*
X5585000Y7160000D02*
D03*
X5637695Y6020000D02*
D03*
X5005000Y7530000D02*
D03*
X4355000Y5525000D02*
D03*
X4985000Y7025000D02*
D03*
X4840000Y6665000D02*
D03*
D20*
X3880000Y6770000D02*
D03*
Y6170000D02*
D03*
Y6570000D02*
D03*
Y6370000D02*
D03*
X6000000D02*
D03*
Y6570000D02*
D03*
Y6770000D02*
D03*
Y6170000D02*
D03*
D21*
X6100000Y3900000D02*
D03*
X5600000Y7900000D02*
D03*
X4350000D02*
D03*
D22*
X4536221Y4755000D02*
D03*
Y5355000D02*
D03*
X6136221D02*
D03*
Y4755000D02*
D03*
X4623150Y3752598D02*
D03*
X4032598Y4540000D02*
D03*
X4229449Y3752598D02*
D03*
D24*
X3970000Y5745000D02*
D03*
Y7190000D02*
D03*
X5970000Y7740000D02*
D03*
X3970000Y7745000D02*
D03*
X5915000Y7190000D02*
D03*
X5920000Y5750000D02*
D03*
D25*
X4550000Y6585000D02*
D03*
X4650000Y6285000D02*
D03*
X4750000D02*
D03*
X4550000D02*
D03*
X4650000Y6585000D02*
D03*
X4220748Y5123425D02*
D03*
X4905000Y7440000D02*
D03*
X4220748Y5223425D02*
D03*
X5495000Y3801850D02*
D03*
X5395000D02*
D03*
X4220748Y5023425D02*
D03*
X5595000Y3801850D02*
D03*
X4805000Y7140000D02*
D03*
X5005000D02*
D03*
X4805000Y7440000D02*
D03*
X4905000Y7140000D02*
D03*
D26*
X4750000Y6585000D02*
D03*
X4220748Y4923425D02*
D03*
X5005000Y7440000D02*
D03*
D27*
X5776969Y4325000D02*
D03*
X5273031D02*
D03*
D28*
X5295000Y3801850D02*
D03*
D29*
X4640000Y5470000D02*
D03*
X5630000Y4635000D02*
D03*
X5530000D02*
D03*
X4540000Y5470000D02*
D03*
X5430000Y4635000D02*
D03*
X5330000D02*
D03*
X4840000Y5470000D02*
D03*
X4940000D02*
D03*
X4740000D02*
D03*
X5230000Y4635000D02*
D03*
D30*
X5150000Y6870000D02*
D03*
X5160000Y6030000D02*
D03*
X5150000Y6970000D02*
D03*
X5160000Y6130000D02*
D03*
D31*
X4820000Y4540000D02*
D03*
D32*
X5150000Y6770000D02*
D03*
X5160000Y5930000D02*
D03*
D33*
X5040000Y5470000D02*
D03*
X5130000Y4635000D02*
D03*
D34*
X4225000Y6240000D02*
D03*
X5325355Y5519645D02*
D03*
X5740000Y5460000D02*
D03*
X4340000Y6270000D02*
D03*
X5510000Y4390000D02*
D03*
X5155000Y7350000D02*
D03*
X3980000Y6055000D02*
D03*
X4455000Y5620000D02*
D03*
X4470000Y5820000D02*
D03*
X5350000Y6320000D02*
D03*
X4468849Y6457288D02*
D03*
X4280000Y5790000D02*
D03*
X5745000Y4575000D02*
D03*
X5405000Y4045000D02*
D03*
X5215000Y4280000D02*
D03*
X5505000Y7065000D02*
D03*
X4976075Y6403925D02*
D03*
X5345000Y6235000D02*
D03*
X5520000Y6135000D02*
D03*
X5240000Y4110000D02*
D03*
X4330000Y7330000D02*
D03*
X4470000Y7255000D02*
D03*
X4480000Y7345000D02*
D03*
X4540000Y7395000D02*
D03*
X4110000Y6230000D02*
D03*
X4930000Y6325000D02*
D03*
X4260000Y5609261D02*
D03*
X5265000Y4560000D02*
D03*
X5494557Y4568065D02*
D03*
X5479227Y6903154D02*
D03*
X5345000Y7370000D02*
D03*
X5145000Y7165000D02*
D03*
X5360000Y6020000D02*
D03*
D35*
X5245000Y7030000D02*
D03*
D36*
X5163338Y4106662D02*
Y4176662D01*
Y4106662D02*
X5463720Y3806280D01*
X5490571D01*
X4820000Y4540000D02*
X4837480Y4522520D01*
Y4502520D02*
X5163338Y4176662D01*
X4837480Y4502520D02*
Y4522520D01*
X5490571Y3806280D02*
X5495000Y3801850D01*
%TF.MD5,9f0772ad773f38e43dd8d7f0a148a4da*%
M02*
